<svg width="24" height="24" viewBox="0 0 24 24" fill="none" xmlns="http://www.w3.org/2000/svg">
<rect width="24" height="24" rx="5" fill="#75CDFF"/>
<path d="M17.6574 10.9407V6.70175C17.6574 6.56121 17.6033 6.42644 17.5068 6.32707C17.4104 6.2277 17.2795 6.17188 17.1432 6.17188H6.85744C6.72104 6.17188 6.59023 6.2277 6.49378 6.32707C6.39733 6.42644 6.34315 6.56121 6.34315 6.70175V10.9407C5.93396 10.9407 5.54153 11.1082 5.25219 11.4063C4.96284 11.7044 4.80029 12.1087 4.80029 12.5303V17.829H5.95744V16.7693H18.0432V17.829H19.2003V12.5303C19.2003 12.1087 19.0377 11.7044 18.7484 11.4063C18.4591 11.1082 18.0666 10.9407 17.6574 10.9407ZM11.486 10.9407H7.62886V9.88097C7.62886 9.74044 7.68305 9.60566 7.7795 9.50629C7.87594 9.40692 8.00675 9.3511 8.14315 9.3511H10.9717C11.1081 9.3511 11.2389 9.40692 11.3354 9.50629C11.4318 9.60566 11.486 9.74044 11.486 9.88097V10.9407ZM12.5146 9.88097C12.5146 9.74044 12.5688 9.60566 12.6652 9.50629C12.7617 9.40692 12.8925 9.3511 13.0289 9.3511H15.8574C15.9938 9.3511 16.1246 9.40692 16.2211 9.50629C16.3175 9.60566 16.3717 9.74044 16.3717 9.88097V10.9407H12.5146V9.88097Z" fill="#275373"/>
</svg>
