<svg width="24" height="24" viewBox="0 0 24 24" fill="none" xmlns="http://www.w3.org/2000/svg">
<rect width="24" height="24" rx="5" fill="#75CDFF"/>
<g clip-path="url(#clip0_712:508)">
<path d="M18.1722 13.5446V15.0875C18.1722 15.9928 17.8294 16.7589 17.1436 17.3857V18.9446C17.1436 19.0196 17.1195 19.0812 17.0713 19.1294C17.0231 19.1777 16.9615 19.2018 16.8865 19.2018H16.3722C16.2972 19.2018 16.2356 19.1777 16.1874 19.1294C16.1392 19.0812 16.1151 19.0196 16.1151 18.9446V17.9964C15.7776 18.1143 15.4347 18.1732 15.0865 18.1732H8.91507C8.56685 18.1732 8.224 18.1143 7.8865 17.9964V18.8803C7.8865 18.9714 7.86105 19.0477 7.81016 19.1093C7.75926 19.171 7.699 19.2018 7.62935 19.2018H7.11507C7.04542 19.2018 6.98516 19.171 6.93426 19.1093C6.88337 19.0477 6.85792 18.9714 6.85792 18.8803V17.3857C6.17221 16.7589 5.82935 15.9928 5.82935 15.0875V13.5446H18.1722ZM10.4579 10.2018C10.4579 10.2768 10.4338 10.3384 10.3856 10.3866C10.3374 10.4348 10.2758 10.4589 10.2008 10.4589C10.1258 10.4589 10.0642 10.4348 10.016 10.3866C9.96775 10.3384 9.94364 10.2768 9.94364 10.2018C9.94364 10.1268 9.96775 10.0652 10.016 10.0169C10.0642 9.96872 10.1258 9.94462 10.2008 9.94462C10.2758 9.94462 10.3374 9.96872 10.3856 10.0169C10.4338 10.0652 10.4579 10.1268 10.4579 10.2018ZM10.9722 9.68747C10.9722 9.76247 10.9481 9.82408 10.8999 9.87229C10.8517 9.92051 10.7901 9.94462 10.7151 9.94462C10.6401 9.94462 10.5785 9.92051 10.5302 9.87229C10.482 9.82408 10.4579 9.76247 10.4579 9.68747C10.4579 9.61247 10.482 9.55087 10.5302 9.50265C10.5785 9.45444 10.6401 9.43033 10.7151 9.43033C10.7901 9.43033 10.8517 9.45444 10.8999 9.50265C10.9481 9.55087 10.9722 9.61247 10.9722 9.68747ZM10.4579 9.17319C10.4579 9.24819 10.4338 9.30979 10.3856 9.35801C10.3374 9.40622 10.2758 9.43033 10.2008 9.43033C10.1258 9.43033 10.0642 9.40622 10.016 9.35801C9.96775 9.30979 9.94364 9.24819 9.94364 9.17319C9.94364 9.09819 9.96775 9.03658 10.016 8.98837C10.0642 8.94015 10.1258 8.91604 10.2008 8.91604C10.2758 8.91604 10.3374 8.94015 10.3856 8.98837C10.4338 9.03658 10.4579 9.09819 10.4579 9.17319ZM11.4865 9.17319C11.4865 9.24819 11.4624 9.30979 11.4142 9.35801C11.366 9.40622 11.3044 9.43033 11.2294 9.43033C11.1544 9.43033 11.0927 9.40622 11.0445 9.35801C10.9963 9.30979 10.9722 9.24819 10.9722 9.17319C10.9722 9.09819 10.9963 9.03658 11.0445 8.98837C11.0927 8.94015 11.1544 8.91604 11.2294 8.91604C11.3044 8.91604 11.366 8.94015 11.4142 8.98837C11.4624 9.03658 11.4865 9.09819 11.4865 9.17319ZM10.9722 8.6589C10.9722 8.7339 10.9481 8.79551 10.8999 8.84372C10.8517 8.89194 10.7901 8.91604 10.7151 8.91604C10.6401 8.91604 10.5785 8.89194 10.5302 8.84372C10.482 8.79551 10.4579 8.7339 10.4579 8.6589C10.4579 8.5839 10.482 8.52229 10.5302 8.47408C10.5785 8.42587 10.6401 8.40176 10.7151 8.40176C10.7901 8.40176 10.8517 8.42587 10.8999 8.47408C10.9481 8.52229 10.9722 8.5839 10.9722 8.6589ZM10.4579 8.14462C10.4579 8.21962 10.4338 8.28122 10.3856 8.32944C10.3374 8.37765 10.2758 8.40176 10.2008 8.40176C10.1258 8.40176 10.0642 8.37765 10.016 8.32944C9.96775 8.28122 9.94364 8.21962 9.94364 8.14462C9.94364 8.06962 9.96775 8.00801 10.016 7.95979C10.0642 7.91158 10.1258 7.88747 10.2008 7.88747C10.2758 7.88747 10.3374 7.91158 10.3856 7.95979C10.4338 8.00801 10.4579 8.06962 10.4579 8.14462ZM19.2008 12.2589V12.7732C19.2008 12.8482 19.1767 12.9098 19.1285 12.958C19.0802 13.0062 19.0186 13.0303 18.9436 13.0303H5.05792C4.98292 13.0303 4.92132 13.0062 4.8731 12.958C4.82489 12.9098 4.80078 12.8482 4.80078 12.7732V12.2589C4.80078 12.1839 4.82489 12.1223 4.8731 12.0741C4.92132 12.0259 4.98292 12.0018 5.05792 12.0018H5.82935V6.8589C5.82935 6.29104 6.03025 5.80622 6.43203 5.40444C6.83382 5.00265 7.31864 4.80176 7.8865 4.80176C8.46507 4.80176 8.95792 5.01069 9.36507 5.42854C9.6115 5.32676 9.874 5.29461 10.1526 5.33211C10.4311 5.36961 10.6802 5.47408 10.8999 5.64551L11.0767 5.46872C11.1356 5.40979 11.1945 5.40979 11.2535 5.46872L11.591 5.80622C11.6499 5.86515 11.6499 5.92408 11.591 5.98301L9.06775 8.50622C9.00882 8.56515 8.94989 8.56515 8.89096 8.50622L8.55346 8.16872C8.49453 8.10979 8.49453 8.05087 8.55346 7.99194L8.73025 7.81515C8.53739 7.56872 8.42891 7.29015 8.4048 6.97944C8.38069 6.66872 8.44364 6.37944 8.59364 6.11158C8.39542 5.92408 8.15971 5.83033 7.8865 5.83033C7.60257 5.83033 7.36016 5.93078 7.15926 6.13167C6.95837 6.33256 6.85792 6.57497 6.85792 6.8589V12.0018H18.9436C19.0186 12.0018 19.0802 12.0259 19.1285 12.0741C19.1767 12.1223 19.2008 12.1839 19.2008 12.2589ZM12.0008 8.6589C12.0008 8.7339 11.9767 8.79551 11.9285 8.84372C11.8802 8.89194 11.8186 8.91604 11.7436 8.91604C11.6686 8.91604 11.607 8.89194 11.5588 8.84372C11.5106 8.79551 11.4865 8.7339 11.4865 8.6589C11.4865 8.5839 11.5106 8.52229 11.5588 8.47408C11.607 8.42587 11.6686 8.40176 11.7436 8.40176C11.8186 8.40176 11.8802 8.42587 11.9285 8.47408C11.9767 8.52229 12.0008 8.5839 12.0008 8.6589ZM11.4865 8.14462C11.4865 8.21962 11.4624 8.28122 11.4142 8.32944C11.366 8.37765 11.3044 8.40176 11.2294 8.40176C11.1544 8.40176 11.0927 8.37765 11.0445 8.32944C10.9963 8.28122 10.9722 8.21962 10.9722 8.14462C10.9722 8.06962 10.9963 8.00801 11.0445 7.95979C11.0927 7.91158 11.1544 7.88747 11.2294 7.88747C11.3044 7.88747 11.366 7.91158 11.4142 7.95979C11.4624 8.00801 11.4865 8.06962 11.4865 8.14462ZM10.9722 7.63033C10.9722 7.70533 10.9481 7.76694 10.8999 7.81515C10.8517 7.86337 10.7901 7.88747 10.7151 7.88747C10.6401 7.88747 10.5785 7.86337 10.5302 7.81515C10.482 7.76694 10.4579 7.70533 10.4579 7.63033C10.4579 7.55533 10.482 7.49372 10.5302 7.44551C10.5785 7.39729 10.6401 7.37319 10.7151 7.37319C10.7901 7.37319 10.8517 7.39729 10.8999 7.44551C10.9481 7.49372 10.9722 7.55533 10.9722 7.63033ZM12.5151 8.14462C12.5151 8.21962 12.491 8.28122 12.4427 8.32944C12.3945 8.37765 12.3329 8.40176 12.2579 8.40176C12.1829 8.40176 12.1213 8.37765 12.0731 8.32944C12.0249 8.28122 12.0008 8.21962 12.0008 8.14462C12.0008 8.06962 12.0249 8.00801 12.0731 7.95979C12.1213 7.91158 12.1829 7.88747 12.2579 7.88747C12.3329 7.88747 12.3945 7.91158 12.4427 7.95979C12.491 8.00801 12.5151 8.06962 12.5151 8.14462ZM12.0008 7.63033C12.0008 7.70533 11.9767 7.76694 11.9285 7.81515C11.8802 7.86337 11.8186 7.88747 11.7436 7.88747C11.6686 7.88747 11.607 7.86337 11.5588 7.81515C11.5106 7.76694 11.4865 7.70533 11.4865 7.63033C11.4865 7.55533 11.5106 7.49372 11.5588 7.44551C11.607 7.39729 11.6686 7.37319 11.7436 7.37319C11.8186 7.37319 11.8802 7.39729 11.9285 7.44551C11.9767 7.49372 12.0008 7.55533 12.0008 7.63033ZM11.4865 7.11604C11.4865 7.19104 11.4624 7.25265 11.4142 7.30087C11.366 7.34908 11.3044 7.37319 11.2294 7.37319C11.1544 7.37319 11.0927 7.34908 11.0445 7.30087C10.9963 7.25265 10.9722 7.19104 10.9722 7.11604C10.9722 7.04104 10.9963 6.97944 11.0445 6.93122C11.0927 6.88301 11.1544 6.8589 11.2294 6.8589C11.3044 6.8589 11.366 6.88301 11.4142 6.93122C11.4624 6.97944 11.4865 7.04104 11.4865 7.11604ZM13.0294 7.63033C13.0294 7.70533 13.0052 7.76694 12.957 7.81515C12.9088 7.86337 12.8472 7.88747 12.7722 7.88747C12.6972 7.88747 12.6356 7.86337 12.5874 7.81515C12.5392 7.76694 12.5151 7.70533 12.5151 7.63033C12.5151 7.55533 12.5392 7.49372 12.5874 7.44551C12.6356 7.39729 12.6972 7.37319 12.7722 7.37319C12.8472 7.37319 12.9088 7.39729 12.957 7.44551C13.0052 7.49372 13.0294 7.55533 13.0294 7.63033ZM12.5151 7.11604C12.5151 7.19104 12.491 7.25265 12.4427 7.30087C12.3945 7.34908 12.3329 7.37319 12.2579 7.37319C12.1829 7.37319 12.1213 7.34908 12.0731 7.30087C12.0249 7.25265 12.0008 7.19104 12.0008 7.11604C12.0008 7.04104 12.0249 6.97944 12.0731 6.93122C12.1213 6.88301 12.1829 6.8589 12.2579 6.8589C12.3329 6.8589 12.3945 6.88301 12.4427 6.93122C12.491 6.97944 12.5151 7.04104 12.5151 7.11604ZM13.5436 7.11604C13.5436 7.19104 13.5195 7.25265 13.4713 7.30087C13.4231 7.34908 13.3615 7.37319 13.2865 7.37319C13.2115 7.37319 13.1499 7.34908 13.1017 7.30087C13.0535 7.25265 13.0294 7.19104 13.0294 7.11604C13.0294 7.04104 13.0535 6.97944 13.1017 6.93122C13.1499 6.88301 13.2115 6.8589 13.2865 6.8589C13.3615 6.8589 13.4231 6.88301 13.4713 6.93122C13.5195 6.97944 13.5436 7.04104 13.5436 7.11604Z" fill="#275373"/>
</g>
<defs>
<clipPath id="clip0_712:508">
<rect width="14.4" height="14.4" fill="white" transform="translate(4.80078 4.80176)"/>
</clipPath>
</defs>
</svg>
