<svg width="449" height="353" viewBox="0 0 449 353" fill="none" xmlns="http://www.w3.org/2000/svg">
<path d="M85.3383 3.96934L78.0203 8.15104C78.0203 7.82696 78.0831 7.50288 78.0831 7.18925V5.0984C78.0831 1.35577 75.4486 -0.128738 72.2078 1.71121C70.8091 2.56484 69.6139 3.71371 68.7056 5.07748C68.1724 0.362613 64.5239 -1.3937 59.9867 1.19896C55.136 4.0007 51.1947 10.8169 51.1947 16.4308V19.5671C51.1798 20.8468 51.4588 22.1129 52.0101 23.2679L45.978 26.7492C45.0293 27.368 44.2396 28.2015 43.673 29.1823C43.1063 30.163 42.7786 31.2635 42.7163 32.3945C42.7163 34.4853 44.1799 35.3217 45.978 34.2762L85.3383 11.4964C86.2876 10.8782 87.0777 10.0448 87.6445 9.06392C88.2112 8.08302 88.5386 6.98228 88.6001 5.8511C88.621 3.78115 87.1574 2.93436 85.3383 3.96934Z" fill="#EBEBEB"/>
<path d="M116.461 25.1497L110.972 28.2859C110.988 28.0422 110.988 27.7978 110.972 27.5541V25.9965C110.972 23.1738 108.986 22.0238 106.54 23.4352C105.488 24.0844 104.586 24.9504 103.895 25.9755C103.498 22.4211 100.706 21.1039 97.3192 23.0588C95.3845 24.3166 93.7745 26.014 92.6208 28.0125C91.4671 30.011 90.8023 32.2541 90.6807 34.5585V36.9316C90.6601 37.8822 90.853 38.8254 91.2453 39.6915L86.6872 42.3156C85.9716 42.7837 85.3763 43.4139 84.9495 44.1549C84.5227 44.8959 84.2764 45.727 84.2305 46.5809C84.2305 48.149 85.3282 48.7867 86.6872 48.0027L116.409 30.8368C117.124 30.3708 117.719 29.7427 118.146 29.0033C118.573 28.264 118.82 27.4344 118.865 26.5819C118.918 25.0033 117.82 24.3656 116.461 25.1497Z" fill="#EBEBEB"/>
<path d="M410.205 53.6584L404.716 56.7947C404.731 56.551 404.731 56.3066 404.716 56.0629V54.4739C404.716 51.6512 402.73 50.5013 400.284 51.923C399.227 52.5662 398.324 53.4334 397.639 54.4634C397.241 50.909 394.502 49.5813 391.063 51.5362C389.13 52.7951 387.522 54.4931 386.37 56.4915C385.218 58.49 384.555 60.7324 384.435 63.0359V65.409C384.408 66.3591 384.598 67.3028 384.989 68.1689L380.441 70.793C379.724 71.2606 379.127 71.8904 378.699 72.6313C378.27 73.3723 378.022 74.2037 377.974 75.0583C377.974 76.6264 379.082 77.2641 380.441 76.4801L410.163 59.3142C410.878 58.8483 411.473 58.2201 411.9 57.4808C412.327 56.7414 412.574 55.9118 412.62 55.0593C412.661 53.5121 411.564 52.8744 410.205 53.6584Z" fill="#EBEBEB"/>
<path d="M82.5677 155.452L1.03491 202.527V206.447L75.7724 249.592L157.305 202.527V198.607L82.5677 155.452Z" fill="#4D7589"/>
<path opacity="0.15" d="M1.03491 202.527L75.7724 245.672V249.592L1.03491 206.447V202.527Z" fill="black"/>
<path opacity="0.1" d="M75.7725 245.672L157.305 198.607V202.527L75.7725 249.592V245.672Z" fill="black"/>
<path d="M150.051 184.452L146.829 190.8L147.351 191.065L150.573 184.717L150.051 184.452Z" fill="#455A64"/>
<path d="M144.095 183.954L143.598 184.262L146.74 189.338L147.237 189.03L144.095 183.954Z" fill="#455A64"/>
<path d="M147.583 183.364V198.669C147.58 198.712 147.567 198.753 147.543 198.788C147.519 198.823 147.485 198.851 147.447 198.868C147.341 198.925 147.222 198.955 147.102 198.955C146.981 198.955 146.863 198.925 146.757 198.868C146.716 198.852 146.681 198.825 146.655 198.79C146.629 198.755 146.613 198.713 146.61 198.669V183.364H147.583Z" fill="#455A64"/>
<path d="M159.156 178.608C159.156 180.014 158.739 181.388 157.957 182.557C157.176 183.726 156.066 184.637 154.767 185.176C153.468 185.714 152.039 185.854 150.66 185.58C149.281 185.306 148.014 184.629 147.02 183.635C146.026 182.64 145.349 181.374 145.074 179.995C144.8 178.616 144.941 177.186 145.479 175.887C146.017 174.588 146.928 173.478 148.097 172.697C149.266 171.916 150.641 171.499 152.047 171.499C153.931 171.502 155.738 172.251 157.07 173.584C158.403 174.917 159.153 176.723 159.156 178.608Z" fill="#4D7589"/>
<path opacity="0.2" d="M154.274 176.789C155.194 173.903 156.166 172.774 155.549 172.419C154.372 171.751 153.028 171.433 151.676 171.502C150.325 171.571 149.021 172.025 147.918 172.81C146.815 173.595 145.959 174.678 145.451 175.932C144.943 177.187 144.804 178.561 145.049 179.892C145.295 181.223 145.916 182.456 146.838 183.447C147.761 184.437 148.947 185.144 150.257 185.483C151.567 185.823 152.947 185.781 154.235 185.363C155.522 184.945 156.664 184.168 157.525 183.124C155.382 183.741 153.082 180.531 154.274 176.789Z" fill="black"/>
<path d="M145.847 180.615C145.847 181.603 145.554 182.569 145.005 183.391C144.456 184.213 143.676 184.853 142.762 185.232C141.849 185.61 140.845 185.709 139.875 185.516C138.906 185.323 138.016 184.847 137.317 184.148C136.618 183.45 136.142 182.559 135.949 181.59C135.756 180.621 135.855 179.616 136.233 178.703C136.612 177.79 137.252 177.009 138.074 176.46C138.896 175.911 139.862 175.618 140.85 175.618C142.175 175.618 143.447 176.144 144.384 177.081C145.321 178.019 145.847 179.29 145.847 180.615Z" fill="#4D7589"/>
<path opacity="0.2" d="M140.85 175.618C139.802 175.618 138.78 175.951 137.933 176.569C137.797 179.611 140.39 182.591 139.658 183.594C138.926 184.598 137.16 183.981 136.522 183.124C136.962 183.882 137.594 184.511 138.355 184.948C139.115 185.385 139.977 185.614 140.854 185.612C141.73 185.61 142.591 185.378 143.35 184.938C144.109 184.498 144.738 183.867 145.175 183.107C145.612 182.347 145.842 181.485 145.841 180.608C145.839 179.731 145.608 178.87 145.168 178.111C144.729 177.352 144.098 176.722 143.338 176.285C142.578 175.847 141.716 175.617 140.84 175.618H140.85Z" fill="black"/>
<path d="M147.102 184.399C152.165 184.399 156.27 180.295 156.27 175.231C156.27 170.167 152.165 166.063 147.102 166.063C142.038 166.063 137.933 170.167 137.933 175.231C137.933 180.295 142.038 184.399 147.102 184.399Z" fill="#4D7589"/>
<path opacity="0.1" d="M156.019 177.322C155.673 178.806 154.962 180.181 153.951 181.322C152.94 182.462 151.66 183.333 150.228 183.855C148.796 184.376 147.256 184.533 145.748 184.309C144.24 184.086 142.812 183.491 141.592 182.577C140.372 181.662 139.4 180.459 138.762 179.074C138.125 177.689 137.842 176.168 137.941 174.647C138.04 173.125 138.516 171.653 139.327 170.362C140.138 169.072 141.258 168.003 142.585 167.254C141.811 167.711 141.106 168.278 140.495 168.938C140.039 170.897 140.241 172.953 141.07 174.786C141.9 176.619 143.31 178.129 145.082 179.08C146.855 180.032 148.892 180.374 150.878 180.052C152.865 179.73 154.69 178.764 156.071 177.301L156.019 177.322Z" fill="black"/>
<path d="M14.2102 188.359L10.988 194.707L11.5101 194.972L14.7322 188.624L14.2102 188.359Z" fill="#455A64"/>
<path d="M8.23019 187.853L7.73242 188.161L10.8745 193.236L11.3722 192.928L8.23019 187.853Z" fill="#455A64"/>
<path d="M11.7296 187.264V202.569C11.7254 202.612 11.7096 202.653 11.6838 202.688C11.658 202.723 11.6233 202.751 11.5832 202.768C11.4756 202.819 11.3577 202.846 11.2382 202.846C11.1188 202.846 11.0008 202.819 10.8932 202.768C10.8544 202.75 10.8212 202.722 10.7972 202.687C10.7732 202.652 10.7594 202.611 10.7573 202.569V187.264H11.7296Z" fill="#455A64"/>
<path d="M23.3025 182.497C23.3025 183.903 22.8856 185.277 22.1044 186.446C21.3233 187.615 20.2131 188.526 18.9141 189.065C17.6151 189.603 16.1857 189.743 14.8067 189.469C13.4278 189.195 12.1611 188.518 11.1669 187.524C10.1727 186.529 9.49561 185.263 9.22132 183.884C8.94702 182.505 9.0878 181.075 9.62585 179.776C10.1639 178.477 11.0751 177.367 12.2441 176.586C13.4132 175.805 14.7876 175.388 16.1936 175.388C18.079 175.388 19.8872 176.137 21.2204 177.47C22.5535 178.803 23.3025 180.611 23.3025 182.497Z" fill="#4D7589"/>
<path opacity="0.2" d="M18.4308 180.678C19.3508 177.792 20.323 176.663 19.7062 176.318C18.641 175.705 17.433 175.384 16.204 175.388C15.0062 175.387 13.8277 175.689 12.7779 176.266C11.728 176.843 10.8409 177.676 10.199 178.687C9.55702 179.698 9.18099 180.855 9.10581 182.051C9.03063 183.246 9.25874 184.441 9.76896 185.525C10.2792 186.609 11.0549 187.546 12.0243 188.249C12.9936 188.953 14.125 189.401 15.3134 189.55C16.5019 189.7 17.7088 189.546 18.8222 189.105C19.9356 188.663 20.9193 187.947 21.6821 187.023C19.5703 187.64 17.2286 184.42 18.4308 180.678Z" fill="black"/>
<path d="M9.99428 184.514C9.99428 185.503 9.7012 186.469 9.15211 187.291C8.60301 188.112 7.82257 188.753 6.90946 189.131C5.99635 189.509 4.9916 189.608 4.02225 189.416C3.0529 189.223 2.16249 188.747 1.46363 188.048C0.76477 187.349 0.288836 186.459 0.0960205 185.489C-0.0967951 184.52 0.00216622 183.515 0.380388 182.602C0.758609 181.689 1.3991 180.909 2.22088 180.359C3.04265 179.81 4.0088 179.517 4.99714 179.517C5.65376 179.516 6.30419 179.644 6.91109 179.895C7.51799 180.145 8.06942 180.514 8.53372 180.978C8.99802 181.442 9.36606 181.994 9.6167 182.6C9.86734 183.207 9.99565 183.858 9.99428 184.514Z" fill="#4D7589"/>
<path opacity="0.2" d="M4.99701 179.517C3.94955 179.513 2.92801 179.843 2.08027 180.458C1.94437 183.511 4.52657 186.49 3.80522 187.483C3.08388 188.477 1.2962 187.87 0.668945 187.023C1.1092 187.782 1.74123 188.411 2.50156 188.848C3.2619 189.284 4.12376 189.513 5.0006 189.512C5.87743 189.51 6.73837 189.277 7.49694 188.838C8.25551 188.398 8.885 187.766 9.3222 187.006C9.7594 186.246 9.9889 185.384 9.98767 184.507C9.98644 183.631 9.75451 182.769 9.31518 182.011C8.87585 181.252 8.24458 180.622 7.48478 180.184C6.72498 179.747 5.86339 179.517 4.98656 179.517H4.99701Z" fill="black"/>
<path d="M11.2382 188.288C16.3018 188.288 20.4066 184.184 20.4066 179.12C20.4066 174.056 16.3018 169.952 11.2382 169.952C6.17465 169.952 2.06982 174.056 2.06982 179.12C2.06982 184.184 6.17465 188.288 11.2382 188.288Z" fill="#4D7589"/>
<path opacity="0.1" d="M20.1558 181.221C19.8057 182.701 19.0926 184.071 18.0808 185.206C17.069 186.341 15.7905 187.207 14.3605 187.724C12.9305 188.242 11.3941 188.395 9.89006 188.17C8.38601 187.946 6.96162 187.35 5.74546 186.437C4.52931 185.524 3.55968 184.322 2.9241 182.941C2.28852 181.559 2.007 180.041 2.10496 178.523C2.20291 177.006 2.67725 175.536 3.48517 174.248C4.29308 172.959 5.40913 171.893 6.73257 171.143C5.94169 171.6 5.22002 172.166 4.58944 172.827C4.13758 174.784 4.34203 176.836 5.17129 178.666C6.00054 180.496 7.40857 182.003 9.17842 182.953C10.9483 183.904 12.9817 184.247 14.9654 183.928C16.9491 183.61 18.7729 182.647 20.1558 181.19V181.221Z" fill="black"/>
<path d="M101.072 219.296L112.456 212.73L122.67 218.627L111.296 225.182L101.072 219.296Z" fill="#F0F0F0"/>
<path d="M21.4311 202.527L21.4207 167.223L75.7828 198.596V233.911L21.4311 202.527Z" fill="#F0F0F0"/>
<path d="M21.4207 181.232L75.7828 212.626V198.596L21.4207 167.223V181.232Z" fill="#E0E0E0"/>
<path d="M136.919 198.596V164.275L116.533 159.372V155.452L75.7827 198.596V233.911L136.919 198.596Z" fill="#FAFAFA"/>
<path d="M116.533 155.452V159.372L140.317 165.258V161.337L116.533 155.452Z" fill="#263238"/>
<path d="M85.9758 129.954L140.317 161.337L116.534 155.452L62.1819 124.068L85.9758 129.954Z" fill="#37474F"/>
<path d="M72.3747 204.503L116.544 155.452V151.531L68.9771 206.447L72.3747 204.503Z" fill="#37474F"/>
<path d="M62.1924 120.148L116.544 151.531L69.0608 206.5L14.6255 175.064L62.1924 120.148Z" fill="#455A64"/>
<path d="M45.1416 170.997L51.9891 174.949V184.87L45.1416 180.95V170.997Z" fill="#263238"/>
<path d="M51.9888 174.949L58.8259 170.997V177.029L51.9888 184.87V174.949Z" fill="#37474F"/>
<path d="M51.9888 164.275L44.4304 168.634V170.61L51.9888 174.949L59.5368 170.61V168.634L51.9888 164.275Z" fill="#F5F5F5"/>
<path d="M44.4304 170.61L51.9888 174.949V172.973L44.4304 168.634V170.61Z" fill="#E0E0E0"/>
<path d="M59.5367 170.61L51.9888 174.949V172.973L59.5367 168.634V170.61Z" fill="#EBEBEB"/>
<path d="M46.9709 168.634L51.989 165.739L57.007 168.634L51.989 171.52L46.9709 168.634Z" fill="#4D7589"/>
<path d="M51.989 165.739V171.52L46.9709 168.634L51.989 165.739Z" fill="#37474F"/>
<path d="M51.9888 165.739L57.0068 168.634L51.9888 171.52V165.739Z" fill="#263238"/>
<path d="M80.1838 207.827L95.4784 199.004V210.775L80.1838 219.599V207.827Z" fill="#455A64"/>
<path d="M94.7989 210.378V199.401L80.1838 207.827V218.815L94.7989 210.378Z" fill="#E0E0E0"/>
<path d="M95.4784 210.775L94.7989 210.378L80.1838 218.815V219.599L95.4784 210.775Z" fill="#37474F"/>
<path d="M80.1838 213.713L95.4784 204.89V204.095L80.1838 212.919V213.713Z" fill="#455A64"/>
<path d="M117.558 186.239L132.842 177.416V189.187L117.558 198.011V186.239Z" fill="#455A64"/>
<path d="M132.163 188.79V177.813L117.558 186.239V197.227L132.163 188.79Z" fill="#E0E0E0"/>
<path d="M132.842 189.187L132.163 188.79L117.558 197.227V198.011L132.842 189.187Z" fill="#37474F"/>
<path d="M117.558 192.125L132.842 183.302V182.507L117.558 191.341V192.125Z" fill="#455A64"/>
<path d="M101.072 219.296V195.763L112.456 189.198V212.73L101.072 219.296Z" fill="#37474F"/>
<path d="M112.059 212.427V189.428L101.072 195.763V218.763L112.059 212.427Z" fill="#455A64"/>
<path d="M112.456 189.198L112.059 189.428V212.427L112.456 212.73V189.198Z" fill="#263238"/>
<path d="M63.3738 203.217L55.3867 198.607V210.368L63.3738 214.978V203.217Z" fill="#455A64"/>
<path d="M56.0662 209.971V198.994L63.3737 203.217V214.194L56.0662 209.971Z" fill="#FAFAFA"/>
<path d="M55.3867 210.368L56.0662 209.971L63.3738 214.194V214.978L55.3867 210.368Z" fill="#37474F"/>
<path d="M63.3738 209.061L55.3867 204.482V203.688L63.3738 208.266V209.061Z" fill="#455A64"/>
<path d="M56.0662 198.994L63.3737 203.217V205.486L56.0662 201.294V198.994Z" fill="#F5F5F5"/>
<path d="M39.5901 189.48L31.603 184.87V196.641L39.5901 201.252V189.48Z" fill="#455A64"/>
<path d="M32.293 196.244V185.267L39.59 189.48V200.457L32.293 196.244Z" fill="#FAFAFA"/>
<path d="M31.603 196.641L32.293 196.244L39.5901 200.457V201.252L31.603 196.641Z" fill="#37474F"/>
<path d="M39.5901 195.324L31.603 190.745V189.951L39.5901 194.53V195.324Z" fill="#455A64"/>
<path d="M32.293 185.267L39.59 189.48V191.655L32.293 187.473V185.267Z" fill="#F5F5F5"/>
<path d="M365.366 152.023L283.833 199.098V203.018L365.366 250.094L446.909 203.018V199.098L365.366 152.023Z" fill="#4D7589"/>
<path opacity="0.15" d="M283.833 199.098L365.376 246.174L365.366 250.094L283.833 203.018V199.098Z" fill="black"/>
<path opacity="0.1" d="M365.376 246.174L446.909 199.098V203.018L365.366 250.094L365.376 246.174Z" fill="black"/>
<path d="M439.88 185.072L436.658 191.42L437.18 191.685L440.402 185.336L439.88 185.072Z" fill="#455A64"/>
<path d="M434.743 182.789L434.246 183.099L437.409 188.173L437.907 187.863L434.743 182.789Z" fill="#455A64"/>
<path d="M437.427 183.992V199.297C437.425 199.339 437.411 199.38 437.387 199.415C437.363 199.45 437.33 199.478 437.291 199.495C437.185 199.552 437.067 199.582 436.946 199.582C436.826 199.582 436.708 199.552 436.601 199.495C436.561 199.479 436.527 199.451 436.501 199.416C436.475 199.381 436.459 199.34 436.455 199.297V183.992H437.427Z" fill="#455A64"/>
<path d="M449 179.235C449 180.641 448.583 182.015 447.802 183.185C447.021 184.354 445.911 185.265 444.612 185.803C443.313 186.341 441.883 186.482 440.504 186.207C439.125 185.933 437.859 185.256 436.864 184.262C435.87 183.268 435.193 182.001 434.919 180.622C434.645 179.243 434.785 177.814 435.323 176.515C435.861 175.216 436.773 174.105 437.942 173.324C439.111 172.543 440.485 172.126 441.891 172.126C443.777 172.126 445.585 172.875 446.918 174.208C448.251 175.541 449 177.35 449 179.235Z" fill="#4D7589"/>
<path opacity="0.2" d="M444.117 177.416C445.037 174.531 446.02 173.402 445.393 173.046C444.215 172.379 442.871 172.063 441.52 172.134C440.168 172.204 438.865 172.659 437.763 173.445C436.661 174.231 435.806 175.315 435.3 176.57C434.793 177.825 434.655 179.199 434.902 180.53C435.148 181.86 435.77 183.093 436.693 184.083C437.617 185.072 438.803 185.778 440.114 186.116C441.424 186.454 442.804 186.411 444.091 185.993C445.378 185.574 446.519 184.796 447.379 183.751C445.267 184.368 442.936 181.127 444.117 177.416Z" fill="black"/>
<path d="M435.692 181.242C435.692 182.231 435.398 183.197 434.849 184.019C434.3 184.84 433.52 185.481 432.607 185.859C431.694 186.237 430.689 186.336 429.72 186.143C428.75 185.951 427.86 185.475 427.161 184.776C426.462 184.077 425.986 183.186 425.793 182.217C425.6 181.248 425.699 180.243 426.078 179.33C426.456 178.417 427.096 177.636 427.918 177.087C428.74 176.538 429.706 176.245 430.694 176.245C432.02 176.245 433.291 176.772 434.228 177.709C435.165 178.646 435.692 179.917 435.692 181.242Z" fill="#4D7589"/>
<path opacity="0.2" d="M430.694 176.245C429.646 176.246 428.625 176.579 427.777 177.196C427.641 180.239 430.234 183.218 429.513 184.222C428.791 185.225 427.004 184.609 426.376 183.751C426.817 184.51 427.449 185.139 428.209 185.575C428.969 186.012 429.831 186.241 430.708 186.239C431.585 186.238 432.446 186.005 433.204 185.565C433.963 185.126 434.593 184.494 435.03 183.734C435.467 182.974 435.696 182.112 435.695 181.235C435.694 180.358 435.462 179.497 435.023 178.738C434.583 177.98 433.952 177.35 433.192 176.912C432.433 176.474 431.571 176.244 430.694 176.245Z" fill="black"/>
<path d="M436.946 185.027C442.01 185.027 446.115 180.922 446.115 175.858C446.115 170.795 442.01 166.69 436.946 166.69C431.883 166.69 427.778 170.795 427.778 175.858C427.778 180.922 431.883 185.027 436.946 185.027Z" fill="#4D7589"/>
<path opacity="0.1" d="M445.863 177.991C445.509 179.47 444.792 180.837 443.778 181.97C442.763 183.103 441.483 183.966 440.052 184.481C438.621 184.996 437.084 185.146 435.58 184.92C434.077 184.693 432.653 184.096 431.438 183.182C430.222 182.268 429.253 181.066 428.618 179.684C427.982 178.302 427.701 176.784 427.798 175.267C427.896 173.749 428.369 172.279 429.176 170.99C429.982 169.701 431.097 168.633 432.419 167.882C431.621 168.332 430.895 168.899 430.266 169.565C429.81 171.525 430.012 173.58 430.842 175.413C431.671 177.247 433.081 178.756 434.854 179.708C436.626 180.659 438.663 181.001 440.649 180.679C442.636 180.358 444.461 179.391 445.843 177.928L445.863 177.991Z" fill="black"/>
<path d="M296.982 184.737L293.76 191.085L294.282 191.35L297.504 185.002L296.982 184.737Z" fill="#455A64"/>
<path d="M291.884 182.961L291.387 183.272L294.55 188.346L295.048 188.035L291.884 182.961Z" fill="#455A64"/>
<path d="M294.528 183.657V198.962C294.523 199.005 294.506 199.046 294.481 199.081C294.455 199.116 294.421 199.143 294.382 199.161C294.274 199.213 294.156 199.24 294.037 199.24C293.917 199.24 293.799 199.213 293.692 199.161C293.655 199.141 293.623 199.113 293.599 199.078C293.576 199.044 293.561 199.004 293.556 198.962V183.657H294.528Z" fill="#455A64"/>
<path d="M306.101 178.89C306.101 180.296 305.684 181.67 304.903 182.84C304.122 184.009 303.011 184.92 301.712 185.458C300.413 185.996 298.984 186.137 297.605 185.862C296.226 185.588 294.959 184.911 293.965 183.917C292.971 182.923 292.294 181.656 292.02 180.277C291.745 178.898 291.886 177.469 292.424 176.17C292.962 174.871 293.873 173.76 295.042 172.979C296.212 172.198 297.586 171.781 298.992 171.781C300.877 171.784 302.683 172.534 304.016 173.866C305.348 175.199 306.098 177.005 306.101 178.89Z" fill="#4D7589"/>
<path opacity="0.2" d="M301.219 177.071C302.139 174.186 303.111 173.057 302.494 172.701C301.317 172.034 299.974 171.718 298.623 171.788C297.272 171.858 295.969 172.312 294.867 173.097C293.765 173.882 292.91 174.965 292.402 176.219C291.894 177.473 291.755 178.846 292 180.176C292.246 181.507 292.865 182.739 293.787 183.73C294.709 184.72 295.894 185.427 297.203 185.767C298.513 186.108 299.892 186.067 301.179 185.651C302.466 185.234 303.608 184.459 304.47 183.417C302.369 184.023 300.027 180.814 301.219 177.071Z" fill="black"/>
<path d="M292.792 180.897C292.794 181.886 292.503 182.853 291.955 183.676C291.407 184.499 290.628 185.142 289.715 185.521C288.802 185.901 287.797 186.002 286.827 185.81C285.857 185.618 284.965 185.143 284.265 184.445C283.565 183.746 283.089 182.856 282.895 181.886C282.701 180.917 282.8 179.912 283.177 178.998C283.555 178.084 284.196 177.303 285.018 176.753C285.84 176.204 286.806 175.911 287.795 175.911C289.119 175.911 290.388 176.436 291.325 177.37C292.262 178.305 292.79 179.574 292.792 180.897Z" fill="#4D7589"/>
<path opacity="0.2" d="M287.795 175.9C286.748 175.896 285.726 176.226 284.879 176.841C284.743 179.894 287.335 182.863 286.604 183.866C285.872 184.87 284.095 184.253 283.467 183.406C283.908 184.165 284.54 184.794 285.3 185.23C286.06 185.667 286.922 185.896 287.799 185.894C288.676 185.893 289.537 185.66 290.295 185.22C291.054 184.781 291.683 184.149 292.121 183.389C292.558 182.629 292.787 181.767 292.786 180.89C292.785 180.013 292.553 179.152 292.114 178.393C291.674 177.635 291.043 177.005 290.283 176.567C289.523 176.129 288.662 175.899 287.785 175.9H287.795Z" fill="black"/>
<path d="M294.037 184.682C299.1 184.682 303.205 180.577 303.205 175.513C303.205 170.45 299.1 166.345 294.037 166.345C288.973 166.345 284.868 170.45 284.868 175.513C284.868 180.577 288.973 184.682 294.037 184.682Z" fill="#4D7589"/>
<path opacity="0.1" d="M302.965 177.615C302.617 179.098 301.905 180.471 300.893 181.61C299.881 182.749 298.601 183.618 297.168 184.138C295.736 184.658 294.197 184.813 292.69 184.589C291.183 184.365 289.756 183.769 288.537 182.854C287.318 181.94 286.346 180.736 285.71 179.352C285.073 177.968 284.791 176.447 284.89 174.927C284.988 173.406 285.464 171.934 286.275 170.644C287.085 169.354 288.204 168.286 289.531 167.537C288.738 167.989 288.016 168.557 287.388 169.22C286.941 171.177 287.15 173.227 287.981 175.055C288.812 176.883 290.221 178.387 291.99 179.337C293.759 180.287 295.79 180.629 297.773 180.313C299.756 179.996 301.58 179.037 302.965 177.583V177.615Z" fill="black"/>
<path d="M381.79 131.553L388.627 135.505V143.408L381.79 139.457V131.553Z" fill="#E0E0E0"/>
<path d="M388.627 135.505L395.475 131.553V147.35L388.627 143.408V135.505Z" fill="#F0F0F0"/>
<path d="M388.627 124.831L381.079 129.18V131.156L388.627 135.505L396.185 131.156V129.18L388.627 124.831Z" fill="#455A64"/>
<path d="M381.079 131.156L388.627 135.505V133.529L381.079 129.18V131.156Z" fill="#37474F"/>
<path d="M396.185 131.156L388.627 135.505V133.529L396.185 129.18V131.156Z" fill="#263238"/>
<path d="M383.608 129.18L388.626 126.295L393.655 129.18L388.626 132.076L383.608 129.18Z" fill="#4D7589"/>
<path d="M388.626 126.295V132.076L383.608 129.18L388.626 126.295Z" fill="#37474F"/>
<path d="M388.627 126.295L393.655 129.18L388.627 132.076V126.295Z" fill="#263238"/>
<path d="M365.376 210.87L365.366 175.566L385.72 187.327V222.631L365.376 210.87Z" fill="#F0F0F0"/>
<path d="M365.366 175.566L385.72 187.327V201.388L365.366 189.647V175.566Z" fill="#E0E0E0"/>
<path d="M426.523 199.098V163.794L406.096 152.023L385.72 187.327V222.631L426.523 199.098Z" fill="#FAFAFA"/>
<path d="M382.354 193.212L406.095 152.023V148.102L378.956 195.178L382.354 193.212Z" fill="#37474F"/>
<path d="M365.366 124.57L406.096 148.102L378.956 195.178L365.376 187.327L365.366 124.57Z" fill="#455A64"/>
<path d="M406.095 152.023L429.92 165.749L433.318 163.794L406.095 148.102V152.023Z" fill="#263238"/>
<path d="M414.616 183.166L422.603 178.587V190.358L414.616 194.937V183.166Z" fill="#455A64"/>
<path d="M421.923 189.961V178.984L414.616 183.166V194.143L421.923 189.961Z" fill="#E0E0E0"/>
<path d="M422.603 190.358L421.923 189.961L414.616 194.143V194.937L422.603 190.358Z" fill="#37474F"/>
<path d="M414.616 189.052L422.603 184.473V183.678L414.616 188.257V189.052Z" fill="#455A64"/>
<path d="M389.546 197.624L397.533 193.045V204.806L389.546 209.396V197.624Z" fill="#455A64"/>
<path d="M396.854 204.419V193.432L389.546 197.624V208.601L396.854 204.419Z" fill="#E0E0E0"/>
<path d="M397.533 204.806L396.854 204.419L389.546 208.601V209.396L397.533 204.806Z" fill="#37474F"/>
<path d="M389.546 203.51L397.533 198.931V198.136L389.546 202.715V203.51Z" fill="#455A64"/>
<path d="M401.004 169.68L411.197 163.794V172.617L401.004 178.503V169.68Z" fill="#455A64"/>
<path d="M410.517 172.22V164.181L401.004 169.68V177.719L410.517 172.22Z" fill="#E0E0E0"/>
<path d="M411.197 172.617L410.517 172.22L401.004 177.719V178.503L411.197 172.617Z" fill="#37474F"/>
<path d="M429.921 165.749H426.523V163.794L429.921 165.749Z" fill="black"/>
<path d="M400.408 214.142V190.609L411.793 184.044V207.576L400.408 214.142Z" fill="#37474F"/>
<path d="M411.396 207.273V184.274L400.408 190.609V213.609L411.396 207.273Z" fill="#455A64"/>
<path d="M411.793 184.044L411.396 184.274V207.273L411.793 207.576V184.044Z" fill="#263238"/>
<path d="M365.366 210.87V175.566L345.022 187.327V222.631L365.366 210.87Z" fill="#FAFAFA"/>
<path d="M365.366 175.566L345.022 187.327V201.388L365.376 189.647L365.366 175.566Z" fill="#F5F5F5"/>
<path d="M304.219 199.098V163.794L324.636 152.023L345.022 187.327V222.631L304.219 199.098Z" fill="#EBEBEB"/>
<path d="M348.388 193.212L324.636 152.023V148.102L351.786 195.178L348.388 193.212Z" fill="#455A64"/>
<path d="M365.366 124.57L324.636 148.102L351.786 195.178L365.366 187.327V124.57Z" fill="#37474F"/>
<path d="M324.636 152.023L300.821 165.749L297.424 163.794L324.636 148.102V152.023Z" fill="#263238"/>
<path d="M319.001 184.065L311.014 179.486V191.257L319.001 195.826V184.065Z" fill="#455A64"/>
<path d="M311.694 190.86V179.873L319.001 184.065V195.042L311.694 190.86Z" fill="#FAFAFA"/>
<path d="M311.694 179.873L319.001 184.096V185.549L311.694 181.357V179.873Z" fill="#F5F5F5"/>
<path d="M330.888 190.954L338.195 195.178V196.631L330.888 192.439V190.954Z" fill="#F5F5F5"/>
<path d="M311.014 191.257L311.694 190.86L319.001 195.042V195.826L311.014 191.257Z" fill="#37474F"/>
<path d="M319.001 189.951L311.014 185.372V184.577L319.001 189.156V189.951Z" fill="#455A64"/>
<path d="M329.738 169.68L319.545 163.794V172.617L329.738 178.503V169.68Z" fill="#455A64"/>
<path d="M320.224 172.22V164.181L329.738 169.68V177.719L320.224 172.22Z" fill="#FAFAFA"/>
<path d="M320.224 164.181L329.738 169.68V171.133L320.224 165.676V164.181Z" fill="#F5F5F5"/>
<path d="M319.545 172.617L320.224 172.22L329.738 177.719V178.503L319.545 172.617Z" fill="#37474F"/>
<path d="M300.821 165.749H304.219V163.794L300.821 165.749Z" fill="black"/>
<path d="M338.195 195.178L330.208 190.567V202.328L338.195 206.939V195.178Z" fill="#455A64"/>
<path d="M330.888 201.931V190.954L338.195 195.178V206.155L330.888 201.931Z" fill="#FAFAFA"/>
<path d="M330.208 202.328L330.888 201.931L338.195 206.155V206.939L330.208 202.328Z" fill="#37474F"/>
<path d="M338.195 201.022L330.208 196.443V195.648L338.195 200.227V201.022Z" fill="#455A64"/>
<path d="M330.888 190.954L338.195 195.178V196.631L330.888 192.439V190.954Z" fill="#F5F5F5"/>
<path d="M378.956 195.178L368.753 189.282V200.133L378.956 206.019V195.178Z" fill="#263238"/>
<path d="M369.38 199.767V189.647L378.956 195.178V205.297L369.38 199.767Z" fill="#FAFAFA"/>
<path d="M369.38 189.647V192L378.956 197.54V195.178L369.38 189.647Z" fill="#F0F0F0"/>
<path d="M368.753 200.133L369.38 199.767L378.956 205.297V206.019L368.753 200.133Z" fill="#37474F"/>
<path d="M368.753 194.707L369.38 194.341L378.956 199.872V200.604L368.753 194.707Z" fill="#37474F"/>
<path d="M373.646 202.956L374.273 203.311V192.47L373.646 192.104V202.956Z" fill="#37474F"/>
<path d="M358.392 218.763L360.201 217.717C360.699 214.777 360.773 211.781 360.421 208.821C359.511 203.05 355.57 201.053 354.148 201.628C352.726 202.203 352.392 203.918 354.974 207.252C357.308 210.628 358.506 214.66 358.392 218.763Z" fill="#4D7589"/>
<g opacity="0.2">
<path opacity="0.2" d="M358.392 218.763L360.201 217.717C360.699 214.777 360.773 211.781 360.421 208.821C359.511 203.05 355.57 201.053 354.148 201.628C352.726 202.203 352.392 203.918 354.974 207.252C357.308 210.628 358.506 214.66 358.392 218.763Z" fill="black"/>
</g>
<path d="M359.052 216.504C359.034 216.503 359.017 216.498 359.002 216.49C358.986 216.482 358.972 216.471 358.962 216.457C358.951 216.443 358.943 216.427 358.939 216.41C358.934 216.393 358.934 216.375 358.937 216.358C359.689 210.953 357.515 205.026 355.069 202.632C355.045 202.608 355.032 202.576 355.032 202.543C355.032 202.509 355.045 202.477 355.069 202.454C355.092 202.43 355.124 202.417 355.157 202.417C355.191 202.417 355.223 202.43 355.246 202.454C357.734 204.879 359.951 210.901 359.198 216.4C359.195 216.416 359.19 216.432 359.181 216.447C359.172 216.461 359.161 216.473 359.147 216.483C359.133 216.493 359.118 216.5 359.101 216.503C359.085 216.507 359.068 216.507 359.052 216.504Z" fill="white"/>
<path d="M353.375 221.7C353.082 221.867 352.496 221.512 352.266 221.355C351.882 221.09 351.572 220.73 351.367 220.31C351.136 219.837 351.055 219.304 351.137 218.783C351.183 218.508 351.246 218.236 351.325 217.968C351.409 217.696 351.482 217.435 351.555 217.174C351.65 216.916 351.69 216.642 351.67 216.369C351.599 216.106 351.475 215.86 351.306 215.646C351.138 215.432 350.927 215.255 350.688 215.124C350.419 214.969 350.19 214.753 350.02 214.493C349.849 214.234 349.741 213.938 349.705 213.63C349.739 213.122 349.942 212.64 350.28 212.26C350.594 211.863 350.96 211.518 351.242 211.1C351.435 210.874 351.549 210.592 351.568 210.296C351.587 210 351.509 209.706 351.346 209.458C351.082 209.053 350.851 208.626 350.656 208.183C350.561 207.96 350.531 207.715 350.57 207.477C350.609 207.238 350.715 207.015 350.876 206.834C351.034 206.715 351.215 206.629 351.407 206.581C351.599 206.532 351.799 206.523 351.995 206.552C352.366 206.595 352.723 206.72 353.04 206.918C354.085 207.493 354.671 208.726 355.769 209.166C356.203 209.304 356.647 209.413 357.096 209.49C357.322 209.53 357.537 209.617 357.727 209.747C357.916 209.877 358.075 210.046 358.194 210.242C358.602 211.047 357.849 212.04 358.131 212.898C358.413 213.755 359.124 213.943 359.532 214.633C359.707 214.929 359.777 215.275 359.731 215.616C359.694 216.197 359.552 216.768 359.313 217.299C359.039 217.82 358.732 218.323 358.393 218.804L353.375 221.7Z" fill="#4D7589"/>
<g opacity="0.1">
<path opacity="0.1" d="M353.375 221.7C353.082 221.867 352.496 221.512 352.266 221.355C351.882 221.09 351.572 220.73 351.367 220.31C351.136 219.837 351.055 219.304 351.137 218.783C351.183 218.508 351.246 218.236 351.325 217.968C351.409 217.696 351.482 217.435 351.555 217.174C351.65 216.916 351.69 216.642 351.67 216.369C351.599 216.106 351.475 215.86 351.306 215.646C351.138 215.432 350.927 215.255 350.688 215.124C350.419 214.969 350.19 214.753 350.02 214.493C349.849 214.234 349.741 213.938 349.705 213.63C349.739 213.122 349.942 212.64 350.28 212.26C350.594 211.863 350.96 211.518 351.242 211.1C351.435 210.874 351.549 210.592 351.568 210.296C351.587 210 351.509 209.706 351.346 209.458C351.082 209.053 350.851 208.626 350.656 208.183C350.561 207.96 350.531 207.715 350.57 207.477C350.609 207.238 350.715 207.015 350.876 206.834C351.034 206.715 351.215 206.629 351.407 206.581C351.599 206.532 351.799 206.523 351.995 206.552C352.366 206.595 352.723 206.72 353.04 206.918C354.085 207.493 354.671 208.726 355.769 209.166C356.203 209.304 356.647 209.413 357.096 209.49C357.322 209.53 357.537 209.617 357.727 209.747C357.916 209.877 358.075 210.046 358.194 210.242C358.602 211.047 357.849 212.04 358.131 212.898C358.413 213.755 359.124 213.943 359.532 214.633C359.707 214.929 359.777 215.275 359.731 215.616C359.694 216.197 359.552 216.768 359.313 217.299C359.039 217.82 358.732 218.323 358.393 218.804L353.375 221.7Z" fill="black"/>
</g>
<path d="M356.312 220.143C356.279 220.138 356.248 220.122 356.225 220.097C356.202 220.072 356.189 220.04 356.187 220.007C356.406 214.884 353.991 209.228 352.235 207.587C352.223 207.575 352.213 207.561 352.206 207.546C352.199 207.53 352.195 207.514 352.194 207.497C352.194 207.48 352.197 207.463 352.203 207.447C352.209 207.431 352.218 207.416 352.23 207.404C352.241 207.392 352.255 207.382 352.271 207.375C352.286 207.368 352.303 207.364 352.32 207.363C352.337 207.363 352.354 207.366 352.37 207.372C352.386 207.378 352.4 207.387 352.413 207.399C354.2 209.071 356.667 214.821 356.448 220.017C356.445 220.051 356.43 220.083 356.405 220.106C356.379 220.13 356.346 220.143 356.312 220.143Z" fill="white"/>
<path d="M355.539 214.09C354.323 213.76 353.075 213.56 351.817 213.494C351.799 213.494 351.782 213.49 351.766 213.483C351.75 213.476 351.736 213.466 351.724 213.453C351.712 213.44 351.703 213.425 351.698 213.409C351.692 213.392 351.69 213.375 351.691 213.358C351.694 213.323 351.709 213.292 351.735 213.268C351.76 213.245 351.793 213.232 351.827 213.232C353.108 213.299 354.377 213.506 355.612 213.849C355.628 213.854 355.642 213.862 355.655 213.872C355.668 213.883 355.678 213.896 355.686 213.91C355.694 213.925 355.699 213.941 355.7 213.957C355.702 213.974 355.7 213.99 355.695 214.006C355.684 214.036 355.661 214.062 355.633 214.077C355.604 214.092 355.57 214.097 355.539 214.09Z" fill="white"/>
<path d="M400.408 214.142L411.793 207.576L422.007 213.473L410.622 220.028L400.408 214.142Z" fill="#F0F0F0"/>
<path d="M216.309 231.203L116.931 288.576V292.988L220.125 352.567L319.493 295.194V290.782L216.309 231.203Z" fill="#4D7589"/>
<path d="M262.172 310.645L273.567 317.304L292.709 306.254L281.282 299.616L262.172 310.645Z" fill="#F0F0F0"/>
<path opacity="0.15" d="M116.931 288.576L220.125 348.155V352.567L116.931 292.988V288.576Z" fill="black"/>
<path opacity="0.1" d="M220.125 348.155L319.493 290.782V295.194L220.125 352.567V348.155Z" fill="black"/>
<path d="M308.327 271.245L303.898 279.971L304.616 280.335L309.045 271.61L308.327 271.245Z" fill="#263238"/>
<path d="M300.098 270.504L299.422 270.922L303.742 277.9L304.418 277.482L300.098 270.504Z" fill="#263238"/>
<path d="M304.877 269.696V290.719C304.871 290.778 304.85 290.834 304.815 290.882C304.78 290.93 304.733 290.967 304.679 290.991C304.532 291.066 304.369 291.106 304.203 291.106C304.038 291.106 303.875 291.066 303.727 290.991C303.675 290.967 303.629 290.929 303.596 290.881C303.563 290.833 303.543 290.777 303.539 290.719V269.696H304.877Z" fill="#263238"/>
<path d="M311.035 272.916C316.428 272.916 320.799 268.544 320.799 263.151C320.799 257.759 316.428 253.387 311.035 253.387C305.642 253.387 301.271 257.759 301.271 263.151C301.271 268.544 305.642 272.916 311.035 272.916Z" fill="#455A64"/>
<path d="M314.098 260.663C315.353 256.691 316.701 255.143 315.844 254.663C314.227 253.746 312.382 253.31 310.525 253.407C308.669 253.503 306.879 254.127 305.365 255.205C303.851 256.284 302.676 257.772 301.979 259.495C301.282 261.218 301.091 263.104 301.429 264.932C301.766 266.76 302.619 268.453 303.886 269.813C305.153 271.173 306.782 272.144 308.581 272.61C310.381 273.076 312.276 273.019 314.044 272.445C315.812 271.872 317.379 270.805 318.562 269.372C315.677 270.208 312.467 265.807 314.098 260.663Z" fill="#37474F"/>
<path d="M295.657 272.78C299.445 272.78 302.515 269.709 302.515 265.922C302.515 262.134 299.445 259.064 295.657 259.064C291.869 259.064 288.799 262.134 288.799 265.922C288.799 269.709 291.869 272.78 295.657 272.78Z" fill="#455A64"/>
<path d="M295.657 259.053C294.215 259.051 292.81 259.505 291.642 260.35C291.465 264.531 295.019 268.629 294.026 270.009C293.033 271.389 290.576 270.532 289.729 269.372C290.336 270.409 291.204 271.27 292.248 271.866C293.292 272.462 294.474 272.774 295.676 272.769C296.878 272.765 298.058 272.444 299.097 271.84C300.136 271.236 300.998 270.37 301.597 269.327C302.196 268.285 302.51 267.104 302.508 265.902C302.507 264.7 302.189 263.519 301.587 262.479C300.986 261.438 300.121 260.574 299.08 259.973C298.039 259.372 296.859 259.054 295.657 259.053Z" fill="#37474F"/>
<path d="M316.478 261.39C318.074 254.624 313.884 247.845 307.118 246.248C300.353 244.651 293.574 248.842 291.977 255.607C290.38 262.373 294.57 269.152 301.336 270.749C308.101 272.346 314.881 268.156 316.478 261.39Z" fill="#455A64"/>
<path d="M316.492 261.395C316.002 263.413 315.019 265.277 313.632 266.821C312.244 268.365 310.494 269.541 308.54 270.242C306.586 270.944 304.489 271.15 302.436 270.841C300.383 270.532 298.438 269.719 296.777 268.473C295.116 267.228 293.789 265.59 292.917 263.706C292.045 261.822 291.654 259.751 291.779 257.679C291.904 255.606 292.542 253.597 293.635 251.832C294.727 250.067 296.241 248.6 298.04 247.564C296.95 248.186 295.957 248.964 295.092 249.874C294.874 250.817 294.762 251.782 294.758 252.749C294.736 255.279 295.48 257.755 296.891 259.854C298.303 261.954 300.315 263.577 302.666 264.512C305.016 265.447 307.594 265.649 310.061 265.093C312.529 264.537 314.77 263.248 316.492 261.395Z" fill="#37474F"/>
<path d="M136.447 268.752L132.018 277.477L132.736 277.842L137.165 269.116L136.447 268.752Z" fill="#263238"/>
<path d="M128.239 268.058L127.563 268.476L131.883 275.454L132.559 275.036L128.239 268.058Z" fill="#263238"/>
<path d="M133.041 267.239V288.263C133.037 288.321 133.017 288.376 132.984 288.424C132.951 288.472 132.905 288.51 132.853 288.534C132.705 288.61 132.542 288.649 132.377 288.649C132.212 288.649 132.049 288.61 131.901 288.534C131.847 288.511 131.8 288.473 131.765 288.425C131.73 288.377 131.709 288.321 131.703 288.263V267.239H133.041Z" fill="#263238"/>
<path d="M139.177 270.469C144.57 270.469 148.942 266.098 148.942 260.705C148.942 255.312 144.57 250.941 139.177 250.941C133.785 250.941 129.413 255.312 129.413 260.705C129.413 266.098 133.785 270.469 139.177 270.469Z" fill="#455A64"/>
<path d="M142.241 258.206C143.495 254.234 144.833 252.687 143.986 252.206C142.369 251.289 140.524 250.854 138.668 250.95C136.811 251.046 135.021 251.67 133.507 252.748C131.993 253.827 130.819 255.315 130.122 257.038C129.424 258.761 129.233 260.647 129.571 262.475C129.909 264.303 130.761 265.997 132.028 267.357C133.295 268.717 134.924 269.687 136.724 270.153C138.523 270.619 140.418 270.562 142.186 269.989C143.954 269.415 145.522 268.349 146.705 266.915C143.819 267.762 140.599 263.35 142.241 258.206Z" fill="#37474F"/>
<path d="M123.799 270.323C127.587 270.323 130.657 267.253 130.657 263.465C130.657 259.677 127.587 256.607 123.799 256.607C120.012 256.607 116.941 259.677 116.941 263.465C116.941 267.253 120.012 270.323 123.799 270.323Z" fill="#455A64"/>
<path d="M123.799 256.607C122.36 256.605 120.956 257.055 119.785 257.893C119.597 262.075 123.162 266.173 122.168 267.553C121.175 268.933 118.719 268.075 117.861 266.915C118.466 267.954 119.334 268.816 120.377 269.414C121.42 270.012 122.601 270.326 123.804 270.323C125.006 270.32 126.187 270.002 127.227 269.399C128.267 268.796 129.131 267.93 129.731 266.888C130.331 265.846 130.647 264.665 130.646 263.463C130.646 262.26 130.33 261.079 129.729 260.038C129.128 258.996 128.264 258.131 127.223 257.529C126.182 256.927 125.002 256.609 123.799 256.607Z" fill="#37474F"/>
<path d="M141.275 264.966C146.19 260.051 146.19 252.081 141.275 247.166C136.359 242.25 128.39 242.25 123.474 247.166C118.559 252.081 118.559 260.051 123.474 264.966C128.39 269.882 136.359 269.882 141.275 264.966Z" fill="#455A64"/>
<path d="M144.624 258.938C144.135 260.957 143.153 262.823 141.765 264.368C140.377 265.913 138.627 267.09 136.672 267.792C134.717 268.494 132.619 268.7 130.565 268.391C128.511 268.082 126.566 267.268 124.904 266.022C123.243 264.775 121.916 263.136 121.045 261.251C120.173 259.365 119.783 257.293 119.91 255.22C120.036 253.147 120.676 251.138 121.771 249.373C122.866 247.607 124.382 246.142 126.183 245.107C125.089 245.724 124.095 246.503 123.235 247.418C123.016 248.361 122.904 249.325 122.9 250.293C122.881 252.82 123.626 255.294 125.036 257.39C126.447 259.487 128.458 261.109 130.806 262.043C133.154 262.978 135.729 263.181 138.195 262.627C140.661 262.073 142.901 260.787 144.624 258.938Z" fill="#37474F"/>
<path d="M162.794 275.341L243.062 321.674V251.066L162.794 204.733V275.341Z" fill="#F0F0F0"/>
<path d="M220.125 295.194V334.92L139.867 288.576V248.86L220.125 295.194Z" fill="#F0F0F0"/>
<path d="M139.867 262.096L220.125 308.439V295.194L139.867 248.86V262.096Z" fill="#E0E0E0"/>
<path d="M162.794 217.968L243.062 264.301V251.066L162.794 204.723V217.968Z" fill="#E0E0E0"/>
<path d="M243.062 251.066L296.566 220.174V290.782L243.062 321.674V251.066Z" fill="#FAFAFA"/>
<path d="M220.125 295.194L243.061 273.135V321.674L220.125 334.92V295.194Z" fill="#FAFAFA"/>
<path d="M269.814 204.723L243.062 251.066L296.566 220.174L269.814 204.723Z" fill="#FAFAFA"/>
<path d="M239.235 257.684L269.814 204.722V201.419L239.235 254.38V257.684Z" fill="#4D7589"/>
<path opacity="0.1" d="M239.235 257.684L269.814 204.722V201.419L239.235 254.38V257.684Z" fill="black"/>
<path d="M189.549 155.084L158.976 208.039L239.236 254.378L269.81 201.423L189.549 155.084Z" fill="#4D7589"/>
<path d="M158.978 208.036L239.235 254.38V257.684L158.978 211.351V208.036Z" fill="#4D7589"/>
<path opacity="0.15" d="M158.978 208.036L239.235 254.38V257.684L158.978 211.351V208.036Z" fill="black"/>
<path d="M269.814 201.419L303.257 220.728L300.382 222.38L269.814 204.722V201.419Z" fill="#4D7589"/>
<path opacity="0.15" d="M269.814 201.419L303.257 220.728L300.382 222.38L269.814 204.722V201.419Z" fill="black"/>
<path d="M300.382 222.38H296.566V220.174L300.382 222.38Z" fill="#4D7589"/>
<path opacity="0.3" d="M300.382 222.38H296.566V220.174L300.382 222.38Z" fill="black"/>
<path d="M175.109 207.409V191.519L184.256 186.239L193.372 202.025V217.968L175.109 207.409Z" fill="#F0F0F0"/>
<path opacity="0.2" d="M184.256 186.239L172.966 192.752L171.523 191.916L184.256 184.567V186.239Z" fill="black"/>
<path d="M193.372 217.968L202.499 202.14L207.161 194.049L193.372 202.025V217.968Z" fill="#FAFAFA"/>
<path opacity="0.4" d="M172.966 192.752H175.109V191.519L172.966 192.752Z" fill="black"/>
<path d="M195.547 205.789L184.256 186.239V184.567L196.958 206.604L195.547 205.789Z" fill="#4D7589"/>
<path opacity="0.1" d="M195.547 205.789L184.256 186.239V184.567L196.958 206.604L195.547 205.789Z" fill="black"/>
<path d="M196.958 206.604L184.256 184.567L197.397 176.977L210.099 199.014L196.958 206.604Z" fill="#4D7589"/>
<path opacity="0.3" d="M196.958 206.604L184.256 184.567L197.397 176.977L210.099 199.014L196.958 206.604Z" fill="white"/>
<path d="M188.814 199.474L179.677 194.195V204.733L188.814 210.012V199.474Z" fill="#455A64"/>
<path d="M180.608 204.189V194.728L188.814 199.474V208.925L180.608 204.189Z" fill="#E0E0E0"/>
<path d="M179.677 204.733L180.608 204.189L188.814 208.925V210.012L179.677 204.733Z" fill="#37474F"/>
<path d="M213.319 229.478V213.588L222.477 208.308L231.593 224.094V240.037L213.319 229.478Z" fill="#F0F0F0"/>
<path opacity="0.2" d="M222.477 208.308L211.186 214.821L209.733 213.985L222.477 206.636V208.308Z" fill="black"/>
<path d="M231.593 240.037L240.709 224.209L245.372 216.118L231.593 224.094V240.037Z" fill="#FAFAFA"/>
<path opacity="0.4" d="M211.186 214.821H213.319V213.588L211.186 214.821Z" fill="black"/>
<path d="M233.767 227.858L222.477 208.308V206.636L235.168 228.673L233.767 227.858Z" fill="#4D7589"/>
<path opacity="0.1" d="M233.767 227.858L222.477 208.308V206.636L235.168 228.673L233.767 227.858Z" fill="black"/>
<path d="M235.168 228.673L222.477 206.636L235.607 199.035L248.309 221.073L235.168 228.673Z" fill="#4D7589"/>
<path opacity="0.3" d="M235.168 228.673L222.477 206.636L235.607 199.035L248.309 221.073L235.168 228.673Z" fill="white"/>
<path d="M227.025 221.533L217.888 216.264V226.802L227.025 232.081V221.533Z" fill="#455A64"/>
<path d="M218.829 226.258V216.797L227.025 221.533V230.994L218.829 226.258Z" fill="#E0E0E0"/>
<path d="M217.888 226.802L218.829 226.258L227.025 230.994V232.081L217.888 226.802Z" fill="#37474F"/>
<path d="M162.794 223.812L243.062 270.145V273.135L216.309 301.822L136.041 255.478V252.498L162.794 223.812Z" fill="#4D7589"/>
<path d="M162.794 223.812L243.062 270.145L216.309 298.832L136.041 252.498L162.794 223.812Z" fill="#4D7589"/>
<path opacity="0.1" d="M216.309 298.832V301.822L243.062 273.135V270.145L216.309 298.832Z" fill="black"/>
<path opacity="0.15" d="M216.309 301.822L136.041 255.478V252.498L216.309 298.832V301.822Z" fill="black"/>
<path d="M170.446 275.331L151.336 264.301V284.604L170.446 295.633V275.331Z" fill="#263238"/>
<path d="M152.507 283.924V264.981L170.446 275.341V294.274L152.507 283.924Z" fill="#FAFAFA"/>
<path d="M152.507 264.981V269.403L170.446 279.753V275.331L152.507 264.981Z" fill="#F0F0F0"/>
<path d="M151.336 284.604L152.507 283.924L170.446 294.274V295.633L151.336 284.604Z" fill="#37474F"/>
<path d="M151.336 274.452L152.507 273.773L170.446 284.123V285.482L151.336 274.452Z" fill="#37474F"/>
<path d="M160.494 289.893L161.665 290.573V270.271L160.494 269.591V289.893Z" fill="#37474F"/>
<path d="M204.841 295.194L185.73 284.164V304.467L204.841 315.496V295.194Z" fill="#263238"/>
<path d="M186.901 303.787V284.844L204.84 295.194V314.137L186.901 303.787Z" fill="#FAFAFA"/>
<path d="M186.901 284.844V289.256L204.84 299.616V295.194L186.901 284.844Z" fill="#F0F0F0"/>
<path d="M185.73 304.467L186.901 303.787L204.841 314.137V315.496L185.73 304.467Z" fill="#37474F"/>
<path d="M185.73 294.316L186.901 293.636L204.841 303.986V305.345L185.73 294.316Z" fill="#37474F"/>
<path d="M194.888 309.756L196.059 310.436V290.134L194.888 289.454V309.756Z" fill="#37474F"/>
<path d="M231.593 297.41L250.703 286.37V306.672L231.593 317.702V297.41Z" fill="#263238"/>
<path d="M249.533 305.993V287.05L231.593 297.41V316.343L249.533 305.993Z" fill="#E6E6E6"/>
<path d="M249.533 287.05V288.994L231.593 299.344V297.41L249.533 287.05Z" fill="#E0E0E0"/>
<path d="M250.703 306.672L249.533 305.993L231.593 316.343V317.702L250.703 306.672Z" fill="#37474F"/>
<path d="M250.703 296.521L249.533 295.842L231.593 306.192V307.551L250.703 296.521Z" fill="#37474F"/>
<path d="M241.546 311.962L240.375 312.642V292.34L241.546 291.66V311.962Z" fill="#37474F"/>
<path d="M261.816 231.705L280.927 220.676V240.978L261.816 252.007V231.705Z" fill="#263238"/>
<path d="M279.756 240.298V221.355L261.816 231.705V250.648L279.756 240.298Z" fill="#E6E6E6"/>
<path d="M279.756 221.355V223.3L261.816 233.649V231.705L279.756 221.355Z" fill="#E0E0E0"/>
<path d="M280.927 240.978L279.756 240.298L261.816 250.648V252.007L280.927 240.978Z" fill="#37474F"/>
<path d="M280.927 230.827L279.756 230.147L261.816 240.507V241.867L280.927 230.827Z" fill="#37474F"/>
<path d="M271.769 246.268L270.598 246.947V226.645L271.769 225.966V246.268Z" fill="#37474F"/>
<path d="M262.172 310.645V275.341L281.282 264.301V299.616L262.172 310.645Z" fill="#37474F"/>
<path d="M280.582 299.083V264.709L262.172 275.341V309.715L280.582 299.083Z" fill="#455A64"/>
<path d="M281.282 264.301L280.582 264.709V299.083L281.282 299.616V264.301Z" fill="#263238"/>
<path d="M371.2 17.4658C371.141 14.6972 370.431 11.9813 369.127 9.53835C367.823 7.09541 365.961 4.99411 363.693 3.4048C361.603 2.07711 359.595 1.87848 358.132 2.63119C349.298 7.06379 287.221 46.8632 283.258 48.8286H283.206C282.788 49.1056 282.452 49.489 282.232 49.9391C282.011 50.3893 281.914 50.89 281.952 51.3899C281.976 52.7854 282.331 54.1554 282.987 55.3875C283.643 56.6195 284.581 57.6786 285.726 58.4778C286.122 58.787 286.593 58.9849 287.091 59.0511C287.589 59.1173 288.096 59.0493 288.559 58.8542H288.621C294.894 55.3938 356.166 29.2791 368.691 22.5675C370.165 21.752 371.116 19.9957 371.2 17.4658Z" fill="#4D7589"/>
<path opacity="0.1" d="M368.764 8.88284C367.535 6.67824 365.797 4.79986 363.693 3.40481C361.603 2.07712 359.616 1.87849 358.153 2.62074L357.964 2.72528C349.904 6.84426 303.707 36.3148 288.161 45.9014L288.057 45.9641L287.43 46.3509L287.241 46.4659L286.886 46.6855L286.468 46.9364C284.826 47.9818 283.718 48.5881 283.332 48.8077H283.279C283.146 48.8865 283.023 48.9813 282.913 49.0899C282.62 49.3909 282.39 49.7477 282.238 50.1392C282.085 50.5307 282.013 50.9489 282.025 51.369C282.004 51.6648 282.004 51.9617 282.025 52.2576C282.025 52.3726 282.025 52.4876 282.077 52.6026C282.129 52.7176 282.14 52.958 282.182 53.1462C282.223 53.3344 282.255 53.4389 282.297 53.5748C282.338 53.7107 282.401 53.9198 282.464 54.0871C282.527 54.2543 282.558 54.338 282.6 54.4634V54.5261L368.764 8.88284Z" fill="black"/>
<path d="M285.715 58.4883C284.576 57.6909 283.641 56.6366 282.986 55.4106C282.33 54.1847 281.972 52.8216 281.941 51.4317C282.035 48.8808 283.854 47.8981 286.018 49.2467C287.159 50.0452 288.095 51.1012 288.75 52.329C289.406 53.5569 289.763 54.9221 289.792 56.3138C289.709 58.8647 287.879 59.8578 285.715 58.4883Z" fill="#4D7589"/>
<path d="M267.159 60.2028C267.183 61.2707 267.458 62.3179 267.961 63.2603C268.464 64.2026 269.181 65.0138 270.054 65.6286C270.358 65.8631 270.718 66.0129 271.098 66.0624C271.479 66.112 271.865 66.0597 272.219 65.9108L287.231 57.9133C287.55 57.7016 287.807 57.4091 287.976 57.0657C288.145 56.7223 288.22 56.3402 288.193 55.9584C288.17 54.8901 287.896 53.8423 287.393 52.8997C286.889 51.9571 286.171 51.1462 285.297 50.5326C284.995 50.2953 284.635 50.1431 284.255 50.0916C283.874 50.0401 283.487 50.0913 283.133 50.2399L268.12 58.2374C267.8 58.45 267.542 58.7441 267.373 59.0896C267.204 59.435 267.13 59.8193 267.159 60.2028Z" fill="#37474F"/>
<path d="M268.141 58.2374C267.817 58.4474 267.555 58.7405 267.382 59.0861C267.209 59.4317 267.132 59.8173 267.158 60.2028C267.153 60.9962 267.31 61.7823 267.618 62.5132L286.98 52.1844C286.541 51.5288 285.976 50.9673 285.317 50.5326C285.016 50.2953 284.656 50.1431 284.275 50.0916C283.895 50.0401 283.508 50.0913 283.153 50.2399L268.141 58.2374Z" fill="#263238"/>
<path d="M286.426 73.5215C286.426 63.9036 280.07 54.2857 267.347 46.9468C241.922 32.2586 200.69 32.2586 175.255 46.9468C162.543 54.2648 156.187 63.9036 156.187 73.5215V91.2938C156.187 100.912 162.543 110.53 175.266 117.879C200.69 132.515 241.922 132.515 267.347 117.879C280.07 110.561 286.426 100.912 286.426 91.2938V73.5215ZM178.381 52.3935C189.734 45.8386 204.966 42.2319 221.243 42.2319C237.521 42.2319 252.784 45.8386 264.106 52.3935C274.372 58.321 280.028 65.8272 280.028 73.532C280.028 81.2368 274.372 88.7325 264.106 94.66C252.753 101.215 237.521 104.822 221.243 104.822C204.966 104.822 189.703 101.215 178.381 94.66C168.104 88.7325 162.459 81.2263 162.459 73.532C162.459 65.8376 168.136 58.321 178.381 52.3935Z" fill="#4D7589"/>
<path opacity="0.3" d="M175.245 100.107C200.68 114.795 241.901 114.795 267.336 100.107C292.771 85.4185 292.771 61.6246 267.336 46.9468C241.901 32.269 200.68 32.2586 175.245 46.9468C149.809 61.635 149.83 85.4289 175.245 100.107ZM162.469 73.532C162.469 65.8272 168.125 58.321 178.391 52.3935C189.755 45.8386 204.987 42.2319 221.254 42.2319C237.521 42.2319 252.794 45.8386 264.116 52.3935C274.382 58.321 280.038 65.8272 280.038 73.532C280.038 81.2368 274.382 88.7325 264.116 94.66C252.752 101.215 237.521 104.822 221.254 104.822C204.987 104.822 189.713 101.215 178.391 94.66C168.136 88.7325 162.48 81.2263 162.48 73.532H162.469Z" fill="white"/>
<path d="M162.48 73.5215C162.517 76.6541 163.394 79.7193 165.02 82.3972C167.603 77.9228 172.15 73.7306 178.412 70.1239C189.755 63.5586 204.997 59.9519 221.275 59.9519C237.552 59.9519 252.815 63.5586 264.137 70.1239C270.41 73.7306 274.947 77.9228 277.54 82.3972C279.158 79.7165 280.031 76.6525 280.069 73.5215C280.069 65.8272 274.414 58.321 264.137 52.3935C252.794 45.8386 237.552 42.2319 221.275 42.2319C204.997 42.2319 189.724 45.8386 178.412 52.3935C168.136 58.321 162.48 65.8272 162.48 73.5215Z" fill="#4D7589"/>
<path opacity="0.1" d="M162.48 73.5215C162.517 76.6541 163.394 79.7193 165.02 82.3972C167.603 77.9228 172.15 73.7306 178.412 70.1239C189.755 63.5586 204.997 59.9519 221.275 59.9519C237.552 59.9519 252.815 63.5586 264.137 70.1239C270.41 73.7306 274.947 77.9228 277.54 82.3972C279.158 79.7165 280.031 76.6525 280.069 73.5215C280.069 65.8272 274.414 58.321 264.137 52.3935C252.794 45.8386 237.552 42.2319 221.275 42.2319C204.997 42.2319 189.724 45.8386 178.412 52.3935C168.136 58.321 162.48 65.8272 162.48 73.5215Z" fill="black"/>
<path opacity="0.4" d="M178.381 60.4223C189.745 53.8675 204.977 50.2503 221.244 50.2503C237.51 50.2503 252.784 53.8675 264.106 60.4223C272.574 65.3149 277.895 71.2739 279.505 77.536C277.895 83.8085 272.574 89.7674 264.106 94.66C252.742 101.215 237.51 104.822 221.244 104.822C204.977 104.822 189.703 101.215 178.381 94.66C169.913 89.7674 164.592 83.7981 162.982 77.536C164.613 71.2739 169.934 65.3149 178.381 60.4223Z" fill="white"/>
<path opacity="0.1" d="M205.959 110.038V127.811C194.711 126.242 184.005 122.928 175.266 117.858C162.543 110.54 156.187 100.891 156.187 91.2624V73.4902C156.191 71.5307 156.451 69.5802 156.96 67.688C153.824 79.1355 159.971 91.252 175.245 100.096C184.047 105.187 194.711 108.501 205.959 110.038Z" fill="black"/>
</svg>
