<svg width="28" height="28" viewBox="0 0 28 28" fill="none" xmlns="http://www.w3.org/2000/svg">
<circle cx="14" cy="14" r="14" fill="url(#paint0_linear_381:33)"/>
<path fill-rule="evenodd" clip-rule="evenodd" d="M10.7566 6.1816C11.5954 6.14299 11.8628 6.13441 13.9994 6.13441C16.136 6.13441 16.4034 6.1437 17.2414 6.1816C18.0795 6.2195 18.6515 6.35322 19.1521 6.547C19.6762 6.74507 20.1517 7.05468 20.545 7.45511C20.9454 7.84768 21.2543 8.32247 21.4517 8.84732C21.6462 9.34786 21.7792 9.9199 21.8178 10.7565C21.8564 11.5967 21.865 11.8641 21.865 14C21.865 16.1366 21.8557 16.404 21.8178 17.2428C21.7799 18.0794 21.6462 18.6514 21.4517 19.152C21.2543 19.6769 20.9449 20.1525 20.545 20.5456C20.1517 20.946 19.6762 21.2549 19.1521 21.4523C18.6515 21.6468 18.0795 21.7798 17.2429 21.8184C16.4034 21.857 16.136 21.8656 13.9994 21.8656C11.8628 21.8656 11.5954 21.8563 10.7566 21.8184C9.92 21.7805 9.34796 21.6468 8.84742 21.4523C8.32251 21.2549 7.84693 20.9455 7.45378 20.5456C7.05362 20.1528 6.74395 19.6774 6.54638 19.1527C6.3526 18.6521 6.2196 18.0801 6.18098 17.2435C6.14237 16.4033 6.13379 16.1359 6.13379 14C6.13379 11.8634 6.14308 11.596 6.18098 10.7579C6.21888 9.9199 6.3526 9.34786 6.54638 8.84732C6.74425 8.32253 7.05415 7.84719 7.45449 7.4544C7.84709 7.05433 8.32219 6.74467 8.8467 6.547C9.34724 6.35322 9.91928 6.22022 10.7559 6.1816H10.7566ZM17.1778 7.59741C16.3483 7.55951 16.0995 7.55165 13.9994 7.55165C11.8993 7.55165 11.6504 7.55951 10.821 7.59741C10.0537 7.63245 9.63755 7.76044 9.36011 7.86841C8.99329 8.01143 8.73086 8.18089 8.45557 8.45619C8.19461 8.71007 7.99377 9.01914 7.86779 9.36073C7.75982 9.63817 7.63183 10.0543 7.59679 10.8216C7.55889 11.651 7.55103 11.8999 7.55103 14C7.55103 16.1001 7.55889 16.349 7.59679 17.1784C7.63183 17.9457 7.75982 18.3618 7.86779 18.6393C7.99364 18.9804 8.19457 19.29 8.45557 19.5438C8.70941 19.8048 9.01903 20.0057 9.36011 20.1316C9.63755 20.2396 10.0537 20.3676 10.821 20.4026C11.6504 20.4405 11.8986 20.4484 13.9994 20.4484C16.1002 20.4484 16.3483 20.4405 17.1778 20.4026C17.945 20.3676 18.3612 20.2396 18.6386 20.1316C19.0055 19.9886 19.2679 19.8191 19.5432 19.5438C19.8042 19.29 20.0051 18.9804 20.131 18.6393C20.2389 18.3618 20.3669 17.9457 20.402 17.1784C20.4399 16.349 20.4477 16.1001 20.4477 14C20.4477 11.8999 20.4399 11.651 20.402 10.8216C20.3669 10.0543 20.2389 9.63817 20.131 9.36073C19.988 8.99391 19.8185 8.73148 19.5432 8.45619C19.2893 8.19525 18.9802 7.99441 18.6386 7.86841C18.3612 7.76044 17.945 7.63245 17.1778 7.59741ZM12.9947 16.4247C13.5558 16.6583 14.1806 16.6898 14.7623 16.5139C15.344 16.338 15.8466 15.9656 16.1843 15.4603C16.522 14.955 16.6737 14.3481 16.6137 13.7434C16.5536 13.1386 16.2854 12.5735 15.8549 12.1444C15.5805 11.8702 15.2487 11.6602 14.8834 11.5296C14.5181 11.399 14.1284 11.351 13.7423 11.3891C13.3562 11.4271 12.9834 11.5504 12.6506 11.7498C12.3179 11.9493 12.0335 12.22 11.818 12.5426C11.6024 12.8652 11.4611 13.2315 11.4041 13.6153C11.3471 13.999 11.376 14.3906 11.4885 14.7619C11.601 15.1332 11.7945 15.4749 12.0549 15.7624C12.3154 16.0499 12.6364 16.2762 12.9947 16.4247ZM11.1406 11.1412C11.516 10.7658 11.9617 10.468 12.4522 10.2648C12.9427 10.0616 13.4685 9.95707 13.9994 9.95707C14.5303 9.95707 15.056 10.0616 15.5465 10.2648C16.0371 10.468 16.4827 10.7658 16.8582 11.1412C17.2336 11.5166 17.5314 11.9623 17.7346 12.4528C17.9377 12.9433 18.0423 13.4691 18.0423 14C18.0423 14.5309 17.9377 15.0567 17.7346 15.5472C17.5314 16.0377 17.2336 16.4834 16.8582 16.8588C16.1 17.617 15.0716 18.0429 13.9994 18.0429C12.9271 18.0429 11.8988 17.617 11.1406 16.8588C10.3824 16.1006 9.95645 15.0723 9.95645 14C9.95645 12.9277 10.3824 11.8994 11.1406 11.1412ZM18.939 10.5592C19.032 10.4714 19.1065 10.3659 19.158 10.2488C19.2095 10.1318 19.237 10.0055 19.2389 9.87767C19.2407 9.74979 19.2169 9.62283 19.1688 9.50432C19.1208 9.38581 19.0494 9.27815 18.959 9.18772C18.8685 9.09728 18.7609 9.02591 18.6424 8.97783C18.5238 8.92975 18.3969 8.90594 18.269 8.9078C18.1411 8.90967 18.0149 8.93717 17.8979 8.98869C17.7808 9.0402 17.6753 9.11468 17.5875 9.20771C17.4168 9.38864 17.3234 9.62896 17.327 9.87767C17.3307 10.1264 17.4311 10.3639 17.6069 10.5397C17.7828 10.7156 18.0203 10.816 18.269 10.8197C18.5177 10.8233 18.758 10.7298 18.939 10.5592Z" fill="#082B44"/>
<defs>
<linearGradient id="paint0_linear_381:33" x1="14" y1="0" x2="14" y2="28" gradientUnits="userSpaceOnUse">
<stop stop-color="#65BDF9"/>
<stop offset="1" stop-color="#2084CC"/>
</linearGradient>
</defs>
</svg>
