<svg xmlns="http://www.w3.org/2000/svg" viewBox="0 0 500 500"><g id="freepik--Tree--inject-1--inject-133"><rect x="399.58" y="200.5" width="22.76" height="1.86" transform="translate(45.33 476.71) rotate(-63.09)" style="fill:#37474f"></rect><rect x="399.47" y="188.3" width="1.86" height="19.08" transform="translate(-44.18 240.35) rotate(-31.76)" style="fill:#37474f"></rect><path d="M407.37,187.31v48.9a.8.8,0,0,1-.46.64,2.44,2.44,0,0,1-2.2,0,.78.78,0,0,1-.46-.64v-48.9Z" style="fill:#37474f"></path><circle cx="421.63" cy="172.09" r="22.71" transform="translate(-33.74 177.09) rotate(-22.83)" style="fill:#7499F0"></circle><path d="M428.74,166.28c2.93-9.22,6.05-12.83,4.07-13.95a22.71,22.71,0,1,0,6.33,34.21C432.42,188.51,425,178.24,428.74,166.28Z" style="opacity:0.2"></path><circle cx="385.85" cy="178.52" r="15.96" transform="translate(-13.22 325.12) rotate(-45)" style="fill:#7499F0"></circle><path d="M385.85,162.56a15.94,15.94,0,0,0-9.33,3c-.43,9.75,7.85,19.26,5.53,22.45s-8,1.24-10-1.48a16,16,0,1,0,13.8-24Z" style="fill:#7499F0"></path><path d="M385.85,162.56a15.94,15.94,0,0,0-9.33,3c-.43,9.75,7.85,19.26,5.53,22.45s-8,1.24-10-1.48a16,16,0,1,0,13.8-24Z" style="opacity:0.2"></path><circle cx="405.81" cy="161.31" r="29.28" style="fill:#7499F0"></circle><path d="M434.31,168a29.28,29.28,0,1,1-42.91-32.18,29.77,29.77,0,0,0-6.86,5.37,30,30,0,0,0-.77,6.69A29.27,29.27,0,0,0,434.31,168Z" style="opacity:0.1"></path></g><g id="freepik--House--inject-1--inject-133"><path d="M429.62,253.83,222.72,373.28a4.79,4.79,0,0,1-4.33,0L48.05,274.94a4.8,4.8,0,0,1-2.16-3.75v-4.38a4.78,4.78,0,0,1,2.16-3.75L255,143.6a4.79,4.79,0,0,1,4.33,0L429.62,242a4.8,4.8,0,0,1,2.16,3.75v4.38A4.8,4.8,0,0,1,429.62,253.83Z" style="fill:#7499F0"></path><path d="M429.62,253.83,222.72,373.28a4.79,4.79,0,0,1-4.33,0L48.05,274.94a4.8,4.8,0,0,1-2.16-3.75v-4.38a4.78,4.78,0,0,1,2.16-3.75L255,143.6a4.79,4.79,0,0,1,4.33,0L429.62,242a4.8,4.8,0,0,1,2.16,3.75v4.38A4.8,4.8,0,0,1,429.62,253.83Z" style="opacity:0.2"></path><path d="M431.78,245.7a4.8,4.8,0,0,0-2.16-3.75l-1.9-1.09L220.55,360.46V373.8a4.37,4.37,0,0,0,2.16-.52l206.9-119.45a4.8,4.8,0,0,0,2.16-3.75Z" style="fill:#7499F0;mix-blend-mode:multiply"></path><path d="M431.78,245.7a4.8,4.8,0,0,0-2.16-3.75l-1.9-1.09L220.55,360.46V373.8a4.37,4.37,0,0,0,2.16-.52l206.9-119.45a4.8,4.8,0,0,0,2.16-3.75Z" style="opacity:0.2;mix-blend-mode:multiply"></path><path d="M48.05,265.56,218.39,363.9a4.79,4.79,0,0,0,4.33,0l206.9-119.45a1.32,1.32,0,0,0,0-2.5L259.28,143.6a4.79,4.79,0,0,0-4.33,0L48.05,263.06A1.32,1.32,0,0,0,48.05,265.56Z" style="fill:#7499F0"></path><path d="M138.78,290.41c4.76-2.75,4.76-7.25,0-10L117.19,268a1.5,1.5,0,0,1,0-2.6l9.94-5.73-16.25-9.38L91.1,261.65c-4.76,2.75-4.75,7.24,0,10l21.65,12.44a1.5,1.5,0,0,1,0,2.6L98.69,294.8,115,304.13Z" style="fill:#f5f5f5"></path><polygon points="196.18 219.75 248.99 189.26 248.99 245.55 196.18 276.03 196.18 219.75" style="fill:#e0e0e0"></polygon><path d="M231.66,213.38l-18.15,10.44a2.43,2.43,0,0,0-1.08,1.88v21c0,.69.49,1,1.08.62l18.15-10.44a2.39,2.39,0,0,0,1.08-1.88V214C232.74,213.31,232.26,213,231.66,213.38Z" style="fill:#455a64"></path><path d="M230.66,235.1a1.62,1.62,0,0,0,.08-.2V216.22l-16.23,9.33a1.62,1.62,0,0,0-.08.2v18.68Z" style="fill:#f5f5f5"></path><polygon points="232.74 223.3 212.43 235 212.43 237.34 232.74 225.65 232.74 223.3" style="fill:#455a64"></polygon><polygon points="223.6 218.01 223.6 241.51 221.57 242.64 221.57 219.19 223.6 218.01" style="fill:#455a64"></polygon><polygon points="196.18 276.03 196.18 280.72 248.99 250.24 248.99 245.55 196.18 276.03" style="fill:#263238"></polygon><polygon points="301.8 219.75 248.99 189.26 248.99 245.55 301.8 276.03 301.8 219.75" style="fill:#f0f0f0"></polygon><path d="M266.32,213.38l18.15,10.44a2.43,2.43,0,0,1,1.08,1.88v21c0,.69-.49,1-1.08.62l-18.15-10.44a2.39,2.39,0,0,1-1.08-1.88V214C265.24,213.31,265.72,213,266.32,213.38Z" style="fill:#455a64"></path><path d="M267.32,235.1s-.07-.14-.09-.2V216.22l16.23,9.33a1.62,1.62,0,0,1,.08.2v18.68Z" style="fill:#f5f5f5"></path><polygon points="265.24 223.3 285.55 235 285.55 237.34 265.24 225.65 265.24 223.3" style="fill:#455a64"></polygon><polygon points="274.37 218.01 274.37 241.51 276.41 242.64 276.41 219.19 274.37 218.01" style="fill:#455a64"></polygon><polygon points="301.8 276.03 301.8 280.72 248.99 250.24 248.99 245.55 301.8 276.03" style="fill:#455a64"></polygon><polygon points="301.8 219.75 346.48 132.98 378.98 175.19 378.97 231.47 301.8 276.03 301.8 219.75" style="fill:#e0e0e0"></polygon><path d="M332.22,216.22l-18.15,10.44a2.4,2.4,0,0,0-1.08,1.88v21c0,.69.48,1,1.08.63l18.15-10.45a2.39,2.39,0,0,0,1.08-1.87v-21C333.3,216.16,332.82,215.88,332.22,216.22Z" style="fill:#455a64"></path><path d="M331.22,237.94a1.62,1.62,0,0,0,.08-.2V219.06l-16.23,9.34a1.35,1.35,0,0,0-.08.19v18.69Z" style="fill:#f5f5f5"></path><polygon points="333.3 226.15 312.99 237.84 312.99 240.19 333.3 228.5 333.3 226.15" style="fill:#455a64"></polygon><polygon points="324.16 220.86 324.16 244.36 322.13 245.48 322.13 222.03 324.16 220.86" style="fill:#455a64"></polygon><path d="M368.78,195.1l-18.15,10.45a2.37,2.37,0,0,0-1.08,1.87v21c0,.69.48,1,1.08.63l18.14-10.44a2.41,2.41,0,0,0,1.09-1.88v-21C369.86,195,369.37,194.76,368.78,195.1Z" style="fill:#455a64"></path><path d="M367.78,216.82a1.14,1.14,0,0,0,.08-.2V197.94l-16.23,9.34s-.07.13-.09.2v18.68Z" style="fill:#f5f5f5"></path><polygon points="369.86 205.03 349.55 216.72 349.55 219.07 369.86 207.38 369.86 205.03" style="fill:#455a64"></polygon><polygon points="360.72 199.74 360.72 223.24 358.69 224.36 358.69 200.91 360.72 199.74" style="fill:#455a64"></polygon><path d="M337.41,164l10-5.79c.59-.34,1.08-.06,1.08.63v21a2.43,2.43,0,0,1-1.08,1.88l-10,5.78c-.6.35-1.09.07-1.09-.62v-21A2.41,2.41,0,0,1,337.41,164Z" style="fill:#455a64"></path><path d="M338.32,165.92l.13-.18,8.06-4.65v18.74a1.1,1.1,0,0,1-.13.17l-8.05,4.65Z" style="fill:#f5f5f5"></path><polygon points="346.51 169.34 338.32 174.07 338.32 176.41 346.51 171.68 346.51 169.34" style="fill:#455a64"></polygon><polygon points="301.8 276.03 378.97 231.47 378.98 236.16 301.8 280.72 301.8 276.03" style="fill:#263238"></polygon><polygon points="196.18 219.75 151.5 132.98 119 175.19 119 231.47 196.18 276.03 196.18 219.75" style="fill:#f5f5f5"></polygon><polygon points="127.13 236.16 127.13 193.95 143.38 203.33 143.38 245.55 127.13 236.16" style="fill:#263238"></polygon><path d="M160.71,213.38l18.14,10.44a2.41,2.41,0,0,1,1.09,1.88v21c0,.69-.49,1-1.09.62l-18.14-10.44a2.39,2.39,0,0,1-1.08-1.88V214C159.62,213.31,160.11,213,160.71,213.38Z" style="fill:#455a64"></path><path d="M161.71,235.1a1.37,1.37,0,0,1-.09-.2V216.22l16.23,9.33a1.37,1.37,0,0,1,.09.2v18.68Z" style="fill:#f5f5f5"></path><polygon points="159.62 223.3 179.94 235 179.94 237.34 159.62 225.65 159.62 223.3" style="fill:#455a64"></polygon><polygon points="168.76 218.01 168.76 241.51 170.79 242.64 170.79 219.19 168.76 218.01" style="fill:#455a64"></polygon><path d="M160.57,164l-10-5.79c-.6-.34-1.08-.06-1.08.63v21a2.4,2.4,0,0,0,1.08,1.88l10,5.78c.6.35,1.08.07,1.08-.62v-21A2.4,2.4,0,0,0,160.57,164Z" style="fill:#455a64"></path><path d="M159.65,165.92l-.12-.18-8.06-4.65v18.74a1.1,1.1,0,0,0,.13.17l8.05,4.65Z" style="fill:#f5f5f5"></path><polygon points="151.47 169.34 159.66 174.07 159.66 176.41 151.47 171.68 151.47 169.34" style="fill:#455a64"></polygon><polygon points="302.67 222.61 248.99 191.61 248.99 79.03 347.35 135.84 302.67 222.61" style="fill:#455a64"></polygon><polygon points="346.48 132.98 345.55 134.78 381.18 173.92 383.04 172.84 346.48 132.98" style="fill:#455a64"></polygon><polygon points="381.18 173.92 378.98 175.19 345.72 139.01 347.05 136.43 381.18 173.92" style="fill:#263238"></polygon><polygon points="301.8 219.75 248.99 189.26 248.99 76.69 346.48 132.98 301.8 219.75" style="fill:#37474f"></polygon><polygon points="195.31 222.61 248.99 191.61 248.99 79.03 150.63 135.84 195.31 222.61" style="fill:#455a64"></polygon><polygon points="151.5 132.98 152.43 134.78 116.8 173.92 114.94 172.84 151.5 132.98" style="fill:#455a64"></polygon><polygon points="116.8 173.92 119 175.19 152.26 139.01 150.93 136.43 116.8 173.92" style="fill:#263238"></polygon><polygon points="196.18 219.75 248.99 189.26 248.99 76.69 151.5 132.98 196.18 219.75" style="fill:#263238"></polygon><polygon points="197.2 162.88 208.37 184.57 208.37 161.12 197.2 154.67 197.2 162.88" style="fill:#f0f0f0"></polygon><polygon points="208.37 161.12 220.55 140.01 228.68 149.39 228.68 172.84 208.37 184.57 208.37 161.12" style="fill:#e0e0e0"></polygon><path d="M214.77,158.53l7.51-4.34c.45-.26.81-.05.81.47v15.72a1.79,1.79,0,0,1-.81,1.4l-7.51,4.34c-.45.26-.82,0-.82-.46V159.94A1.8,1.8,0,0,1,214.77,158.53Z" style="fill:#455a64"></path><path d="M215.45,159.94s.07-.1.1-.13l6-3.49v14.06l-.09.13-6,3.48Z" style="fill:#f5f5f5"></path><polygon points="221.59 162.51 215.45 166.05 215.45 167.81 221.59 164.26 221.59 162.51" style="fill:#455a64"></polygon><polygon points="220.55 140.01 224.62 142.36 232.74 151.74 228.68 149.39 220.55 140.01" style="fill:#263238"></polygon><polygon points="220.55 139.01 224.62 141.35 232.74 150.74 228.68 148.39 220.55 139.01" style="fill:#263238"></polygon><polygon points="224.62 142.36 208.37 165.81 192.12 156.43 208.37 132.97 224.62 142.36" style="fill:#37474f"></polygon><polygon points="224.62 141.35 208.37 164.81 192.12 155.43 208.37 131.97 224.62 141.35" style="fill:#37474f"></polygon><polygon points="224.62 141.35 224.62 142.36 232.74 151.74 232.74 150.74 224.62 141.35" style="fill:#455a64"></polygon><polygon points="224.62 141.35 208.37 164.81 208.37 165.81 224.62 142.36 224.62 141.35" style="fill:#455a64"></polygon><polygon points="192.12 155.43 192.12 156.43 208.37 165.81 208.37 164.81 192.12 155.43" style="fill:#263238"></polygon><polygon points="300.78 162.88 289.61 184.57 289.61 161.12 300.78 154.67 300.78 162.88" style="fill:#e0e0e0"></polygon><polygon points="289.61 161.12 277.42 140.01 269.3 149.39 269.3 172.84 289.61 184.57 289.61 161.12" style="fill:#f5f5f5"></polygon><path d="M283.21,158.53l-7.51-4.34c-.45-.26-.82-.05-.82.47v15.72a1.8,1.8,0,0,0,.82,1.4l7.51,4.34c.45.26.81,0,.81-.46V159.94A1.79,1.79,0,0,0,283.21,158.53Z" style="fill:#455a64"></path><path d="M282.52,159.94a1.06,1.06,0,0,0-.09-.13l-6-3.49v14.06a1,1,0,0,1,.1.13l6,3.48Z" style="fill:#fafafa"></path><polygon points="276.38 162.51 282.52 166.05 282.52 167.81 276.38 164.26 276.38 162.51" style="fill:#455a64"></polygon><polygon points="277.42 140.01 273.36 142.36 265.24 151.74 269.3 149.39 277.42 140.01" style="fill:#263238"></polygon><polygon points="277.42 139.01 273.36 141.35 265.24 150.74 269.3 148.39 277.42 139.01" style="fill:#263238"></polygon><polygon points="273.36 142.36 289.61 165.81 305.86 156.43 289.61 132.97 273.36 142.36" style="fill:#37474f"></polygon><polygon points="273.36 141.35 289.61 164.81 305.86 155.43 289.61 131.97 273.36 141.35" style="fill:#455a64"></polygon><polygon points="273.36 141.35 273.36 142.36 265.24 151.74 265.24 150.74 273.36 141.35" style="fill:#455a64"></polygon><polygon points="273.36 141.35 289.61 164.81 289.61 165.81 273.36 142.36 273.36 141.35" style="fill:#455a64"></polygon><polygon points="305.86 155.43 305.86 156.43 289.61 165.81 289.61 164.81 305.86 155.43" style="fill:#263238"></polygon><polygon points="196.18 276.03 179.94 285.42 179.94 290.11 196.18 280.72 196.18 276.03" style="fill:#263238"></polygon><polygon points="179.94 285.42 102.76 240.85 102.76 245.55 179.94 290.11 179.94 285.42" style="fill:#455a64"></polygon><polygon points="119 231.47 102.76 240.85 179.94 285.42 196.18 276.03 119 231.47" style="fill:#37474f"></polygon><path d="M177.87,279.55a1,1,0,0,0,.6.82,3.22,3.22,0,0,0,2.93,0,1,1,0,0,0,.6-.82h0v-58h-4.15v58Z" style="fill:#263238"></path><path d="M111,241.1a1,1,0,0,0,.61.83,3.26,3.26,0,0,0,2.92,0,1,1,0,0,0,.61-.83h0V183.15H111V241.1Z" style="fill:#263238"></path><polygon points="196.18 219.75 114.94 172.84 98.69 182.22 179.93 229.13 196.18 219.75" style="fill:#455a64"></polygon><polygon points="179.93 229.13 179.93 231.47 196.18 222.09 196.18 219.75 179.93 229.13" style="fill:#263238"></polygon><polygon points="179.93 229.13 98.69 182.22 98.69 184.57 179.93 231.47 179.93 229.13" style="fill:#37474f"></polygon></g><g id="freepik--for-sale--inject-1--inject-133"><path d="M265.73,383a2.27,2.27,0,0,0,1.31,1.8,7.05,7.05,0,0,0,6.39,0,2.27,2.27,0,0,0,1.31-1.8h0V317.19h-9V383Z" style="fill:#263238"></path><polygon points="228.49 329.94 228.49 290.06 309.07 336.58 309.07 376.46 228.49 329.94" style="fill:#f0f0f0"></polygon><polygon points="228.49 290.06 234.24 286.74 314.83 333.26 309.07 336.58 228.49 290.06" style="fill:#f5f5f5"></polygon><polygon points="314.83 333.26 314.83 373.14 309.07 376.46 309.07 336.58 314.83 333.26" style="fill:#e0e0e0"></polygon><path d="M234.92,320.69V306.16c0-.3.05-.49.16-.56s.28,0,.51.1l5.35,3.09c.33.19.49.61.49,1.27v.59c0,.65-.16.89-.49.7l-3.39-2v4l3.15,1.81c.33.19.49.62.49,1.27v.6c0,.65-.16.88-.49.69l-3.15-1.81v6.28c0,.23-.08.35-.23.36a1.58,1.58,0,0,1-.78-.28l-.61-.36C235.26,321.54,234.92,321.13,234.92,320.69Z" style="fill:#7499F0"></path><path d="M242.85,317.87q0-8.13,5.11-5.19T253,323.75q0,8.17-5.08,5.24T242.85,317.87Zm6.93,8.32a8.72,8.72,0,0,0,.59-4,14.16,14.16,0,0,0-.58-4.64,4.16,4.16,0,0,0-1.81-2.32c-.83-.48-1.45-.41-1.84.21s-.6,1.94-.6,4a14.13,14.13,0,0,0,.6,4.67,4.23,4.23,0,0,0,1.84,2.35C248.78,326.91,249.38,326.82,249.78,326.19Z" style="fill:#7499F0"></path><path d="M255.1,332.34V317.81c0-.29.05-.47.17-.54s.28,0,.52.09L259,319.2a7.27,7.27,0,0,1,4,6.64q0,2.71-1.86,2.79v.09a8.3,8.3,0,0,1,1.35,3.26l1.18,5.1a.85.85,0,0,1,0,.17.47.47,0,0,1,0,.16c0,.35-.35.32-1.06-.09L262,337c-.62-.36-1-.73-1-1.12l-1.08-5a4.81,4.81,0,0,0-.55-1.39,2.67,2.67,0,0,0-.94-.83l-.73-.43v5.65c0,.44-.35.46-1,0l-.53-.31C255.44,333.2,255.1,332.78,255.1,332.34Zm4-6.11a.68.68,0,0,0,.91-.09,2.11,2.11,0,0,0,.38-1.43,3.93,3.93,0,0,0-.37-1.82,2.45,2.45,0,0,0-1-1.09l-1.35-.78v4.38Z" style="fill:#7499F0"></path><path d="M268.92,340.78a7.4,7.4,0,0,1-1.4-1.66,4.24,4.24,0,0,1-.18-.46,1.27,1.27,0,0,1-.06-.41,2.07,2.07,0,0,1,.24-1q.24-.45.54-.27a1.61,1.61,0,0,1,.39.4c.17.21.28.35.34.41a6.41,6.41,0,0,0,1.84,1.7,1.66,1.66,0,0,0,1.27.28c.35-.1.53-.48.53-1.12a3.4,3.4,0,0,0-.47-1.75,14.54,14.54,0,0,0-1.43-2,23.23,23.23,0,0,1-1.65-2.19,9.35,9.35,0,0,1-1-2.09,7.19,7.19,0,0,1-.37-2.35c0-1.37.38-2.23,1.15-2.57a3.35,3.35,0,0,1,3,.55,8.31,8.31,0,0,1,1.38,1,7.55,7.55,0,0,1,1.15,1.23,1.33,1.33,0,0,1,.28.77,2.54,2.54,0,0,1-.22,1c-.15.32-.31.43-.5.33a2.94,2.94,0,0,1-.45-.43A6.81,6.81,0,0,0,271.8,329q-.84-.48-1.26-.24a1,1,0,0,0-.43.94,3.27,3.27,0,0,0,.27,1.31,5.17,5.17,0,0,0,.61,1.07c.23.3.65.82,1.26,1.57a15.69,15.69,0,0,1,2.08,3.11,7.27,7.27,0,0,1,.67,3.14,4.08,4.08,0,0,1-.48,2.12,1.73,1.73,0,0,1-1.45.85,4.13,4.13,0,0,1-2.3-.71A10.1,10.1,0,0,1,268.92,340.78Z" style="fill:#7499F0"></path><path d="M275.49,344.32c0-.05,0-.17,0-.37l3.25-12.79c.08-.33.43-.32,1.07,0l1,.6A2,2,0,0,1,282,333l3.23,16.53c0,.23,0,.36,0,.41,0,.3-.27.3-.81,0l-.8-.46c-.56-.33-.87-.65-.93-1l-.63-3.5-3.44-2-.63,2.76c-.06.26-.34.24-.86-.06l-.79-.45Q275.49,344.77,275.49,344.32Zm6.22-1.94-1.07-5.94c-.09-.54-.17-1.13-.24-1.76l-.1-.06c-.07.56-.15,1.05-.24,1.49l-1,4.71Z" style="fill:#7499F0"></path><path d="M286.79,351.06a1.49,1.49,0,0,1-.16-.75V335.79c0-.44.34-.47,1-.08l.61.35a2.6,2.6,0,0,1,.77.61,1,1,0,0,1,.24.64v12.81l3.36,1.94a.88.88,0,0,1,.4.47,2.27,2.27,0,0,1,.12.81v.59a1.32,1.32,0,0,1-.12.68c-.08.11-.21.12-.4,0l-5.32-3.07A1.42,1.42,0,0,1,286.79,351.06Z" style="fill:#7499F0"></path><path d="M294.86,355.72a1.49,1.49,0,0,1-.16-.75v-14.3c0-.3.05-.49.16-.56s.28,0,.51.11l5.78,3.33a1,1,0,0,1,.4.47,2.33,2.33,0,0,1,.11.81v.6a1.32,1.32,0,0,1-.11.67c-.08.11-.22.12-.4,0l-3.82-2.2v4l3.4,2a.86.86,0,0,1,.4.46,2.31,2.31,0,0,1,.12.81v.6a1.27,1.27,0,0,1-.12.67c-.08.12-.21.12-.4,0l-3.4-2v4.34l3.84,2.22a.83.83,0,0,1,.38.44,2.28,2.28,0,0,1,.11.82v.6a1.27,1.27,0,0,1-.11.68c-.08.11-.21.11-.38,0l-5.8-3.34A1.42,1.42,0,0,1,294.86,355.72Z" style="fill:#7499F0"></path></g><g id="freepik--Clouds--inject-1--inject-133"><path d="M119.12,112.13l-2.89,1.11v-6.36c0-5-4-6.26-8.39-3.74h0c-4.37,2.53-7.92,8.66-7.92,13.71v.93a4.21,4.21,0,0,0-3.67.56h0a12.58,12.58,0,0,0-5.7,9.87v.42l-4,2.32a8.31,8.31,0,0,0-3.75,6.5c0,2.39,1.68,3.36,3.75,2.16l32.6-18.82a8.28,8.28,0,0,0,3.75-6.49C122.87,111.91,121.19,110.94,119.12,112.13Z" style="fill:#f0f0f0"></path><path d="M86.4,114.24l-5.23,3c0-.23,0-.47,0-.69v-1.52c0-2.7-1.9-3.8-4.24-2.45A8.41,8.41,0,0,0,74.45,115c-.38-3.4-3-4.66-6.28-2.79a14,14,0,0,0-6.34,11v2.27a5.86,5.86,0,0,0,.54,2.63L58,130.64a5.2,5.2,0,0,0-2.35,4.06c0,1.5,1.06,2.11,2.35,1.36L86.4,119.67a5.19,5.19,0,0,0,2.35-4.07C88.75,114.1,87.7,113.5,86.4,114.24Z" style="fill:#f0f0f0"></path></g><g id="freepik--Character--inject-1--inject-133"><rect x="377.58" y="376.23" width="5.63" height="8.2" style="fill:#ffa8a7"></rect><rect x="357.91" y="366.18" width="5.63" height="8.2" transform="translate(-12.51 12.62) rotate(-1.97)" style="fill:#ffa8a7"></rect><path d="M382.84,296.17c0,5.37.7,40.16.7,40.16.13,1.55,1.58,4.41,1.27,10.35-.43,8.07-1.13,30.5-1.13,30.5s-2.64,2.62-6.37,0c0,0-5.1-30.47-6.11-38.47-.88-7-2.37-26-2.37-26l-5.22,22.33s.92,5.25,1.12,9-1,25.1-1,25.1a6.13,6.13,0,0,1-6.12.23s-4.53-31.26-5.11-34.61,4-38.59,4-38.59Z" style="fill:#37474f"></path><path d="M362.37,258.66c-2.31.27-4.15,1.52-7.5,7.22-2.68,4.56-8.28,13.3-8.28,13.3-.52-.4-12.92-7.61-15.67-11a20.62,20.62,0,0,0-2.07-3.66c-1.06-1.37-2.14-2.72-3.26-4a1.48,1.48,0,0,0-.29-.27c-.41-.24-1,.12-1.1.58a2.34,2.34,0,0,0,.16,1.4c.2.6.8,1.43,0,1.57a4,4,0,0,1-2.11-.47c-1.08-.46-2.14-1-3.18-1.53a4.84,4.84,0,0,0-2.12-.76,2.73,2.73,0,0,0-2.47,1.88,4,4,0,0,0,.39,3.2,8.07,8.07,0,0,0,2.23,2.43c1.89,1.47,4.41,2.15,6.71,2.76a10.42,10.42,0,0,1,3.24,1.51c1.83,1.28,11.46,10.23,15.91,13.73,2.12,1.67,5.14,2.6,7.56.15s12.13-15.4,12.13-15.4l6.11-12.09A28,28,0,0,0,362.37,258.66Z" style="fill:#ffa8a7"></path><path d="M361.67,258.78c-1.63.59-4.59,2.83-8.73,9.43s-6.88,10.64-6.88,10.64l-13.2-9.36a12.32,12.32,0,0,0-4.23,5.42s14.09,12.19,15.2,13.07c2.44,1.93,3.71,2.29,5.87.47s9.35-12.51,9.35-12.51Z" style="fill:#263238"></path><path d="M374.36,258.92l.08,0a11.16,11.16,0,0,1,8.4,10.86v26.37c-3.95,4.29-17.72,6.29-26.34,0V268.71c0-4.39,2.44-9.66,9.17-10Z" style="fill:#fff"></path><path d="M376.26,236.47a3,3,0,0,1,2.48.87c1.07,1.09.85,3.11,0,7.75l-3.29.38Z" style="fill:#263238"></path><path d="M357,235.12a5.07,5.07,0,0,1-2.06-.41c-1-.59-1.28.56-.72,1.56a4.71,4.71,0,0,0,3.82,2.55c0-.14.95-2.57.95-2.57Z" style="fill:#263238"></path><path d="M374.71,245.47c.49.29,1.19-.65,1.8-1.28a2.12,2.12,0,0,1,3.55.58c1,2.11-1.27,4.91-2.61,5.84a2.35,2.35,0,0,1-2.74.24l-.35,8.07s-1.64,3-6.37,3.7c-2.65.4-3.88-2-2.32-4v-2.93a11.26,11.26,0,0,1-3.61.18c-.62-.16-2.09-1.94-3-3.94-1.07-2.24-2.85-6.21-1.27-12.94,1.7-7.22,9.46-7.44,14.09-4.53S374.71,245.47,374.71,245.47Z" style="fill:#ffa8a7"></path><path d="M374.71,246.29c.25,0,1.19-1.55,1.8-2.1.84-.77-.25-7.72-.25-7.72s.85-2.64-.81-4.39-4.91-1.46-7.27-1.54a21.26,21.26,0,0,1-8.45-1.7c-3.36-1.45-3.61-1.63-4-.15s-.58,4.85,1.43,7.11l1.66.61s.9.8,4,1.18a46.64,46.64,0,0,0,8.68-.16c.91-.13,1.1.75,1.59,3.16C373.53,242.7,373.89,246.28,374.71,246.29Z" style="fill:#263238"></path><path d="M376.26,237l2.95-1.59a1.63,1.63,0,0,0-2.24-.74A1.77,1.77,0,0,0,376.26,237Z" style="fill:#263238"></path><path d="M365.68,255.73a34.31,34.31,0,0,0,5.92-1.7,5.11,5.11,0,0,0,2.12-2.1,7,7,0,0,1-1.21,2.48c-1.12,1.43-6.83,2.49-6.83,2.49Z" style="fill:#f28f8f"></path><path d="M366.73,244.37a.88.88,0,1,0,.88-.91A.89.89,0,0,0,366.73,244.37Z" style="fill:#263238"></path><path d="M367.66,241.05l1.88,1a1.14,1.14,0,0,0-.43-1.5A1.06,1.06,0,0,0,367.66,241.05Z" style="fill:#263238"></path><path d="M366.8,250.33l-2,.76a1.05,1.05,0,0,0,1.36.66A1.13,1.13,0,0,0,366.8,250.33Z" style="fill:#f28f8f"></path><path d="M358.89,241.78l1.71-1.32a1,1,0,0,0-1.49-.23A1.14,1.14,0,0,0,358.89,241.78Z" style="fill:#263238"></path><path d="M359.42,244.12a.89.89,0,0,0,.88.91.9.9,0,0,0,.88-.91.88.88,0,1,0-1.76,0Z" style="fill:#263238"></path><polygon points="363.9 243.29 363.61 248.58 360.85 247.63 363.9 243.29" style="fill:#f28f8f"></polygon><path d="M377.58,381.65v-.8c-.54.23-1.79,5-4,7-1.77,1.62-4.2,3.49-4.81,5.3s3.37,2.91,5,2.62c1.93-.34,5.27-1.7,6.11-3s1.23-3.11,1.92-4,2.25-1.95,2.62-3a6.88,6.88,0,0,0-.32-2.95c-.26-1-.55-2.1-.89-2v.61a4.36,4.36,0,0,1-2.81,1C379.57,382.45,377.57,382.28,377.58,381.65Z" style="fill:#263238"></path><path d="M358,372.74c-.3,0-.53.42-1.18,1.12a12.35,12.35,0,0,1-3.31,2.38c-2.11,1.06-6.21,2.68-8.07,3.52-1.16.52-1.1,1.92.1,2.71s4.09,1.38,7.56.6c1.89-.42,4.36-2.17,5.92-2.08s4.47.07,5.63-.72.69-2.49.36-3.94-.86-4-1.39-3.91l0,.49c-.68,1-4.13,1.45-5.61.69Z" style="fill:#263238"></path><path d="M368.83,312.75a44.61,44.61,0,0,1-6.51-3.58,16.88,16.88,0,0,0,5,4.17l-2.73,17.44Z" style="fill:#263238"></path><path d="M365.68,258.67a12.24,12.24,0,0,0-3.92,6.07c-.84,3.62-1,44-1,44s-4.29-.8-6.3-2.37V269.47c0-5.05,1.22-10.55,11.18-11.39Z" style="fill:#263238"></path><path d="M374.36,258.78s-4.82,3.06-4.88,17.06c-.06,12.1-.3,33.32-.3,33.32s8.4,1.71,14.4-1.87c0,0-.68-30.31-.79-34.86-.13-5.2,1.39-9.62-1.54-11.09A44.49,44.49,0,0,0,374.36,258.78Z" style="fill:#263238"></path><path d="M391.19,308.49l-5.78-1c0,1,0,1.82-.05,2.52a5.59,5.59,0,0,1-1.43,2.41,15.67,15.67,0,0,0-2.49,3.86c-.66,1.14-1.36,1.55-1.17,1.82a1.5,1.5,0,0,0,2,.21,10.06,10.06,0,0,0,1.85-1.67,13.83,13.83,0,0,1-1.27,4.27c-1.48,3.09-1.19,4.7,3.06,3.71,2.67-.62,4.39-2.78,5-9.12A48.72,48.72,0,0,0,391.19,308.49Z" style="fill:#ffa8a7"></path><path d="M378.47,260.15a23.47,23.47,0,0,1,5.1,2.53c1.27,1,8.66,22.21,8.95,24.11s-.81,22-.81,22a6.87,6.87,0,0,1-6.71.43l-1.18-20.12L378,273.85S375.06,265.59,378.47,260.15Z" style="fill:#263238"></path><polygon points="375.77 266.44 373.15 269.68 374.46 273.37 371.02 282.19 375.17 273.37 373.72 269.89 375.77 266.44" style="fill:#37474f"></polygon><polygon points="358.43 264.69 358.99 268.04 356.73 271 359.88 280.93 357.44 271.11 359.53 268.35 358.43 264.69" style="fill:#37474f"></polygon></g></svg>