<svg width="376" height="355" viewBox="0 0 376 355" fill="none" xmlns="http://www.w3.org/2000/svg">
<path fill-rule="evenodd" clip-rule="evenodd" d="M190.177 350.031C152.281 342.543 130.468 305.71 98.6901 283.812C65.7753 261.13 9.16676 258.623 0.895625 219.598C-7.5952 179.537 46.682 154.636 63.3835 117.227C77.3495 85.9456 64.4041 43.6238 89.7692 20.5356C115.544 -2.92535 155.424 -1.41334 190.177 1.81538C222.461 4.81476 249.178 22.9127 277.848 38.009C312.278 56.1378 364.702 61.0516 374.176 98.6992C383.798 136.934 328.914 161.832 318.583 199.882C307.272 241.545 340.54 293.204 312.45 326.05C284.826 358.352 231.945 358.285 190.177 350.031Z" fill="url(#paint0_linear)"/>
<path d="M264.435 73.1794C263.472 71.2107 261.938 69.5782 260.032 68.4952L145.506 3.33914C144.97 3.13466 144.402 3.02375 143.829 3.01125C137.927 2.88946 132.006 8.44483 131.172 11.3583C130.983 11.7265 130.883 12.1342 130.882 12.5481V260.188C130.881 262.121 131.392 264.02 132.363 265.692C133.334 267.364 134.73 268.749 136.409 269.706L250.945 334.975C251.088 335.044 251.235 335.103 251.386 335.153V335.153C258.215 338.048 265.494 332.024 265.494 325.719V78.0134C265.514 76.3424 265.152 74.6889 264.435 73.1794V73.1794Z" fill="#37474F"/>
<path d="M131.21 11.3481C132.044 8.43453 137.965 2.91664 143.867 3.00096C144.431 3.01664 144.988 3.1275 145.516 3.32884L259.996 68.4943C261.681 69.4531 263.086 70.8358 264.072 72.5055C265.058 74.1751 265.591 76.0736 265.616 78.0125V325.746C265.616 332.051 258.337 338.075 251.508 335.18C251.357 335.13 251.21 335.071 251.068 335.002L136.447 269.705C134.768 268.748 133.372 267.363 132.401 265.691C131.43 264.019 130.919 262.12 130.92 260.187V12.5566C130.919 12.1363 131.018 11.7218 131.21 11.3481V11.3481Z" fill="#455A64"/>
<path d="M249.596 104.197C249.605 103.23 249.358 102.279 248.881 101.438C248.404 100.597 247.713 99.8977 246.879 99.4095L140.493 38.9375C140.076 38.6989 139.604 38.5744 139.123 38.5764C138.643 38.5785 138.171 38.7071 137.756 38.9492C137.341 39.1914 136.997 39.5386 136.759 39.9559C136.521 40.3732 136.397 40.8459 136.399 41.3264V241.076C136.397 242.041 136.649 242.989 137.131 243.825C137.613 244.661 138.308 245.354 139.144 245.835L245.502 306.448C245.918 306.686 246.39 306.81 246.87 306.809C247.349 306.807 247.82 306.679 248.235 306.438C248.65 306.197 248.994 305.851 249.233 305.435C249.472 305.019 249.597 304.548 249.596 304.068V104.197Z" fill="#4B7FB9"/>
<path opacity="0.2" d="M249.596 104.197C249.605 103.23 249.358 102.279 248.881 101.438C248.404 100.597 247.713 99.8977 246.879 99.4095L140.493 38.9375C140.076 38.6989 139.604 38.5744 139.123 38.5764C138.643 38.5785 138.171 38.7071 137.756 38.9492C137.341 39.1914 136.997 39.5386 136.759 39.9559C136.521 40.3732 136.397 40.8459 136.399 41.3264V241.076C136.397 242.041 136.649 242.989 137.131 243.825C137.613 244.661 138.308 245.354 139.144 245.835L245.502 306.448C245.918 306.686 246.39 306.81 246.87 306.809C247.349 306.807 247.82 306.679 248.235 306.438C248.65 306.197 248.994 305.851 249.233 305.435C249.472 305.019 249.597 304.548 249.596 304.068V104.197Z" fill="black"/>
<path opacity="0.3" d="M265.616 78.0125V325.746C265.616 332.051 258.337 338.075 251.508 335.18C251.919 335.329 252.36 335.376 252.794 335.319C253.227 335.262 253.64 335.101 253.999 334.85C254.357 334.599 254.65 334.266 254.852 333.878C255.054 333.49 255.16 333.06 255.161 332.622V84.8606C255.15 82.7024 254.497 80.5962 253.288 78.8088L264.53 73.1878C265.255 74.6922 265.626 76.3425 265.616 78.0125V78.0125Z" fill="black"/>
<path opacity="0.1" d="M143.829 3.0103C144.393 3.02599 144.951 3.13684 145.478 3.33819L259.995 68.4943C261.901 69.5773 263.435 71.2097 264.398 73.1784L253.156 78.7994C252.221 77.3689 250.959 76.1809 249.475 75.3331L135.013 10.177C134.689 9.99318 134.331 9.87752 133.961 9.83713C133.59 9.79674 133.215 9.83247 132.859 9.94213C132.503 10.0518 132.173 10.233 131.889 10.4748C131.606 10.7166 131.375 11.0137 131.21 11.348V11.348C132.034 8.44388 137.955 2.91662 143.829 3.0103Z" fill="white"/>
<path d="M178.884 51.0881C178.079 50.6197 177.414 50.9851 177.404 51.9125C177.435 52.4198 177.584 52.9128 177.839 53.3521C178.094 53.7914 178.449 54.1646 178.875 54.442L201.359 67.417C202.165 67.8854 202.811 67.4919 202.82 66.5645C202.793 66.0625 202.647 65.5742 202.395 65.1395C202.142 64.7048 201.791 64.3359 201.368 64.0631L178.884 51.0881Z" fill="#263238"/>
<path d="M207.121 67.3889C206.315 66.9298 205.669 67.2952 205.669 68.2226C205.692 68.7284 205.834 69.2215 206.085 69.6613C206.336 70.1011 206.688 70.4749 207.112 70.7521C207.917 71.2111 208.582 70.8364 208.582 69.9089C208.555 69.4033 208.409 68.9112 208.155 68.4732C207.901 68.0351 207.546 67.6635 207.121 67.3889V67.3889Z" fill="#263238"/>
<path d="M192.741 49.2051C191.129 48.2683 189.837 49.0084 189.827 50.8633C189.879 51.8719 190.168 52.8541 190.671 53.7299C191.174 54.6057 191.877 55.3504 192.722 55.9034C194.324 56.8402 195.664 56.072 195.664 54.2265C195.606 53.2186 195.311 52.2386 194.803 51.3661C194.295 50.4936 193.588 49.7532 192.741 49.2051V49.2051Z" fill="#263238"/>
<path d="M192.73 282.418C189.461 280.544 186.819 282.034 186.81 285.791C186.906 287.851 187.49 289.859 188.512 291.651C189.535 293.442 190.968 294.965 192.693 296.096C195.962 297.969 198.679 296.433 198.688 292.676C198.571 290.618 197.971 288.617 196.935 286.835C195.9 285.053 194.46 283.54 192.73 282.418Z" fill="#263238"/>
<path d="M231.618 111.026C231.487 110.68 231.337 110.333 231.178 109.996C230.525 108.663 229.588 107.489 228.433 106.558C228.036 106.247 227.616 105.965 227.178 105.714L123.219 46.5727C123.048 46.4958 122.869 46.4392 122.685 46.404C122.376 46.3395 122.063 46.2988 121.748 46.2823C118.403 46.2167 115.049 48.1559 112.82 50.2638C111.693 51.2421 110.816 52.4754 110.262 53.8612V53.8612C110.186 54.0276 110.123 54.1999 110.075 54.3764C110.026 54.563 110.001 54.755 110 54.9479V279.72C109.999 281.475 110.465 283.198 111.349 284.713C111.567 285.087 111.808 285.447 112.07 285.791C112.876 286.832 113.878 287.704 115.021 288.358L219.009 347.593C219.136 347.657 219.268 347.713 219.402 347.762C219.402 347.762 219.402 347.762 219.449 347.762C225.651 350.385 232.256 344.951 232.256 339.19V114.399C232.24 113.246 232.025 112.105 231.618 111.026V111.026Z" fill="#4B7FB9"/>
<path d="M110.244 53.8611C111.002 51.2099 116.38 46.1698 121.729 46.2822C122.245 46.2922 122.755 46.3904 123.237 46.5726L227.225 105.714C228.744 106.592 230.007 107.852 230.89 109.369C231.772 110.886 232.243 112.607 232.256 114.361V339.236C232.256 344.97 225.698 350.432 219.449 347.808C219.449 347.808 219.449 347.808 219.402 347.808C219.268 347.76 219.137 347.704 219.009 347.64L115.021 288.404C113.498 287.535 112.231 286.278 111.349 284.761C110.467 283.244 110.002 281.521 110 279.767V54.9479C109.997 54.5717 110.08 54.1998 110.244 53.8611Z" fill="#4B7FB9"/>
<path opacity="0.2" d="M232.209 114.399V339.236C232.209 344.97 225.651 350.432 219.402 347.808C219.402 347.808 219.402 347.808 219.355 347.808C219.729 347.943 220.13 347.987 220.524 347.935C220.919 347.882 221.294 347.736 221.62 347.509C221.946 347.281 222.213 346.978 222.397 346.626C222.582 346.274 222.679 345.883 222.681 345.485V120.647C222.673 118.691 222.086 116.781 220.995 115.158L231.178 110.071C231.845 111.417 232.198 112.897 232.209 114.399Z" fill="white"/>
<path opacity="0.4" d="M121.72 46.2822C122.236 46.2922 122.746 46.3904 123.229 46.5726L227.216 105.714C228.949 106.708 230.343 108.199 231.216 109.996L221.033 115.083C220.183 113.783 219.037 112.704 217.688 111.935L113.701 52.7838C113.405 52.618 113.079 52.5142 112.742 52.4789C112.405 52.4435 112.064 52.4773 111.741 52.5782C111.417 52.679 111.117 52.8448 110.86 53.0654C110.603 53.286 110.393 53.5567 110.244 53.8611C111.04 51.2099 116.371 46.1698 121.72 46.2822Z" fill="white"/>
<path opacity="0.3" d="M110.244 53.8611C111.002 51.2099 116.38 46.1698 121.729 46.2822C122.245 46.2922 122.755 46.3904 123.237 46.5726L227.225 105.714C228.744 106.592 230.007 107.852 230.89 109.369C231.772 110.886 232.243 112.607 232.256 114.361V339.236C232.256 344.97 225.698 350.432 219.449 347.808C219.449 347.808 219.449 347.808 219.402 347.808C219.268 347.76 219.137 347.704 219.009 347.64L115.021 288.404C113.498 287.535 112.231 286.278 111.349 284.761C110.467 283.244 110.002 281.521 110 279.767V54.9479C109.997 54.5717 110.08 54.1998 110.244 53.8611Z" fill="white"/>
<path opacity="0.3" d="M119.115 114.399C119.112 113.261 118.909 112.132 118.516 111.064C118.909 112.132 119.112 113.261 119.115 114.399V114.399Z" fill="white"/>
<path d="M212.011 161.343L119.359 107.841C118.469 107.326 117.748 107.738 117.748 108.778L117.598 213.206C117.625 213.768 117.785 214.316 118.065 214.805C118.345 215.293 118.737 215.708 119.209 216.016L211.852 269.509C212.741 270.015 213.463 269.612 213.472 268.572L213.603 164.135C213.578 163.577 213.42 163.032 213.143 162.547C212.866 162.062 212.478 161.649 212.011 161.343V161.343Z" fill="#4B7FB9"/>
<path d="M123.604 73.141L124.709 73.778L124.718 69.047L123.622 68.41L123.604 73.141Z" fill="white"/>
<path d="M121.71 72.0449L122.806 72.6819L122.825 68.8503L121.719 68.2226L121.71 72.0449Z" fill="white"/>
<path d="M119.818 70.9488L120.914 71.5858L120.924 68.7473L119.828 68.1102L119.818 70.9488Z" fill="white"/>
<path d="M117.926 69.8621L119.022 70.4898L119.031 68.5786L117.926 67.9416V69.8621Z" fill="white"/>
<path d="M127.706 75.5018L134.442 79.3989L134.451 75.4268L127.715 71.5296L127.706 75.5018Z" fill="white"/>
<path d="M137.796 81.3288L141.168 83.2774L141.178 79.3053L137.805 77.366L137.796 81.3288Z" fill="white"/>
<path d="M207.364 121.003L207.374 117.799L210.99 119.888L207.374 117.799L207.364 121.003Z" fill="white"/>
<path d="M207.364 121.003L210.99 123.092V119.888L207.374 117.799L207.364 121.003Z" fill="#4B7FB9"/>
<path d="M213.537 121.893V120.638L206.708 116.694V121.378L213.537 125.322V124.076L214.409 124.582V122.352L213.537 121.893ZM210.989 123.139L207.364 121.05V117.846L210.989 119.935V123.139Z" fill="white"/>
<path d="M196.919 115.392L203.655 119.28L203.673 115.307L196.928 111.42L196.919 115.392Z" fill="white"/>
<path d="M164.748 96.5803L171.484 100.477L171.503 96.5054L164.757 92.6082L164.748 96.5803Z" fill="white"/>
<path d="M148.981 265.452L148.972 269.415L166.247 279.392L166.265 275.429L148.981 265.452Z" fill="#4B7FB9"/>
<path d="M174.181 267.054L156.401 256.777L156.382 260.74L174.172 271.008L174.181 267.054Z" fill="#4B7FB9"/>
<path d="M119.228 245.46L141.065 258.154L141.074 254.201L119.237 241.507L119.228 245.46Z" fill="#4B7FB9"/>
<path d="M151.613 254.023L119.255 235.249L119.246 239.202L151.604 257.976L151.613 254.023Z" fill="#4B7FB9"/>
<path d="M145.833 260.909L185.236 283.655L185.245 279.701L145.852 256.955L145.833 260.909Z" fill="#4B7FB9"/>
<path d="M144.784 263.035L119.255 248.299L119.246 252.252L144.775 266.989L144.784 263.035Z" fill="#4B7FB9"/>
<path d="M178.763 273.659L210.249 291.843L210.268 287.88L178.772 269.696L178.763 273.659Z" fill="#4B7FB9"/>
<path d="M189.827 286.306L210.241 298.091L210.25 294.138L189.846 282.353L189.827 286.306Z" fill="#4B7FB9"/>
<path d="M119.246 265.855L158.649 288.601L158.658 284.648L119.255 261.892L119.246 265.855Z" fill="#4B7FB9"/>
<path d="M119.255 271.242L119.246 275.205L144.784 289.941V285.978L119.255 271.242Z" fill="#4B7FB9"/>
<path d="M164.495 297.351L148.925 288.367V292.33L164.485 301.314L164.495 297.351Z" fill="#4B7FB9"/>
<path d="M121.607 222.77C121.368 222.595 121.087 222.487 120.792 222.457C120.497 222.428 120.199 222.478 119.93 222.602C118.993 223.126 118.993 224.841 119.93 226.433L120.464 227.37L123.799 233.141L127.153 231.267L127.696 230.958C128.633 230.434 128.633 228.71 127.696 227.117C127.302 226.386 126.728 225.767 126.029 225.319C125.788 225.148 125.507 225.042 125.213 225.013C124.919 224.983 124.622 225.03 124.352 225.15L123.809 225.459L123.275 224.522C122.878 223.805 122.304 223.202 121.607 222.77V222.77Z" fill="white"/>
<path d="M135.51 230.986C136.708 231.765 137.705 232.816 138.42 234.053C139.135 235.291 139.547 236.679 139.623 238.106C139.65 238.829 139.453 239.542 139.061 240.149L139.604 242.837L137.543 241.02C136.816 241.045 136.099 240.853 135.482 240.467C134.286 239.687 133.291 238.636 132.578 237.399C131.865 236.161 131.454 234.773 131.379 233.347C131.388 230.724 133.234 229.675 135.51 230.986Z" fill="white"/>
<path d="M170.8 146.953L175.587 155.703L182.547 158.13L185.489 167.236L192.524 172.257L193.339 180.82L199.766 187.949L198.351 195.134L203.541 203.659L200.056 208.765L203.504 217.871L198.286 220.391L199.644 229.178L193.199 228.869L192.346 236.476L185.302 233.366L182.322 239.053L175.371 233.441L170.547 236.654L164.373 229.103L158.18 229.516L153.384 220.756L146.433 218.339L143.491 209.224L136.456 204.212L135.65 195.64L129.223 188.52L130.628 181.325L125.438 172.8L128.923 167.695L125.476 158.589L130.703 156.069L129.336 147.281L135.781 147.6L136.634 139.993L143.678 143.094L146.667 137.407L153.609 143.019L158.433 139.815L164.607 147.366L170.8 146.953Z" fill="#4B7FB9"/>
<g opacity="0.4">
<path opacity="0.4" d="M170.8 146.953L175.587 155.703L182.547 158.13L185.489 167.236L192.524 172.257L193.339 180.82L199.766 187.949L198.351 195.134L203.541 203.659L200.056 208.765L203.504 217.871L198.286 220.391L199.644 229.178L193.199 228.869L192.346 236.476L185.302 233.366L182.322 239.053L175.371 233.441L170.547 236.654L164.373 229.103L158.18 229.516L153.384 220.756L146.433 218.339L143.491 209.224L136.456 204.212L135.65 195.64L129.223 188.52L130.628 181.325L125.438 172.8L128.923 167.695L125.476 158.589L130.703 156.069L129.336 147.281L135.781 147.6L136.634 139.993L143.678 143.094L146.667 137.407L153.609 143.019L158.433 139.815L164.607 147.366L170.8 146.953Z" fill="white"/>
</g>
<path d="M164.589 154.036C181.021 163.526 194.296 186.525 194.24 205.411C194.183 224.298 180.824 231.905 164.439 222.424C148.054 212.943 134.733 189.935 134.779 171.048C134.826 152.162 148.148 144.555 164.589 154.036Z" fill="#4B7FB9"/>
<g opacity="0.2">
<path opacity="0.2" d="M164.589 154.036C181.021 163.526 194.296 186.525 194.24 205.411C194.183 224.298 180.824 231.905 164.439 222.424C148.054 212.943 134.733 189.935 134.779 171.048C134.826 152.162 148.148 144.555 164.589 154.036Z" fill="white"/>
</g>
<path d="M184.825 183.724C185.546 184.136 185.977 185.494 185.33 185.728C179.419 187.883 166.894 193.045 159.249 200.465C158.981 200.671 158.651 200.783 158.312 200.783C157.974 200.783 157.644 200.671 157.376 200.465C156.561 199.969 155.91 199.246 155.502 198.385C151.992 191.319 148.059 184.471 143.726 177.878C142.939 176.679 143.445 175.545 144.382 176.089C144.459 176.131 144.531 176.181 144.597 176.238C149.32 180.209 153.455 184.83 156.879 189.963C168.458 182.525 178.969 182.721 184.515 183.611C184.624 183.63 184.729 183.668 184.825 183.724Z" fill="white"/>
<path d="M125.524 93.0204C127.266 94.1543 128.715 95.6839 129.754 97.4845C130.793 99.2852 131.391 101.306 131.5 103.382C131.5 107.185 128.793 108.722 125.486 106.81C123.737 105.681 122.28 104.153 121.235 102.352C120.189 100.551 119.585 98.5283 119.472 96.4491C119.519 92.6456 122.207 91.1092 125.524 93.0204Z" fill="white"/>
<path d="M169.329 122.755L136.971 103.981L136.962 107.944L169.32 126.718L169.329 122.755Z" fill="white"/>
<defs>
<linearGradient id="paint0_linear" x1="187.652" y1="354.661" x2="187.652" y2="0" gradientUnits="userSpaceOnUse">
<stop stop-color="#25B1FF"/>
<stop offset="1" stop-color="#0F4462" stop-opacity="0"/>
</linearGradient>
</defs>
</svg>
