<svg width="376" height="360" viewBox="0 0 376 360" fill="none" xmlns="http://www.w3.org/2000/svg">
<path fill-rule="evenodd" clip-rule="evenodd" d="M185.126 9.62941C223.021 17.1174 244.834 53.9507 276.613 75.8491C309.527 98.5307 366.136 101.038 374.407 140.063C382.898 180.124 328.621 205.025 311.919 242.434C297.953 273.715 310.899 316.037 285.534 339.125C259.759 362.586 219.879 361.074 185.126 357.845C152.841 354.846 126.125 336.748 97.4544 321.652C63.0244 303.523 10.6004 298.609 1.12653 260.962C-8.49513 222.727 46.3887 197.829 56.7196 159.779C68.0312 118.116 34.7631 66.4574 62.8532 33.6107C90.4771 1.30933 143.358 1.37607 185.126 9.62941Z" fill="url(#paint0_linear)"/>
<path d="M92.4496 109.924H91.5322V111.3H92.4496V109.924Z" fill="#40618C"/>
<path d="M239.256 147.825H238.338V145.093H239.256V147.825ZM239.256 143.278H238.338V140.546H239.256V143.278ZM239.256 138.731H238.338V135.999H239.256V138.731ZM239.256 134.174H238.338V131.462H239.256V134.174ZM239.256 129.627H238.338V126.905H239.256V129.627ZM239.256 125.08H238.338V122.358H239.256V125.08ZM239.256 120.533H238.338V117.801H239.256V120.533ZM239.256 115.986H238.338V113.254H239.256V115.986ZM239.256 111.44H238.338V108.707H239.256V111.44ZM92.4477 108.099H91.5304V105.377H92.4477V108.099ZM239.256 106.893H238.338V104.16H239.256V106.893ZM92.4477 103.542H91.5304V100.82H92.4477V103.542ZM239.256 102.336H238.338V99.6036H239.256V102.336ZM92.4477 98.9953H91.5304V96.2632H92.4477V98.9953ZM239.256 97.7788H238.338V95.0666H239.256V97.7788ZM92.4477 94.4484H91.5304V91.7162H92.4477V94.4484ZM239.256 93.2319H238.338V90.5097H239.256V93.2319ZM92.4477 89.9015H91.5304V87.1693H92.4477V89.9015ZM239.256 88.685H238.338V87.3986C238.34 86.9467 238.297 86.4958 238.209 86.0525L239.106 85.873C239.206 86.3754 239.256 86.8864 239.256 87.3986V88.685ZM92.4477 85.3545H91.5304V82.6024H92.4477V85.3545ZM237.67 84.4471C237.305 83.6721 236.794 82.9747 236.164 82.3931L236.793 81.725C237.502 82.3852 238.081 83.1734 238.498 84.0483L237.67 84.4471ZM234.788 81.3859L232.425 80.0199L232.874 79.2321L235.237 80.5882L234.788 81.3859ZM92.4477 80.8076H91.5304V78.0755H92.4477V80.8076ZM230.85 79.1125L228.506 77.7564L228.955 76.9686L231.318 78.3247L230.85 79.1125ZM226.861 76.839L224.518 75.4829L224.967 74.6852L227.33 76.0513L226.861 76.839ZM92.3979 76.2507H91.4805V73.5285H92.3979V76.2507ZM222.972 74.6254L220.609 73.2593L221.058 72.4616L223.421 73.8277L222.972 74.6254ZM219.034 72.3519L216.661 70.9859L217.119 70.1881L219.482 71.5542L219.034 72.3519ZM92.4477 71.7636H91.5304V69.0415H92.4477V71.7636ZM215.095 70.0685L212.722 68.6426L213.181 67.8449L215.544 69.211L215.095 70.0685ZM211.106 67.795L208.743 66.4389L209.202 65.6412L211.565 67.0073L211.106 67.795ZM92.4477 67.2167H91.5304V64.4845H92.4477V67.2167ZM207.208 65.5216L204.844 64.1655L205.303 63.3678L207.666 64.6541L207.208 65.5216ZM203.269 63.2481L200.906 61.882L201.365 61.0943L203.728 62.4604L203.269 63.2481ZM92.4477 62.6598H91.5304V59.9277H92.4477V62.6598ZM199.33 60.9647L196.967 59.5986L197.426 58.8109L199.789 60.1769L199.33 60.9647ZM195.392 58.6713L193.028 57.3052L193.487 56.5175L195.85 57.8835L195.392 58.6713ZM92.4477 58.073H91.5304V55.3408H92.4477V58.073ZM191.453 56.3779L189.09 55.0118L189.548 54.2241L191.912 55.5901L191.453 56.3779ZM187.514 54.1044L185.151 52.7383L185.61 51.9506L187.973 53.3167L187.514 54.1044ZM92.4477 53.5261H91.5304V50.7939H92.4477V53.5261ZM183.576 51.8309L181.212 50.4649L181.641 49.6971L184.004 51.0632L183.576 51.8309ZM179.647 49.5575L177.284 48.1914L177.742 47.4037L180.106 48.7697L179.647 49.5575ZM92.4577 48.9791H91.5403V46.247H92.4577V48.9791ZM175.658 47.284L173.295 45.9179L173.754 45.1302L176.117 46.4863L175.658 47.284ZM171.67 45.0106L169.307 43.6445L169.765 42.8567L172.129 44.2128L171.67 45.0106ZM92.358 44.4322H91.4406V41.72H92.358V44.4322ZM167.821 42.7172L165.458 41.3511L165.916 40.5534L168.28 41.9194L167.821 42.7172ZM163.882 40.4437L161.519 39.0776L161.978 38.2799L164.341 39.646L163.882 40.4437ZM92.4477 39.8554H91.5304V37.1532H92.4477V39.8554ZM159.944 38.1702L157.58 36.8042L158.039 36.0064L160.402 37.3725L159.944 38.1702ZM156.005 35.8968L153.642 34.5307L154.1 33.733L156.464 35.0991L156.005 35.8968ZM92.4477 35.3085H91.5304V32.6062H92.4477V35.3085ZM152.066 33.6133L149.733 32.2772L150.192 31.4795L152.555 32.8455L152.066 33.6133ZM148.128 31.3399L145.744 30.0037L146.203 29.206L148.566 30.5721L148.128 31.3399ZM92.4477 30.7516H91.5304V28.0493H92.4477V30.7516ZM144.189 29.0564L141.826 27.7602L142.284 26.9724L144.648 28.3385L144.189 29.0564ZM140.25 26.783L137.887 25.4169L138.346 24.6292L140.759 26.0252L140.25 26.783ZM92.4477 26.2046H91.5304V23.5024H92.4477V26.2046ZM136.322 24.5095L133.958 23.1434L134.417 22.3557L136.77 23.7716L136.322 24.5095ZM132.333 22.2361L129.97 20.87L130.429 20.0822L132.792 21.4483L132.333 22.2361ZM92.4477 21.6577H91.5304V18.9555H92.4477V21.6577ZM128.434 19.9626L126.071 18.5965L126.53 17.8088L128.893 19.1749L128.434 19.9626ZM124.496 17.6891L122.132 16.3231L122.591 15.5353L124.954 16.9014L124.496 17.6891ZM92.4477 17.1108H91.5304V14.4086H92.4477V17.1108ZM120.557 15.4157L118.194 14.0496L118.652 13.2619L121.016 14.618L120.557 15.4157ZM116.568 13.1422L114.255 11.806L114.714 11.0183L117.077 12.3744L116.568 13.1422ZM92.3979 12.5639H91.4805V9.86164H92.3979V12.5639ZM112.63 10.8687L110.266 9.50267L110.725 8.71494L113.088 10.071L112.63 10.8687ZM108.641 8.59528L106.278 7.22921L106.737 6.4315L109.2 7.81752L108.641 8.59528ZM92.348 8.00697H91.4307V5.31472H92.348V8.00697ZM104.702 6.32182L102.339 4.95575L102.798 4.15804L105.161 5.52411L104.702 6.32182ZM100.874 4.07827L98.5103 2.7122L98.969 1.9145L101.332 3.28057L100.874 4.07827ZM92.4577 3.48996H91.5403V3.17088C91.5411 2.7007 91.645 2.23642 91.8449 1.81084C92.0447 1.38525 92.3357 1.00876 92.697 0.707963L93.2853 1.41593C93.0237 1.62689 92.8134 1.89441 92.67 2.19837C92.5267 2.50233 92.4541 2.83483 92.4577 3.17088V3.48996ZM96.885 1.83472L95.8878 1.22647C95.5438 1.02266 95.151 0.915838 94.7511 0.917364L94.6414 0H94.7511C95.311 0.00269557 95.8607 0.150418 96.3465 0.428767L97.3935 1.03702L96.885 1.83472Z" fill="#40618C"/>
<path d="M239.257 149.67H238.34V151.046H239.257V149.67Z" fill="#40618C"/>
<g opacity="0.5">
<path opacity="0.5" d="M92.4476 109.924H91.5303V111.3H92.4476V109.924Z" fill="white"/>
<path opacity="0.5" d="M239.256 147.825H238.338V145.093H239.256V147.825ZM239.256 143.278H238.338V140.546H239.256V143.278ZM239.256 138.731H238.338V135.999H239.256V138.731ZM239.256 134.174H238.338V131.462H239.256V134.174ZM239.256 129.627H238.338V126.905H239.256V129.627ZM239.256 125.08H238.338V122.358H239.256V125.08ZM239.256 120.533H238.338V117.801H239.256V120.533ZM239.256 115.986H238.338V113.254H239.256V115.986ZM239.256 111.44H238.338V108.707H239.256V111.44ZM92.4477 108.099H91.5304V105.377H92.4477V108.099ZM239.256 106.893H238.338V104.16H239.256V106.893ZM92.4477 103.542H91.5304V100.82H92.4477V103.542ZM239.256 102.336H238.338V99.6036H239.256V102.336ZM92.4477 98.9953H91.5304V96.2632H92.4477V98.9953ZM239.256 97.7788H238.338V95.0666H239.256V97.7788ZM92.4477 94.4484H91.5304V91.7162H92.4477V94.4484ZM239.256 93.2319H238.338V90.5097H239.256V93.2319ZM92.4477 89.9015H91.5304V87.1693H92.4477V89.9015ZM239.256 88.685H238.338V87.3986C238.34 86.9467 238.297 86.4958 238.209 86.0525L239.106 85.873C239.206 86.3754 239.256 86.8864 239.256 87.3986V88.685ZM92.4477 85.3545H91.5304V82.6024H92.4477V85.3545ZM237.67 84.4471C237.305 83.6721 236.794 82.9747 236.164 82.3931L236.793 81.725C237.502 82.3852 238.081 83.1734 238.498 84.0483L237.67 84.4471ZM234.788 81.3859L232.425 80.0199L232.874 79.2321L235.237 80.5882L234.788 81.3859ZM92.4477 80.8076H91.5304V78.0755H92.4477V80.8076ZM230.85 79.1125L228.506 77.7564L228.955 76.9686L231.318 78.3247L230.85 79.1125ZM226.861 76.839L224.518 75.4829L224.967 74.6852L227.33 76.0513L226.861 76.839ZM92.3979 76.2507H91.4805V73.5285H92.3979V76.2507ZM222.972 74.6254L220.609 73.2593L221.058 72.4616L223.421 73.8277L222.972 74.6254ZM219.034 72.3519L216.661 70.9859L217.119 70.1881L219.482 71.5542L219.034 72.3519ZM92.4477 71.7636H91.5304V69.0415H92.4477V71.7636ZM215.095 70.0685L212.722 68.6426L213.181 67.8449L215.544 69.211L215.095 70.0685ZM211.106 67.795L208.743 66.4389L209.202 65.6412L211.565 67.0073L211.106 67.795ZM92.4477 67.2167H91.5304V64.4845H92.4477V67.2167ZM207.208 65.5216L204.844 64.1655L205.303 63.3678L207.666 64.6541L207.208 65.5216ZM203.269 63.2481L200.906 61.882L201.365 61.0943L203.728 62.4604L203.269 63.2481ZM92.4477 62.6598H91.5304V59.9277H92.4477V62.6598ZM199.33 60.9647L196.967 59.5986L197.426 58.8109L199.789 60.1769L199.33 60.9647ZM195.392 58.6713L193.028 57.3052L193.487 56.5175L195.85 57.8835L195.392 58.6713ZM92.4477 58.073H91.5304V55.3408H92.4477V58.073ZM191.453 56.3779L189.09 55.0118L189.548 54.2241L191.912 55.5901L191.453 56.3779ZM187.514 54.1044L185.151 52.7383L185.61 51.9506L187.973 53.3167L187.514 54.1044ZM92.4477 53.5261H91.5304V50.7939H92.4477V53.5261ZM183.576 51.8309L181.212 50.4649L181.641 49.6971L184.004 51.0632L183.576 51.8309ZM179.647 49.5575L177.284 48.1914L177.742 47.4037L180.106 48.7697L179.647 49.5575ZM92.4577 48.9791H91.5403V46.247H92.4577V48.9791ZM175.658 47.284L173.295 45.9179L173.754 45.1302L176.117 46.4863L175.658 47.284ZM171.67 45.0106L169.307 43.6445L169.765 42.8567L172.129 44.2128L171.67 45.0106ZM92.358 44.4322H91.4406V41.72H92.358V44.4322ZM167.821 42.7172L165.458 41.3511L165.916 40.5534L168.28 41.9194L167.821 42.7172ZM163.882 40.4437L161.519 39.0776L161.978 38.2799L164.341 39.646L163.882 40.4437ZM92.4477 39.8554H91.5304V37.1532H92.4477V39.8554ZM159.944 38.1702L157.58 36.8042L158.039 36.0064L160.402 37.3725L159.944 38.1702ZM156.005 35.8968L153.642 34.5307L154.1 33.733L156.464 35.0991L156.005 35.8968ZM92.4477 35.3085H91.5304V32.6062H92.4477V35.3085ZM152.066 33.6133L149.733 32.2772L150.192 31.4795L152.555 32.8455L152.066 33.6133ZM148.128 31.3399L145.744 30.0037L146.203 29.206L148.566 30.5721L148.128 31.3399ZM92.4477 30.7516H91.5304V28.0493H92.4477V30.7516ZM144.189 29.0564L141.826 27.7602L142.284 26.9724L144.648 28.3385L144.189 29.0564ZM140.25 26.783L137.887 25.4169L138.346 24.6292L140.759 26.0252L140.25 26.783ZM92.4477 26.2046H91.5304V23.5024H92.4477V26.2046ZM136.322 24.5095L133.958 23.1434L134.417 22.3557L136.77 23.7716L136.322 24.5095ZM132.333 22.2361L129.97 20.87L130.429 20.0822L132.792 21.4483L132.333 22.2361ZM92.4477 21.6577H91.5304V18.9555H92.4477V21.6577ZM128.434 19.9626L126.071 18.5965L126.53 17.8088L128.893 19.1749L128.434 19.9626ZM124.496 17.6891L122.132 16.3231L122.591 15.5353L124.954 16.9014L124.496 17.6891ZM92.4477 17.1108H91.5304V14.4086H92.4477V17.1108ZM120.557 15.4157L118.194 14.0496L118.652 13.2619L121.016 14.618L120.557 15.4157ZM116.568 13.1422L114.255 11.806L114.714 11.0183L117.077 12.3744L116.568 13.1422ZM92.3979 12.5639H91.4805V9.86164H92.3979V12.5639ZM112.63 10.8687L110.266 9.50267L110.725 8.71494L113.088 10.071L112.63 10.8687ZM108.641 8.59528L106.278 7.22921L106.737 6.4315L109.2 7.81752L108.641 8.59528ZM92.348 8.00697H91.4307V5.31472H92.348V8.00697ZM104.702 6.32182L102.339 4.95575L102.798 4.15804L105.161 5.52411L104.702 6.32182ZM100.874 4.07827L98.5103 2.7122L98.969 1.9145L101.332 3.28057L100.874 4.07827ZM92.4577 3.48996H91.5403V3.17088C91.5411 2.7007 91.645 2.23642 91.8449 1.81084C92.0447 1.38525 92.3357 1.00876 92.697 0.707963L93.2853 1.41593C93.0237 1.62689 92.8134 1.89441 92.67 2.19837C92.5267 2.50233 92.4541 2.83483 92.4577 3.17088V3.48996ZM96.885 1.83472L95.8878 1.22647C95.5438 1.02266 95.151 0.915838 94.7511 0.917364L94.6414 0H94.7511C95.311 0.00269557 95.8607 0.150418 96.3465 0.428767L97.3935 1.03702L96.885 1.83472Z" fill="white"/>
<path opacity="0.5" d="M239.255 149.67H238.338V151.046H239.255V149.67Z" fill="white"/>
</g>
<path d="M248.95 140.007H247.953V102.924C247.951 101.612 247.605 100.324 246.949 99.1885C246.293 98.0528 245.35 97.1093 244.214 96.4526L91.0545 8.07678C90.676 7.85703 90.246 7.74126 89.8083 7.74122C89.3706 7.74118 88.9406 7.85686 88.562 8.07653C88.1834 8.2962 87.8696 8.61206 87.6524 8.9921C87.4352 9.37214 87.3224 9.80284 87.3253 10.2406V103.722H86.3281V10.2406C86.3315 9.63085 86.4951 9.03275 86.8023 8.50613C87.1096 7.97952 87.5499 7.54288 88.079 7.23995C88.6081 6.93701 89.2076 6.77841 89.8173 6.78003C90.427 6.78164 91.0256 6.94342 91.5531 7.24916L244.713 95.5652C245.999 96.3113 247.067 97.3816 247.811 98.6693C248.554 99.957 248.947 101.417 248.95 102.904V140.007Z" fill="#40618C"/>
<g opacity="0.3">
<path opacity="0.3" d="M248.95 140.007H247.953V102.924C247.951 101.612 247.605 100.324 246.949 99.1885C246.293 98.0528 245.35 97.1093 244.214 96.4526L91.0545 8.07678C90.676 7.85703 90.246 7.74126 89.8083 7.74122C89.3706 7.74118 88.9406 7.85686 88.562 8.07653C88.1834 8.2962 87.8696 8.61206 87.6524 8.9921C87.4352 9.37214 87.3224 9.80284 87.3253 10.2406V103.722H86.3281V10.2406C86.3315 9.63085 86.4951 9.03275 86.8023 8.50613C87.1096 7.97952 87.5499 7.54288 88.079 7.23995C88.6081 6.93701 89.2076 6.77841 89.8173 6.78003C90.427 6.78164 91.0256 6.94342 91.5531 7.24916L244.713 95.5652C245.999 96.3113 247.067 97.3816 247.811 98.6693C248.554 99.957 248.947 101.417 248.95 102.904V140.007Z" fill="white"/>
</g>
<path d="M83.3956 98.4668H82.3984V99.9625H83.3956V98.4668Z" fill="#40618C"/>
<path d="M243.465 139.788H242.468V136.797H243.465V139.788ZM243.465 134.802H242.468V131.811H243.465V134.802ZM243.465 129.817H242.468V126.825H243.465V129.817ZM243.465 124.831H242.468V121.84H243.465V124.831ZM243.465 119.845H242.468V116.854H243.465V119.845ZM243.465 114.86H242.468V111.868H243.465V114.86ZM243.465 109.874H242.468V106.883H243.465V109.874ZM242.398 104.988C242.23 104.127 241.916 103.301 241.471 102.545L242.338 102.056C242.857 102.981 243.196 103.997 243.335 105.048L242.398 104.988ZM240.404 100.88C239.912 100.365 239.348 99.925 238.729 99.5736L238.12 99.2147L238.619 98.3571L239.227 98.7061C239.928 99.1061 240.566 99.6067 241.122 100.192L240.404 100.88ZM236.415 98.2275L233.843 96.7418L234.341 95.8743L236.884 97.5594L236.415 98.2275ZM83.4252 96.303H82.428V93.3117H83.4252V96.303ZM232.118 95.7446L229.505 94.4384L230.004 93.5809L232.576 95.0666L232.118 95.7446ZM227.83 93.2718L225.257 91.786L225.756 90.9185L228.328 92.4043L227.83 93.2718ZM83.3953 91.5766H82.3981V88.5852H83.3953V91.5766ZM223.522 90.9684L220.94 89.4827L221.438 88.6251L224.021 90.1108L223.522 90.9684ZM219.225 88.4955L216.652 87.0098L217.151 86.1423L219.723 87.628L219.225 88.4955ZM83.3953 86.591H82.3981V83.5996H83.3953V86.591ZM214.927 86.0326L212.344 84.5468L212.843 83.6893L215.426 85.175L214.927 86.0326ZM210.629 83.5597L208.057 82.074L208.555 81.2065L211.128 82.6922L210.629 83.5597ZM83.3953 81.6053H82.3981V78.6139H83.3953V81.6053ZM206.342 81.0469L203.759 79.611L204.258 78.7535L206.84 80.2392L206.342 81.0469ZM202.044 78.6139L199.471 77.1282L199.97 76.2607L202.583 77.7165L202.044 78.6139ZM83.3853 76.6894H82.3882V73.6981H83.3853V76.6894ZM197.746 76.1311L195.184 74.6254L195.682 73.7679L198.255 75.2536L197.746 76.1311ZM193.459 73.6283L190.886 72.1425L191.385 71.275L193.957 72.7607L193.459 73.6283ZM83.3953 71.7038H82.3981V68.7124H83.3953V71.7038ZM189.171 71.1454L186.628 69.6397L187.127 68.7722L189.7 70.2679L189.171 71.1454ZM184.873 68.6426L182.301 67.1569L182.799 66.2894L185.372 67.7751L184.873 68.6426ZM83.3953 66.748H82.3981V63.7566H83.3953V66.748ZM180.586 66.1896L178.013 64.7039L178.512 63.8364L181.084 65.3321L180.586 66.1896ZM176.298 63.7168L173.716 62.231L174.214 61.3635L176.797 62.8493L176.298 63.7168ZM83.3953 61.7923H82.3981V58.8009H83.3953V61.7923ZM172 61.2339L169.428 59.7482L169.926 58.8807L172.499 60.3664L172 61.2339ZM167.713 58.761L165.13 57.2653L165.629 56.4078L168.211 57.8935L167.713 58.761ZM83.3953 56.8365H82.3981V53.8451H83.3953V56.8365ZM163.415 56.2781L160.843 54.7924L161.341 53.9249L163.914 55.4106L163.415 56.2781ZM159.127 53.8053L156.545 52.3096L157.043 51.452L159.626 52.9378L159.127 53.8053ZM83.3454 51.8808H82.3483V48.8894H83.3454V51.8808ZM154.78 51.3224L152.207 49.8367L152.706 48.9692L155.279 50.4549L154.78 51.3224ZM150.492 48.8395L147.92 47.3538L148.418 46.4963L150.991 47.982L150.492 48.8395ZM83.3454 46.925H82.3483V43.9336H83.3454V46.925ZM146.165 46.3667L143.592 44.8809L144.091 44.0134L146.743 45.4991L146.165 46.3667ZM141.877 43.8838L139.304 42.3981L139.803 41.5405L142.376 43.0263L141.877 43.8838ZM83.3155 41.9693H82.3184V38.9779H83.3155V41.9693ZM137.579 41.4109L135.007 39.9252L135.505 39.0577L138.078 40.5434L137.579 41.4109ZM133.292 38.928L130.789 37.4423L131.288 36.5848L133.86 38.0705L133.292 38.928ZM83.3155 37.0135H82.3184V34.0221H83.3155V37.0135ZM129.004 36.4552L126.422 34.9694L126.92 34.1019L129.503 35.5876L129.004 36.4552ZM124.806 33.9723L122.234 32.4866L122.732 31.629L125.305 33.1148L124.806 33.9723ZM83.4152 32.0578H82.4181V29.0664H83.4152V32.0578ZM120.519 31.4994L117.936 30.0137L118.434 29.1462L121.017 30.6319L120.519 31.4994ZM116.221 29.0165L113.648 27.5308L114.147 26.6733L116.719 28.159L116.221 29.0165ZM83.4152 27.102H82.4181V24.1106H83.4152V27.102ZM111.933 26.5437L109.351 25.0579L109.849 24.1904L112.432 25.6762L111.933 26.5437ZM107.636 24.0608L105.063 22.5751L105.562 21.7076L108.134 23.2033L107.636 24.0608ZM83.4152 22.1463H82.4181V19.1549H83.4152V22.1463ZM103.358 21.5879L100.775 20.1022L101.274 19.2347L103.866 20.7204L103.358 21.5879ZM99.0602 19.105L96.4876 17.6193L96.9862 16.7518L99.5588 18.2475L99.0602 19.105ZM83.4252 17.1806H82.428V14.3986C82.4233 14.3255 82.4233 14.2523 82.428 14.1792L83.4252 14.239V17.2304V17.1806ZM94.7725 16.6322L92.1999 15.1464L92.6985 14.2789L95.2412 15.7946L94.7725 16.6322ZM90.4749 14.1493L87.9123 12.6636L88.4108 11.7961L90.9037 13.2818L90.4749 14.1493ZM84.0434 12.7433L83.3055 12.0852C83.6316 11.7131 84.0333 11.4148 84.4838 11.2102C84.9343 11.0055 85.4232 10.8993 85.918 10.8986V10.8986C86.0841 10.8892 86.2505 10.8892 86.4166 10.8986L86.277 11.8958H85.918C85.5585 11.8932 85.2026 11.9675 84.8741 12.1136C84.5456 12.2598 84.2522 12.4745 84.0135 12.7433H84.0434Z" fill="#40618C"/>
<path d="M243.444 141.792H242.447V143.288H243.444V141.792Z" fill="#40618C"/>
<g opacity="0.5">
<path opacity="0.5" d="M83.3956 98.4668H82.3984V99.9625H83.3956V98.4668Z" fill="white"/>
<path opacity="0.5" d="M243.465 139.788H242.468V136.797H243.465V139.788ZM243.465 134.802H242.468V131.811H243.465V134.802ZM243.465 129.817H242.468V126.825H243.465V129.817ZM243.465 124.831H242.468V121.84H243.465V124.831ZM243.465 119.845H242.468V116.854H243.465V119.845ZM243.465 114.86H242.468V111.868H243.465V114.86ZM243.465 109.874H242.468V106.883H243.465V109.874ZM242.398 104.988C242.23 104.127 241.916 103.301 241.471 102.545L242.338 102.056C242.857 102.981 243.196 103.997 243.335 105.048L242.398 104.988ZM240.404 100.88C239.912 100.365 239.348 99.925 238.729 99.5736L238.12 99.2147L238.619 98.3571L239.227 98.7061C239.928 99.1061 240.566 99.6067 241.122 100.192L240.404 100.88ZM236.415 98.2275L233.843 96.7418L234.341 95.8743L236.884 97.5594L236.415 98.2275ZM83.4252 96.303H82.428V93.3117H83.4252V96.303ZM232.118 95.7446L229.505 94.4384L230.004 93.5809L232.576 95.0666L232.118 95.7446ZM227.83 93.2718L225.257 91.786L225.756 90.9185L228.328 92.4043L227.83 93.2718ZM83.3953 91.5766H82.3981V88.5852H83.3953V91.5766ZM223.522 90.9684L220.94 89.4827L221.438 88.6251L224.021 90.1108L223.522 90.9684ZM219.225 88.4955L216.652 87.0098L217.151 86.1423L219.723 87.628L219.225 88.4955ZM83.3953 86.591H82.3981V83.5996H83.3953V86.591ZM214.927 86.0326L212.344 84.5468L212.843 83.6893L215.426 85.175L214.927 86.0326ZM210.629 83.5597L208.057 82.074L208.555 81.2065L211.128 82.6922L210.629 83.5597ZM83.3953 81.6053H82.3981V78.6139H83.3953V81.6053ZM206.342 81.0469L203.759 79.611L204.258 78.7535L206.84 80.2392L206.342 81.0469ZM202.044 78.6139L199.471 77.1282L199.97 76.2607L202.583 77.7165L202.044 78.6139ZM83.3853 76.6894H82.3882V73.6981H83.3853V76.6894ZM197.746 76.1311L195.184 74.6254L195.682 73.7679L198.255 75.2536L197.746 76.1311ZM193.459 73.6283L190.886 72.1425L191.385 71.275L193.957 72.7607L193.459 73.6283ZM83.3953 71.7038H82.3981V68.7124H83.3953V71.7038ZM189.171 71.1454L186.628 69.6397L187.127 68.7722L189.7 70.2679L189.171 71.1454ZM184.873 68.6426L182.301 67.1569L182.799 66.2894L185.372 67.7751L184.873 68.6426ZM83.3953 66.748H82.3981V63.7566H83.3953V66.748ZM180.586 66.1896L178.013 64.7039L178.512 63.8364L181.084 65.3321L180.586 66.1896ZM176.298 63.7168L173.716 62.231L174.214 61.3635L176.797 62.8493L176.298 63.7168ZM83.3953 61.7923H82.3981V58.8009H83.3953V61.7923ZM172 61.2339L169.428 59.7482L169.926 58.8807L172.499 60.3664L172 61.2339ZM167.713 58.761L165.13 57.2653L165.629 56.4078L168.211 57.8935L167.713 58.761ZM83.3953 56.8365H82.3981V53.8451H83.3953V56.8365ZM163.415 56.2781L160.843 54.7924L161.341 53.9249L163.914 55.4106L163.415 56.2781ZM159.127 53.8053L156.545 52.3096L157.043 51.452L159.626 52.9378L159.127 53.8053ZM83.3454 51.8808H82.3483V48.8894H83.3454V51.8808ZM154.78 51.3224L152.207 49.8367L152.706 48.9692L155.279 50.4549L154.78 51.3224ZM150.492 48.8395L147.92 47.3538L148.418 46.4963L150.991 47.982L150.492 48.8395ZM83.3454 46.925H82.3483V43.9336H83.3454V46.925ZM146.165 46.3667L143.592 44.8809L144.091 44.0134L146.743 45.4991L146.165 46.3667ZM141.877 43.8838L139.304 42.3981L139.803 41.5405L142.376 43.0263L141.877 43.8838ZM83.3155 41.9693H82.3184V38.9779H83.3155V41.9693ZM137.579 41.4109L135.007 39.9252L135.505 39.0577L138.078 40.5434L137.579 41.4109ZM133.292 38.928L130.789 37.4423L131.288 36.5848L133.86 38.0705L133.292 38.928ZM83.3155 37.0135H82.3184V34.0221H83.3155V37.0135ZM129.004 36.4552L126.422 34.9694L126.92 34.1019L129.503 35.5876L129.004 36.4552ZM124.806 33.9723L122.234 32.4866L122.732 31.629L125.305 33.1148L124.806 33.9723ZM83.4152 32.0578H82.4181V29.0664H83.4152V32.0578ZM120.519 31.4994L117.936 30.0137L118.434 29.1462L121.017 30.6319L120.519 31.4994ZM116.221 29.0165L113.648 27.5308L114.147 26.6733L116.719 28.159L116.221 29.0165ZM83.4152 27.102H82.4181V24.1106H83.4152V27.102ZM111.933 26.5437L109.351 25.0579L109.849 24.1904L112.432 25.6762L111.933 26.5437ZM107.636 24.0608L105.063 22.5751L105.562 21.7076L108.134 23.2033L107.636 24.0608ZM83.4152 22.1463H82.4181V19.1549H83.4152V22.1463ZM103.358 21.5879L100.775 20.1022L101.274 19.2347L103.866 20.7204L103.358 21.5879ZM99.0602 19.105L96.4876 17.6193L96.9862 16.7518L99.5588 18.2475L99.0602 19.105ZM83.4252 17.1806H82.428V14.3986C82.4233 14.3255 82.4233 14.2523 82.428 14.1792L83.4252 14.239V17.2304V17.1806ZM94.7725 16.6322L92.1999 15.1464L92.6985 14.2789L95.2412 15.7946L94.7725 16.6322ZM90.4749 14.1493L87.9123 12.6636L88.4108 11.7961L90.9037 13.2818L90.4749 14.1493ZM84.0434 12.7433L83.3055 12.0852C83.6316 11.7131 84.0333 11.4148 84.4838 11.2102C84.9343 11.0055 85.4232 10.8993 85.918 10.8986V10.8986C86.0841 10.8892 86.2505 10.8892 86.4166 10.8986L86.277 11.8958H85.918C85.5585 11.8932 85.2026 11.9675 84.8741 12.1136C84.5456 12.2598 84.2522 12.4745 84.0135 12.7433H84.0434Z" fill="white"/>
<path opacity="0.5" d="M243.445 141.792H242.448V143.288H243.445V141.792Z" fill="white"/>
</g>
<path d="M311.587 287.812C311.589 287.21 311.413 286.621 311.081 286.119C310.75 285.617 310.277 285.224 309.722 284.99L176.505 208.072C175.116 207.364 173.578 206.995 172.018 206.995C170.459 206.995 168.921 207.364 167.531 208.072L82.9246 257.22C82.4324 257.446 82.0057 257.793 81.6847 258.229C81.3637 258.665 81.159 259.176 81.0898 259.713V267.75C81.1166 268.33 81.3056 268.89 81.6352 269.368C81.9649 269.846 82.4219 270.221 82.9545 270.452L216.181 347.371C217.571 348.079 219.109 348.447 220.668 348.447C222.228 348.447 223.766 348.079 225.156 347.371L309.722 298.222C310.214 297.995 310.641 297.647 310.963 297.212C311.286 296.776 311.493 296.266 311.567 295.73V295.73V287.752L311.587 287.812Z" fill="#37474F"/>
<path d="M173.314 231.943C173.429 231.981 173.529 232.055 173.6 232.154C173.671 232.252 173.709 232.37 173.709 232.491C173.709 232.613 173.671 232.731 173.6 232.829C173.529 232.928 173.429 233.001 173.314 233.04L167.79 236.251C167.497 236.4 167.172 236.478 166.843 236.478C166.514 236.478 166.189 236.4 165.896 236.251L149.224 226.628C149.11 226.587 149.011 226.512 148.942 226.413C148.872 226.314 148.835 226.196 148.835 226.075C148.835 225.954 148.872 225.836 148.942 225.737C149.011 225.638 149.11 225.562 149.224 225.521L154.748 222.321C155.041 222.171 155.366 222.093 155.695 222.093C156.024 222.093 156.349 222.171 156.642 222.321L173.314 231.943Z" fill="#455A64"/>
<path d="M171.202 220.785C171.316 220.826 171.414 220.901 171.484 221C171.553 221.099 171.591 221.217 171.591 221.338C171.591 221.46 171.553 221.578 171.484 221.677C171.414 221.776 171.316 221.851 171.202 221.892L165.688 225.093C165.395 225.245 165.07 225.324 164.741 225.324C164.411 225.324 164.086 225.245 163.793 225.093L157.811 221.643C157.292 221.333 157.282 220.845 157.811 220.546L163.335 217.335C163.628 217.185 163.953 217.107 164.282 217.107C164.611 217.107 164.936 217.185 165.229 217.335L171.202 220.785Z" fill="#455A64"/>
<path d="M196.031 227.885C196.146 227.923 196.246 227.997 196.317 228.095C196.388 228.194 196.426 228.312 196.426 228.433C196.426 228.554 196.388 228.673 196.317 228.771C196.246 228.869 196.146 228.943 196.031 228.981L192.84 230.836C192.545 230.986 192.219 231.064 191.888 231.064C191.557 231.064 191.231 230.986 190.936 230.836L184.953 227.386C184.839 227.345 184.741 227.27 184.671 227.171C184.602 227.072 184.564 226.954 184.564 226.833C184.564 226.712 184.602 226.594 184.671 226.495C184.741 226.395 184.839 226.32 184.953 226.279L188.144 224.425C188.438 224.277 188.762 224.2 189.091 224.2C189.42 224.2 189.745 224.277 190.039 224.425L196.031 227.885Z" fill="#455A64"/>
<path d="M189.777 231.514C190.306 231.813 190.316 232.312 189.777 232.611L184.263 235.822C183.967 235.969 183.641 236.046 183.311 236.046C182.98 236.046 182.654 235.969 182.359 235.822L176.376 232.362C175.847 232.063 175.847 231.574 176.376 231.265L181.89 228.064C182.183 227.912 182.508 227.833 182.837 227.833C183.167 227.833 183.492 227.912 183.785 228.064L189.777 231.514Z" fill="#455A64"/>
<path d="M205.314 233.239C205.842 233.548 205.852 234.037 205.314 234.336L202.123 236.201C201.829 236.348 201.504 236.425 201.175 236.425C200.847 236.425 200.522 236.348 200.228 236.201L194.245 232.741C194.13 232.702 194.03 232.629 193.96 232.53C193.889 232.432 193.851 232.314 193.851 232.192C193.851 232.071 193.889 231.953 193.96 231.854C194.03 231.756 194.13 231.682 194.245 231.644L197.436 229.789C197.729 229.637 198.054 229.558 198.383 229.558C198.713 229.558 199.038 229.637 199.331 229.789L205.314 233.239Z" fill="#455A64"/>
<path d="M199.072 236.879C199.187 236.917 199.287 236.991 199.357 237.089C199.428 237.188 199.466 237.306 199.466 237.427C199.466 237.548 199.428 237.667 199.357 237.765C199.287 237.863 199.187 237.937 199.072 237.976L193.607 241.147C193.313 241.299 192.986 241.378 192.655 241.378C192.324 241.378 191.997 241.299 191.703 241.147L185.72 237.696C185.605 237.658 185.505 237.584 185.434 237.486C185.363 237.387 185.325 237.269 185.325 237.148C185.325 237.027 185.363 236.909 185.434 236.81C185.505 236.712 185.605 236.638 185.72 236.6L191.234 233.389C191.528 233.241 191.852 233.165 192.181 233.165C192.51 233.165 192.835 233.241 193.129 233.389L199.072 236.879Z" fill="#455A64"/>
<path d="M180.495 226.19C181.023 226.499 181.023 226.987 180.495 227.286L174.981 230.497C174.688 230.649 174.363 230.729 174.033 230.729C173.704 230.729 173.379 230.649 173.086 230.497L167.103 227.047C166.575 226.738 166.565 226.249 167.103 225.94L172.617 222.739C172.912 222.587 173.238 222.508 173.57 222.508C173.901 222.508 174.228 222.587 174.522 222.739L180.495 226.19Z" fill="#455A64"/>
<path d="M177.453 217.156C177.982 217.465 177.982 217.953 177.453 218.252L174.263 220.107C173.968 220.259 173.642 220.339 173.31 220.339C172.979 220.339 172.652 220.259 172.358 220.107L166.375 216.657C166.26 216.618 166.16 216.545 166.089 216.446C166.019 216.348 165.98 216.23 165.98 216.109C165.98 215.987 166.019 215.869 166.089 215.771C166.16 215.672 166.26 215.599 166.375 215.56L169.566 213.705C169.859 213.553 170.184 213.474 170.513 213.474C170.843 213.474 171.168 213.553 171.461 213.705L177.453 217.156Z" fill="#455A64"/>
<path d="M186.748 222.52C187.276 222.819 187.276 223.308 186.748 223.617L183.557 225.472C183.264 225.624 182.939 225.703 182.61 225.703C182.28 225.703 181.955 225.624 181.662 225.472L175.68 222.022C175.151 221.712 175.151 221.224 175.68 220.925L178.87 219.06C179.166 218.913 179.492 218.836 179.823 218.836C180.153 218.836 180.479 218.913 180.775 219.06L186.748 222.52Z" fill="#455A64"/>
<path d="M217.648 247.598C218.166 247.907 218.176 248.396 217.648 248.695L212.133 251.906C211.838 252.055 211.512 252.133 211.181 252.133C210.85 252.133 210.524 252.055 210.229 251.906L204.246 248.455C204.132 248.414 204.034 248.339 203.964 248.24C203.895 248.141 203.857 248.023 203.857 247.902C203.857 247.781 203.895 247.663 203.964 247.564C204.034 247.465 204.132 247.39 204.246 247.349L209.76 244.138C210.053 243.986 210.378 243.906 210.708 243.906C211.037 243.906 211.362 243.986 211.655 244.138L217.648 247.598Z" fill="#455A64"/>
<path d="M226.931 252.963C227.459 253.262 227.459 253.75 226.931 254.059L221.417 257.27C221.123 257.418 220.798 257.494 220.469 257.494C220.14 257.494 219.816 257.418 219.522 257.27L213.539 253.81C213.424 253.772 213.324 253.698 213.253 253.6C213.183 253.501 213.145 253.383 213.145 253.262C213.145 253.14 213.183 253.022 213.253 252.924C213.324 252.825 213.424 252.752 213.539 252.713L219.053 249.502C219.349 249.355 219.675 249.278 220.006 249.278C220.336 249.278 220.662 249.355 220.958 249.502L226.931 252.963Z" fill="#455A64"/>
<path d="M233.183 249.323C233.296 249.364 233.395 249.439 233.464 249.538C233.534 249.637 233.571 249.755 233.571 249.876C233.571 249.997 233.534 250.116 233.464 250.215C233.395 250.314 233.296 250.389 233.183 250.43L229.992 252.285C229.698 252.432 229.373 252.509 229.045 252.509C228.716 252.509 228.391 252.432 228.097 252.285L222.114 248.824C221.999 248.786 221.9 248.712 221.829 248.614C221.758 248.515 221.72 248.397 221.72 248.276C221.72 248.155 221.758 248.037 221.829 247.938C221.9 247.84 221.999 247.766 222.114 247.728L225.305 245.873C225.6 245.723 225.927 245.645 226.258 245.645C226.588 245.645 226.915 245.723 227.21 245.873L233.183 249.323Z" fill="#455A64"/>
<path d="M223.899 243.968C224.014 244.007 224.114 244.081 224.185 244.179C224.256 244.277 224.294 244.396 224.294 244.517C224.294 244.638 224.256 244.756 224.185 244.855C224.114 244.953 224.014 245.027 223.899 245.065L220.708 246.92C220.416 247.072 220.091 247.151 219.761 247.151C219.431 247.151 219.107 247.072 218.814 246.92L212.831 243.47C212.313 243.161 212.303 242.672 212.831 242.373L216.022 240.508C216.316 240.361 216.64 240.284 216.969 240.284C217.298 240.284 217.622 240.361 217.916 240.508L223.899 243.968Z" fill="#455A64"/>
<path d="M214.605 238.604C215.134 238.913 215.134 239.402 214.605 239.701L211.405 241.555C211.112 241.707 210.787 241.787 210.457 241.787C210.127 241.787 209.803 241.707 209.51 241.555L203.577 238.155C203.049 237.846 203.049 237.357 203.577 237.058L206.778 235.204C207.07 235.052 207.395 234.972 207.725 234.972C208.055 234.972 208.38 235.052 208.672 235.204L214.605 238.604Z" fill="#455A64"/>
<path d="M197.008 255.555C197.123 255.594 197.223 255.667 197.294 255.766C197.365 255.864 197.403 255.982 197.403 256.104C197.403 256.225 197.365 256.343 197.294 256.441C197.223 256.54 197.123 256.613 197.008 256.652L191.494 259.863C191.202 260.015 190.877 260.094 190.547 260.094C190.217 260.094 189.892 260.015 189.6 259.863L183.617 256.413C183.088 256.104 183.078 255.615 183.617 255.306L189.121 252.115C189.416 251.965 189.742 251.887 190.073 251.887C190.404 251.887 190.731 251.965 191.026 252.115L197.008 255.555Z" fill="#455A64"/>
<path d="M210.019 253.112C210.134 253.151 210.234 253.224 210.305 253.323C210.376 253.421 210.414 253.539 210.414 253.661C210.414 253.782 210.376 253.9 210.305 253.998C210.234 254.097 210.134 254.17 210.019 254.209L204.505 257.42C204.212 257.572 203.887 257.651 203.558 257.651C203.228 257.651 202.903 257.572 202.61 257.42L196.628 253.97C196.099 253.661 196.089 253.172 196.628 252.863L202.152 249.662C202.445 249.512 202.77 249.434 203.099 249.434C203.428 249.434 203.753 249.512 204.046 249.662L210.019 253.112Z" fill="#455A64"/>
<path d="M298.196 286.865C298.311 286.904 298.411 286.977 298.482 287.076C298.552 287.174 298.591 287.292 298.591 287.413C298.591 287.535 298.552 287.653 298.482 287.751C298.411 287.85 298.311 287.923 298.196 287.962L295.005 289.817C294.712 289.969 294.387 290.048 294.058 290.048C293.728 290.048 293.403 289.969 293.11 289.817L287.128 286.366C286.599 286.057 286.589 285.569 287.128 285.26L290.318 283.405C290.612 283.258 290.937 283.181 291.266 283.181C291.595 283.181 291.919 283.258 292.213 283.405L298.196 286.865Z" fill="#455A64"/>
<path d="M163.932 257.29C164.46 257.599 164.46 258.088 163.932 258.387L158.408 261.598C158.115 261.75 157.79 261.829 157.46 261.829C157.131 261.829 156.806 261.75 156.513 261.598L150.53 258.148C150.416 258.107 150.318 258.031 150.248 257.932C150.179 257.833 150.142 257.715 150.142 257.594C150.142 257.473 150.179 257.355 150.248 257.256C150.318 257.157 150.416 257.082 150.53 257.041L156.054 253.84C156.347 253.688 156.672 253.609 157.002 253.609C157.331 253.609 157.656 253.688 157.949 253.84L163.932 257.29Z" fill="#455A64"/>
<path d="M219.652 289.468C219.767 289.506 219.867 289.58 219.937 289.678C220.008 289.777 220.046 289.895 220.046 290.016C220.046 290.137 220.008 290.255 219.937 290.354C219.867 290.452 219.767 290.526 219.652 290.564L214.138 293.765C213.843 293.917 213.517 293.997 213.185 293.997C212.854 293.997 212.527 293.917 212.233 293.765L206.25 290.315C206.135 290.277 206.035 290.203 205.964 290.105C205.894 290.006 205.855 289.888 205.855 289.767C205.855 289.645 205.894 289.527 205.964 289.429C206.035 289.33 206.135 289.257 206.25 289.218L211.764 286.007C212.058 285.86 212.383 285.783 212.712 285.783C213.041 285.783 213.365 285.86 213.659 286.007L219.652 289.468Z" fill="#455A64"/>
<path d="M236.215 258.327C236.33 258.366 236.43 258.439 236.501 258.538C236.571 258.636 236.61 258.754 236.61 258.876C236.61 258.997 236.571 259.115 236.501 259.213C236.43 259.312 236.33 259.385 236.215 259.424L230.691 262.635C230.397 262.782 230.072 262.859 229.743 262.859C229.415 262.859 229.09 262.782 228.796 262.635L222.813 259.175C222.285 258.866 222.285 258.377 222.813 258.078L228.337 254.867C228.631 254.72 228.956 254.643 229.285 254.643C229.614 254.643 229.938 254.72 230.232 254.867L236.215 258.327Z" fill="#455A64"/>
<path d="M219.192 258.427C219.307 258.465 219.407 258.539 219.478 258.637C219.549 258.736 219.587 258.854 219.587 258.975C219.587 259.097 219.549 259.215 219.478 259.313C219.407 259.412 219.307 259.485 219.192 259.524L213.668 262.734C213.374 262.882 213.05 262.959 212.721 262.959C212.392 262.959 212.068 262.882 211.774 262.734L205.791 259.274C205.262 258.975 205.262 258.487 205.791 258.178L211.305 254.977C211.6 254.827 211.926 254.749 212.257 254.749C212.588 254.749 212.914 254.827 213.21 254.977L219.192 258.427Z" fill="#455A64"/>
<path d="M251.76 260.092C251.875 260.131 251.975 260.204 252.046 260.303C252.117 260.401 252.155 260.519 252.155 260.64C252.155 260.762 252.117 260.88 252.046 260.978C251.975 261.077 251.875 261.15 251.76 261.189L248.57 263.044C248.277 263.196 247.952 263.275 247.622 263.275C247.293 263.275 246.968 263.196 246.675 263.044L240.692 259.593C240.164 259.284 240.164 258.796 240.692 258.497L243.883 256.642C244.177 256.49 244.504 256.41 244.835 256.41C245.167 256.41 245.493 256.49 245.788 256.642L251.76 260.092Z" fill="#455A64"/>
<path d="M206.01 260.75C206.124 260.791 206.223 260.866 206.292 260.965C206.362 261.064 206.399 261.183 206.399 261.304C206.399 261.425 206.362 261.543 206.292 261.642C206.223 261.741 206.124 261.816 206.01 261.857L200.496 265.078C200.204 265.23 199.879 265.309 199.549 265.309C199.219 265.309 198.894 265.23 198.602 265.078L192.619 261.628C192.091 261.319 192.091 260.83 192.619 260.531L198.143 257.32C198.436 257.17 198.761 257.092 199.09 257.092C199.42 257.092 199.744 257.17 200.038 257.32L206.01 260.75Z" fill="#455A64"/>
<path d="M192.49 263.353C192.603 263.394 192.702 263.469 192.771 263.568C192.841 263.667 192.878 263.785 192.878 263.906C192.878 264.027 192.841 264.145 192.771 264.244C192.702 264.343 192.603 264.418 192.49 264.459L186.965 267.67C186.671 267.818 186.347 267.894 186.018 267.894C185.689 267.894 185.365 267.818 185.071 267.67L179.088 264.21C178.973 264.172 178.873 264.098 178.802 264C178.731 263.901 178.693 263.783 178.693 263.662C178.693 263.54 178.731 263.422 178.802 263.324C178.873 263.226 178.973 263.152 179.088 263.113L184.612 259.903C184.906 259.753 185.23 259.675 185.559 259.675C185.889 259.675 186.213 259.753 186.507 259.903L192.49 263.353Z" fill="#455A64"/>
<path d="M245.508 263.682C245.622 263.723 245.721 263.798 245.79 263.897C245.86 263.996 245.897 264.114 245.897 264.235C245.897 264.356 245.86 264.474 245.79 264.573C245.721 264.672 245.622 264.747 245.508 264.789L239.994 267.989C239.702 268.141 239.377 268.221 239.047 268.221C238.717 268.221 238.392 268.141 238.1 267.989L232.117 264.539C231.588 264.23 231.578 263.742 232.117 263.442L237.631 260.232C237.925 260.08 238.252 260 238.583 260C238.915 260 239.241 260.08 239.536 260.232L245.508 263.682Z" fill="#455A64"/>
<path d="M228.358 263.722C228.473 263.76 228.573 263.834 228.643 263.932C228.714 264.031 228.752 264.149 228.752 264.27C228.752 264.391 228.714 264.509 228.643 264.608C228.573 264.706 228.473 264.78 228.358 264.818L222.843 268.069C222.549 268.216 222.225 268.293 221.896 268.293C221.567 268.293 221.243 268.216 220.949 268.069L214.966 264.609C214.851 264.571 214.751 264.497 214.68 264.398C214.609 264.3 214.571 264.182 214.571 264.061C214.571 263.939 214.609 263.821 214.68 263.723C214.751 263.624 214.851 263.551 214.966 263.512L220.49 260.301C220.784 260.154 221.109 260.077 221.437 260.077C221.766 260.077 222.091 260.154 222.385 260.301L228.358 263.722Z" fill="#455A64"/>
<path d="M261.043 265.417C261.571 265.716 261.571 266.204 261.043 266.514L257.852 268.368C257.559 268.52 257.234 268.6 256.905 268.6C256.575 268.6 256.25 268.52 255.957 268.368L249.975 264.918C249.861 264.877 249.762 264.802 249.693 264.703C249.623 264.604 249.586 264.486 249.586 264.365C249.586 264.244 249.623 264.126 249.693 264.027C249.762 263.928 249.861 263.852 249.975 263.811L253.175 261.957C253.469 261.809 253.794 261.733 254.123 261.733C254.452 261.733 254.776 261.809 255.07 261.957L261.043 265.417Z" fill="#455A64"/>
<path d="M215.015 265.955C215.13 265.994 215.23 266.067 215.301 266.166C215.372 266.264 215.41 266.382 215.41 266.504C215.41 266.625 215.372 266.743 215.301 266.841C215.23 266.94 215.13 267.014 215.015 267.052L209.491 270.263C209.197 270.41 208.872 270.487 208.544 270.487C208.215 270.487 207.89 270.41 207.596 270.263L201.613 266.803C201.499 266.764 201.399 266.691 201.328 266.592C201.257 266.494 201.219 266.376 201.219 266.254C201.219 266.133 201.257 266.015 201.328 265.916C201.399 265.818 201.499 265.744 201.613 265.706L207.128 262.495C207.423 262.348 207.749 262.271 208.08 262.271C208.41 262.271 208.736 262.348 209.032 262.495L215.015 265.955Z" fill="#455A64"/>
<path d="M201.484 268.558C201.599 268.596 201.699 268.67 201.77 268.768C201.841 268.867 201.879 268.985 201.879 269.106C201.879 269.227 201.841 269.346 201.77 269.444C201.699 269.542 201.599 269.616 201.484 269.655L195.96 272.865C195.667 273.015 195.342 273.093 195.013 273.093C194.684 273.093 194.359 273.015 194.066 272.865L188.083 269.415C187.969 269.374 187.871 269.299 187.801 269.2C187.732 269.101 187.694 268.983 187.694 268.862C187.694 268.741 187.732 268.623 187.801 268.524C187.871 268.425 187.969 268.349 188.083 268.308L193.607 265.078C193.903 264.93 194.229 264.853 194.559 264.853C194.89 264.853 195.216 264.93 195.512 265.078L201.484 268.558Z" fill="#455A64"/>
<path d="M254.792 269.066C255.321 269.375 255.321 269.864 254.792 270.163L249.268 273.374C248.974 273.521 248.65 273.598 248.321 273.598C247.992 273.598 247.668 273.521 247.374 273.374L241.391 269.914C241.276 269.875 241.176 269.802 241.105 269.703C241.034 269.605 240.996 269.487 240.996 269.365C240.996 269.244 241.034 269.126 241.105 269.028C241.176 268.929 241.276 268.855 241.391 268.817L246.915 265.616C247.208 265.464 247.532 265.385 247.862 265.385C248.192 265.385 248.517 265.464 248.81 265.616L254.792 269.066Z" fill="#455A64"/>
<path d="M237.481 269.006C238.009 269.316 238.019 269.814 237.481 270.113L231.967 273.324C231.672 273.474 231.345 273.552 231.014 273.552C230.683 273.552 230.357 273.474 230.062 273.324L224.079 269.874C223.964 269.835 223.864 269.762 223.794 269.663C223.723 269.565 223.685 269.447 223.685 269.325C223.685 269.204 223.723 269.086 223.794 268.988C223.864 268.889 223.964 268.816 224.079 268.777L229.603 265.566C229.899 265.419 230.225 265.342 230.556 265.342C230.886 265.342 231.212 265.419 231.508 265.566L237.481 269.006Z" fill="#455A64"/>
<path d="M224.02 271.15C224.549 271.459 224.549 271.948 224.02 272.247L218.536 275.458C218.244 275.61 217.919 275.689 217.589 275.689C217.259 275.689 216.934 275.61 216.642 275.458L210.659 272.008C210.13 271.699 210.12 271.21 210.659 270.901L216.183 267.7C216.476 267.548 216.801 267.469 217.13 267.469C217.46 267.469 217.785 267.548 218.078 267.7L224.02 271.15Z" fill="#455A64"/>
<path d="M210.498 273.753C210.612 273.794 210.71 273.869 210.78 273.968C210.849 274.067 210.887 274.185 210.887 274.306C210.887 274.427 210.849 274.545 210.78 274.644C210.71 274.743 210.612 274.819 210.498 274.86L204.974 278.04C204.681 278.192 204.356 278.272 204.027 278.272C203.697 278.272 203.372 278.192 203.079 278.04L197.097 274.59C196.568 274.281 196.568 273.793 197.097 273.494L202.621 270.283C202.913 270.131 203.238 270.051 203.568 270.051C203.898 270.051 204.223 270.131 204.515 270.283L210.498 273.753Z" fill="#455A64"/>
<path d="M246.694 274.301C246.808 274.342 246.907 274.417 246.976 274.516C247.046 274.615 247.083 274.734 247.083 274.855C247.083 274.976 247.046 275.094 246.976 275.193C246.907 275.292 246.808 275.367 246.694 275.408L241.17 278.619C240.875 278.769 240.549 278.847 240.218 278.847C239.887 278.847 239.561 278.769 239.266 278.619L233.283 275.169C232.754 274.87 232.744 274.371 233.283 274.072L238.797 270.861C239.091 270.709 239.418 270.63 239.749 270.63C240.081 270.63 240.407 270.709 240.702 270.861L246.694 274.301Z" fill="#455A64"/>
<path d="M264.075 274.411C264.604 274.71 264.614 275.209 264.075 275.508L258.561 278.718C258.265 278.866 257.939 278.943 257.609 278.943C257.278 278.943 256.952 278.866 256.656 278.718L250.674 275.258C250.145 274.959 250.145 274.471 250.674 274.162L256.188 270.951C256.482 270.803 256.806 270.727 257.135 270.727C257.464 270.727 257.788 270.803 258.082 270.951L264.075 274.411Z" fill="#455A64"/>
<path d="M233.025 276.345C233.138 276.386 233.237 276.462 233.306 276.561C233.376 276.66 233.413 276.778 233.413 276.899C233.413 277.02 233.376 277.138 233.306 277.237C233.237 277.336 233.138 277.411 233.025 277.452L227.51 280.663C227.216 280.81 226.892 280.887 226.563 280.887C226.234 280.887 225.91 280.81 225.616 280.663L219.633 277.203C219.518 277.164 219.418 277.091 219.347 276.992C219.276 276.894 219.238 276.776 219.238 276.654C219.238 276.533 219.276 276.415 219.347 276.317C219.418 276.218 219.518 276.144 219.633 276.106L225.157 272.895C225.45 272.746 225.775 272.667 226.104 272.667C226.434 272.667 226.758 272.746 227.052 272.895L233.025 276.345Z" fill="#455A64"/>
<path d="M219.534 278.958C219.648 278.996 219.748 279.07 219.819 279.168C219.89 279.267 219.928 279.385 219.928 279.506C219.928 279.627 219.89 279.746 219.819 279.844C219.748 279.942 219.648 280.016 219.534 280.055L214.009 283.265C213.715 283.413 213.391 283.49 213.062 283.49C212.733 283.49 212.409 283.413 212.115 283.265L206.132 279.805C206.017 279.767 205.917 279.693 205.846 279.595C205.775 279.496 205.737 279.378 205.737 279.257C205.737 279.136 205.775 279.017 205.846 278.919C205.917 278.821 206.017 278.747 206.132 278.709L211.656 275.498C211.952 275.35 212.278 275.273 212.608 275.273C212.939 275.273 213.265 275.35 213.561 275.498L219.534 278.958Z" fill="#455A64"/>
<path d="M255.858 279.596C255.972 279.637 256.071 279.712 256.14 279.811C256.21 279.91 256.247 280.028 256.247 280.149C256.247 280.27 256.21 280.388 256.14 280.488C256.071 280.587 255.972 280.662 255.858 280.703L250.334 283.904C250.042 284.056 249.717 284.135 249.387 284.135C249.057 284.135 248.732 284.056 248.44 283.904L242.457 280.454C241.928 280.144 241.928 279.656 242.457 279.357L247.981 276.146C248.274 275.994 248.599 275.914 248.928 275.914C249.258 275.914 249.583 275.994 249.876 276.146L255.858 279.596Z" fill="#455A64"/>
<path d="M273.378 279.775C273.493 279.814 273.593 279.888 273.664 279.986C273.735 280.084 273.773 280.203 273.773 280.324C273.773 280.445 273.735 280.563 273.664 280.662C273.593 280.76 273.493 280.834 273.378 280.872L267.854 284.083C267.56 284.23 267.236 284.307 266.907 284.307C266.578 284.307 266.254 284.23 265.96 284.083L259.977 280.623C259.862 280.585 259.762 280.511 259.691 280.412C259.62 280.314 259.582 280.196 259.582 280.075C259.582 279.953 259.62 279.835 259.691 279.737C259.762 279.638 259.862 279.565 259.977 279.526L265.501 276.315C265.795 276.168 266.119 276.091 266.448 276.091C266.777 276.091 267.101 276.168 267.395 276.315L273.378 279.775Z" fill="#455A64"/>
<path d="M210.369 284.103C210.897 284.402 210.907 284.901 210.369 285.2L204.845 288.411C204.551 288.558 204.226 288.635 203.898 288.635C203.569 288.635 203.244 288.558 202.95 288.411L159.814 263.482C159.286 263.183 159.286 262.695 159.814 262.385L165.329 259.185C165.623 259.032 165.949 258.953 166.281 258.953C166.612 258.953 166.939 259.032 167.233 259.185L210.369 284.103Z" fill="#455A64"/>
<path d="M265.032 284.891C265.147 284.929 265.247 285.003 265.318 285.101C265.389 285.2 265.427 285.318 265.427 285.439C265.427 285.56 265.389 285.679 265.318 285.777C265.247 285.875 265.147 285.949 265.032 285.988L259.518 289.198C259.224 289.35 258.897 289.43 258.566 289.43C258.235 289.43 257.908 289.35 257.614 289.198L251.631 285.748C251.517 285.707 251.419 285.632 251.349 285.533C251.279 285.434 251.242 285.316 251.242 285.195C251.242 285.074 251.279 284.956 251.349 284.857C251.419 284.758 251.517 284.682 251.631 284.641L257.145 281.441C257.439 281.289 257.766 281.209 258.097 281.209C258.429 281.209 258.755 281.289 259.05 281.441L265.032 284.891Z" fill="#455A64"/>
<path d="M274.195 290.186C274.31 290.224 274.41 290.298 274.48 290.396C274.551 290.495 274.589 290.613 274.589 290.734C274.589 290.855 274.551 290.973 274.48 291.072C274.41 291.17 274.31 291.244 274.195 291.282L268.671 294.493C268.376 294.641 268.052 294.717 267.723 294.717C267.394 294.717 267.07 294.641 266.776 294.493L260.793 291.033C260.678 290.995 260.578 290.921 260.507 290.823C260.437 290.724 260.398 290.606 260.398 290.485C260.398 290.363 260.437 290.245 260.507 290.147C260.578 290.048 260.678 289.975 260.793 289.936L266.317 286.735C266.611 286.586 266.935 286.508 267.265 286.508C267.594 286.508 267.919 286.586 268.212 286.735L274.195 290.186Z" fill="#455A64"/>
<path d="M291.944 290.495C292.472 290.804 292.472 291.292 291.944 291.591L286.429 294.802C286.135 294.95 285.811 295.026 285.482 295.026C285.153 295.026 284.829 294.95 284.535 294.802L269.259 286.017C269.145 285.976 269.047 285.901 268.977 285.802C268.907 285.703 268.87 285.585 268.87 285.464C268.87 285.343 268.907 285.225 268.977 285.126C269.047 285.027 269.145 284.952 269.259 284.911L274.783 281.71C275.076 281.56 275.401 281.482 275.73 281.482C276.059 281.482 276.384 281.56 276.677 281.71L291.944 290.495Z" fill="#455A64"/>
<path d="M283.348 295.48C283.463 295.519 283.563 295.592 283.633 295.691C283.704 295.789 283.742 295.907 283.742 296.029C283.742 296.15 283.704 296.268 283.633 296.367C283.563 296.465 283.463 296.539 283.348 296.577L277.833 299.788C277.538 299.935 277.212 300.012 276.881 300.012C276.551 300.012 276.225 299.935 275.929 299.788L269.946 296.328C269.418 296.029 269.418 295.54 269.946 295.231L275.46 292.02C275.756 291.873 276.082 291.796 276.413 291.796C276.743 291.796 277.069 291.873 277.365 292.02L283.348 295.48Z" fill="#455A64"/>
<path d="M242.466 254.688C242.995 254.997 242.995 255.485 242.466 255.784L239.275 257.649C238.979 257.797 238.653 257.873 238.323 257.873C237.992 257.873 237.666 257.797 237.371 257.649L231.388 254.189C231.273 254.151 231.173 254.077 231.102 253.978C231.031 253.88 230.993 253.762 230.993 253.641C230.993 253.519 231.031 253.401 231.102 253.303C231.173 253.204 231.273 253.131 231.388 253.092L234.579 251.238C234.871 251.085 235.196 251.006 235.526 251.006C235.856 251.006 236.181 251.085 236.473 251.238L242.466 254.688Z" fill="#455A64"/>
<path d="M270.326 270.781C270.441 270.82 270.541 270.893 270.612 270.992C270.683 271.09 270.721 271.208 270.721 271.33C270.721 271.451 270.683 271.569 270.612 271.668C270.541 271.766 270.441 271.84 270.326 271.878L267.135 273.733C266.839 273.88 266.514 273.957 266.183 273.957C265.852 273.957 265.526 273.88 265.231 273.733L259.248 270.273C258.719 269.974 258.719 269.485 259.248 269.176L262.439 267.321C262.733 267.174 263.057 267.097 263.386 267.097C263.715 267.097 264.039 267.174 264.333 267.321L270.326 270.781Z" fill="#455A64"/>
<path d="M279.618 276.136C279.732 276.177 279.831 276.252 279.9 276.351C279.97 276.45 280.007 276.568 280.007 276.689C280.007 276.81 279.97 276.928 279.9 277.027C279.831 277.126 279.732 277.202 279.618 277.243L276.418 279.097C276.124 279.245 275.799 279.321 275.47 279.321C275.141 279.321 274.817 279.245 274.523 279.097L268.54 275.637C268.425 275.599 268.325 275.525 268.254 275.427C268.184 275.328 268.146 275.21 268.146 275.089C268.146 274.968 268.184 274.849 268.254 274.751C268.325 274.653 268.425 274.579 268.54 274.54L271.741 272.686C272.034 272.534 272.359 272.454 272.688 272.454C273.018 272.454 273.343 272.534 273.636 272.686L279.618 276.136Z" fill="#455A64"/>
<path d="M288.904 281.5C289.019 281.539 289.119 281.613 289.189 281.711C289.26 281.809 289.298 281.928 289.298 282.049C289.298 282.17 289.26 282.288 289.189 282.387C289.119 282.485 289.019 282.559 288.904 282.597L285.703 284.452C285.41 284.604 285.085 284.683 284.755 284.683C284.426 284.683 284.101 284.604 283.808 284.452L277.825 281.002C277.71 280.963 277.61 280.89 277.54 280.791C277.469 280.693 277.431 280.575 277.431 280.453C277.431 280.332 277.469 280.214 277.54 280.116C277.61 280.017 277.71 279.944 277.825 279.905L281.026 278.04C281.32 277.893 281.645 277.816 281.973 277.816C282.302 277.816 282.627 277.893 282.921 278.04L288.904 281.5Z" fill="#455A64"/>
<path d="M191.682 242.543C191.796 242.584 191.894 242.659 191.964 242.758C192.034 242.857 192.071 242.975 192.071 243.096C192.071 243.217 192.034 243.335 191.964 243.434C191.894 243.533 191.796 243.608 191.682 243.649L186.168 246.85C185.875 247.002 185.551 247.082 185.221 247.082C184.891 247.082 184.566 247.002 184.274 246.85L178.291 243.4C177.762 243.091 177.752 242.602 178.291 242.303L183.815 239.092C184.107 238.94 184.432 238.861 184.762 238.861C185.092 238.861 185.417 238.94 185.709 239.092L191.682 242.543Z" fill="#455A64"/>
<path d="M200.857 247.837C200.971 247.878 201.07 247.954 201.139 248.053C201.209 248.152 201.246 248.27 201.246 248.391C201.246 248.512 201.209 248.63 201.139 248.729C201.07 248.828 200.971 248.903 200.857 248.944L195.333 252.115C195.041 252.267 194.716 252.346 194.386 252.346C194.056 252.346 193.731 252.267 193.439 252.115L187.456 248.665C186.927 248.356 186.927 247.867 187.456 247.568L192.97 244.357C193.264 244.205 193.591 244.126 193.922 244.126C194.254 244.126 194.58 244.205 194.875 244.357L200.857 247.837Z" fill="#455A64"/>
<path d="M188.003 250.35C188.117 250.391 188.215 250.466 188.285 250.565C188.354 250.664 188.391 250.782 188.391 250.903C188.391 251.024 188.354 251.143 188.285 251.242C188.215 251.341 188.117 251.416 188.003 251.457L182.479 254.668C182.185 254.815 181.86 254.892 181.531 254.892C181.202 254.892 180.878 254.815 180.584 254.668L174.601 251.208C174.073 250.908 174.063 250.41 174.601 250.111L180.115 246.9C180.411 246.752 180.737 246.676 181.068 246.676C181.398 246.676 181.724 246.752 182.02 246.9L188.003 250.35Z" fill="#455A64"/>
<path d="M136.072 241.206C136.187 241.245 136.287 241.319 136.358 241.417C136.429 241.515 136.467 241.634 136.467 241.755C136.467 241.876 136.429 241.994 136.358 242.093C136.287 242.191 136.187 242.265 136.072 242.303L130.558 245.514C130.264 245.661 129.94 245.738 129.611 245.738C129.282 245.738 128.958 245.661 128.664 245.514L122.681 242.054C122.566 242.015 122.466 241.942 122.395 241.843C122.324 241.745 122.286 241.627 122.286 241.505C122.286 241.384 122.324 241.266 122.395 241.168C122.466 241.069 122.566 240.996 122.681 240.957L128.205 237.746C128.499 237.599 128.823 237.522 129.152 237.522C129.481 237.522 129.806 237.599 130.1 237.746L136.072 241.206Z" fill="#455A64"/>
<path d="M145.355 246.571C145.47 246.609 145.57 246.683 145.641 246.782C145.711 246.88 145.75 246.998 145.75 247.119C145.75 247.241 145.711 247.359 145.641 247.457C145.57 247.556 145.47 247.629 145.355 247.668L139.841 250.879C139.545 251.026 139.219 251.103 138.888 251.103C138.558 251.103 138.232 251.026 137.936 250.879L131.953 247.419C131.838 247.38 131.738 247.306 131.668 247.208C131.597 247.11 131.559 246.991 131.559 246.87C131.559 246.749 131.597 246.631 131.668 246.532C131.738 246.434 131.838 246.36 131.953 246.322L137.468 243.111C137.762 242.964 138.086 242.887 138.415 242.887C138.744 242.887 139.068 242.964 139.362 243.111L145.355 246.571Z" fill="#455A64"/>
<path d="M169.994 239.96C170.109 239.998 170.209 240.072 170.28 240.171C170.351 240.269 170.389 240.387 170.389 240.508C170.389 240.63 170.351 240.748 170.28 240.846C170.209 240.945 170.109 241.018 169.994 241.057L164.48 244.268C164.186 244.415 163.862 244.492 163.533 244.492C163.204 244.492 162.88 244.415 162.586 244.268L156.603 240.807C156.488 240.769 156.388 240.695 156.317 240.597C156.246 240.499 156.208 240.38 156.208 240.259C156.208 240.138 156.246 240.02 156.317 239.921C156.388 239.823 156.488 239.749 156.603 239.711L162.117 236.51C162.412 236.36 162.738 236.282 163.069 236.282C163.4 236.282 163.726 236.36 164.021 236.51L169.994 239.96Z" fill="#455A64"/>
<path d="M156.224 242.423C156.338 242.464 156.436 242.539 156.506 242.638C156.576 242.737 156.613 242.855 156.613 242.976C156.613 243.097 156.576 243.215 156.506 243.314C156.436 243.413 156.338 243.489 156.224 243.53L150.73 246.73C150.437 246.883 150.112 246.962 149.783 246.962C149.453 246.962 149.128 246.883 148.835 246.73L131.685 236.829C131.57 236.79 131.47 236.717 131.399 236.618C131.328 236.52 131.29 236.402 131.29 236.281C131.29 236.159 131.328 236.041 131.399 235.943C131.47 235.844 131.57 235.771 131.685 235.732L137.199 232.531C137.494 232.382 137.82 232.303 138.151 232.303C138.482 232.303 138.808 232.382 139.103 232.531L156.224 242.423Z" fill="#455A64"/>
<path d="M179 245.135C179.114 245.176 179.212 245.251 179.282 245.35C179.351 245.449 179.389 245.567 179.389 245.688C179.389 245.809 179.351 245.928 179.282 246.027C179.212 246.126 179.114 246.201 179 246.242L173.476 249.443C173.183 249.595 172.858 249.674 172.529 249.674C172.199 249.674 171.874 249.595 171.581 249.443L165.599 245.993C165.07 245.683 165.07 245.195 165.599 244.896L171.123 241.685C171.416 241.535 171.741 241.457 172.07 241.457C172.399 241.457 172.724 241.535 173.017 241.685L179 245.135Z" fill="#455A64"/>
<path d="M165.469 247.758C165.582 247.799 165.681 247.874 165.75 247.973C165.82 248.072 165.857 248.19 165.857 248.311C165.857 248.432 165.82 248.55 165.75 248.649C165.681 248.748 165.582 248.823 165.469 248.864L159.954 252.115C159.662 252.267 159.337 252.346 159.007 252.346C158.677 252.346 158.352 252.267 158.06 252.115L152.077 248.665C151.549 248.356 151.549 247.867 152.077 247.568L157.601 244.357C157.894 244.208 158.219 244.13 158.548 244.13C158.878 244.13 159.202 244.208 159.496 244.357L165.469 247.758Z" fill="#455A64"/>
<path d="M174.472 252.963C174.587 253.001 174.687 253.075 174.758 253.173C174.829 253.272 174.867 253.39 174.867 253.511C174.867 253.632 174.829 253.75 174.758 253.849C174.687 253.947 174.587 254.021 174.472 254.059L168.948 257.27C168.654 257.418 168.329 257.494 168.001 257.494C167.672 257.494 167.347 257.418 167.053 257.27L161.071 253.81C160.956 253.772 160.856 253.698 160.785 253.6C160.714 253.501 160.676 253.383 160.676 253.262C160.676 253.14 160.714 253.022 160.785 252.924C160.856 252.825 160.956 252.752 161.071 252.713L166.585 249.503C166.882 249.355 167.21 249.278 167.542 249.278C167.874 249.278 168.202 249.355 168.499 249.503L174.472 252.963Z" fill="#455A64"/>
<path d="M160.703 234.585C160.817 234.626 160.915 234.702 160.985 234.801C161.054 234.9 161.091 235.018 161.091 235.139C161.091 235.26 161.054 235.378 160.985 235.477C160.915 235.576 160.817 235.651 160.703 235.692L155.179 238.893C154.886 239.045 154.561 239.124 154.231 239.124C153.902 239.124 153.577 239.045 153.284 238.893L140.66 231.604C140.545 231.565 140.445 231.492 140.375 231.393C140.304 231.295 140.266 231.177 140.266 231.056C140.266 230.934 140.304 230.816 140.375 230.718C140.445 230.619 140.545 230.546 140.66 230.507L146.184 227.306C146.478 227.157 146.802 227.079 147.132 227.079C147.461 227.079 147.786 227.157 148.079 227.306L160.703 234.585Z" fill="#455A64"/>
<path d="M182.519 237.248C182.633 237.289 182.731 237.364 182.801 237.463C182.87 237.562 182.908 237.68 182.908 237.801C182.908 237.922 182.87 238.04 182.801 238.139C182.731 238.238 182.633 238.314 182.519 238.355L176.995 241.555C176.702 241.707 176.377 241.787 176.047 241.787C175.718 241.787 175.393 241.707 175.1 241.555L169.117 238.105C169.002 238.067 168.902 237.993 168.832 237.895C168.761 237.796 168.723 237.678 168.723 237.557C168.723 237.436 168.761 237.317 168.832 237.219C168.902 237.121 169.002 237.047 169.117 237.008L174.632 233.798C174.927 233.65 175.253 233.573 175.584 233.573C175.914 233.573 176.24 233.65 176.536 233.798L182.519 237.248Z" fill="#455A64"/>
<path d="M228.945 294.822C229.059 294.863 229.158 294.938 229.227 295.037C229.297 295.136 229.334 295.255 229.334 295.376C229.334 295.497 229.297 295.615 229.227 295.714C229.158 295.813 229.059 295.888 228.945 295.929L223.421 299.13C223.129 299.282 222.804 299.361 222.474 299.361C222.144 299.361 221.819 299.282 221.527 299.13L215.544 295.68C215.015 295.371 215.015 294.882 215.544 294.583L221.068 291.372C221.361 291.22 221.685 291.141 222.015 291.141C222.345 291.141 222.67 291.22 222.962 291.372L228.945 294.822Z" fill="#455A64"/>
<path d="M234.589 302.769C235.118 303.068 235.128 303.567 234.589 303.866L233.113 304.724C232.819 304.876 232.493 304.955 232.161 304.955C231.83 304.955 231.503 304.876 231.209 304.724L224.718 300.974C224.189 300.665 224.189 300.177 224.718 299.878L226.193 299.01C226.487 298.863 226.812 298.786 227.141 298.786C227.47 298.786 227.794 298.863 228.088 299.01L234.589 302.769Z" fill="#455A64"/>
<path d="M246.515 294.553C246.63 294.591 246.73 294.665 246.801 294.764C246.872 294.862 246.91 294.98 246.91 295.101C246.91 295.223 246.872 295.341 246.801 295.439C246.73 295.538 246.63 295.611 246.515 295.65L240.991 298.861C240.697 299.008 240.372 299.085 240.044 299.085C239.715 299.085 239.39 299.008 239.096 298.861L233.113 295.4C232.999 295.362 232.899 295.288 232.828 295.19C232.757 295.092 232.719 294.973 232.719 294.852C232.719 294.731 232.757 294.613 232.828 294.514C232.899 294.416 232.999 294.342 233.113 294.304L238.638 291.093C238.933 290.945 239.259 290.869 239.59 290.869C239.92 290.869 240.246 290.945 240.542 291.093L246.515 294.553Z" fill="#455A64"/>
<path d="M274.794 300.466C275.323 300.765 275.313 301.254 274.794 301.563L269.27 304.774C268.976 304.921 268.652 304.998 268.323 304.998C267.994 304.998 267.67 304.921 267.376 304.774L255.649 297.983C255.536 297.942 255.437 297.867 255.368 297.768C255.298 297.669 255.261 297.551 255.261 297.43C255.261 297.309 255.298 297.191 255.368 297.092C255.437 296.992 255.536 296.917 255.649 296.876L261.174 293.675C261.468 293.523 261.794 293.444 262.126 293.444C262.457 293.444 262.784 293.523 263.078 293.675L274.794 300.466Z" fill="#455A64"/>
<path d="M265.799 305.691C266.327 305.99 266.327 306.479 265.799 306.788L260.285 309.998C259.991 310.146 259.666 310.223 259.338 310.223C259.009 310.223 258.684 310.146 258.39 309.998L242.117 300.606C241.589 300.296 241.589 299.808 242.117 299.509L247.631 296.298C247.926 296.146 248.252 296.066 248.583 296.066C248.915 296.066 249.241 296.146 249.536 296.298L265.799 305.691Z" fill="#455A64"/>
<path d="M260.045 292C260.16 292.039 260.26 292.112 260.331 292.211C260.402 292.309 260.44 292.427 260.44 292.549C260.44 292.67 260.402 292.788 260.331 292.887C260.26 292.985 260.16 293.059 260.045 293.097L254.521 296.308C254.227 296.455 253.903 296.532 253.574 296.532C253.245 296.532 252.921 296.455 252.627 296.308L246.644 292.848C246.529 292.809 246.429 292.736 246.358 292.637C246.287 292.539 246.249 292.421 246.249 292.299C246.249 292.178 246.287 292.06 246.358 291.962C246.429 291.863 246.529 291.789 246.644 291.751L252.168 288.54C252.462 288.393 252.786 288.316 253.115 288.316C253.444 288.316 253.768 288.393 254.062 288.54L260.045 292Z" fill="#455A64"/>
<path d="M237.481 289.348C237.595 289.389 237.693 289.464 237.763 289.563C237.832 289.662 237.869 289.78 237.869 289.901C237.869 290.022 237.832 290.14 237.763 290.239C237.693 290.338 237.595 290.414 237.481 290.455L231.957 293.656C231.664 293.808 231.339 293.887 231.009 293.887C230.68 293.887 230.355 293.808 230.062 293.656L224.079 290.205C223.964 290.167 223.864 290.093 223.794 289.995C223.723 289.896 223.685 289.778 223.685 289.657C223.685 289.536 223.723 289.418 223.794 289.319C223.864 289.221 223.964 289.147 224.079 289.109L229.603 285.898C229.896 285.746 230.221 285.666 230.551 285.666C230.88 285.666 231.205 285.746 231.498 285.898L237.481 289.348Z" fill="#455A64"/>
<path d="M251.031 286.745C251.145 286.786 251.243 286.862 251.313 286.961C251.383 287.06 251.42 287.178 251.42 287.299C251.42 287.42 251.383 287.538 251.313 287.637C251.243 287.736 251.145 287.811 251.031 287.852L245.507 291.053C245.214 291.205 244.89 291.284 244.56 291.284C244.23 291.284 243.905 291.205 243.613 291.053L237.63 287.603C237.101 287.294 237.101 286.805 237.63 286.506L243.154 283.295C243.446 283.143 243.771 283.064 244.101 283.064C244.431 283.064 244.756 283.143 245.048 283.295L251.031 286.745Z" fill="#455A64"/>
<path d="M228.507 284.153C228.622 284.191 228.722 284.265 228.793 284.363C228.864 284.462 228.902 284.58 228.902 284.701C228.902 284.823 228.864 284.941 228.793 285.039C228.722 285.138 228.622 285.211 228.507 285.25L222.993 288.46C222.698 288.61 222.371 288.688 222.041 288.688C221.71 288.688 221.383 288.61 221.088 288.46L215.105 285.01C214.992 284.969 214.893 284.894 214.824 284.795C214.754 284.696 214.717 284.578 214.717 284.457C214.717 284.336 214.754 284.218 214.824 284.119C214.893 284.02 214.992 283.945 215.105 283.904L220.63 280.703C220.924 280.551 221.25 280.471 221.582 280.471C221.913 280.471 222.24 280.551 222.534 280.703L228.507 284.153Z" fill="#455A64"/>
<path d="M242.039 281.55C242.153 281.589 242.253 281.662 242.324 281.761C242.395 281.859 242.433 281.978 242.433 282.099C242.433 282.22 242.395 282.338 242.324 282.437C242.253 282.535 242.153 282.609 242.039 282.647L236.484 285.858C236.191 286.008 235.867 286.086 235.537 286.086C235.208 286.086 234.883 286.008 234.59 285.858L228.607 282.408C228.079 282.099 228.069 281.61 228.607 281.301L234.121 278.09C234.419 277.943 234.746 277.866 235.079 277.866C235.411 277.866 235.738 277.943 236.036 278.09L242.039 281.55Z" fill="#455A64"/>
<path d="M183.477 258.158C184.005 258.467 184.005 258.955 183.477 259.254L177.953 262.465C177.66 262.617 177.335 262.697 177.005 262.697C176.676 262.697 176.351 262.617 176.058 262.465L170.075 259.015C169.961 258.974 169.863 258.899 169.793 258.8C169.724 258.701 169.687 258.583 169.687 258.462C169.687 258.341 169.724 258.223 169.793 258.124C169.863 258.025 169.961 257.949 170.075 257.908L175.599 254.708C175.892 254.555 176.217 254.476 176.547 254.476C176.876 254.476 177.201 254.555 177.494 254.708L183.477 258.158Z" fill="#455A64"/>
<path d="M208.355 242.233C208.469 242.274 208.568 242.35 208.637 242.449C208.707 242.548 208.744 242.666 208.744 242.787C208.744 242.908 208.707 243.026 208.637 243.125C208.568 243.224 208.469 243.299 208.355 243.34L202.831 246.541C202.539 246.693 202.214 246.772 201.884 246.772C201.554 246.772 201.229 246.693 200.937 246.541L194.954 243.091C194.425 242.782 194.425 242.293 194.954 241.994L200.478 238.783C200.771 238.631 201.096 238.552 201.425 238.552C201.755 238.552 202.08 238.631 202.373 238.783L208.355 242.233Z" fill="#455A64"/>
<path d="M154.649 251.935C154.764 251.974 154.864 252.048 154.935 252.146C155.006 252.244 155.044 252.363 155.044 252.484C155.044 252.605 155.006 252.723 154.935 252.822C154.864 252.92 154.764 252.994 154.649 253.032L149.125 256.233C148.833 256.385 148.508 256.465 148.178 256.465C147.848 256.465 147.523 256.385 147.231 256.233L141.248 252.783C140.719 252.474 140.719 251.985 141.248 251.686L146.772 248.475C147.066 248.328 147.39 248.251 147.719 248.251C148.048 248.251 148.373 248.328 148.667 248.475L154.649 251.935Z" fill="#455A64"/>
<path d="M243.683 308.014C244.201 308.323 244.211 308.812 243.683 309.111L242.207 309.969C241.914 310.121 241.59 310.2 241.26 310.2C240.93 310.2 240.605 310.121 240.313 309.969L233.811 306.219C233.283 305.91 233.273 305.422 233.811 305.123L235.287 304.265C235.58 304.113 235.905 304.034 236.234 304.034C236.564 304.034 236.889 304.113 237.182 304.265L243.683 308.014Z" fill="#455A64"/>
<path d="M252.768 313.259C253.296 313.568 253.296 314.057 252.768 314.356L251.282 315.224C250.988 315.371 250.664 315.448 250.335 315.448C250.006 315.448 249.682 315.371 249.388 315.224L242.886 311.464C242.358 311.165 242.348 310.667 242.886 310.367L244.362 309.5C244.657 309.35 244.984 309.272 245.314 309.272C245.645 309.272 245.972 309.35 246.267 309.5L252.768 313.259Z" fill="#455A64"/>
<path d="M247.72 305.671C248.249 305.97 248.249 306.459 247.72 306.768L246.245 307.625C245.951 307.773 245.626 307.849 245.297 307.849C244.969 307.849 244.644 307.773 244.35 307.625L237.849 303.866C237.734 303.828 237.634 303.754 237.563 303.656C237.492 303.557 237.454 303.439 237.454 303.318C237.454 303.196 237.492 303.078 237.563 302.98C237.634 302.881 237.734 302.808 237.849 302.769L239.325 301.912C239.62 301.764 239.946 301.687 240.277 301.687C240.607 301.687 240.933 301.764 241.229 301.912L247.72 305.671Z" fill="#455A64"/>
<path d="M158.388 269.236L134.776 283.026C134.596 283.132 134.446 283.282 134.343 283.464C134.239 283.645 134.185 283.85 134.185 284.058C134.185 284.267 134.239 284.472 134.343 284.653C134.446 284.834 134.596 284.985 134.776 285.09L174.412 308.024C174.866 308.287 175.382 308.425 175.907 308.425C176.432 308.425 176.948 308.287 177.403 308.024L201.035 294.284C201.218 294.18 201.369 294.03 201.475 293.849C201.58 293.668 201.636 293.462 201.636 293.252C201.636 293.042 201.58 292.836 201.475 292.655C201.369 292.473 201.218 292.323 201.035 292.22L161.399 269.286C160.946 269.012 160.429 268.863 159.9 268.854C159.371 268.845 158.849 268.977 158.388 269.236V269.236Z" fill="#455A64"/>
<path d="M216.182 339.344L82.9254 262.435C82.4231 262.205 81.9875 261.851 81.6596 261.406C81.3317 260.961 81.1222 260.441 81.0508 259.893V267.79C81.0776 268.37 81.2665 268.93 81.5962 269.408C81.9258 269.886 82.3829 270.261 82.9154 270.492L216.142 347.411C217.417 348.091 218.836 348.454 220.28 348.468V340.411C218.849 340.387 217.444 340.022 216.182 339.344V339.344Z" fill="#455A64"/>
<path opacity="0.2" d="M311.588 287.812C311.496 288.328 311.281 288.813 310.962 289.228C310.642 289.643 310.228 289.975 309.753 290.195L225.186 339.344C223.69 340.132 222.009 340.501 220.32 340.411V348.468C222.008 348.566 223.691 348.201 225.186 347.411L309.753 298.262C310.245 298.035 310.672 297.687 310.994 297.252C311.316 296.816 311.524 296.306 311.598 295.769V295.769V287.792L311.588 287.812Z" fill="black"/>
<path d="M312.745 168.815L179.298 91.7262C178.68 91.3574 177.974 91.1626 177.254 91.1626C176.534 91.1626 175.828 91.3574 175.21 91.7262V91.7262L172.388 93.5809C171.827 93.9433 171.366 94.441 171.047 95.0281C170.728 95.6153 170.562 96.2731 170.563 96.9412V198.918C170.565 200.759 171.05 202.567 171.97 204.162C172.891 205.756 174.214 207.08 175.808 208.002L309.275 285.08C309.91 285.451 310.636 285.639 311.371 285.623C312.107 285.607 312.824 285.388 313.443 284.99L316.235 283.146C316.779 282.78 317.225 282.286 317.533 281.707C317.841 281.127 318.001 280.481 317.999 279.825V177.888C317.999 176.047 317.512 174.239 316.59 172.646C315.667 171.053 314.341 169.732 312.745 168.815V168.815Z" fill="#37474F"/>
<path d="M179.449 201.71C178.958 201.428 178.549 201.022 178.266 200.532C177.982 200.041 177.833 199.484 177.834 198.918V102.545L306.464 176.841C306.952 177.127 307.357 177.534 307.638 178.024C307.92 178.514 308.068 179.068 308.069 179.633V276.046L179.449 201.71Z" fill="#40618C"/>
<path opacity="0.3" d="M179.449 201.71C178.958 201.428 178.549 201.022 178.266 200.532C177.982 200.041 177.833 199.484 177.834 198.918V102.545L306.464 176.841C306.952 177.127 307.357 177.534 307.638 178.024C307.92 178.514 308.068 179.068 308.069 179.633V276.046L179.449 201.71Z" fill="black"/>
<path opacity="0.1" d="M179.449 201.71C178.958 201.428 178.549 201.022 178.266 200.532C177.982 200.041 177.833 199.484 177.834 198.918V102.545L306.464 176.841C306.952 177.127 307.357 177.534 307.638 178.024C307.92 178.514 308.068 179.068 308.069 179.633V276.046L179.449 201.71Z" fill="white"/>
<path d="M312.744 168.815L179.298 91.7262C178.68 91.3574 177.973 91.1626 177.254 91.1626C176.534 91.1626 175.828 91.3574 175.21 91.7262V91.7262L172.388 93.5809C173.009 93.1651 173.735 92.9324 174.483 92.9095C175.231 92.8866 175.97 93.0743 176.616 93.4513L310.072 170.53C312.014 171.656 313.545 173.376 314.439 175.436L317.191 173.85C316.302 171.729 314.739 169.959 312.744 168.815Z" fill="#455A64"/>
<path opacity="0.2" d="M314.449 175.485C315.019 176.804 315.315 178.226 315.316 179.663V281.59C315.318 282.271 315.146 282.94 314.816 283.535C314.486 284.131 314.01 284.632 313.432 284.99V284.99L316.224 283.146C316.768 282.78 317.214 282.286 317.522 281.707C317.83 281.127 317.99 280.481 317.989 279.825V177.888C317.987 176.52 317.719 175.166 317.201 173.9L314.449 175.485Z" fill="black"/>
<path d="M222.833 201.57C221.652 200.838 220.609 199.903 219.752 198.808L218.755 200.862C219.901 202.246 221.281 203.417 222.833 204.322C225.735 205.998 227.191 205.18 227.201 203.216C227.201 199.227 222.035 197.342 222.035 196.046C222.035 195.677 222.335 195.538 223.252 196.046C224.245 196.663 225.128 197.442 225.864 198.35L226.862 196.276C225.868 195.08 224.674 194.068 223.332 193.284C220.43 191.609 218.974 192.397 218.964 194.391C218.964 198.38 224.129 200.294 224.119 201.65C224.05 202.059 223.731 202.089 222.833 201.57Z" fill="white"/>
<path d="M243.543 210.176L240.003 203.236L237.411 201.74L237.381 212.489L240.452 214.264L240.472 209.388L244.012 216.318L246.604 217.814L246.634 207.065L243.563 205.29L243.543 210.176Z" fill="white"/>
<path d="M209.012 201.261C207.826 200.573 206.849 201.132 206.849 202.498C206.887 203.247 207.102 203.976 207.476 204.626C207.85 205.276 208.374 205.828 209.002 206.237L247.721 228.593V223.607L209.012 201.261Z" fill="#40618C"/>
<path opacity="0.3" d="M209.012 201.261C207.826 200.573 206.849 201.132 206.849 202.498C206.887 203.247 207.102 203.976 207.476 204.626C207.85 205.276 208.374 205.828 209.002 206.237L247.721 228.593V223.607L209.012 201.261Z" fill="white"/>
<path d="M233.452 210.225L233.462 206.327L237.011 201.511L233.97 199.756L232.026 202.358L230.131 197.542L226.801 195.617L230.311 204.452L230.301 208.401L233.452 210.225Z" fill="white"/>
<path d="M253.146 213.516C254.056 214.108 254.768 214.959 255.19 215.959L257.184 215.072C256.287 213.155 254.826 211.559 252.996 210.495C250.005 208.76 247.781 209.797 247.771 213.107C247.854 214.863 248.371 216.571 249.278 218.077C250.185 219.582 251.453 220.839 252.967 221.732C254.791 222.789 256.237 222.859 257.164 222.002L255.17 218.811C254.894 219.063 254.537 219.21 254.163 219.224C253.789 219.239 253.421 219.121 253.126 218.891C252.445 218.474 251.886 217.887 251.503 217.187C251.119 216.488 250.926 215.7 250.942 214.902C250.952 213.297 251.84 212.758 253.146 213.516Z" fill="white"/>
<path d="M233.552 159.681C235.158 157.936 239.126 156.291 243.723 158.933C246.974 160.818 250.544 164.856 253.804 172.574C252.578 164.018 246.096 154.735 239.087 150.687C235.228 148.453 231.209 147.815 227.819 149.749L223.97 143.079L220.879 160.758L237.83 167.02L233.552 159.681Z" fill="white"/>
<path d="M238.349 171.846L242.587 179.185C240.981 180.93 237.013 182.575 232.416 179.933C229.165 178.048 225.596 173.95 222.335 166.292C223.561 174.847 230.043 184.13 237.053 188.179C240.912 190.412 244.93 191.051 248.32 189.116L252.169 195.787L255.26 178.108L238.349 171.846Z" fill="white"/>
<path d="M266.847 234.645L247.742 223.607V228.593L266.847 239.621C268.044 240.309 269.011 239.751 269.021 238.384C268.979 237.634 268.76 236.904 268.383 236.254C268.005 235.604 267.479 235.053 266.847 234.645V234.645Z" fill="white"/>
<path d="M121.993 78.2151C121.594 76.7992 118.722 74.1169 115.871 74.1667C115.598 74.174 115.328 74.228 115.073 74.3263L59.6324 105.866C58.8287 106.348 58.1637 107.031 57.7023 107.847C57.241 108.663 56.999 109.585 57 110.522V230.378C57 233.439 60.5299 236.36 63.8304 234.944C63.9019 234.919 63.9718 234.889 64.0398 234.855L119.45 203.256C120.264 202.792 120.94 202.122 121.411 201.313C121.882 200.504 122.131 199.585 122.133 198.649V78.7934C122.13 78.5926 122.082 78.3949 121.993 78.2151V78.2151Z" fill="#455A64"/>
<path d="M64.6897 123.146C64.6896 122.678 64.8131 122.219 65.0477 121.814C65.2824 121.41 65.6198 121.075 66.0258 120.843L117.498 91.5767C117.7 91.4587 117.93 91.3964 118.164 91.3961C118.399 91.3958 118.629 91.4576 118.831 91.5751C119.034 91.6926 119.202 91.8617 119.318 92.0651C119.434 92.2686 119.494 92.4991 119.492 92.7334V189.455C119.491 189.923 119.367 190.382 119.133 190.786C118.898 191.19 118.561 191.526 118.156 191.759L66.674 221.034C66.4724 221.152 66.2433 221.214 66.0099 221.215C65.7765 221.216 65.5471 221.155 65.3448 221.038C65.1425 220.922 64.9745 220.754 64.8577 220.552C64.7409 220.35 64.6795 220.121 64.6797 219.888L64.6897 123.146Z" fill="#40618C"/>
<path opacity="0.2" d="M64.6897 123.146C64.6896 122.678 64.8131 122.219 65.0477 121.814C65.2824 121.41 65.6198 121.075 66.0258 120.843L117.498 91.5767C117.7 91.4587 117.93 91.3964 118.164 91.3961C118.399 91.3958 118.629 91.4576 118.831 91.5751C119.034 91.6926 119.202 91.8617 119.318 92.0651C119.434 92.2686 119.494 92.4991 119.492 92.7334V189.455C119.491 189.923 119.367 190.382 119.133 190.786C118.898 191.19 118.561 191.526 118.156 191.759L66.674 221.034C66.4724 221.152 66.2433 221.214 66.0099 221.215C65.7765 221.216 65.5471 221.155 65.3448 221.038C65.1425 220.922 64.9745 220.754 64.8577 220.552C64.7409 220.35 64.6795 220.121 64.6797 219.888L64.6897 123.146Z" fill="black"/>
<path opacity="0.1" d="M64.6897 123.146C64.6896 122.678 64.8131 122.219 65.0477 121.814C65.2824 121.41 65.6198 121.075 66.0258 120.843L117.498 91.5767C117.7 91.4587 117.93 91.3964 118.164 91.3961C118.399 91.3958 118.629 91.4576 118.831 91.5751C119.034 91.6926 119.202 91.8617 119.318 92.0651C119.434 92.2686 119.494 92.4991 119.492 92.7334V189.455C119.491 189.923 119.367 190.382 119.133 190.786C118.898 191.19 118.561 191.526 118.156 191.759L66.674 221.034C66.4724 221.152 66.2433 221.214 66.0099 221.215C65.7765 221.216 65.5471 221.155 65.3448 221.038C65.1425 220.922 64.9745 220.754 64.8577 220.552C64.7409 220.35 64.6795 220.121 64.6797 219.888L64.6897 123.146Z" fill="white"/>
<path opacity="0.3" d="M57.0004 110.522V230.378C57.0004 233.439 60.5303 236.36 63.8308 234.944C63.6315 235.016 63.4179 235.039 63.208 235.011C62.998 234.983 62.7978 234.906 62.624 234.785C62.4502 234.664 62.3079 234.503 62.2091 234.315C62.1103 234.128 62.0578 233.92 62.0559 233.708V113.783C62.0608 112.742 62.373 111.725 62.9533 110.861L57.5289 108.149C57.1707 108.888 56.9898 109.701 57.0004 110.522V110.522Z" fill="black"/>
<path opacity="0.1" d="M115.832 74.1667C115.559 74.174 115.289 74.228 115.034 74.3263L59.5936 105.866C58.6717 106.395 57.9314 107.191 57.4697 108.149L62.8941 110.861C63.348 110.167 63.9596 109.589 64.679 109.176L120.149 77.6168C120.307 77.5279 120.482 77.4723 120.662 77.4534C120.842 77.4345 121.024 77.4527 121.197 77.5069C121.37 77.5611 121.53 77.6501 121.667 77.7685C121.804 77.8869 121.915 78.0321 121.994 78.1951V78.1951C121.595 76.7992 118.724 74.1169 115.832 74.1667Z" fill="white"/>
<path d="M98.8804 97.4398C99.2693 97.2204 99.5884 97.4398 99.5884 97.8386C99.5735 98.084 99.5018 98.3225 99.3789 98.5353C99.2561 98.7482 99.0854 98.9295 98.8804 99.0651L88.0017 105.347C87.6128 105.566 87.3037 105.347 87.3037 104.928C87.3166 104.686 87.3866 104.451 87.5079 104.241C87.6292 104.032 87.7984 103.854 88.0017 103.722L98.8804 97.4398Z" fill="#263238"/>
<path d="M85.248 105.337C85.6369 105.108 85.946 105.287 85.956 105.736C85.9427 105.98 85.8716 106.218 85.7485 106.429C85.6254 106.641 85.4539 106.82 85.248 106.952C84.8591 107.182 84.54 107.002 84.54 106.554C84.5533 106.309 84.6244 106.072 84.7475 105.86C84.8706 105.649 85.0421 105.469 85.248 105.337V105.337Z" fill="#263238"/>
<path d="M92.2089 96.5623C92.9867 96.1136 93.6149 96.4726 93.6149 97.37C93.5905 97.8582 93.4514 98.3339 93.2088 98.7583C92.9663 99.1828 92.6271 99.5441 92.2189 99.813C91.4411 100.262 90.793 99.8927 90.793 98.9953C90.8234 98.5076 90.9673 98.0337 91.2131 97.6113C91.4589 97.1889 91.7999 96.8298 92.2089 96.5623V96.5623Z" fill="#263238"/>
<path d="M92.2098 209.408C93.7953 208.5 95.0716 209.228 95.0816 211.043C95.0337 212.04 94.7503 213.012 94.2546 213.878C93.7589 214.745 93.065 215.482 92.2298 216.029C90.6443 216.946 89.3381 216.198 89.3281 214.373C89.3872 213.378 89.6786 212.411 90.179 211.548C90.6795 210.686 91.375 209.953 92.2098 209.408V209.408Z" fill="#263238"/>
<path d="M100.615 158.973C100.615 161.137 102.071 161.825 104.045 160.688C105.244 159.992 106.204 158.949 106.797 157.697L105.481 157.108C105.205 157.764 104.74 158.323 104.145 158.714C103.288 159.202 102.699 158.853 102.699 157.776C102.693 157.257 102.822 156.744 103.074 156.29C103.325 155.835 103.691 155.454 104.135 155.184C104.33 155.034 104.571 154.957 104.817 154.966C105.063 154.976 105.298 155.07 105.481 155.234L106.787 153.14C106.179 152.581 105.232 152.621 104.025 153.319C103.035 153.907 102.205 154.731 101.61 155.717C101.015 156.704 100.673 157.822 100.615 158.973V158.973Z" fill="white"/>
<path d="M97.0753 142.71C96.0782 145.043 93.4657 149.111 90.4643 150.836C88.3404 152.063 86.0071 152.113 83.8633 149.55C84.6909 154.197 88.9387 155.353 93.5155 152.721C96.5938 150.775 99.1154 148.064 100.834 144.853L103.367 146.289L105.312 132.459L94.3431 141.104L97.0753 142.71Z" fill="white"/>
<path d="M91.1332 136.817C92.1303 134.483 94.7428 130.425 97.7342 128.69C99.8581 127.463 102.191 127.414 104.345 129.976C103.518 125.34 99.2698 124.173 94.6929 126.815C91.6116 128.757 89.0865 131.464 87.364 134.673L84.8413 133.237L82.9268 147.047L93.8952 138.442L91.1332 136.817Z" fill="white"/>
<path d="M91.5217 160.688L90.2653 163.859L89.0089 162.144L86.8252 163.4L89.1485 166.531L89.1585 169.124L91.2226 167.927V165.364L93.5259 159.531L91.5217 160.688Z" fill="white"/>
<path d="M84.2415 170.35C83.642 170.716 82.9491 170.9 82.2472 170.879L81.5791 172.993C82.533 172.982 83.4639 172.698 84.2614 172.175C85.0344 171.804 85.7012 171.244 86.1997 170.547C86.6983 169.85 87.0125 169.038 87.1132 168.186C87.1132 165.584 83.713 168.246 83.713 167.399C83.713 167.159 83.9024 166.85 84.5107 166.501C85.0299 166.194 85.6223 166.032 86.2257 166.033L86.844 163.949C86.0175 163.974 85.2139 164.226 84.5207 164.676C83.746 165.045 83.0777 165.604 82.5788 166.302C82.0799 167 81.7668 167.813 81.6689 168.665C81.6689 171.297 85.0691 168.665 85.0691 169.513C85.0392 169.702 84.8298 169.961 84.2415 170.35Z" fill="white"/>
<path d="M99.8665 162.941L99.8465 155.882L97.8224 157.048L97.8323 160.259L95.4891 158.395L93.7939 159.382L93.8139 166.431L95.8281 165.275L95.8181 162.064L98.1614 163.919L99.8665 162.941Z" fill="white"/>
<path d="M111.294 161.795L100.635 167.947V170.35L111.294 164.198C111.588 163.999 111.831 163.734 112.005 163.424C112.178 163.114 112.276 162.768 112.291 162.413C112.331 161.735 111.843 161.466 111.294 161.795Z" fill="white"/>
<path d="M77.0928 181.548C76.799 181.745 76.5557 182.008 76.3824 182.316C76.2092 182.625 76.111 182.969 76.0957 183.323C76.0957 183.971 76.5544 184.24 77.0928 183.911L100.645 170.35V167.977L77.0928 181.548Z" fill="#40618C"/>
<path opacity="0.3" d="M77.0928 181.548C76.799 181.745 76.5557 182.008 76.3824 182.316C76.2092 182.625 76.111 182.969 76.0957 183.323C76.0957 183.971 76.5544 184.24 77.0928 183.911L100.645 170.35V167.977L77.0928 181.548Z" fill="white"/>
<path d="M170.913 28.0892C170.828 28.1343 170.737 28.1679 170.644 28.1889C170.545 28.204 170.444 28.204 170.345 28.1889V28.1889C170.242 28.1788 170.142 28.1554 170.045 28.1191H169.976C169.857 28.0783 169.743 28.0249 169.637 27.9596L141.099 11.5069L142.275 10.8289L170.763 27.2716C170.87 27.3368 170.984 27.3903 171.102 27.4311H171.172H171.362C171.336 27.5658 171.283 27.6937 171.206 27.8069C171.129 27.9201 171.029 28.0162 170.913 28.0892Z" fill="#40618C"/>
<path d="M173.355 25.7659C173.222 25.6912 173.082 25.631 172.936 25.5864V25.5864H172.846H172.607H172.288H172.168C172.117 25.602 172.067 25.6221 172.019 25.6463V25.6463L173.195 24.9682H173.285H173.385H173.454H173.863H174.033H174.103H174.172H174.252C174.346 25.0032 174.436 25.0466 174.521 25.0978L188.621 33.2544L187.444 33.9424L173.355 25.7659Z" fill="#40618C"/>
<path opacity="0.1" d="M170.913 28.0892C170.828 28.1343 170.737 28.1679 170.644 28.1889C170.545 28.204 170.444 28.204 170.345 28.1889V28.1889C170.242 28.1788 170.142 28.1554 170.045 28.1191H169.976C169.857 28.0783 169.743 28.0249 169.637 27.9596L141.099 11.5069L142.275 10.8289L170.763 27.2716C170.87 27.3368 170.984 27.3903 171.102 27.4311H171.172H171.362C171.336 27.5658 171.283 27.6937 171.206 27.8069C171.129 27.9201 171.029 28.0162 170.913 28.0892Z" fill="black"/>
<path opacity="0.1" d="M173.355 25.7659C173.222 25.6912 173.082 25.631 172.936 25.5864V25.5864H172.846H172.607H172.288H172.168C172.117 25.602 172.067 25.6221 172.019 25.6463V25.6463L173.195 24.9682H173.285H173.385H173.454H173.863H174.033H174.103H174.172H174.252C174.346 25.0032 174.436 25.0466 174.521 25.0978L188.621 33.2544L187.444 33.9424L173.355 25.7659Z" fill="black"/>
<path d="M187.445 38.26L187.455 33.9424L188.632 33.2544L188.622 37.5819L188.612 39.0078L188.522 80.1694L187.346 80.8575L187.435 39.6859L187.445 38.26Z" fill="#40618C"/>
<path opacity="0.2" d="M187.445 38.26L187.455 33.9424L188.632 33.2544L188.622 37.5819L188.612 39.0078L188.522 80.1694L187.346 80.8575L187.435 39.6859L187.445 38.26Z" fill="black"/>
<path d="M141.098 11.5069L169.586 27.9496C169.693 28.0149 169.806 28.0684 169.925 28.1092H169.995C170.091 28.1454 170.191 28.1689 170.294 28.179V28.179C170.393 28.194 170.494 28.194 170.593 28.179C170.687 28.1579 170.777 28.1244 170.862 28.0793V28.0793C171.084 27.9456 171.245 27.7311 171.311 27.481C171.381 27.2824 171.418 27.0735 171.421 26.8628C171.397 26.6311 171.436 26.3974 171.532 26.1854C171.628 25.9735 171.779 25.7909 171.969 25.6562C172.017 25.632 172.067 25.612 172.119 25.5964H172.238H172.557H172.797H172.886C173.032 25.641 173.172 25.7011 173.305 25.7759L187.405 33.9224V39.7258L187.315 80.8874L140.998 54.0944L141.098 11.5069Z" fill="#40618C"/>
<path opacity="0.3" d="M141.098 11.5069L169.586 27.9496C169.693 28.0149 169.806 28.0684 169.925 28.1092H169.995C170.091 28.1454 170.191 28.1689 170.294 28.179V28.179C170.393 28.194 170.494 28.194 170.593 28.179C170.687 28.1579 170.777 28.1244 170.862 28.0793V28.0793C171.084 27.9456 171.245 27.7311 171.311 27.481C171.381 27.2824 171.418 27.0735 171.421 26.8628C171.397 26.6311 171.436 26.3974 171.532 26.1854C171.628 25.9735 171.779 25.7909 171.969 25.6562C172.017 25.632 172.067 25.612 172.119 25.5964H172.238H172.557H172.797H172.886C173.032 25.641 173.172 25.7011 173.305 25.7759L187.405 33.9224V39.7258L187.315 80.8874L140.998 54.0944L141.098 11.5069Z" fill="black"/>
<path d="M173.355 25.7659C173.222 25.6912 173.082 25.631 172.936 25.5864V25.5864H172.846H172.607H172.288H172.168C172.117 25.602 172.067 25.6221 172.019 25.6463V25.6463L173.195 24.9682H173.285H173.385H173.454H173.863H174.033H174.103H174.172H174.252C174.346 25.0032 174.436 25.0466 174.521 25.0978L188.621 33.2544L187.444 33.9424L173.355 25.7659Z" fill="#40618C"/>
<path opacity="0.1" d="M173.355 25.7659C173.222 25.6912 173.082 25.631 172.936 25.5864V25.5864H172.846H172.607H172.288H172.168C172.117 25.602 172.067 25.6221 172.019 25.6463V25.6463L173.195 24.9682H173.285H173.385H173.454H173.863H174.033H174.103H174.172H174.252C174.346 25.0032 174.436 25.0466 174.521 25.0978L188.621 33.2544L187.444 33.9424L173.355 25.7659Z" fill="black"/>
<path d="M187.445 38.26L187.455 33.9424L188.632 33.2544L188.622 37.5819L188.612 39.0078L188.522 80.1694L187.346 80.8575L187.435 39.6859L187.445 38.26Z" fill="#40618C"/>
<path opacity="0.2" d="M187.445 38.26L187.455 33.9424L188.632 33.2544L188.622 37.5819L188.612 39.0078L188.522 80.1694L187.346 80.8575L187.435 39.6859L187.445 38.26Z" fill="black"/>
<path d="M141.098 11.5069L169.586 27.9496C169.693 28.0149 169.806 28.0684 169.925 28.1092H169.995C170.091 28.1454 170.191 28.1689 170.294 28.179V28.179C170.393 28.194 170.494 28.194 170.593 28.179C170.687 28.1579 170.777 28.1244 170.862 28.0793V28.0793C171.084 27.9456 171.245 27.7311 171.311 27.481C171.381 27.2824 171.418 27.0735 171.421 26.8628C171.397 26.6311 171.436 26.3974 171.532 26.1854C171.628 25.9735 171.779 25.7909 171.969 25.6562C172.017 25.632 172.067 25.612 172.119 25.5964H172.238H172.557H172.797H172.886C173.032 25.641 173.172 25.7011 173.305 25.7759L187.405 33.9224V39.7258L187.315 80.8874L140.998 54.0944L141.098 11.5069Z" fill="#40618C"/>
<path opacity="0.3" d="M141.098 11.5069L169.586 27.9496C169.693 28.0149 169.806 28.0684 169.925 28.1092H169.995C170.091 28.1454 170.191 28.1689 170.294 28.179V28.179C170.393 28.194 170.494 28.194 170.593 28.179C170.687 28.1579 170.777 28.1244 170.862 28.0793V28.0793C171.084 27.9456 171.245 27.7311 171.311 27.481C171.381 27.2824 171.418 27.0735 171.421 26.8628C171.397 26.6311 171.436 26.3974 171.532 26.1854C171.628 25.9735 171.779 25.7909 171.969 25.6562C172.017 25.632 172.067 25.612 172.119 25.5964H172.238H172.557H172.797H172.886C173.032 25.641 173.172 25.7011 173.305 25.7759L187.405 33.9224V39.7258L187.315 80.8874L140.998 54.0944L141.098 11.5069Z" fill="black"/>
<path d="M184.224 78.3946V39.636L144.199 16.5325V55.291L184.224 78.3946Z" fill="#FAFAFA"/>
<path d="M181.103 50.6045L186.179 81.5256L139.852 54.8722L134.767 23.8514L181.103 50.6045Z" fill="#40618C"/>
<path opacity="0.3" d="M181.103 50.6045L186.179 81.5256L139.852 54.8722L134.767 23.8514L181.103 50.6045Z" fill="black"/>
<path d="M182.259 49.6971L187.345 80.8575L186.178 81.5255L181.103 50.6045L182.259 49.6971Z" fill="#40618C"/>
<path opacity="0.2" d="M182.259 49.6971L187.345 80.8575L186.178 81.5255L181.103 50.6045L182.259 49.6971Z" fill="black"/>
<path d="M134.767 23.8514L135.923 22.944L182.26 49.6971L181.103 50.6045L134.767 23.8514Z" fill="#40618C"/>
<path opacity="0.1" d="M134.767 23.8514L135.923 22.944L182.26 49.6971L181.103 50.6045L134.767 23.8514Z" fill="black"/>
<path d="M287.995 100.88C287.943 100.91 287.885 100.93 287.826 100.94V100.94C287.763 100.955 287.698 100.955 287.636 100.94H287.447L287.237 100.85L269.389 90.5795L270.117 90.1508L287.866 100.401L288.085 100.501H288.205C288.181 100.648 288.107 100.782 287.995 100.88V100.88Z" fill="#40618C"/>
<path d="M289.512 99.454C289.434 99.4068 289.35 99.3699 289.263 99.3443V99.3443H289.203H289.054H288.854H288.784H288.685L289.412 98.9155H289.472H289.532H289.831H289.941H289.991L290.16 98.9953L298.945 104.071L298.307 104.539L289.512 99.454Z" fill="#40618C"/>
<path opacity="0.1" d="M287.995 100.88C287.943 100.91 287.885 100.93 287.826 100.94V100.94C287.763 100.955 287.698 100.955 287.636 100.94H287.447L287.237 100.85L269.389 90.5795L270.117 90.1508L287.866 100.401L288.085 100.501H288.205C288.181 100.648 288.107 100.782 287.995 100.88V100.88Z" fill="black"/>
<path opacity="0.1" d="M289.512 99.454C289.434 99.4068 289.35 99.3699 289.263 99.3443V99.3443H289.203H289.054H288.854H288.784H288.685L289.412 98.9155H289.472H289.532H289.831H289.941H289.991L290.16 98.9953L298.945 104.071L298.307 104.539L289.512 99.454Z" fill="black"/>
<path d="M298.296 107.222L298.306 104.529L299.034 104.101L299.024 106.793V107.68L298.964 133.337L298.236 133.765L298.296 108.109V107.222Z" fill="#40618C"/>
<path opacity="0.2" d="M298.296 107.222L298.306 104.529L299.034 104.101L299.024 106.793V107.68L298.964 133.337L298.236 133.765L298.296 108.109V107.222Z" fill="black"/>
<path d="M269.389 90.5795L287.138 100.83L287.347 100.92H287.537C287.599 100.935 287.664 100.935 287.726 100.92C287.786 100.91 287.843 100.89 287.896 100.86V100.86C288.032 100.776 288.131 100.645 288.175 100.491C288.221 100.366 288.245 100.235 288.245 100.102C288.229 99.9585 288.252 99.8134 288.312 99.6819C288.372 99.5504 288.466 99.4372 288.584 99.3543H288.683H288.753H288.953H289.102H289.162C289.25 99.3799 289.333 99.4168 289.411 99.464L298.306 104.539V108.119L298.246 133.775L269.329 117.103L269.389 90.5795Z" fill="#40618C"/>
<path opacity="0.3" d="M269.389 90.5795L287.138 100.83L287.347 100.92H287.537C287.599 100.935 287.664 100.935 287.726 100.92C287.786 100.91 287.843 100.89 287.896 100.86V100.86C288.032 100.776 288.131 100.645 288.175 100.491C288.221 100.366 288.245 100.235 288.245 100.102C288.229 99.9585 288.252 99.8134 288.312 99.6819C288.372 99.5504 288.466 99.4372 288.584 99.3543H288.683H288.753H288.953H289.102H289.162C289.25 99.3799 289.333 99.4168 289.411 99.464L298.306 104.539V108.119L298.246 133.775L269.329 117.103L269.389 90.5795Z" fill="black"/>
<path d="M289.512 99.454C289.434 99.4068 289.35 99.3699 289.263 99.3443V99.3443H289.203H289.054H288.854H288.784H288.685L289.412 98.9155H289.472H289.532H289.831H289.941H289.991L290.16 98.9953L298.945 104.071L298.307 104.539L289.512 99.454Z" fill="#40618C"/>
<path opacity="0.1" d="M289.512 99.454C289.434 99.4068 289.35 99.3699 289.263 99.3443V99.3443H289.203H289.054H288.854H288.784H288.685L289.412 98.9155H289.472H289.532H289.831H289.941H289.991L290.16 98.9953L298.945 104.071L298.307 104.539L289.512 99.454Z" fill="black"/>
<path d="M298.296 107.222L298.306 104.529L299.034 104.101L299.024 106.793V107.68L298.964 133.337L298.236 133.765L298.296 108.109V107.222Z" fill="#40618C"/>
<path opacity="0.2" d="M298.296 107.222L298.306 104.529L299.034 104.101L299.024 106.793V107.68L298.964 133.337L298.236 133.765L298.296 108.109V107.222Z" fill="black"/>
<path d="M269.389 90.5795L287.138 100.83L287.347 100.92H287.537C287.599 100.935 287.664 100.935 287.726 100.92C287.786 100.91 287.843 100.89 287.896 100.86V100.86C288.032 100.776 288.131 100.645 288.175 100.491C288.221 100.366 288.245 100.235 288.245 100.102C288.229 99.9585 288.252 99.8134 288.312 99.6819C288.372 99.5504 288.466 99.4372 288.584 99.3543H288.683H288.753H288.953H289.102H289.162C289.25 99.3799 289.333 99.4168 289.411 99.464L298.306 104.539V108.119L298.246 133.775L269.329 117.103L269.389 90.5795Z" fill="#40618C"/>
<path opacity="0.3" d="M269.389 90.5795L287.138 100.83L287.347 100.92H287.537C287.599 100.935 287.664 100.935 287.726 100.92C287.786 100.91 287.843 100.89 287.896 100.86V100.86C288.032 100.776 288.131 100.645 288.175 100.491C288.221 100.366 288.245 100.235 288.245 100.102C288.229 99.9585 288.252 99.8134 288.312 99.6819C288.372 99.5504 288.466 99.4372 288.584 99.3543H288.683H288.753H288.953H289.102H289.162C289.25 99.3799 289.333 99.4168 289.411 99.464L298.306 104.539V108.119L298.246 133.775L269.329 117.103L269.389 90.5795Z" fill="black"/>
<path d="M296.292 132.24V108.079L271.344 93.6806V117.831L296.292 132.24Z" fill="#FAFAFA"/>
<path d="M294.348 114.91L297.509 134.184L268.642 117.572L265.461 98.2375L294.348 114.91Z" fill="#40618C"/>
<path opacity="0.3" d="M294.348 114.91L297.509 134.184L268.642 117.572L265.461 98.2375L294.348 114.91Z" fill="black"/>
<path d="M295.066 114.351L298.236 133.765L297.509 134.184L294.348 114.91L295.066 114.351Z" fill="#40618C"/>
<path opacity="0.2" d="M295.066 114.351L298.236 133.765L297.509 134.184L294.348 114.91L295.066 114.351Z" fill="black"/>
<path d="M265.461 98.2375L266.189 97.6691L295.066 114.351L294.348 114.91L265.461 98.2375Z" fill="#40618C"/>
<path opacity="0.1" d="M265.461 98.2375L266.189 97.6691L295.066 114.351L294.348 114.91L265.461 98.2375Z" fill="black"/>
<path d="M250.375 37.2628L250.364 37.2731V37.2628H250.375Z" fill="#40618C"/>
<path d="M250.534 37.203C250.485 37.2332 250.431 37.2535 250.374 37.2629H250.155C250.092 37.2712 250.028 37.2712 249.965 37.2629V37.2629L249.746 37.1631L231.997 26.9126L232.735 26.4839L250.444 36.7344L250.663 36.8341C250.703 36.8386 250.743 36.8386 250.783 36.8341C250.746 36.9826 250.658 37.1133 250.534 37.203V37.203Z" fill="#40618C"/>
<path d="M252.06 35.7372C251.979 35.6886 251.892 35.6517 251.801 35.6275H251.751H251.591H251.442H251.372H251.282L252.02 35.1988H252.07H252.14H252.439H252.539H252.588H252.638L252.798 35.2785L261.593 40.3539L260.855 40.7827L252.06 35.7372Z" fill="#40618C"/>
<path opacity="0.1" d="M250.534 37.203C250.485 37.2332 250.431 37.2535 250.374 37.2629H250.155C250.092 37.2712 250.028 37.2712 249.965 37.2629V37.2629L249.746 37.1631L231.997 26.9126L232.735 26.4839L250.444 36.7344L250.663 36.8341C250.703 36.8386 250.743 36.8386 250.783 36.8341C250.746 36.9826 250.658 37.1133 250.534 37.203V37.203Z" fill="black"/>
<path opacity="0.1" d="M252.06 35.7372C251.979 35.6886 251.892 35.6517 251.801 35.6275H251.751H251.591H251.442H251.372H251.282L252.02 35.1988H252.07H252.14H252.439H252.539H252.588H252.638L252.798 35.2785L261.593 40.3539L260.855 40.7827L252.06 35.7372Z" fill="black"/>
<path d="M260.844 43.5448V40.8525L261.582 40.4238L261.572 43.116V44.0134L261.512 69.6597L260.774 70.0884L260.834 44.4322L260.844 43.5448Z" fill="#40618C"/>
<path opacity="0.2" d="M260.844 43.5448V40.8525L261.582 40.4238L261.572 43.116V44.0134L261.512 69.6597L260.774 70.0884L260.834 44.4322L260.844 43.5448Z" fill="black"/>
<path d="M231.958 26.8727L249.707 37.1232L249.926 37.2229C249.989 37.2313 250.053 37.2313 250.116 37.2229H250.335C250.392 37.2136 250.446 37.1933 250.494 37.1631V37.1631C250.633 37.0805 250.737 36.9489 250.784 36.7942C250.821 36.6679 250.841 36.537 250.843 36.4053C250.828 36.2607 250.852 36.1145 250.914 35.9827C250.975 35.8509 251.072 35.7384 251.192 35.6574H251.282H251.362H251.551H251.711H251.761C251.852 35.6816 251.939 35.7185 252.02 35.7671L260.805 40.8425V44.4222L260.745 70.0785L231.828 53.4064L231.958 26.8727Z" fill="#40618C"/>
<path opacity="0.3" d="M231.958 26.8727L249.707 37.1232L249.926 37.2229C249.989 37.2313 250.053 37.2313 250.116 37.2229H250.335C250.392 37.2136 250.446 37.1933 250.494 37.1631V37.1631C250.633 37.0805 250.737 36.9489 250.784 36.7942C250.821 36.6679 250.841 36.537 250.843 36.4053C250.828 36.2607 250.852 36.1145 250.914 35.9827C250.975 35.8509 251.072 35.7384 251.192 35.6574H251.282H251.362H251.551H251.711H251.761C251.852 35.6816 251.939 35.7185 252.02 35.7671L260.805 40.8425V44.4222L260.745 70.0785L231.828 53.4064L231.958 26.8727Z" fill="black"/>
<path d="M252.06 35.7372C251.979 35.6886 251.892 35.6517 251.801 35.6275H251.751H251.591H251.442H251.372H251.282L252.02 35.1988H252.07H252.14H252.439H252.539H252.588H252.638L252.798 35.2785L261.593 40.3539L260.855 40.7827L252.06 35.7372Z" fill="#40618C"/>
<path opacity="0.1" d="M252.06 35.7372C251.979 35.6886 251.892 35.6517 251.801 35.6275H251.751H251.591H251.442H251.372H251.282L252.02 35.1988H252.07H252.14H252.439H252.539H252.588H252.638L252.798 35.2785L261.593 40.3539L260.855 40.7827L252.06 35.7372Z" fill="black"/>
<path d="M260.844 43.5448V40.8525L261.582 40.4238L261.572 43.116V44.0134L261.512 69.6597L260.774 70.0884L260.834 44.4322L260.844 43.5448Z" fill="#40618C"/>
<path opacity="0.2" d="M260.844 43.5448V40.8525L261.582 40.4238L261.572 43.116V44.0134L261.512 69.6597L260.774 70.0884L260.834 44.4322L260.844 43.5448Z" fill="black"/>
<path d="M231.958 26.8727L249.707 37.1232L249.926 37.2229C249.989 37.2313 250.053 37.2313 250.116 37.2229H250.335C250.392 37.2136 250.446 37.1933 250.494 37.1631V37.1631C250.633 37.0805 250.737 36.9489 250.784 36.7942C250.821 36.6679 250.841 36.537 250.843 36.4053C250.828 36.2607 250.852 36.1145 250.914 35.9827C250.975 35.8509 251.072 35.7384 251.192 35.6574H251.282H251.362H251.551H251.711H251.761C251.852 35.6816 251.939 35.7185 252.02 35.7671L260.805 40.8425V44.4222L260.745 70.0785L231.828 53.4064L231.958 26.8727Z" fill="#40618C"/>
<path opacity="0.3" d="M231.958 26.8727L249.707 37.1232L249.926 37.2229C249.989 37.2313 250.053 37.2313 250.116 37.2229H250.335C250.392 37.2136 250.446 37.1933 250.494 37.1631V37.1631C250.633 37.0805 250.737 36.9489 250.784 36.7942C250.821 36.6679 250.841 36.537 250.843 36.4053C250.828 36.2607 250.852 36.1145 250.914 35.9827C250.975 35.8509 251.072 35.7384 251.192 35.6574H251.282H251.362H251.551H251.711H251.761C251.852 35.6816 251.939 35.7185 252.02 35.7671L260.805 40.8425V44.4222L260.745 70.0785L231.828 53.4064L231.958 26.8727Z" fill="black"/>
<path d="M258.83 68.5628V44.4023L233.892 30.0037V54.1543L258.83 68.5628Z" fill="#FAFAFA"/>
<path d="M256.886 51.2426L260.057 70.5072L231.18 53.895L228.009 34.5606L256.886 51.2426Z" fill="#40618C"/>
<path opacity="0.3" d="M256.886 51.2426L260.057 70.5072L231.18 53.895L228.009 34.5606L256.886 51.2426Z" fill="black"/>
<path d="M257.615 50.6743L260.776 70.0884L260.058 70.5072L256.887 51.2426L257.615 50.6743Z" fill="#40618C"/>
<path opacity="0.2" d="M257.615 50.6743L260.776 70.0884L260.058 70.5072L256.887 51.2426L257.615 50.6743Z" fill="black"/>
<path d="M228.009 34.5606L228.737 33.9922L257.614 50.6743L256.886 51.2426L228.009 34.5606Z" fill="#40618C"/>
<path opacity="0.1" d="M228.009 34.5606L228.737 33.9922L257.614 50.6743L256.886 51.2426L228.009 34.5606Z" fill="black"/>
<defs>
<linearGradient id="paint0_linear" x1="187.651" y1="5" x2="187.651" y2="359.661" gradientUnits="userSpaceOnUse">
<stop stop-color="#25B1FF"/>
<stop offset="1" stop-color="#0F4462" stop-opacity="0"/>
</linearGradient>
</defs>
</svg>
