<svg width="420" height="420" viewBox="0 0 420 420" fill="none" xmlns="http://www.w3.org/2000/svg">
<path fill-rule="evenodd" clip-rule="evenodd" d="M212.177 52.6294C174.281 60.1174 152.468 96.9507 120.69 118.849C87.7753 141.531 31.1667 144.038 22.8956 183.063C14.4048 223.124 68.682 248.025 85.3835 285.434C99.3495 316.715 86.4041 359.037 111.769 382.125C137.544 405.586 177.424 404.074 212.177 400.845C244.461 397.846 271.178 379.748 299.848 364.652C334.278 346.523 386.702 341.609 396.176 303.962C405.798 265.727 350.914 240.829 340.583 202.779C329.272 161.116 362.54 109.457 334.45 76.6107C306.826 44.3093 253.945 44.3761 212.177 52.6294Z" fill="url(#paint0_linear)"/>
<path d="M217.199 93.6852H92.484C88.6891 93.6852 85.6128 96.7615 85.6128 100.556V295.504C85.6128 299.298 88.6891 302.375 92.484 302.375H217.199C220.994 302.375 224.07 299.298 224.07 295.504V100.556C224.07 96.7615 220.994 93.6852 217.199 93.6852Z" fill="#2E5795"/>
<g opacity="0.7">
<path opacity="0.7" d="M219.836 103.076V292.992C219.836 293.556 219.725 294.115 219.509 294.637C219.293 295.158 218.976 295.631 218.576 296.03C218.177 296.429 217.702 296.745 217.181 296.96C216.659 297.175 216.1 297.286 215.535 297.284H94.1387C93.0061 297.276 91.9229 296.819 91.1252 296.015C90.3275 295.211 89.8798 294.125 89.8799 292.992V103.076C89.8799 102.512 89.9912 101.953 90.2074 101.432C90.4237 100.911 90.7406 100.437 91.1401 100.038C91.5395 99.6396 92.0137 99.3236 92.5355 99.1083C93.0572 98.8931 93.6163 98.7829 94.1807 98.784H124.706C125.174 98.7832 125.63 98.9263 126.013 99.1938C126.396 99.4613 126.688 99.8403 126.848 100.279L127.428 101.858C127.59 102.298 127.884 102.678 128.268 102.947C128.652 103.215 129.109 103.36 129.578 103.362H181.171C181.778 103.36 182.359 103.117 182.787 102.687C183.215 102.258 183.456 101.676 183.456 101.069C183.456 100.768 183.515 100.47 183.631 100.193C183.746 99.9148 183.915 99.6625 184.128 99.4502C184.341 99.238 184.594 99.0698 184.872 98.9555C185.15 98.8412 185.448 98.7829 185.749 98.784H215.578C216.71 98.7929 217.793 99.249 218.591 100.053C219.389 100.857 219.836 101.944 219.836 103.076Z" fill="white"/>
</g>
<path d="M219.836 121.884H89.8379V174.653H219.836V121.884Z" fill="white"/>
<path opacity="0.2" d="M219.836 174.653H89.8379V198.559H219.836V174.653Z" fill="black"/>
<path d="M113.224 142.506L124.228 131.048H147.462L159.592 142.506H113.224Z" fill="#2E5795"/>
<path opacity="0.1" d="M124.228 131.048L137.886 143.27L113.224 142.506L124.228 131.048Z" fill="black"/>
<path d="M166.774 143.581H166.211V158.693H166.774V143.581Z" fill="#2E5795"/>
<path d="M114.164 158.575H111.216V174.653H114.164V158.575Z" fill="#2E5795"/>
<path opacity="0.3" d="M114.164 158.575H111.216V174.653H114.164V158.575Z" fill="white"/>
<path opacity="0.2" d="M114.164 160.07H112.291V174.653H114.164V160.07Z" fill="white"/>
<path d="M149.176 156.089H113.005V174.653H149.176V156.089Z" fill="#2E5795"/>
<path opacity="0.8" d="M149.176 156.089H113.005V174.653H149.176V156.089Z" fill="white"/>
<path opacity="0.05" d="M131.578 156.089H113.005V174.653H131.578V156.089Z" fill="black"/>
<path d="M160.885 159.214H148.495V174.653H160.885V159.214Z" fill="#2E5795"/>
<path opacity="0.4" d="M160.885 159.214H148.495V174.653H160.885V159.214Z" fill="white"/>
<path opacity="0.1" d="M160.885 159.214V165.178L153.728 168.244V174.653H148.495V159.214H160.885Z" fill="black"/>
<path d="M165.976 159.911H165.035V174.644H165.976V159.911Z" fill="#2E5795"/>
<path d="M163.783 159.911H162.842V174.644H163.783V159.911Z" fill="#2E5795"/>
<path d="M161.591 159.911H160.65V174.644H161.591V159.911Z" fill="#2E5795"/>
<path d="M159.399 159.911H158.458V174.644H159.399V159.911Z" fill="#2E5795"/>
<path d="M157.214 159.911H156.273V174.644H157.214V159.911Z" fill="#2E5795"/>
<path d="M165.975 154.216H154.056V154.644H155.61V155.072H154.056V155.182H155.61V155.618H154.056V155.728H155.61V156.164H154.056V156.24H155.61V156.668H154.056V156.786H155.61V157.214H154.056V157.332H155.61V157.76H154.056V157.92H155.61V158.348H154.056V158.466H155.61V158.701H155.937V158.466H160.322V158.701H160.65V158.466H165.034V158.701H165.362V154.644H165.975V154.216ZM155.895 154.644H160.28V155.072H155.895V154.644ZM155.895 155.182H160.28V155.618H155.895V155.182ZM155.895 155.728H160.28V156.164H155.895V155.728ZM155.895 156.274H160.28V156.702H155.895V156.274ZM155.895 156.82H160.28V157.248H155.895V156.82ZM155.895 157.366H160.28V157.794H155.895V157.366ZM155.895 158.34V157.92H160.28V158.348L155.895 158.34ZM164.992 158.34H160.608V157.92H164.992V158.34ZM164.992 157.794H160.608V157.366H164.992V157.794ZM164.992 157.248H160.608V156.82H164.992V157.248ZM164.992 156.702H160.608V156.24H164.992V156.702ZM164.992 156.164H160.608V155.728H164.992V156.164ZM164.992 155.618H160.608V155.182H164.992V155.618ZM164.992 155.072H160.608V154.644H164.992V155.072Z" fill="#2E5795"/>
<g opacity="0.2">
<path opacity="0.2" d="M165.975 154.216H154.056V154.644H155.61V155.072H154.056V155.182H155.61V155.618H154.056V155.728H155.61V156.164H154.056V156.24H155.61V156.668H154.056V156.786H155.61V157.214H154.056V157.332H155.61V157.76H154.056V157.92H155.61V158.348H154.056V158.466H155.61V158.701H155.937V158.466H160.322V158.701H160.65V158.466H165.034V158.701H165.362V154.644H165.975V154.216ZM155.895 154.644H160.28V155.072H155.895V154.644ZM155.895 155.182H160.28V155.618H155.895V155.182ZM155.895 155.728H160.28V156.164H155.895V155.728ZM155.895 156.274H160.28V156.702H155.895V156.274ZM155.895 156.82H160.28V157.248H155.895V156.82ZM155.895 157.366H160.28V157.794H155.895V157.366ZM155.895 158.34V157.92H160.28V158.348L155.895 158.34ZM164.992 158.34H160.608V157.92H164.992V158.34ZM164.992 157.794H160.608V157.366H164.992V157.794ZM164.992 157.248H160.608V156.82H164.992V157.248ZM164.992 156.702H160.608V156.24H164.992V156.702ZM164.992 156.164H160.608V155.728H164.992V156.164ZM164.992 155.618H160.608V155.182H164.992V155.618ZM164.992 155.072H160.608V154.644H164.992V155.072Z" fill="black"/>
</g>
<path d="M154.527 143.581H113.005V158.575H154.527V143.581Z" fill="#2E5795"/>
<path opacity="0.8" d="M154.527 143.581H113.005V158.575H154.527V143.581Z" fill="white"/>
<path opacity="0.05" d="M137.475 143.581H113.005V158.575H137.475V143.581Z" fill="black"/>
<path d="M153.09 145.715H129.184V158.575H153.09V145.715Z" fill="#2E5795"/>
<path opacity="0.1" d="M129.184 145.715V158.575H153.09V145.715H129.184ZM152.124 157.744H130.032V146.698H152.124V157.744Z" fill="white"/>
<path opacity="0.1" d="M138.214 145.715H129.184V158.575H138.214V145.715Z" fill="black"/>
<path d="M151.091 146.698H130.838V157.592H151.091V146.698Z" fill="#2E5795"/>
<path opacity="0.5" d="M151.091 146.698H130.838V157.592H151.091V146.698Z" fill="white"/>
<path opacity="0.3" d="M136.399 146.698L133.484 157.592H130.973L133.887 146.698H136.399Z" fill="white"/>
<path opacity="0.3" d="M151.091 146.698V152.712L149.78 157.592H147.269L150.192 146.698H151.091Z" fill="white"/>
<path opacity="0.3" d="M137.886 146.698L134.971 157.592H134.249L137.164 146.698H137.886Z" fill="white"/>
<path opacity="0.3" d="M149.478 146.698L146.563 157.592H146.202L149.117 146.698H149.478Z" fill="white"/>
<path opacity="0.05" d="M137.575 146.698H130.838V157.592H137.575V146.698Z" fill="black"/>
<path d="M128.579 162.422H121.607V168.437H128.579V162.422Z" fill="black"/>
<path d="M121.179 162.422H114.652V168.437H121.179V162.422Z" fill="black"/>
<path d="M121.179 162.422H114.652V168.437H121.179V162.422Z" fill="#2E5795"/>
<path d="M128.579 162.422H121.607V168.437H128.579V162.422Z" fill="#2E5795"/>
<path opacity="0.5" d="M128.579 162.422H121.607V168.437H128.579V162.422Z" fill="white"/>
<path opacity="0.5" d="M121.179 162.422H114.652V168.437H121.179V162.422Z" fill="white"/>
<path opacity="0.3" d="M119.087 162.422L117.482 168.437H114.971L116.584 162.422H119.087Z" fill="white"/>
<path opacity="0.3" d="M120.582 162.422L118.969 168.437H118.247L119.859 162.422H120.582Z" fill="white"/>
<path opacity="0.3" d="M128.57 163.027V168.437H127.125L128.57 163.027Z" fill="white"/>
<path d="M149.478 168.437V162.422H150.754V161.372H141.321V169.504H150.754V168.437H149.478Z" fill="#2E5795"/>
<path d="M149.755 162.422H143.229V168.437H149.755V162.422Z" fill="black"/>
<path d="M149.755 162.422H143.229V168.437H149.755V162.422Z" fill="#2E5795"/>
<path opacity="0.5" d="M149.755 162.422H143.229V168.437H149.755V162.422Z" fill="white"/>
<path opacity="0.3" d="M147.664 162.422L146.059 168.437H143.548L145.161 162.422H147.664Z" fill="white"/>
<path opacity="0.3" d="M149.15 162.422L147.546 168.437H146.823L148.436 162.422H149.15Z" fill="white"/>
<path opacity="0.1" d="M142.212 161.372H141.321V169.495H142.212V161.372Z" fill="black"/>
<path d="M137.886 162.422H133.308V174.653H137.886V162.422Z" fill="#2E5795"/>
<path opacity="0.1" d="M137.466 162.422H133.308V174.653H137.466V162.422Z" fill="white"/>
<path opacity="0.2" d="M136.987 163.246H136.071V167.093H136.987V163.246Z" fill="white"/>
<path d="M140.893 159.928H138.541V174.653H140.893V159.928Z" fill="#2E5795"/>
<path opacity="0.3" d="M140.893 159.928H138.541V174.653H140.893V159.928Z" fill="white"/>
<path opacity="0.2" d="M140.893 159.928H139.717V174.653H140.893V159.928Z" fill="white"/>
<path d="M158.651 159.928H156.299V174.653H158.651V159.928Z" fill="#2E5795"/>
<path opacity="0.3" d="M158.651 159.928H156.299V174.653H158.651V159.928Z" fill="white"/>
<path opacity="0.2" d="M158.651 159.928H157.475V174.653H158.651V159.928Z" fill="white"/>
<path d="M168.058 158.575H112.467V160.104H168.058V158.575Z" fill="#2E5795"/>
<path opacity="0.3" d="M168.058 158.575H112.467V160.104H168.058V158.575Z" fill="white"/>
<path opacity="0.2" d="M158.65 158.575H139.717V160.104H158.65V158.575Z" fill="white"/>
<path d="M167.344 142.506H112.467V144.035H167.344V142.506Z" fill="#2E5795"/>
<path opacity="0.3" d="M167.344 142.506H112.467V144.035H167.344V142.506Z" fill="white"/>
<path opacity="0.2" d="M167.344 142.506H139.717V144.035H167.344V142.506Z" fill="white"/>
<path d="M123.631 148.277H112.98V154.291H123.631V148.277Z" fill="black"/>
<path d="M123.631 148.277H112.98V154.291H123.631V148.277Z" fill="#2E5795"/>
<path opacity="0.5" d="M123.631 148.277H112.98V154.291H123.631V148.277Z" fill="white"/>
<path opacity="0.3" d="M112.98 148.277V153.577L114.4 148.277H112.98Z" fill="white"/>
<path opacity="0.3" d="M115.895 148.277L114.282 154.291H113.56L115.172 148.277H115.895Z" fill="white"/>
<path d="M167.177 174.275H109.679L109.141 174.653H167.714L167.177 174.275Z" fill="#2E5795"/>
<path d="M199.659 131.048H175.14V145.244H199.659V131.048Z" stroke="#2E5795" stroke-miterlimit="10"/>
<path d="M175.14 140.818H186.841V133.93" stroke="#2E5795" stroke-miterlimit="10"/>
<path d="M192.049 131.048V134.492" stroke="#2E5795" stroke-miterlimit="10"/>
<path d="M192.049 137.374V140.818H199.659" stroke="#2E5795" stroke-miterlimit="10"/>
<path d="M197.896 141.742V144.396" stroke="#2E5795" stroke-miterlimit="10"/>
<path d="M195.854 141.742V144.396" stroke="#2E5795" stroke-miterlimit="10"/>
<path d="M193.813 141.742V144.396" stroke="#2E5795" stroke-miterlimit="10"/>
<path d="M199.659 148.067H175.14V158.617H199.659V148.067Z" stroke="#2E5795" stroke-miterlimit="10"/>
<path d="M181.826 158.617V168.076H199.659V158.617" stroke="#2E5795" stroke-miterlimit="10"/>
<path d="M197.896 159.97V162.632" stroke="#2E5795" stroke-miterlimit="10"/>
<path d="M195.854 159.97V162.632" stroke="#2E5795" stroke-miterlimit="10"/>
<path d="M193.813 159.97V162.632" stroke="#2E5795" stroke-miterlimit="10"/>
<path d="M191.73 158.617V165.186" stroke="#2E5795" stroke-miterlimit="10"/>
<path d="M183.229 148.134V156.29" stroke="#2E5795" stroke-miterlimit="10"/>
<path d="M191.73 148.31V156.29" stroke="#2E5795" stroke-miterlimit="10"/>
<path opacity="0.7" d="M171.797 180.869H138.936C137.623 180.869 136.559 181.933 136.559 183.246V190.151C136.559 191.464 137.623 192.528 138.936 192.528H171.797C173.11 192.528 174.174 191.464 174.174 190.151V183.246C174.174 181.933 173.11 180.869 171.797 180.869Z" fill="white"/>
<path d="M142.606 188.53L142.909 187.858C143.349 188.191 143.886 188.371 144.438 188.37C145.168 188.37 145.471 188.11 145.471 187.765C145.471 186.766 142.707 187.421 142.707 185.699C142.707 184.943 143.304 184.313 144.58 184.313C145.124 184.303 145.659 184.445 146.126 184.724L145.857 185.388C145.467 185.159 145.024 185.034 144.572 185.027C143.858 185.027 143.564 185.304 143.564 185.657C143.564 186.648 146.319 186.001 146.319 187.706C146.319 188.454 145.714 189.092 144.438 189.092C143.782 189.112 143.138 188.914 142.606 188.53Z" fill="#2E5795"/>
<path d="M150.663 188.303V189H147.177V184.346H150.537V185.077H148.017V186.278H150.26V186.992H148.017V188.278L150.663 188.303Z" fill="#2E5795"/>
<path d="M151.62 184.372H152.46V188.294H154.896V189H151.62V184.372Z" fill="#2E5795"/>
<path d="M159.08 188.303V189H155.594V184.346H158.954V185.077H156.434V186.278H158.685V186.992H156.434V188.278L159.08 188.303Z" fill="#2E5795"/>
<path d="M159.684 186.698C159.711 186.209 159.88 185.739 160.171 185.344C160.461 184.95 160.86 184.649 161.319 184.478C161.778 184.307 162.277 184.273 162.755 184.381C163.233 184.489 163.669 184.734 164.01 185.086L163.455 185.615C163.3 185.439 163.109 185.299 162.894 185.205C162.679 185.11 162.446 185.064 162.212 185.069C161.988 185.053 161.762 185.083 161.55 185.158C161.338 185.233 161.143 185.35 160.979 185.504C160.814 185.657 160.683 185.842 160.593 186.049C160.503 186.255 160.457 186.478 160.457 186.703C160.457 186.928 160.503 187.15 160.593 187.356C160.683 187.563 160.814 187.748 160.979 187.902C161.143 188.055 161.338 188.173 161.55 188.247C161.762 188.322 161.988 188.352 162.212 188.336C162.447 188.34 162.68 188.292 162.895 188.196C163.109 188.1 163.301 187.959 163.455 187.782L164.01 188.311C163.669 188.663 163.233 188.908 162.755 189.016C162.277 189.124 161.778 189.09 161.319 188.919C160.86 188.748 160.461 188.447 160.171 188.052C159.88 187.658 159.711 187.187 159.684 186.698Z" fill="#2E5795"/>
<path d="M165.732 185.102H164.187V184.372H168.135V185.102H166.589V189H165.749L165.732 185.102Z" fill="#2E5795"/>
<path opacity="0.2" d="M219.836 103.076V111.107H89.8799V103.076C89.8799 102.512 89.9912 101.953 90.2074 101.432C90.4237 100.911 90.7406 100.437 91.1401 100.038C91.5395 99.6396 92.0137 99.3236 92.5355 99.1083C93.0572 98.8931 93.6163 98.7829 94.1807 98.784H124.706C125.174 98.7832 125.63 98.9263 126.013 99.1938C126.396 99.4613 126.688 99.8403 126.848 100.279L127.428 101.858C127.59 102.298 127.884 102.678 128.268 102.947C128.652 103.215 129.109 103.36 129.578 103.362H181.171C181.778 103.36 182.359 103.117 182.787 102.687C183.215 102.258 183.456 101.676 183.456 101.069C183.456 100.768 183.515 100.47 183.631 100.193C183.746 99.9148 183.915 99.6625 184.128 99.4502C184.341 99.238 184.594 99.0698 184.872 98.9555C185.15 98.8412 185.448 98.7829 185.749 98.784H215.578C216.71 98.7929 217.793 99.249 218.591 100.053C219.389 100.857 219.836 101.944 219.836 103.076Z" fill="black"/>
<path opacity="0.2" d="M100.783 116.626L97.5827 113.627L94.3823 116.626H95.2055V119.213H99.9683V116.626H100.783Z" fill="black"/>
<path d="M173.04 118.6H113.157C112.87 118.601 112.586 118.545 112.322 118.436C112.057 118.328 111.816 118.168 111.613 117.965C111.41 117.763 111.249 117.523 111.139 117.259C111.029 116.994 110.973 116.71 110.973 116.424C110.972 116.137 111.027 115.852 111.137 115.587C111.246 115.321 111.407 115.08 111.61 114.877C111.813 114.674 112.054 114.513 112.32 114.404C112.585 114.295 112.87 114.239 113.157 114.24H173.04C173.327 114.24 173.61 114.297 173.875 114.406C174.139 114.516 174.379 114.677 174.582 114.88C174.784 115.083 174.944 115.324 175.053 115.589C175.162 115.854 175.217 116.138 175.216 116.424C175.216 116.71 175.16 116.993 175.05 117.257C174.941 117.521 174.781 117.76 174.579 117.962C174.377 118.164 174.137 118.325 173.873 118.434C173.609 118.543 173.326 118.6 173.04 118.6Z" fill="white"/>
<path opacity="0.2" d="M185.707 114.072H182.86C182.349 114.072 181.936 114.486 181.936 114.996V117.844C181.936 118.354 182.349 118.768 182.86 118.768H185.707C186.217 118.768 186.631 118.354 186.631 117.844V114.996C186.631 114.486 186.217 114.072 185.707 114.072Z" fill="black"/>
<path opacity="0.2" d="M194.108 114.072H191.26C190.75 114.072 190.336 114.486 190.336 114.996V117.844C190.336 118.354 190.75 118.768 191.26 118.768H194.108C194.618 118.768 195.032 118.354 195.032 117.844V114.996C195.032 114.486 194.618 114.072 194.108 114.072Z" fill="black"/>
<path opacity="0.2" d="M202.507 114.072H199.659C199.149 114.072 198.735 114.486 198.735 114.996V117.844C198.735 118.354 199.149 118.768 199.659 118.768H202.507C203.017 118.768 203.431 118.354 203.431 117.844V114.996C203.431 114.486 203.017 114.072 202.507 114.072Z" fill="black"/>
<path opacity="0.2" d="M208.244 115.861V116.978L208.824 117.037C208.901 117.405 209.046 117.756 209.252 118.07L208.883 118.516L209.672 119.305L210.117 118.936C210.432 119.141 210.782 119.287 211.151 119.364L211.209 119.944H212.327L212.377 119.364C212.746 119.29 213.097 119.144 213.41 118.936L213.864 119.305L214.653 118.516L214.284 118.07C214.49 117.756 214.635 117.405 214.712 117.037L215.292 116.978V115.861L214.712 115.811C214.636 115.44 214.491 115.086 214.284 114.769L214.653 114.324L213.864 113.534L213.41 113.904C213.097 113.695 212.746 113.55 212.377 113.476L212.327 112.896H211.209L211.151 113.476C210.782 113.553 210.432 113.698 210.117 113.904L209.672 113.534L208.883 114.324L209.252 114.769C209.045 115.086 208.899 115.44 208.824 115.811L208.244 115.861ZM211.764 114.904C212.065 114.902 212.36 114.99 212.611 115.156C212.862 115.322 213.058 115.559 213.174 115.836C213.291 116.114 213.322 116.42 213.264 116.715C213.207 117.011 213.062 117.283 212.85 117.496C212.638 117.71 212.367 117.855 212.072 117.915C211.777 117.974 211.471 117.944 211.192 117.829C210.914 117.715 210.676 117.52 210.509 117.27C210.341 117.019 210.252 116.725 210.252 116.424C210.252 116.022 210.411 115.637 210.694 115.352C210.977 115.067 211.362 114.906 211.764 114.904Z" fill="black"/>
<path opacity="0.2" d="M214.342 283.542C213.625 283.542 212.937 283.257 212.43 282.75C211.923 282.243 211.638 281.555 211.638 280.837V204.666C211.638 203.949 211.923 203.261 212.43 202.753C212.937 202.246 213.625 201.961 214.342 201.961C215.06 201.961 215.748 202.246 216.255 202.753C216.762 203.261 217.047 203.949 217.047 204.666V280.837C217.047 281.555 216.762 282.243 216.255 282.75C215.748 283.257 215.06 283.542 214.342 283.542Z" fill="black"/>
<path d="M214.343 215.124C213.695 215.124 213.073 215.382 212.614 215.84C212.156 216.298 211.898 216.92 211.898 217.568V229.328C211.898 229.977 212.156 230.598 212.614 231.057C213.073 231.515 213.695 231.773 214.343 231.773C214.991 231.773 215.613 231.515 216.071 231.057C216.53 230.598 216.787 229.977 216.787 229.328V217.56C216.785 216.913 216.527 216.294 216.068 215.837C215.61 215.38 214.99 215.124 214.343 215.124Z" fill="white"/>
<path opacity="0.4" d="M208.32 201.23H95.9028V236.233H208.32V201.23Z" fill="white"/>
<path opacity="0.2" d="M146.319 233.722V203.759H98.4225V233.722H146.319Z" fill="black"/>
<path opacity="0.4" d="M208.32 237.35H95.9028V272.353H208.32V237.35Z" fill="white"/>
<path opacity="0.4" d="M208.32 273.47H95.9028V284.13H208.32V273.47Z" fill="white"/>
<path opacity="0.2" d="M219.836 285.902V292.992C219.836 293.556 219.725 294.115 219.509 294.637C219.293 295.158 218.976 295.631 218.576 296.03C218.177 296.429 217.702 296.745 217.181 296.96C216.659 297.175 216.1 297.285 215.535 297.284H94.1387C93.0061 297.276 91.9229 296.819 91.1252 296.015C90.3275 295.211 89.8798 294.125 89.8799 292.992V285.902H219.836Z" fill="black"/>
<g opacity="0.2">
<path opacity="0.2" d="M135.828 223.373V222.6H135.164V215.04H135.458V214.25H131.452L125.16 208.32H113.148L107.52 214.276H107.134V215.04H107.411V217.232V220.34V222.6H106.487V230.714H105.689L105.412 230.908H135.652L135.374 230.714H134.753V223.398L135.828 223.373ZM132.006 222.575V222.516H134.266V222.6L132.006 222.575ZM128.839 220.55H129.402V220.769H128.839V220.55ZM131.83 220.769H129.57V220.55H131.83V220.769ZM131.83 220.828V221.046H129.57V220.828H131.83ZM131.83 221.105V221.332H129.57V221.105H131.83ZM131.83 221.39V221.609H129.57V221.39H131.83ZM131.83 221.668V221.894H129.57V221.668H131.83ZM131.83 221.953V222.172H129.57V221.953H131.83ZM131.83 222.23V222.457H129.57V222.23H131.83ZM131.83 222.516V222.6H129.57V222.541L131.83 222.516ZM128.839 220.836H129.402V221.054H128.839V220.836ZM128.839 221.113H129.402V221.34H128.839V221.113ZM128.839 221.399H129.402V221.617H128.839V221.399ZM128.839 221.676H129.402V221.903H128.839V221.676ZM128.839 221.962H129.402V222.18H128.839V221.962ZM128.839 222.239H129.402V222.466H128.839V222.239ZM128.839 222.524H129.402V222.6H128.839V222.524ZM134.266 220.777H132.006V220.559H134.266V220.777ZM134.266 220.836V221.054H132.006V220.836H134.266ZM134.266 221.113V221.34H132.006V221.113H134.266ZM134.266 221.399V221.617H132.006V221.399H134.266ZM134.266 221.676V221.903H132.006V221.676H134.266ZM134.266 221.962V222.18H132.006V221.962H134.266ZM134.266 222.239V222.466H132.006V222.239H134.266ZM134.879 215.074V222.6H134.4V220.576H134.719V220.349H128.839V215.04L134.879 215.074ZM132.493 230.698V223.381H133.132V230.698H132.493ZM134.266 230.698H133.619V223.381H134.266V230.698Z" fill="black"/>
<path opacity="0.2" d="M146.32 230.689H98.4229V233.713H146.32V230.689Z" fill="black"/>
</g>
<path opacity="0.2" d="M146.319 269.842V239.879H98.4226V269.842H146.319Z" fill="black"/>
<path opacity="0.2" d="M146.32 275.99H98.4229V284.13H146.32V275.99Z" fill="black"/>
<path opacity="0.2" d="M142.052 265.675V255.486H142.674V254.629H132.661V254.243H131.972L130.494 253.109H129.024V246.607H130.208V246.347V245.818H129.52L126.571 243.558H108.713L105.832 245.818H104.832V246.607H106.126V253.109H104.689L103.244 254.243H102.245V255.024H104.446V265.675H98.4229V269.833H146.32V265.675H142.052Z" fill="black"/>
<g opacity="0.2">
<path opacity="0.2" d="M183.414 208.555H152.216C152.011 208.555 151.809 208.515 151.62 208.436C151.43 208.357 151.259 208.242 151.114 208.097C150.97 207.952 150.856 207.78 150.778 207.59C150.7 207.401 150.661 207.198 150.662 206.993C150.662 206.58 150.826 206.184 151.117 205.891C151.408 205.598 151.803 205.433 152.216 205.43H183.414C183.619 205.43 183.822 205.471 184.012 205.549C184.201 205.628 184.373 205.743 184.519 205.888C184.664 206.033 184.779 206.205 184.857 206.395C184.936 206.584 184.976 206.788 184.976 206.993C184.976 207.198 184.936 207.401 184.857 207.591C184.779 207.78 184.664 207.953 184.519 208.098C184.373 208.243 184.201 208.358 184.012 208.436C183.822 208.515 183.619 208.555 183.414 208.555Z" fill="black"/>
<path opacity="0.2" d="M195.653 216.72H151.611C151.486 216.72 151.362 216.695 151.246 216.647C151.13 216.599 151.025 216.528 150.937 216.439C150.849 216.35 150.779 216.244 150.732 216.128C150.685 216.012 150.661 215.888 150.662 215.762C150.661 215.637 150.685 215.513 150.732 215.397C150.779 215.28 150.849 215.175 150.937 215.086C151.025 214.997 151.13 214.926 151.246 214.878C151.362 214.83 151.486 214.805 151.611 214.805H195.653C195.778 214.805 195.902 214.83 196.018 214.878C196.133 214.926 196.238 214.997 196.327 215.086C196.415 215.175 196.485 215.28 196.532 215.397C196.579 215.513 196.603 215.637 196.602 215.762C196.603 215.888 196.579 216.012 196.532 216.128C196.485 216.244 196.415 216.35 196.327 216.439C196.238 216.528 196.133 216.599 196.018 216.647C195.902 216.695 195.778 216.72 195.653 216.72Z" fill="black"/>
<path opacity="0.2" d="M195.653 221.374H151.611C151.486 221.374 151.362 221.349 151.246 221.301C151.13 221.252 151.025 221.182 150.937 221.093C150.849 221.004 150.779 220.898 150.732 220.782C150.685 220.666 150.661 220.541 150.662 220.416C150.661 220.291 150.685 220.166 150.732 220.05C150.779 219.934 150.849 219.828 150.937 219.739C151.025 219.65 151.13 219.58 151.246 219.531C151.362 219.483 151.486 219.458 151.611 219.458H195.653C195.778 219.458 195.902 219.483 196.018 219.531C196.133 219.58 196.238 219.65 196.327 219.739C196.415 219.828 196.485 219.934 196.532 220.05C196.579 220.166 196.603 220.291 196.602 220.416C196.603 220.541 196.579 220.666 196.532 220.782C196.485 220.898 196.415 221.004 196.327 221.093C196.238 221.182 196.133 221.252 196.018 221.301C195.902 221.349 195.778 221.374 195.653 221.374Z" fill="black"/>
<path opacity="0.2" d="M195.653 225.96H151.611C151.36 225.96 151.118 225.86 150.94 225.682C150.762 225.504 150.662 225.263 150.662 225.011C150.661 224.885 150.685 224.761 150.732 224.645C150.779 224.529 150.849 224.423 150.937 224.334C151.025 224.245 151.13 224.174 151.246 224.126C151.362 224.078 151.486 224.053 151.611 224.053H195.653C195.778 224.053 195.902 224.078 196.018 224.126C196.133 224.174 196.238 224.245 196.327 224.334C196.415 224.423 196.485 224.529 196.532 224.645C196.579 224.761 196.603 224.885 196.602 225.011C196.602 225.135 196.577 225.259 196.53 225.374C196.482 225.489 196.412 225.594 196.324 225.682C196.236 225.77 196.131 225.84 196.016 225.888C195.901 225.935 195.777 225.96 195.653 225.96Z" fill="black"/>
<path opacity="0.2" d="M195.653 230.622H151.611C151.486 230.622 151.362 230.597 151.246 230.549C151.13 230.501 151.025 230.43 150.937 230.341C150.849 230.252 150.779 230.146 150.732 230.03C150.685 229.914 150.661 229.79 150.662 229.664C150.662 229.413 150.762 229.171 150.94 228.993C151.118 228.815 151.36 228.715 151.611 228.715H195.653C195.904 228.715 196.146 228.815 196.324 228.993C196.502 229.171 196.602 229.413 196.602 229.664C196.603 229.79 196.579 229.914 196.532 230.03C196.485 230.146 196.415 230.252 196.327 230.341C196.238 230.43 196.133 230.501 196.018 230.549C195.902 230.597 195.778 230.622 195.653 230.622Z" fill="black"/>
</g>
<g opacity="0.2">
<path opacity="0.2" d="M183.414 245.515H152.216C152.011 245.515 151.809 245.475 151.62 245.396C151.43 245.317 151.259 245.202 151.114 245.057C150.97 244.912 150.856 244.74 150.778 244.55C150.7 244.361 150.661 244.158 150.662 243.953C150.662 243.54 150.826 243.144 151.117 242.851C151.408 242.558 151.803 242.393 152.216 242.39H183.414C183.619 242.39 183.822 242.431 184.012 242.509C184.201 242.588 184.373 242.703 184.519 242.848C184.664 242.993 184.779 243.165 184.857 243.355C184.936 243.544 184.976 243.748 184.976 243.953C184.976 244.158 184.936 244.361 184.857 244.551C184.779 244.74 184.664 244.913 184.519 245.058C184.373 245.203 184.201 245.318 184.012 245.396C183.822 245.475 183.619 245.515 183.414 245.515Z" fill="black"/>
<path opacity="0.2" d="M195.653 253.68H151.611C151.486 253.68 151.362 253.655 151.246 253.607C151.13 253.559 151.025 253.488 150.937 253.399C150.849 253.31 150.779 253.204 150.732 253.088C150.685 252.972 150.661 252.848 150.662 252.722C150.661 252.597 150.685 252.473 150.732 252.357C150.779 252.24 150.849 252.135 150.937 252.046C151.025 251.957 151.13 251.886 151.246 251.838C151.362 251.79 151.486 251.765 151.611 251.765H195.653C195.778 251.765 195.902 251.79 196.018 251.838C196.133 251.886 196.238 251.957 196.327 252.046C196.415 252.135 196.485 252.24 196.532 252.357C196.579 252.473 196.603 252.597 196.602 252.722C196.603 252.848 196.579 252.972 196.532 253.088C196.485 253.204 196.415 253.31 196.327 253.399C196.238 253.488 196.133 253.559 196.018 253.607C195.902 253.655 195.778 253.68 195.653 253.68Z" fill="black"/>
<path opacity="0.2" d="M195.653 258.334H151.611C151.486 258.334 151.362 258.309 151.246 258.261C151.13 258.212 151.025 258.142 150.937 258.053C150.849 257.964 150.779 257.858 150.732 257.742C150.685 257.626 150.661 257.501 150.662 257.376C150.661 257.251 150.685 257.126 150.732 257.01C150.779 256.894 150.849 256.788 150.937 256.699C151.025 256.61 151.13 256.54 151.246 256.491C151.362 256.443 151.486 256.418 151.611 256.418H195.653C195.778 256.418 195.902 256.443 196.018 256.491C196.133 256.54 196.238 256.61 196.327 256.699C196.415 256.788 196.485 256.894 196.532 257.01C196.579 257.126 196.603 257.251 196.602 257.376C196.603 257.501 196.579 257.626 196.532 257.742C196.485 257.858 196.415 257.964 196.327 258.053C196.238 258.142 196.133 258.212 196.018 258.261C195.902 258.309 195.778 258.334 195.653 258.334Z" fill="black"/>
<path opacity="0.2" d="M195.653 262.92H151.611C151.36 262.92 151.118 262.82 150.94 262.642C150.762 262.464 150.662 262.223 150.662 261.971C150.661 261.845 150.685 261.721 150.732 261.605C150.779 261.489 150.849 261.383 150.937 261.294C151.025 261.205 151.13 261.134 151.246 261.086C151.362 261.038 151.486 261.013 151.611 261.013H195.653C195.778 261.013 195.902 261.038 196.018 261.086C196.133 261.134 196.238 261.205 196.327 261.294C196.415 261.383 196.485 261.489 196.532 261.605C196.579 261.721 196.603 261.845 196.602 261.971C196.602 262.095 196.577 262.219 196.53 262.334C196.482 262.449 196.412 262.554 196.324 262.642C196.236 262.73 196.131 262.8 196.016 262.848C195.901 262.895 195.777 262.92 195.653 262.92Z" fill="black"/>
<path opacity="0.2" d="M195.653 267.582H151.611C151.486 267.582 151.362 267.557 151.246 267.509C151.13 267.461 151.025 267.39 150.937 267.301C150.849 267.212 150.779 267.106 150.732 266.99C150.685 266.874 150.661 266.75 150.662 266.624C150.662 266.373 150.762 266.131 150.94 265.953C151.118 265.775 151.36 265.675 151.611 265.675H195.653C195.904 265.675 196.146 265.775 196.324 265.953C196.502 266.131 196.602 266.373 196.602 266.624C196.603 266.75 196.579 266.874 196.532 266.99C196.485 267.106 196.415 267.212 196.327 267.301C196.238 267.39 196.133 267.461 196.018 267.509C195.902 267.557 195.778 267.582 195.653 267.582Z" fill="black"/>
</g>
<path d="M291.136 181.112C291.136 181.112 289.683 184.052 288.616 184.472C287.549 184.892 277.562 170.075 277.562 170.075C277.286 169.307 276.883 168.591 276.369 167.958C275.655 167.194 271.816 165.808 270.287 165.866C268.758 165.925 267.767 168.538 267.246 169.722C266.726 170.906 267.104 171.251 269.388 171.948C271.673 172.645 272.975 173.628 274.428 172.402C274.428 172.402 282.778 191.486 287.406 191.957C293.454 192.578 297.209 183.296 297.209 183.296L291.136 181.112Z" fill="#E4897B"/>
<path d="M295.277 166.454C295.277 166.454 290.783 179.81 289.506 183.49C289.506 183.49 294.252 188.975 298.183 189.092L302.526 176.207L295.277 166.454Z" fill="#2E5795"/>
<path opacity="0.2" d="M295.277 166.454C295.277 166.454 290.783 179.81 289.506 183.49C289.506 183.49 294.252 188.975 298.183 189.092L302.526 176.207L295.277 166.454Z" fill="white"/>
<path d="M307.088 350.473L306.172 346.324L306.013 338.839H299.755C299.083 336.538 297.235 337.823 297.235 337.823L296.395 344.728C294.807 346.147 291.086 347.642 286.139 348.718C285.038 348.961 285.383 351.624 288.079 351.624C290.775 351.624 296.664 351.422 298.612 351.422C301.779 351.422 303.652 351.574 306.172 351.616C306.242 351.624 306.313 351.624 306.382 351.616C306.504 351.587 306.618 351.535 306.719 351.462C306.821 351.389 306.906 351.297 306.972 351.191C307.037 351.084 307.081 350.967 307.101 350.843C307.121 350.72 307.117 350.595 307.088 350.473Z" fill="#263238"/>
<path d="M343.207 350.473L342.292 346.324L340.897 338.839H334.639C334.616 338.558 334.516 338.289 334.348 338.062C334.181 337.835 333.954 337.659 333.693 337.554C333.431 337.448 333.146 337.418 332.868 337.465C332.59 337.513 332.331 337.637 332.119 337.823L332.497 344.728C330.91 346.147 327.189 347.642 322.241 348.718C321.141 348.961 321.485 351.624 324.181 351.624C326.878 351.624 332.766 351.422 334.715 351.422C337.882 351.422 339.755 351.574 342.275 351.616C342.345 351.624 342.415 351.624 342.485 351.616C342.608 351.589 342.724 351.538 342.827 351.466C342.93 351.394 343.018 351.302 343.085 351.195C343.152 351.089 343.198 350.971 343.219 350.847C343.24 350.723 343.236 350.596 343.207 350.473Z" fill="#263238"/>
<path d="M342.393 343.224H331.271C331.271 343.224 319.646 284.012 318.713 277.469C318.15 273.487 316.983 235.032 316.84 233.201C316.185 235.032 306.626 273.445 306.626 273.445C306.626 273.445 308.431 319.813 307.323 341.485H295.899C295.899 341.485 291.111 297.326 292.177 273.445C293.79 237.401 301.418 204.792 302.3 199.962H336.37C341.242 222.592 336.437 278.082 336.437 278.082C336.437 278.082 340.923 321.594 342.393 343.224Z" fill="#263238"/>
<path d="M301.922 201.802L336.093 198.962L336.429 203.028L301.787 205.489L301.922 201.802Z" fill="black"/>
<path d="M324.96 198.035L323.738 198.137L324.339 205.361L325.561 205.259L324.96 198.035Z" fill="#263238"/>
<path d="M307.659 199.495L306.437 199.597L307.037 206.821L308.259 206.719L307.659 199.495Z" fill="#263238"/>
<path d="M317.439 199.802L311.119 200.327L311.498 204.881L317.818 204.355L317.439 199.802Z" fill="white"/>
<path d="M307.138 152.544C315.043 147.848 328.004 153.149 328.004 153.149C328.323 154.703 336.068 170.344 336.362 199.987L301.922 201.802C301.922 201.802 298.562 172.402 295.277 166.454C295.277 166.454 296.647 158.76 307.138 152.544Z" fill="#2E5795"/>
<path opacity="0.4" d="M336.362 199.987L301.922 201.802C301.922 201.802 298.562 172.402 295.277 166.454C295.277 166.454 296.647 158.777 307.138 152.544C315.043 147.848 328.004 153.149 328.004 153.149C331.347 161.655 333.651 170.534 334.867 179.592C335.812 186.35 336.312 193.163 336.362 199.987Z" fill="white"/>
<path d="M302.879 151.687C303.434 152.444 303.729 153.361 303.719 154.3C303.499 155.008 303.082 155.64 302.518 156.122C303.453 156.725 304.513 157.11 305.617 157.248L309.91 155.291C309.91 155.291 312.043 154.829 312.589 154.073C313.043 153.451 313.53 152.838 313.933 152.183C314.135 151.84 314.311 151.484 314.462 151.116C313.337 151.085 312.263 150.639 311.447 149.864C309.59 147.773 306.6 139.129 306.6 139.129L299.25 147C299.25 147 299.418 147.168 299.678 147.47C300.862 148.784 301.932 150.194 302.879 151.687Z" fill="#E4897B"/>
<path opacity="0.2" d="M307.499 144.85C307.499 144.85 307.407 149.78 302.879 151.687C301.932 150.2 300.861 148.795 299.679 147.487C299.956 147.202 300.141 147.025 300.141 147.025L307.499 144.85Z" fill="black"/>
<path d="M287.398 131.452C287.398 131.452 288.28 140.104 293.53 142.162C298.78 144.22 294.774 128.722 294.774 128.722L287.398 131.452Z" fill="#263238"/>
<path d="M308.062 145.471C307.488 147.08 306.402 148.456 304.972 149.389C303.541 150.322 301.844 150.76 300.141 150.637C297.936 150.511 295.86 149.557 294.328 147.966C294.118 147.748 293.916 147.512 293.723 147.269C290.237 142.741 287.247 134.022 291.766 129.301C292.759 128.254 294.004 127.478 295.382 127.047C296.759 126.616 298.224 126.544 299.637 126.839C301.051 127.133 302.365 127.784 303.456 128.73C304.546 129.675 305.377 130.884 305.87 132.241C308.062 138.02 309.624 141.313 308.062 145.471Z" fill="#E4897B"/>
<path d="M298.016 137.659C298.133 137.824 298.181 138.027 298.149 138.227C298.118 138.426 298.01 138.605 297.848 138.726C297.537 138.869 297.134 138.6 296.932 138.138C296.731 137.676 296.806 137.197 297.1 137.071C297.394 136.945 297.806 137.197 298.016 137.659Z" fill="#263238"/>
<path d="M292.833 139.986C292.949 140.152 292.995 140.356 292.962 140.555C292.929 140.755 292.82 140.933 292.656 141.053C292.354 141.187 291.942 140.927 291.741 140.465C291.539 140.003 291.615 139.524 291.909 139.398C292.203 139.272 292.631 139.549 292.833 139.986Z" fill="#263238"/>
<path d="M294.58 139.44C294.662 141.088 294.515 142.738 294.144 144.346C294.561 144.43 294.991 144.421 295.405 144.321C295.818 144.221 296.205 144.031 296.538 143.766L294.58 139.44Z" fill="#DE5753"/>
<path d="M289.909 138.6C289.963 138.608 290.017 138.601 290.067 138.578C290.116 138.556 290.157 138.52 290.186 138.474C290.386 138.16 290.656 137.898 290.976 137.709C291.295 137.519 291.655 137.407 292.026 137.382C292.104 137.382 292.179 137.351 292.234 137.296C292.289 137.241 292.32 137.166 292.32 137.088C292.32 137.01 292.289 136.935 292.234 136.88C292.179 136.825 292.104 136.794 292.026 136.794C291.559 136.816 291.104 136.95 290.7 137.184C290.295 137.418 289.952 137.745 289.699 138.138C289.655 138.202 289.638 138.281 289.65 138.357C289.663 138.434 289.704 138.503 289.766 138.55L289.909 138.6Z" fill="#263238"/>
<path d="M298.117 135.122C298.17 135.094 298.214 135.05 298.243 134.996C298.254 134.96 298.259 134.922 298.255 134.884C298.252 134.846 298.24 134.809 298.222 134.775C298.204 134.741 298.18 134.712 298.15 134.688C298.12 134.664 298.086 134.646 298.05 134.635C297.601 134.496 297.125 134.465 296.662 134.545C296.2 134.626 295.762 134.815 295.387 135.097C295.333 135.152 295.303 135.226 295.303 135.303C295.303 135.38 295.333 135.454 295.387 135.509C295.442 135.563 295.516 135.593 295.593 135.593C295.67 135.593 295.743 135.563 295.798 135.509C296.102 135.294 296.451 135.153 296.818 135.096C297.186 135.039 297.561 135.068 297.915 135.181C297.987 135.186 298.058 135.165 298.117 135.122Z" fill="#263238"/>
<path d="M293.068 125.546L299.268 129.746C299.776 129.784 300.251 130.012 300.6 130.383C300.948 130.755 301.144 131.244 301.149 131.754C301.149 134.207 303.669 137.038 305.828 137.718C305.828 137.718 305.517 136.777 306.382 136.685C307.248 136.592 308.902 141.498 308.298 144.388C308.298 144.388 309.784 141.406 309.138 135.853C308.499 130.704 306.097 123.724 303.997 123.085C299.209 121.624 293.068 125.546 293.068 125.546Z" fill="#263238"/>
<path d="M310.406 135.761C310.353 137.316 309.685 138.787 308.549 139.852C307.029 141.254 305.341 140.12 304.971 138.172C304.66 136.492 305.038 133.636 306.953 132.98C307.372 132.839 307.82 132.806 308.254 132.884C308.689 132.961 309.098 133.147 309.442 133.424C309.786 133.702 310.054 134.061 310.223 134.469C310.391 134.878 310.454 135.322 310.406 135.761Z" fill="#E4897B"/>
<path d="M297.545 145.102C298.126 145.621 298.667 146.183 299.166 146.782C299.284 146.714 299.41 146.647 299.519 146.572C301.132 145.614 301.56 144.631 301.543 143.842C301.529 143.454 301.419 143.076 301.224 142.741C301.125 142.547 300.997 142.369 300.846 142.212C300.114 143.239 299.172 144.098 298.083 144.732L297.545 145.102Z" fill="#263238"/>
<path d="M298.083 144.766L298.579 145.253C300.091 144.337 301.031 143.489 301.225 142.733C301.125 142.539 300.998 142.361 300.847 142.204C300.12 143.246 299.177 144.119 298.083 144.766Z" fill="white"/>
<path d="M299.52 146.58C301.132 145.622 301.561 144.64 301.544 143.85C300.939 144.225 300.407 144.706 299.973 145.27C299.69 145.649 299.531 146.107 299.52 146.58Z" fill="#DE5753"/>
<path d="M287.398 131.452C287.398 132.174 289.364 133.854 292.094 133.82C294.824 133.787 291.363 132.636 291.363 132.636C291.363 132.636 296.613 132.048 296.462 131.418C296.311 130.788 294.522 130.578 294.522 130.578C294.522 130.578 299.116 130.578 301.813 128.377C304.509 126.176 296.563 123.757 293.068 125.53C289.574 127.302 287.508 129.251 287.398 131.452Z" fill="#263238"/>
<path d="M298.201 143.413C298.201 143.413 300.183 140.767 301.057 140.616C301.93 140.465 306.181 147.336 306.181 147.336C306.181 147.336 306.811 148.915 302.938 150.301C299.066 151.687 299.141 150.763 298.192 149.1C297.243 147.437 295.773 146.504 295.605 145.404C295.437 144.304 297.865 143.8 297.865 143.8L298.133 144.026C298.133 144.026 296.714 144.749 296.899 145.572C297.083 146.395 298.36 148.89 299.721 149.05C301.082 149.209 300.502 147.815 300.502 147.815L301.577 147.017C301.577 147.017 302.518 148 303.308 147.554C304.097 147.109 303.467 144.824 302.594 143.581C301.72 142.338 301.577 142.069 300.821 142.187C299.987 142.53 299.224 143.026 298.57 143.648L298.201 143.413Z" fill="#263238"/>
<path d="M293.039 140.789L290.288 141.85C290.115 141.917 290.029 142.111 290.096 142.284L290.549 143.46C290.616 143.633 290.81 143.719 290.984 143.653L293.734 142.591C293.907 142.524 293.994 142.33 293.927 142.157L293.473 140.981C293.406 140.808 293.212 140.722 293.039 140.789Z" stroke="#263238" stroke-width="0.5" stroke-linecap="round" stroke-linejoin="round"/>
<path d="M298.458 138.693L295.707 139.754C295.534 139.821 295.448 140.016 295.515 140.189L295.968 141.364C296.035 141.537 296.229 141.624 296.403 141.557L299.153 140.495C299.326 140.428 299.413 140.234 299.346 140.061L298.892 138.885C298.825 138.712 298.631 138.626 298.458 138.693Z" stroke="#263238" stroke-width="0.5" stroke-linecap="round" stroke-linejoin="round"/>
<path d="M293.706 141.582C293.914 141.248 294.224 140.99 294.591 140.848C294.957 140.705 295.36 140.686 295.739 140.792" stroke="#263238" stroke-width="0.5" stroke-linecap="round" stroke-linejoin="round"/>
<path d="M308.322 155.618L311.128 148.504L315.882 150.175L313.27 159.667L308.205 156.458L306.163 161.734L301.258 156.685L303.366 152.62L308.322 155.618Z" fill="#2E5795"/>
<path opacity="0.2" d="M308.322 155.618L311.128 148.504L315.882 150.175L313.27 159.667L308.205 156.458L306.163 161.734L301.258 156.685L303.366 152.62L308.322 155.618Z" fill="white"/>
<path opacity="0.1" d="M334.866 179.592C322.056 170.688 328.004 153.149 328.004 153.149C331.347 161.655 333.651 170.534 334.866 179.592Z" fill="black"/>
<path d="M266.667 169.68C263.635 170.327 255.461 185.321 254.437 185.203C251.421 184.842 251.572 176.803 249.892 177.643C249.367 177.954 248.934 178.4 248.638 178.935C248.343 179.47 248.196 180.073 248.212 180.684C248.212 180.684 248.666 188.177 251.572 190.957C256.671 195.863 266.692 179.684 266.692 179.684L266.667 169.68Z" fill="#2E5795"/>
<path opacity="0.7" d="M266.667 169.68V179.76C266.667 179.76 256.881 195.602 251.732 191.176L251.572 191.033C248.683 188.252 248.212 180.76 248.212 180.76C248.196 180.149 248.343 179.545 248.638 179.011C248.934 178.476 249.367 178.03 249.892 177.719C251.488 176.879 251.429 184.086 254 185.128C254.139 185.188 254.286 185.228 254.437 185.245C255.461 185.354 263.635 170.36 266.667 169.68Z" fill="white"/>
<path opacity="0.2" d="M266.667 169.68V179.76C266.667 179.76 256.881 195.602 251.731 191.176C254.419 190.336 253.999 186.136 253.999 185.128C254.138 185.188 254.286 185.228 254.436 185.245C255.461 185.354 263.634 170.36 266.667 169.68Z" fill="black"/>
<path d="M259.804 213.15C259.804 213.15 251.244 258.779 248.96 277.511C245.969 301.955 233.772 337.68 233.772 337.68L238.653 338.94C238.653 338.94 255.856 308.557 259.208 281.224C272.874 253.285 273.975 218.879 273.975 218.879L259.804 213.15Z" fill="#EEC1BB"/>
<path d="M224.683 348.768C225.478 348.404 226.332 348.188 227.203 348.13C227.203 348.13 230.211 346.366 233.184 339.503H236.544C237.109 339.508 237.658 339.687 238.117 340.017C238.575 340.346 238.921 340.809 239.106 341.342C239.165 341.49 239.199 341.646 239.207 341.804C239.175 342.613 239.088 343.418 238.947 344.215C238.454 346.873 237.801 349.499 236.989 352.078L236.427 351.935L237.46 346.945C237.796 345.265 236.015 346.886 235.192 348.625C234.369 350.364 233.1 352.052 229.404 351.212C225.07 350.162 223.331 349.541 224.683 348.768Z" fill="#2E353A"/>
<path d="M268.691 212.419C268.691 212.419 269.758 258.838 271.396 277.637C273.53 302.165 268.985 339.671 268.985 339.671L274.025 339.898C274.025 339.898 284.567 306.6 282.241 279.174C289.801 249.01 283.795 215.124 283.795 215.124L268.691 212.419Z" fill="#EEC1BB"/>
<path d="M261.148 350.28C261.896 349.833 262.718 349.526 263.576 349.373C263.576 349.373 266.364 347.29 268.616 340.133L271.934 339.755C272.497 339.701 273.063 339.821 273.555 340.099C274.048 340.377 274.444 340.799 274.689 341.309C274.757 341.45 274.805 341.6 274.832 341.754C274.882 342.562 274.882 343.373 274.832 344.182C274.628 346.878 274.264 349.559 273.74 352.212L273.16 352.128L273.639 347.088C273.798 345.366 272.202 347.189 271.572 348.978C270.942 350.767 269.892 352.615 266.096 352.17C261.686 351.641 259.896 351.212 261.148 350.28Z" fill="#2E353A"/>
<path d="M257.88 206.237L240.408 302.081C240.408 302.081 280.174 306.827 293.656 304.055C293.656 304.055 296.957 234.956 282.887 207.69L257.88 206.237Z" fill="#2E5795"/>
<path opacity="0.2" d="M257.88 206.237L240.408 302.081C240.408 302.081 280.174 306.827 293.656 304.055C293.656 304.055 296.957 234.956 282.887 207.69L257.88 206.237Z" fill="white"/>
<path d="M233.772 337.68C233.772 337.68 229.572 346.416 227.187 348.104C227.187 348.104 230.412 350.028 233.772 345.752C238.107 340.217 239.173 341.762 239.173 341.762C239.085 340.808 238.911 339.863 238.653 338.94C237.997 337.184 233.772 337.68 233.772 337.68Z" fill="#EEC1BB"/>
<path d="M269.497 337.68C269.497 337.68 268.313 340.914 266.734 344.467C266.009 346.309 264.937 347.995 263.575 349.432C263.575 349.432 266.314 350.322 267.775 348.592C269.237 346.861 271.79 340.662 274.63 341.376C274.477 340.871 274.266 340.386 274 339.931C273.596 339.192 269.497 337.68 269.497 337.68Z" fill="#EEC1BB"/>
<path d="M275.034 158.323C275.034 158.323 270.834 146.765 281.435 144.724C292.035 142.682 297.285 151.351 294.362 159.785C294.362 159.785 298.243 161.372 296.294 164.346C294.345 167.32 298.436 166.202 299.15 169.235C299.864 172.267 296.067 171.671 298.184 172.754C300.301 173.838 304.115 177.442 298.025 180.516C291.935 183.59 276.185 184.892 273.144 180.239C270.103 175.585 271.01 171.973 273.539 170.234C276.067 168.496 272.514 170.016 272.699 166.202C272.883 162.389 274.664 163.682 274.538 162.128C274.412 160.574 273.74 158.76 275.034 158.323Z" fill="#263238"/>
<path d="M292.892 187.093C291.304 189.84 290.011 192.226 288.919 194.384C286.247 199.491 284.148 204.877 282.661 210.445L258.973 203.86C261.837 186.816 264.365 177.668 265.852 173.141C267.448 168.319 268.246 168.311 268.246 168.311C268.246 168.311 273.706 169.008 278.326 170.1C281.898 171.038 285.398 172.228 288.801 173.662C292.043 174.982 295.185 176.538 298.201 178.315C297.31 179.735 296.479 181.096 295.681 182.372C294.673 184.061 293.749 185.64 292.892 187.093Z" fill="#2E5795"/>
<path opacity="0.8" d="M298.2 178.315C297.366 179.631 296.59 180.888 295.873 182.087L295.697 182.372C295.092 183.372 294.521 184.33 293.975 185.254C293.614 185.892 293.244 186.497 292.908 187.093C292.79 187.295 292.664 187.496 292.564 187.69C291.119 190.21 289.934 192.394 288.935 194.41C287.624 196.972 286.608 199.214 285.76 201.331C285.491 201.986 285.239 202.633 285.004 203.272C284.718 204.07 284.449 204.859 284.164 205.649C283.542 207.488 283.248 208.438 282.651 210.47L258.955 203.885C261.828 186.85 264.356 177.694 265.843 173.166C267.439 168.353 268.237 168.336 268.237 168.336C268.237 168.336 273.697 169.033 278.317 170.125C281.887 171.059 285.385 172.25 288.784 173.687C292.031 174.999 295.178 176.546 298.2 178.315Z" fill="white"/>
<path d="M284.147 207.388L258.728 203.297L257.712 207.362L284.609 211.352L284.147 207.388Z" fill="#263238"/>
<path d="M265.44 205.64L265.298 207.589C265.275 207.957 265.389 208.32 265.616 208.609C265.844 208.899 266.17 209.095 266.532 209.16L269.565 209.656H269.699C270.079 209.683 270.456 209.569 270.758 209.336C271.068 209.082 271.27 208.718 271.321 208.32L271.463 206.371C271.493 205.991 271.378 205.613 271.141 205.314C270.905 205.015 270.564 204.817 270.187 204.758L267.154 204.271C266.946 204.238 266.733 204.248 266.529 204.301C266.325 204.355 266.135 204.45 265.97 204.582C265.816 204.715 265.69 204.877 265.599 205.058C265.508 205.24 265.454 205.438 265.44 205.64ZM266.079 207.64L266.129 207.001L266.969 207.127C267.098 207.133 267.224 207.09 267.323 207.008C267.422 206.926 267.487 206.81 267.506 206.683C267.525 206.556 267.496 206.426 267.425 206.319C267.354 206.211 267.245 206.134 267.12 206.102L266.28 205.976H266.163V205.682C266.17 205.581 266.199 205.482 266.247 205.393C266.294 205.303 266.36 205.224 266.44 205.162C266.584 205.045 266.768 204.987 266.952 205.002H267.011L270.044 205.489C270.227 205.516 270.393 205.612 270.509 205.757C270.624 205.902 270.68 206.086 270.665 206.27L270.523 208.219C270.515 208.321 270.487 208.419 270.439 208.509C270.391 208.598 270.325 208.677 270.245 208.74C270.165 208.805 270.072 208.852 269.972 208.879C269.872 208.905 269.768 208.909 269.666 208.891L266.633 208.396C266.461 208.361 266.306 208.266 266.198 208.127C266.09 207.988 266.036 207.815 266.045 207.64H266.079Z" fill="white"/>
<path d="M268.431 163.136L271.077 188.58C271.096 188.717 271.085 188.857 271.046 188.99C271.006 189.123 270.938 189.245 270.846 189.349C270.754 189.453 270.641 189.536 270.514 189.591C270.387 189.647 270.249 189.675 270.111 189.672H254.151C253.853 189.664 253.568 189.55 253.347 189.349C253.127 189.149 252.985 188.876 252.949 188.58L250.303 163.136C250.284 162.999 250.295 162.859 250.334 162.725C250.374 162.592 250.442 162.469 250.534 162.365C250.626 162.26 250.739 162.177 250.866 162.12C250.993 162.063 251.13 162.035 251.269 162.036H267.229C267.528 162.046 267.813 162.162 268.033 162.364C268.254 162.566 268.395 162.84 268.431 163.136Z" fill="#263238"/>
<path opacity="0.2" d="M267.591 163.136L270.237 188.58C270.256 188.717 270.245 188.857 270.206 188.99C270.166 189.123 270.098 189.245 270.006 189.349C269.914 189.453 269.801 189.536 269.674 189.591C269.547 189.647 269.409 189.675 269.271 189.672H254.151C253.853 189.664 253.568 189.55 253.347 189.349C253.127 189.149 252.985 188.876 252.949 188.58L250.303 163.136C250.284 162.999 250.295 162.859 250.334 162.725C250.374 162.592 250.442 162.469 250.534 162.365C250.626 162.26 250.739 162.177 250.866 162.12C250.993 162.063 251.13 162.035 251.269 162.036H266.389C266.688 162.046 266.973 162.162 267.193 162.364C267.414 162.566 267.555 162.84 267.591 163.136Z" fill="white"/>
<path opacity="0.6" d="M260.543 172.418C260.465 172.414 260.386 172.414 260.308 172.418C259.182 172.418 258.393 173.611 258.544 175.073C258.695 176.534 259.737 177.736 260.862 177.736C261.988 177.736 262.778 176.543 262.626 175.073C262.04 174.914 261.52 174.569 261.144 174.091C260.769 173.613 260.558 173.026 260.543 172.418Z" fill="white"/>
<path d="M252.84 172.771C252.84 172.771 248.111 175.703 248.237 177.316C248.304 178.156 248.464 180.617 249.354 180.97C250.849 181.566 255.016 178.164 254.923 177.71C254.831 177.257 254.428 173.099 252.84 172.771Z" fill="#EEC1BB"/>
<path d="M284.181 170.369C284.181 170.369 293.757 173.813 291.892 178.542C290.027 183.271 280.56 177.408 280.56 177.408L276.134 186.589L278.922 177.038C278.922 177.038 272.765 179.256 273.042 174.871C273.319 170.486 277.662 169.47 284.181 170.369Z" fill="white"/>
<path d="M289.506 165.152C288.962 165.839 288.494 166.582 288.111 167.37C287.196 169.243 286.431 171.982 288.044 174.392C288.044 174.392 285.827 176.392 280.089 175.837C280.089 175.837 277.737 173.393 279.417 171.452C279.417 171.452 280.257 171.62 281.039 170.528C281.603 169.692 281.981 168.743 282.147 167.748C282.342 166.798 282.468 165.835 282.525 164.867L289.506 165.152Z" fill="#EEC1BB"/>
<path opacity="0.2" d="M289.506 165.152C288.962 165.839 288.495 166.582 288.112 167.37C287.273 168.425 286.192 169.263 284.961 169.813C283.73 170.363 282.385 170.608 281.039 170.528C281.603 169.692 281.981 168.743 282.148 167.748C282.342 166.798 282.469 165.835 282.526 164.867L289.506 165.152Z" fill="black"/>
<path d="M282.333 148.1C276.377 148.739 274.773 152.141 275.033 158.323C275.311 166.051 277.604 171.318 284.87 168.882C294.748 165.564 292.228 147 282.333 148.1Z" fill="#EEC1BB"/>
<path d="M278.88 157.576C278.497 158.516 278.004 159.407 277.41 160.23C277.617 160.461 277.883 160.63 278.179 160.719C278.476 160.808 278.791 160.813 279.09 160.734L278.88 157.576Z" fill="#D4827D"/>
<path d="M282.442 156.694C282.442 157.181 282.778 157.534 283.105 157.534C283.433 157.534 283.66 157.088 283.626 156.593C283.592 156.097 283.282 155.753 282.954 155.753C282.626 155.753 282.4 156.24 282.442 156.694Z" fill="#263238"/>
<path d="M283.081 155.77L281.972 155.442C281.972 155.442 282.602 156.29 283.081 155.77Z" fill="#263238"/>
<path d="M276.36 157.08C276.402 157.576 276.705 157.92 277.032 157.92C277.36 157.92 277.587 157.475 277.545 156.979C277.503 156.484 277.209 156.139 276.881 156.139C276.553 156.139 276.293 156.618 276.36 157.08Z" fill="#263238"/>
<path d="M276.991 156.181L275.882 155.854C275.882 155.854 276.495 156.702 276.991 156.181Z" fill="#263238"/>
<path d="M282.056 152.578C282.52 152.468 283.003 152.467 283.468 152.575C283.933 152.683 284.367 152.896 284.735 153.199" stroke="#263238" stroke-width="0.72468" stroke-linecap="round" stroke-linejoin="round"/>
<path d="M277.695 152.788C277.278 152.728 276.852 152.764 276.45 152.894C276.048 153.024 275.681 153.243 275.377 153.535" stroke="#263238" stroke-width="0.72468" stroke-linecap="round" stroke-linejoin="round"/>
<path d="M280.141 162.96C280.495 163.604 280.804 164.272 281.065 164.959L281.443 164.875C283.123 164.514 283.828 163.783 284.063 163.078C284.165 162.731 284.185 162.366 284.122 162.011C284.09 161.808 284.031 161.61 283.946 161.423C282.985 162.113 281.888 162.592 280.729 162.826C280.367 162.96 280.141 162.96 280.141 162.96Z" fill="#263238"/>
<path d="M280.729 162.851L281.014 163.439C282.627 163.086 283.719 162.599 284.122 162.036C284.09 161.833 284.031 161.635 283.946 161.448C282.985 162.139 281.888 162.617 280.729 162.851Z" fill="white"/>
<path d="M281.442 164.9C283.122 164.539 283.828 163.808 284.063 163.103C283.411 163.251 282.791 163.516 282.232 163.884C281.866 164.129 281.59 164.486 281.442 164.9Z" fill="#DE5753"/>
<path d="M289.926 157.433C289.926 157.433 286.616 152.838 286.625 149.033C286.625 149.033 274.302 145.488 275.016 157.534C275.016 157.534 272.714 147.017 282.929 145.673C293.143 144.329 294.689 159.314 289.909 164.354C289.909 164.338 291.984 160.314 289.926 157.433Z" fill="#263238"/>
<path d="M289.087 158.802C289.071 158.105 289.331 157.431 289.811 156.925C290.291 156.42 290.952 156.125 291.649 156.106C293.513 156.106 294.799 159.802 290.313 161.213C289.666 161.414 289.221 160.81 289.087 158.802Z" fill="#EEC1BB"/>
<path d="M287.33 148.924C287.33 148.924 281.358 148.084 280.4 149.814C279.443 151.544 274.856 150.78 274.764 155.484C274.764 155.484 272.479 149.386 278.704 147.496C284.928 145.606 287.33 148.924 287.33 148.924Z" fill="#263238"/>
<path opacity="0.2" d="M295.152 198.685L295.614 199.03L295.135 198.702L295.152 198.685Z" fill="black"/>
<path opacity="0.2" d="M295.865 182.087L295.689 182.372C295.084 183.372 294.513 184.33 293.967 185.254C293.606 185.892 293.236 186.497 292.9 187.093C292.783 187.295 292.657 187.496 292.556 187.69C291.111 190.21 289.927 192.394 288.927 194.41C287.617 196.972 286.6 199.214 285.752 201.331C282.711 196.77 283.148 183.935 283.148 183.935H285.265C285.265 183.935 288.154 189.672 289.465 189.949C290.775 190.226 295.093 181.062 295.093 181.062L295.865 182.087Z" fill="black"/>
<path d="M286.986 185.64L285.499 182.759C285.525 182.094 285.404 181.432 285.146 180.818C284.777 180.323 277.191 179.525 276.141 179.483C275.091 179.441 275.788 184.85 276.141 185.363C276.494 185.875 282.559 185.976 283.391 185.363L284.609 188.118L286.986 185.64Z" fill="#EEC1BB"/>
<path d="M298.201 178.315C301.955 181.062 299.881 201.348 294.001 202.339C288.297 203.297 283.366 186.908 283.366 186.908L286.961 184.447C286.961 184.447 291.439 194.687 292.64 194.267C294.715 193.544 293.942 185.254 293.942 185.254C294.246 183.831 294.636 182.429 295.109 181.054C295.798 179.231 298.201 178.315 298.201 178.315Z" fill="#2E5795"/>
<path opacity="0.7" d="M298.201 178.315C301.955 181.062 299.881 201.348 294.001 202.339C288.297 203.297 283.366 186.908 283.366 186.908L286.961 184.447C286.961 184.447 291.439 194.687 292.64 194.267C294.715 193.544 293.942 185.254 293.942 185.254C294.246 183.831 294.636 182.429 295.109 181.054C295.798 179.231 298.201 178.315 298.201 178.315Z" fill="white"/>
<path d="M324.644 167.437C324.644 167.437 324.366 176.249 323.031 179.155C321.695 182.062 303.593 172.771 303.593 172.771C302.85 172.125 302.039 171.562 301.174 171.091C300.099 170.596 292.169 170.957 290.985 171.931C289.8 172.906 292.018 177.626 292.018 177.626C292.018 177.626 299.754 178.878 301.258 178.718C301.739 178.633 302.196 178.446 302.599 178.169C303.002 177.892 303.341 177.532 303.593 177.114C303.593 177.114 317.033 184.976 321.846 185.094C326.66 185.212 329.247 182.364 330.843 171.511L324.644 167.437Z" fill="#E4897B"/>
<path d="M328.004 153.149C324.073 151.015 323.031 171.091 323.031 171.091L331.675 175.93C331.675 175.93 336.001 157.475 328.004 153.149Z" fill="#2E5795"/>
<path opacity="0.2" d="M328.004 153.149C324.073 151.015 323.031 171.091 323.031 171.091L331.675 175.93C331.675 175.93 336.001 157.475 328.004 153.149Z" fill="white"/>
<defs>
<linearGradient id="paint0_linear" x1="209.652" y1="48" x2="209.652" y2="402.661" gradientUnits="userSpaceOnUse">
<stop stop-color="#25B1FF"/>
<stop offset="1" stop-color="#0F4462" stop-opacity="0"/>
</linearGradient>
</defs>
</svg>
