<svg width="455" height="438" viewBox="0 0 455 438" fill="none" xmlns="http://www.w3.org/2000/svg">
    <path fill-rule="evenodd" clip-rule="evenodd" d="M229.227 0.420482C282.224 7.47305 275.8 90.8381 315.273 125.326C347.194 153.215 406.7 141.371 430.231 176.037C454.835 212.284 458.839 265.381 435.43 302.342C412.457 338.616 354.117 330.398 317.385 354.216C282.629 376.752 270.283 427.524 229.227 436.046C186.58 444.899 143.282 422.189 107.987 397.682C72.7065 373.185 47.8657 338.378 32.4554 299.416C16.4226 258.881 1.04531 212.948 19.2157 173.243C36.9706 134.446 90.1947 127.488 123.787 99.8439C162.143 68.2794 179.071 -6.25398 229.227 0.420482Z" fill="#2D8AA8" fill-opacity="0.37"/>
    <path d="M227.272 398.862V405.485L0 274.278V267.655L227.272 398.862Z" fill="#E0E0E0"/>
    <path d="M454.533 274.268L227.271 405.485V398.862L454.533 267.655V274.268Z" fill="#EBEBEB"/>
    <path d="M414.339 244.442L227.272 352.446L40.2037 244.442L0 267.655L227.272 398.862L454.533 267.655L414.339 244.442Z" fill="#F5F5F5"/>
    <path d="M237.01 346.652L277.214 369.855L274.403 371.475L234.028 348.367L237.01 346.652Z" fill="#E0E0E0"/>
    <path d="M414.33 244.442L346.339 283.711L343.347 285.427L343.051 285.598L310.404 304.447V304.457H310.395L307.412 306.172H307.403L273.783 325.602L270.791 327.317L237.172 346.738L234.18 348.462L227.271 352.455L224.279 350.73L40.2036 244.442L76.8625 223.277L195.854 154.572L227.271 136.438L414.33 244.442Z" fill="#689AC8"/>
    <path opacity="0.3" d="M414.33 244.442L346.339 283.711L343.347 285.427L343.051 285.598L310.404 304.447V304.457H310.395L307.412 306.172H307.403L273.783 325.602L270.791 327.317L237.172 346.738L234.18 348.462L227.271 352.455L224.279 350.73L40.2036 244.442L76.8625 223.277L195.854 154.572L227.271 136.438L414.33 244.442Z" fill="white"/>
    <path d="M346.653 287.342L313.901 306.477L310.252 304.361L307.402 302.722L280.997 287.475L278.167 285.846L257.536 273.934L290.488 254.905L311.119 266.816L314.092 268.531L340.364 283.711L343.347 285.427L346.653 287.342Z" fill="#F5F5F5"/>
    <path d="M414.339 244.442L454.533 267.655L414.339 244.442Z" fill="#F5F5F5"/>
    <path d="M273.707 325.554L313.901 348.758L311.09 350.378L270.715 327.279L273.707 325.554Z" fill="#E0E0E0"/>
    <path d="M224.289 350.73L184.085 373.934L186.896 375.554L227.271 352.455L224.289 350.73Z" fill="#E0E0E0"/>
    <path d="M187.239 329.385L147.045 352.589L149.856 354.218L190.232 331.11L187.239 329.385Z" fill="#E0E0E0"/>
    <path d="M150.199 308.04L110.005 331.243L112.816 332.873L153.191 309.764L150.199 308.04Z" fill="#E0E0E0"/>
    <path d="M113.159 286.694L72.9651 309.898L75.7762 311.527L116.151 288.419L113.159 286.694Z" fill="#E0E0E0"/>
    <path d="M76.1192 265.349L35.925 288.552L38.7362 290.182L79.1019 267.073L76.1192 265.349Z" fill="#E0E0E0"/>
    <path d="M346.339 283.702L386.533 306.915L383.722 308.535L343.347 285.427L346.339 283.702Z" fill="#E0E0E0"/>
    <path d="M383.026 262.604L423.221 285.817L420.419 287.437L380.044 264.329L383.026 262.604Z" fill="#E0E0E0"/>
    <path d="M310.395 304.457L350.598 327.66L347.787 329.29L307.412 306.181L310.395 304.457Z" fill="#E0E0E0"/>
    <path d="M343.347 285.427L310.252 304.361L307.403 302.722L340.364 283.711L343.347 285.427Z" fill="#E0E0E0"/>
    <path d="M314.092 268.531L280.997 287.475L278.167 285.846L311.119 266.816L314.092 268.531Z" fill="#E0E0E0"/>
    <g opacity="0.1">
        <path opacity="0.1" d="M330.073 232.063L327.052 233.683L294.09 252.703L210.967 300.702L76.8625 223.277L195.854 154.572L330.073 232.063Z" fill="black"/>
    </g>
    <path opacity="0.1" d="M260.805 374.553C272.662 374.553 282.274 369.003 282.274 362.156C282.274 355.309 272.662 349.758 260.805 349.758C248.948 349.758 239.336 355.309 239.336 362.156C239.336 369.003 248.948 374.553 260.805 374.553Z" fill="black"/>
    <path opacity="0.1" d="M197.159 376.602C209.016 376.602 218.629 371.052 218.629 364.205C218.629 357.358 209.016 351.807 197.159 351.807C185.302 351.807 175.69 357.358 175.69 364.205C175.69 371.052 185.302 376.602 197.159 376.602Z" fill="black"/>
    <g opacity="0.1">
        <path opacity="0.1" d="M380.53 236.523C383.388 238.19 383.388 240.878 380.53 242.536C378.915 243.353 377.131 243.779 375.322 243.779C373.513 243.779 371.729 243.353 370.114 242.536C367.256 240.878 367.256 238.19 370.114 236.523C371.729 235.705 373.513 235.28 375.322 235.28C377.131 235.28 378.915 235.705 380.53 236.523Z" fill="black"/>
    </g>
    <g opacity="0.1">
        <path opacity="0.1" d="M350.217 274.135C353.076 275.802 353.076 278.489 350.217 280.148C348.605 280.965 346.822 281.392 345.014 281.392C343.206 281.392 341.424 280.965 339.811 280.148C336.953 278.489 336.953 275.802 339.811 274.135C341.424 273.317 343.206 272.891 345.014 272.891C346.822 272.891 348.605 273.317 350.217 274.135Z" fill="black"/>
    </g>
    <g opacity="0.1">
        <path opacity="0.1" d="M86.6872 249.149C89.5459 250.807 89.5459 253.504 86.6872 255.162C85.0729 255.979 83.2889 256.405 81.4795 256.405C79.6701 256.405 77.8861 255.979 76.2718 255.162C73.413 253.504 73.413 250.807 76.2718 249.149C77.8861 248.332 79.6701 247.906 81.4795 247.906C83.2889 247.906 85.0729 248.332 86.6872 249.149Z" fill="black"/>
    </g>
    <path d="M92.2903 151.293V225.278L211.053 293.841V193.384L115.189 137.686L92.2903 151.293Z" fill="#EBEBEB"/>
    <path d="M323.145 128.671V229.119L283.57 251.96L250.618 270.99L211.053 293.841V193.394L269.667 116.112L323.145 128.671Z" fill="#FAFAFA"/>
    <path d="M283.57 180.577V251.96L250.618 271.019V199.607C250.742 193.721 252.157 187.933 254.763 182.654C254.992 182.178 255.221 181.701 255.468 181.253C258.432 175.536 262.558 170.771 267.094 168.141C269.061 166.918 271.316 166.235 273.631 166.159C279.482 166.131 283.57 171.543 283.57 180.577Z" fill="#689AC8"/>
    <path opacity="0.3" d="M283.57 180.577V251.96L250.618 271.019V199.607C250.742 193.721 252.157 187.933 254.763 182.654C254.992 182.178 255.221 181.701 255.468 181.253C258.432 175.536 262.558 170.771 267.094 168.141C269.061 166.918 271.316 166.235 273.631 166.159C279.482 166.131 283.57 171.543 283.57 180.577Z" fill="black"/>
    <path d="M280.673 178.318L271.697 183.493L269.067 185.017L267.876 185.704L266.322 186.656L264.922 187.457L263.406 188.334L253.258 194.146C253.782 190.554 254.829 187.058 256.364 183.769C256.378 183.733 256.394 183.698 256.412 183.664C256.612 183.216 256.831 182.778 257.05 182.359C257.062 182.32 257.081 182.284 257.108 182.254C257.451 181.577 257.813 180.929 258.194 180.291C260.048 177.063 262.491 174.212 265.398 171.886C265.703 171.667 266.008 171.448 266.351 171.248C266.694 171.048 266.77 170.962 266.989 170.828L267.39 170.59C267.571 170.485 267.742 170.39 267.904 170.314C271.154 168.57 274.136 168.465 276.48 169.685C276.786 169.835 277.076 170.014 277.348 170.219L277.776 170.533L277.891 170.638C278.097 170.876 278.288 171.128 278.463 171.391C279.763 173.481 280.522 175.862 280.673 178.318Z" fill="#FAFAFA"/>
    <path d="M281.674 179.329L270.41 185.847L266.351 188.191L266.236 188.257L264.731 189.125L253.096 195.843C253.143 195.28 253.21 194.709 253.286 194.146L263.435 188.286L264.95 187.409L266.351 186.609L267.904 185.656L269.095 184.97L271.725 183.445L280.702 178.271C280.549 175.817 279.79 173.44 278.491 171.353C278.317 171.09 278.126 170.838 277.919 170.6V170.533C278.168 170.74 278.404 170.963 278.624 171.2C280.235 173.039 281.35 175.784 281.674 179.329Z" fill="#689AC8"/>
    <path opacity="0.6" d="M281.674 179.329L270.41 185.847L266.351 188.191L266.236 188.257L264.731 189.125L253.096 195.843C253.143 195.28 253.21 194.709 253.286 194.146L263.435 188.286L264.95 187.409L266.351 186.609L267.904 185.656L269.095 184.97L271.725 183.445L280.702 178.271C280.549 175.817 279.79 173.44 278.491 171.353C278.317 171.09 278.126 170.838 277.919 170.6V170.533C278.168 170.74 278.404 170.963 278.624 171.2C280.235 173.039 281.35 175.784 281.674 179.329Z" fill="black"/>
    <path d="M265.293 187.79L263.883 188.6L263.787 188.658L263.302 188.343L262.492 187.819L256.364 183.769C256.378 183.733 256.394 183.698 256.412 183.664C256.612 183.216 256.831 182.778 257.05 182.359L264.007 186.942L264.817 187.466L265.293 187.79Z" fill="#689AC8"/>
    <path opacity="0.6" d="M265.293 187.79L263.883 188.6L263.787 188.658L263.302 188.343L262.492 187.819L256.364 183.769C256.378 183.733 256.394 183.698 256.412 183.664C256.612 183.216 256.831 182.778 257.05 182.359L264.007 186.942L264.817 187.466L265.293 187.79Z" fill="black"/>
    <path d="M277.767 170.533L277.633 170.781L277.547 170.933L270.782 183.026L269.962 184.503L269.467 185.38L268.571 185.894L267.875 186.304L266.322 187.2L265.369 187.724V171.886C265.674 171.667 265.979 171.448 266.322 171.248C266.665 171.048 266.741 170.962 266.961 170.828V186.675L267.323 186.018L267.875 185.065L268.152 184.579L276.471 169.714C276.776 169.864 277.066 170.043 277.338 170.247L277.767 170.533Z" fill="#689AC8"/>
    <path opacity="0.6" d="M277.767 170.533L277.633 170.781L277.547 170.933L270.782 183.026L269.962 184.503L269.467 185.38L268.571 185.894L267.875 186.304L266.322 187.2L265.369 187.724V171.886C265.674 171.667 265.979 171.448 266.322 171.248C266.665 171.048 266.741 170.962 266.961 170.828V186.675L267.323 186.018L267.875 185.065L268.152 184.579L276.471 169.714C276.776 169.864 277.066 170.043 277.338 170.247L277.767 170.533Z" fill="black"/>
    <path d="M266.208 188.257L264.702 189.125L263.883 188.6L263.406 188.286L256.412 183.664C256.612 183.216 256.831 182.778 257.05 182.359L256.622 182.073L256.679 181.968L257.108 182.254L264.921 187.409L265.398 187.724L266.208 188.257Z" fill="#689AC8"/>
    <path d="M278.31 171.019C278.167 170.886 278.024 170.752 277.881 170.638C277.885 170.616 277.885 170.593 277.881 170.571L278.31 171.019Z" fill="#455A64"/>
    <path d="M278.539 171.219L278.453 171.372L271.697 183.474L270.41 185.846L266.351 188.191V171.219C266.56 171.067 266.77 170.933 266.989 170.8L267.39 170.562C267.571 170.457 267.742 170.362 267.904 170.285V187.114L268.6 185.866L269.095 184.989L277.338 170.266L277.767 170.581L277.881 170.686V170.619C278.112 170.806 278.331 171.007 278.539 171.219Z" fill="#689AC8"/>
    <path opacity="0.3" d="M278.539 171.219L278.453 171.372L271.697 183.474L270.41 185.846L266.351 188.191V171.219C266.56 171.067 266.77 170.933 266.989 170.8L267.39 170.562C267.571 170.457 267.742 170.362 267.904 170.285V187.114L268.6 185.866L269.095 184.989L277.338 170.266L277.767 170.581L277.881 170.686V170.619C278.112 170.806 278.331 171.007 278.539 171.219Z" fill="black"/>
    <path opacity="0.3" d="M266.208 188.257L264.702 189.125L263.883 188.6L263.406 188.286L256.412 183.664C256.612 183.216 256.831 182.778 257.05 182.359L256.622 182.073L256.679 181.968L257.108 182.254L264.921 187.409L265.398 187.724L266.208 188.257Z" fill="black"/>
    <path d="M255.163 227.842C255.122 227.85 255.08 227.85 255.039 227.842C255.002 227.818 254.972 227.786 254.95 227.748C254.928 227.709 254.917 227.667 254.916 227.623V202.666C254.917 202.622 254.928 202.579 254.95 202.541C254.972 202.502 255.002 202.47 255.039 202.446L265.426 196.453C265.463 196.429 265.506 196.416 265.55 196.416C265.594 196.416 265.637 196.429 265.674 196.453C265.713 196.474 265.747 196.506 265.77 196.544C265.793 196.583 265.806 196.627 265.807 196.672V221.572C265.805 221.616 265.791 221.659 265.768 221.698C265.744 221.736 265.712 221.768 265.674 221.791L255.297 227.785C255.257 227.813 255.211 227.832 255.163 227.842ZM255.421 202.828V227.146L265.293 221.429V197.129L255.421 202.828Z" fill="#689AC8"/>
    <path d="M268.638 220.075C268.597 220.088 268.554 220.088 268.514 220.075C268.475 220.054 268.442 220.022 268.42 219.983C268.399 219.945 268.388 219.901 268.39 219.856V194.928C268.389 194.882 268.4 194.837 268.422 194.797C268.444 194.757 268.475 194.723 268.514 194.699L278.901 188.705C278.939 188.687 278.982 188.677 279.024 188.677C279.067 188.677 279.11 188.687 279.148 188.705C279.188 188.727 279.221 188.759 279.244 188.797C279.268 188.835 279.281 188.879 279.282 188.924V213.824C279.284 213.87 279.272 213.915 279.249 213.954C279.225 213.993 279.19 214.024 279.148 214.043L268.771 220.037C268.732 220.064 268.685 220.077 268.638 220.075ZM268.895 195.071V219.38L278.767 213.662V189.372L268.895 195.071Z" fill="#689AC8"/>
    <path d="M255.164 257.935C255.123 257.944 255.08 257.944 255.04 257.935C255.003 257.911 254.972 257.879 254.95 257.841C254.929 257.803 254.917 257.76 254.916 257.716V232.825C254.914 232.781 254.924 232.737 254.946 232.698C254.968 232.659 255.001 232.628 255.04 232.606L265.426 226.612C265.463 226.589 265.506 226.576 265.55 226.576C265.594 226.576 265.637 226.589 265.674 226.612C265.714 226.633 265.748 226.665 265.771 226.703C265.795 226.742 265.808 226.786 265.808 226.832V251.722C265.806 251.768 265.793 251.813 265.77 251.853C265.747 251.893 265.714 251.927 265.674 251.951L255.287 257.935C255.246 257.943 255.204 257.943 255.164 257.935ZM255.421 232.93V257.239L265.293 251.522V227.27L255.421 232.93Z" fill="#689AC8"/>
    <path d="M268.638 250.216C268.597 250.229 268.554 250.229 268.514 250.216C268.475 250.194 268.444 250.162 268.422 250.124C268.4 250.085 268.389 250.041 268.39 249.997V225.059C268.391 225.015 268.403 224.972 268.424 224.934C268.446 224.896 268.477 224.864 268.514 224.84L278.901 218.846C278.938 218.822 278.981 218.81 279.025 218.81C279.068 218.81 279.111 218.822 279.148 218.846C279.188 218.868 279.221 218.899 279.244 218.938C279.268 218.976 279.281 219.02 279.282 219.065V243.965C279.281 244.01 279.268 244.054 279.244 244.093C279.221 244.131 279.188 244.163 279.148 244.184L268.771 250.178C268.732 250.205 268.685 250.218 268.638 250.216ZM268.895 225.212V249.521L278.767 243.803V219.504L268.895 225.212Z" fill="#689AC8"/>
    <path d="M278.253 221.152C278.027 221.155 277.807 221.082 277.627 220.945C277.446 220.809 277.317 220.617 277.258 220.398C277.199 220.18 277.214 219.949 277.301 219.74C277.388 219.532 277.542 219.358 277.738 219.246L281.054 217.341L280.197 216.845C280.082 216.779 279.981 216.69 279.9 216.585C279.819 216.48 279.759 216.359 279.725 216.231C279.69 216.103 279.681 215.969 279.699 215.837C279.716 215.705 279.759 215.578 279.825 215.463C279.891 215.348 279.98 215.247 280.085 215.166C280.19 215.085 280.311 215.026 280.439 214.991C280.567 214.957 280.701 214.948 280.833 214.965C280.965 214.982 281.092 215.025 281.207 215.092L283.599 216.464C283.753 216.554 283.881 216.682 283.97 216.837C284.059 216.992 284.106 217.167 284.106 217.345C284.106 217.524 284.059 217.699 283.97 217.854C283.881 218.008 283.753 218.137 283.599 218.227L278.758 221.019C278.605 221.109 278.43 221.156 278.253 221.152Z" fill="#263238"/>
    <path d="M323.135 221.743L316.684 225.498V218.112L323.135 214.358V221.743Z" fill="#E0E0E0"/>
    <path d="M323.135 206.973L316.684 210.727V203.342L323.135 199.588V206.973Z" fill="#E0E0E0"/>
    <path d="M323.135 192.212L316.684 195.966V188.581L323.135 184.827V192.212Z" fill="#E0E0E0"/>
    <path d="M323.135 177.442L316.684 181.196V173.811L323.135 170.057V177.442Z" fill="#E0E0E0"/>
    <path d="M323.135 162.681L316.684 166.436V159.05L323.135 155.296V162.681Z" fill="#E0E0E0"/>
    <path d="M323.135 147.911L316.684 151.665V144.28L323.135 140.526V147.911Z" fill="#E0E0E0"/>
    <path d="M323.135 133.15L316.684 136.905V129.519L323.135 125.765V133.15Z" fill="#E0E0E0"/>
    <path d="M217.504 282.701L211.053 286.456V279.071L217.504 275.316V282.701Z" fill="#E0E0E0"/>
    <path d="M217.504 267.941L211.053 271.686V264.31L217.504 260.556V267.941Z" fill="#E0E0E0"/>
    <path d="M217.504 253.17L211.053 256.925V249.54L217.504 245.785V253.17Z" fill="#E0E0E0"/>
    <path d="M217.504 238.4L211.053 242.155V234.779L217.504 231.024V238.4Z" fill="#E0E0E0"/>
    <path d="M217.504 223.639L211.053 227.394V220.009L217.504 216.254V223.639Z" fill="#E0E0E0"/>
    <path d="M217.504 208.879L211.053 212.624V205.248L217.504 201.494V208.879Z" fill="#E0E0E0"/>
    <path d="M217.504 194.108L211.053 197.863V190.478L217.504 186.723V194.108Z" fill="#E0E0E0"/>
    <path d="M204.592 275.316L211.053 279.071V271.686L204.592 267.941V275.316Z" fill="#E0E0E0"/>
    <path d="M204.592 290.086L211.053 293.841V286.456L204.592 282.701V290.086Z" fill="#E0E0E0"/>
    <path d="M204.592 260.556L211.053 264.31V256.925L204.592 253.17V260.556Z" fill="#E0E0E0"/>
    <path d="M204.592 245.785L211.053 249.54V242.155L204.592 238.4V245.785Z" fill="#E0E0E0"/>
    <path d="M204.592 231.024L211.053 234.779V227.394L204.592 223.639V231.024Z" fill="#E0E0E0"/>
    <path d="M204.592 216.254L211.053 220.009V212.624L204.592 208.879V216.254Z" fill="#E0E0E0"/>
    <path d="M204.592 201.494L211.053 205.248V197.863L204.592 194.108V201.494Z" fill="#E0E0E0"/>
    <path d="M204.592 186.723L211.053 190.478V183.102L204.592 179.348V186.723Z" fill="#E0E0E0"/>
    <path d="M92.2903 210.508L98.7511 214.263V206.878L92.2903 203.123V210.508Z" fill="#E0E0E0"/>
    <path d="M92.2903 225.278L98.7511 229.023V221.648L92.2903 217.893V225.278Z" fill="#E0E0E0"/>
    <path d="M92.2903 195.747L98.7511 199.492V192.117L92.2903 188.362V195.747Z" fill="#E0E0E0"/>
    <path d="M92.2903 180.977L98.7511 184.732V177.346L92.2903 173.592V180.977Z" fill="#E0E0E0"/>
    <path d="M92.2903 166.216L98.7511 169.971V162.586L92.2903 158.831V166.216Z" fill="#E0E0E0"/>
    <path d="M140.613 198.53V231.758L118.505 218.989V185.751L140.613 198.53Z" fill="#FAFAFA"/>
    <path d="M119.696 202.932L140.613 215.006V198.53L119.696 186.447V202.932Z" fill="#689AC8"/>
    <path opacity="0.6" d="M119.696 202.932L140.613 215.006V198.53L119.696 186.447V202.932Z" fill="white"/>
    <path d="M120.22 217.979V203.923L140.613 215.692V213.986L120.22 202.208V186.742L118.496 185.751V218.989L140.613 231.758V229.757L120.22 217.979Z" fill="#689AC8"/>
    <path opacity="0.2" d="M120.22 217.979V203.923L140.613 215.692V213.986L120.22 202.208V186.742L118.496 185.751V218.989L140.613 231.758V229.757L120.22 217.979Z" fill="black"/>
    <path d="M184.838 224.068V257.296L162.73 244.537V211.299L184.838 224.068Z" fill="#FAFAFA"/>
    <path d="M163.921 228.471L184.838 240.544V224.068L163.921 211.985V228.471Z" fill="#689AC8"/>
    <path opacity="0.6" d="M163.921 228.471L184.838 240.544V224.068L163.921 211.985V228.471Z" fill="white"/>
    <path d="M164.445 243.527V229.462L184.838 241.24V239.534L164.445 227.756V212.29L162.73 211.299V244.527L184.848 257.296V255.305L164.445 243.527Z" fill="#689AC8"/>
    <path opacity="0.2" d="M164.445 243.527V229.462L184.838 241.24V239.534L164.445 227.756V212.29L162.73 211.299V244.527L184.848 257.296V255.305L164.445 243.527Z" fill="black"/>
    <path d="M289.211 185.751V218.98L311.319 206.21V172.973L289.211 185.751Z" fill="#FAFAFA"/>
    <path d="M310.118 190.154L289.211 202.227V185.751L310.118 173.668V190.154Z" fill="#689AC8"/>
    <path opacity="0.8" d="M310.118 190.154L289.211 202.227V185.751L310.118 173.668V190.154Z" fill="white"/>
    <path d="M309.604 205.21V173.973L311.319 172.982V206.211L289.202 218.98V216.988L309.604 205.21Z" fill="#689AC8"/>
    <path d="M289.211 201.208V202.923L310.909 190.392V188.677L289.211 201.208Z" fill="#689AC8"/>
    <path d="M222.869 224.068V257.296L244.977 244.537V211.299L222.869 224.068Z" fill="#FAFAFA"/>
    <path d="M243.785 228.471L222.869 240.544V224.068L243.785 211.985V228.471Z" fill="#689AC8"/>
    <path opacity="0.8" d="M243.785 228.471L222.869 240.544V224.068L243.785 211.985V228.471Z" fill="white"/>
    <path d="M243.261 243.527V212.29L244.986 211.299V244.527L222.869 257.296V255.305L243.261 243.527Z" fill="#689AC8"/>
    <path d="M222.869 239.534V241.24L244.576 228.709V227.003L222.869 239.534Z" fill="#689AC8"/>
    <path d="M189.26 218.98L199.837 211.566L268.638 123.306L330.711 137.276L338.087 133.045L268.028 116.684L189.26 218.98Z" fill="#455A64"/>
    <path d="M268.028 116.683L156.231 53.8384L78.0156 154.762L189.26 218.979L268.028 116.683Z" fill="#263238"/>
    <path d="M268.028 116.683L338.087 133.045L226.052 70.2L156.231 53.8384L268.028 116.683Z" fill="#37474F"/>
    <path d="M107.527 258.802L103.554 261.108C104.749 256.94 105.054 252.566 104.449 248.272C104.184 246.754 103.634 245.299 102.829 243.984C102.525 243.336 100.123 239.315 102.239 237.466C104.354 235.618 109.29 239.296 109.071 249.216C108.963 252.464 108.445 255.685 107.527 258.802Z" fill="#689AC8"/>
    <path opacity="0.5" d="M107.527 258.802L103.554 261.108C104.749 256.94 105.054 252.566 104.449 248.272C104.184 246.754 103.634 245.299 102.829 243.984C102.525 243.336 100.123 239.315 102.239 237.466C104.354 235.618 109.29 239.296 109.071 249.216C108.963 252.464 108.445 255.685 107.527 258.802Z" fill="black"/>
    <path d="M105.689 260.07H105.612C105.565 260.048 105.527 260.01 105.506 259.963C105.484 259.915 105.482 259.862 105.498 259.812C106.559 256.325 107.036 252.687 106.908 249.044C106.832 242.469 103.402 238.981 103.373 238.953C103.337 238.914 103.317 238.863 103.317 238.81C103.317 238.757 103.337 238.706 103.373 238.667C103.41 238.631 103.46 238.612 103.511 238.612C103.563 238.612 103.612 238.631 103.649 238.667C103.649 238.667 107.232 242.298 107.308 249.035C107.429 252.729 106.943 256.418 105.87 259.955C105.853 259.989 105.828 260.018 105.796 260.039C105.764 260.059 105.726 260.07 105.689 260.07Z" fill="white"/>
    <path d="M104.449 260.603L97.9315 264.472C97.9315 264.472 94.9203 264.024 95.149 261.194C95.3777 258.364 96.5974 257.697 95.0823 256.429C93.5671 255.162 93.1764 255.095 93.2431 253.885C93.3681 253.003 93.8248 252.202 94.52 251.646C94.9455 251.297 95.2448 250.818 95.3722 250.283C95.4996 249.747 95.4479 249.185 95.2252 248.682C94.4629 247.215 93.4432 245.823 94.9584 245.118C95.9113 244.718 97.3979 245.223 98.408 246.29C99.1531 247.238 100.141 247.965 101.267 248.396C102.22 248.644 104.23 248.663 104.125 250.302C104.021 251.941 103.63 252.532 104.03 253.266C104.726 254.685 107.956 255.429 104.449 260.603Z" fill="#689AC8"/>
    <path opacity="0.2" d="M104.449 260.603L97.9315 264.472C97.9315 264.472 94.9203 264.024 95.149 261.194C95.3777 258.364 96.5974 257.697 95.0823 256.429C93.5671 255.162 93.1764 255.095 93.2431 253.885C93.3681 253.003 93.8248 252.202 94.52 251.646C94.9455 251.297 95.2448 250.818 95.3722 250.283C95.4996 249.747 95.4479 249.185 95.2252 248.682C94.4629 247.215 93.4432 245.823 94.9584 245.118C95.9113 244.718 97.3979 245.223 98.408 246.29C99.1531 247.238 100.141 247.965 101.267 248.396C102.22 248.644 104.23 248.663 104.125 250.302C104.021 251.941 103.63 252.532 104.03 253.266C104.726 254.685 107.956 255.429 104.449 260.603Z" fill="black"/>
    <path d="M101.743 262.376C101.717 262.374 101.692 262.368 101.669 262.357C101.645 262.345 101.624 262.329 101.608 262.31C101.591 262.29 101.578 262.267 101.57 262.243C101.562 262.218 101.56 262.192 101.562 262.166C101.562 262.071 102.267 252.456 95.5969 246.147C95.5613 246.11 95.5415 246.061 95.5415 246.009C95.5415 245.958 95.5613 245.908 95.5969 245.871C95.6357 245.835 95.6867 245.815 95.7398 245.815C95.7929 245.815 95.8439 245.835 95.8827 245.871C102.687 252.303 101.972 262.071 101.962 262.204C101.955 262.255 101.928 262.302 101.887 262.334C101.847 262.366 101.795 262.381 101.743 262.376Z" fill="white"/>
    <path d="M100.6 253.99C100.573 253.987 100.548 253.98 100.524 253.968C100.501 253.955 100.48 253.938 100.464 253.918C100.447 253.898 100.434 253.874 100.426 253.849C100.419 253.824 100.416 253.797 100.419 253.771C100.467 252.962 100.684 252.172 101.055 251.452C101.426 250.732 101.942 250.097 102.572 249.587C102.616 249.56 102.669 249.549 102.72 249.558C102.771 249.567 102.817 249.594 102.849 249.635C102.884 249.672 102.904 249.722 102.904 249.773C102.904 249.825 102.884 249.874 102.849 249.911C102.275 250.394 101.803 250.986 101.463 251.654C101.122 252.322 100.92 253.052 100.867 253.799C100.865 253.831 100.856 253.861 100.841 253.889C100.826 253.917 100.805 253.941 100.779 253.959C100.753 253.977 100.724 253.989 100.693 253.995C100.662 254 100.63 253.999 100.6 253.99Z" fill="white"/>
    <path d="M101.086 255.657C101.057 255.658 101.028 255.653 101.002 255.642C100.976 255.63 100.952 255.613 100.933 255.591C100.933 255.591 99.2753 253.809 95.5303 254.323C95.4786 254.332 95.4256 254.319 95.3829 254.289C95.3401 254.259 95.3109 254.213 95.3016 254.161C95.2976 254.135 95.2989 254.108 95.3053 254.082C95.3118 254.056 95.3234 254.032 95.3393 254.011C95.3553 253.99 95.3754 253.972 95.3984 253.958C95.4213 253.945 95.4468 253.936 95.4732 253.933C99.4373 253.389 101.191 255.248 101.191 255.324C101.227 255.363 101.247 255.414 101.247 255.467C101.247 255.52 101.227 255.571 101.191 255.61C101.16 255.634 101.124 255.651 101.086 255.657Z" fill="white"/>
    <path d="M158.823 288.333L154.849 290.649C156.045 286.477 156.35 282.101 155.745 277.803C155.48 276.285 154.93 274.83 154.125 273.515C153.82 272.867 151.419 268.855 153.525 266.997C155.631 265.139 160.586 268.827 160.367 278.747C160.26 281.995 159.742 285.216 158.823 288.333Z" fill="#689AC8"/>
    <path opacity="0.5" d="M158.823 288.333L154.849 290.649C156.045 286.477 156.35 282.101 155.745 277.803C155.48 276.285 154.93 274.83 154.125 273.515C153.82 272.867 151.419 268.855 153.525 266.997C155.631 265.139 160.586 268.827 160.367 278.747C160.26 281.995 159.742 285.216 158.823 288.333Z" fill="black"/>
    <path d="M157.013 289.61H156.937C156.889 289.589 156.851 289.551 156.83 289.503C156.809 289.456 156.806 289.402 156.822 289.353C157.884 285.863 158.36 282.221 158.232 278.575C158.156 272.01 154.726 268.522 154.697 268.484C154.661 268.445 154.641 268.394 154.641 268.341C154.641 268.288 154.661 268.237 154.697 268.198C154.734 268.162 154.784 268.143 154.835 268.143C154.887 268.143 154.936 268.162 154.973 268.198C154.973 268.198 158.556 271.829 158.633 278.575C158.755 282.267 158.269 285.953 157.194 289.486C157.18 289.523 157.155 289.555 157.123 289.577C157.09 289.599 157.052 289.611 157.013 289.61Z" fill="white"/>
    <path d="M155.745 290.144L149.18 294.003C149.18 294.003 146.168 293.555 146.397 290.734C146.626 287.914 147.845 287.237 146.33 285.97C144.815 284.702 144.424 284.645 144.491 283.426C144.613 282.545 145.07 281.746 145.768 281.196C146.193 280.844 146.492 280.364 146.619 279.827C146.746 279.291 146.695 278.727 146.473 278.223C145.711 276.755 144.691 275.364 146.206 274.659C147.159 274.258 148.646 274.763 149.656 275.84C150.385 276.782 151.357 277.507 152.467 277.937C153.42 278.184 155.431 278.204 155.326 279.843C155.221 281.482 154.83 282.063 155.231 282.797C156.06 284.226 159.252 284.969 155.745 290.144Z" fill="#689AC8"/>
    <path opacity="0.2" d="M155.745 290.144L149.18 294.003C149.18 294.003 146.168 293.555 146.397 290.734C146.626 287.914 147.845 287.237 146.33 285.97C144.815 284.702 144.424 284.645 144.491 283.426C144.613 282.545 145.07 281.746 145.768 281.196C146.193 280.844 146.492 280.364 146.619 279.827C146.746 279.291 146.695 278.727 146.473 278.223C145.711 276.755 144.691 275.364 146.206 274.659C147.159 274.258 148.646 274.763 149.656 275.84C150.385 276.782 151.357 277.507 152.467 277.937C153.42 278.184 155.431 278.204 155.326 279.843C155.221 281.482 154.83 282.063 155.231 282.797C156.06 284.226 159.252 284.969 155.745 290.144Z" fill="black"/>
    <path d="M153.068 291.916C153.041 291.914 153.016 291.906 152.992 291.894C152.969 291.881 152.948 291.865 152.932 291.844C152.915 291.824 152.902 291.8 152.894 291.775C152.887 291.75 152.884 291.723 152.887 291.697C152.887 291.602 153.592 281.987 146.921 275.688C146.902 275.669 146.887 275.647 146.877 275.622C146.867 275.598 146.861 275.571 146.861 275.545C146.861 275.518 146.867 275.492 146.877 275.467C146.887 275.443 146.902 275.421 146.921 275.402C146.959 275.366 147.008 275.347 147.06 275.347C147.111 275.347 147.161 275.366 147.198 275.402C154.011 281.834 153.296 291.602 153.287 291.725C153.282 291.779 153.257 291.829 153.216 291.865C153.175 291.9 153.122 291.919 153.068 291.916Z" fill="white"/>
    <path d="M151.896 283.521C151.844 283.516 151.797 283.492 151.763 283.452C151.729 283.413 151.712 283.363 151.715 283.311C151.762 282.502 151.978 281.712 152.348 280.992C152.719 280.271 153.237 279.636 153.868 279.128C153.889 279.112 153.913 279.1 153.939 279.094C153.964 279.088 153.991 279.087 154.017 279.091C154.043 279.096 154.068 279.105 154.09 279.12C154.112 279.135 154.13 279.153 154.145 279.176C154.174 279.219 154.186 279.272 154.177 279.324C154.168 279.375 154.139 279.421 154.097 279.452C153.52 279.932 153.047 280.524 152.707 281.192C152.366 281.861 152.165 282.591 152.115 283.34C152.112 283.366 152.105 283.392 152.093 283.415C152.08 283.439 152.063 283.459 152.043 283.476C152.023 283.493 151.999 283.506 151.974 283.513C151.949 283.521 151.922 283.524 151.896 283.521Z" fill="white"/>
    <path d="M152.382 285.188C152.325 285.19 152.271 285.169 152.229 285.131C152.229 285.131 150.571 283.349 146.826 283.864C146.8 283.868 146.773 283.867 146.747 283.86C146.721 283.854 146.697 283.842 146.676 283.826C146.654 283.81 146.637 283.79 146.623 283.767C146.61 283.744 146.601 283.719 146.597 283.692C146.593 283.667 146.595 283.64 146.601 283.615C146.608 283.59 146.62 283.566 146.636 283.546C146.652 283.525 146.672 283.508 146.695 283.496C146.718 283.483 146.743 283.475 146.769 283.473C150.733 282.93 152.487 284.779 152.487 284.864C152.522 284.902 152.542 284.951 152.542 285.003C152.542 285.054 152.522 285.104 152.487 285.141C152.458 285.168 152.421 285.184 152.382 285.188Z" fill="white"/>
    <path d="M339.678 256.982L335.705 259.288C336.9 255.116 337.205 250.74 336.6 246.443C336.332 244.925 335.782 243.471 334.98 242.155C334.666 241.507 332.274 237.495 334.38 235.646C336.486 233.797 341.441 237.476 341.222 247.396C341.114 250.643 340.596 253.865 339.678 256.982Z" fill="#689AC8"/>
    <path opacity="0.5" d="M339.678 256.982L335.705 259.288C336.9 255.116 337.205 250.74 336.6 246.443C336.332 244.925 335.782 243.471 334.98 242.155C334.666 241.507 332.274 237.495 334.38 235.646C336.486 233.797 341.441 237.476 341.222 247.396C341.114 250.643 340.596 253.865 339.678 256.982Z" fill="black"/>
    <path d="M337.829 258.211H337.763C337.714 258.192 337.674 258.154 337.653 258.106C337.631 258.058 337.63 258.003 337.648 257.954C338.704 254.466 339.18 250.828 339.059 247.186C338.983 240.601 335.552 237.123 335.523 237.085C335.505 237.067 335.49 237.046 335.48 237.022C335.469 236.998 335.464 236.973 335.464 236.947C335.464 236.921 335.469 236.895 335.48 236.872C335.49 236.848 335.505 236.827 335.523 236.809C335.562 236.773 335.613 236.752 335.666 236.752C335.719 236.752 335.77 236.773 335.809 236.809C335.809 236.809 339.392 240.439 339.469 247.176C339.594 250.865 339.121 254.55 338.068 258.087C338.05 258.134 338.016 258.172 337.972 258.195C337.928 258.218 337.877 258.224 337.829 258.211Z" fill="white"/>
    <path d="M336.6 258.745L330.034 262.557C330.034 262.557 327.023 262.118 327.252 259.288C327.481 256.458 328.7 255.791 327.176 254.523C325.651 253.256 325.27 253.199 325.337 251.979C325.469 251.103 325.925 250.307 326.613 249.749C327.042 249.402 327.343 248.924 327.47 248.388C327.598 247.851 327.545 247.288 327.319 246.786C326.566 245.309 325.537 243.927 327.061 243.222C328.014 242.822 329.501 243.317 330.511 244.394C331.239 245.336 332.211 246.061 333.322 246.49C334.275 246.748 336.286 246.767 336.181 248.396C336.076 250.026 335.676 250.626 336.085 251.36C336.876 252.827 340.107 253.571 336.6 258.745Z" fill="#689AC8"/>
    <path opacity="0.2" d="M336.6 258.745L330.034 262.557C330.034 262.557 327.023 262.118 327.252 259.288C327.481 256.458 328.7 255.791 327.176 254.523C325.651 253.256 325.27 253.199 325.337 251.979C325.469 251.103 325.925 250.307 326.613 249.749C327.042 249.402 327.343 248.924 327.47 248.388C327.598 247.851 327.545 247.288 327.319 246.786C326.566 245.309 325.537 243.927 327.061 243.222C328.014 242.822 329.501 243.317 330.511 244.394C331.239 245.336 332.211 246.061 333.322 246.49C334.275 246.748 336.286 246.767 336.181 248.396C336.076 250.026 335.676 250.626 336.085 251.36C336.876 252.827 340.107 253.571 336.6 258.745Z" fill="black"/>
    <path d="M333.922 260.517C333.896 260.515 333.87 260.507 333.847 260.495C333.823 260.483 333.803 260.466 333.786 260.446C333.769 260.425 333.756 260.402 333.749 260.376C333.741 260.351 333.738 260.324 333.741 260.298C333.741 260.203 334.446 250.588 327.785 244.289C327.76 244.274 327.738 244.253 327.721 244.228C327.705 244.203 327.694 244.175 327.69 244.145C327.685 244.116 327.688 244.086 327.697 244.057C327.706 244.029 327.721 244.002 327.741 243.981C327.762 243.959 327.787 243.942 327.815 243.931C327.842 243.92 327.872 243.915 327.902 243.918C327.932 243.92 327.961 243.929 327.987 243.943C328.013 243.958 328.035 243.979 328.052 244.003C334.866 250.435 334.151 260.203 334.141 260.336C334.139 260.363 334.131 260.388 334.119 260.412C334.107 260.435 334.09 260.456 334.069 260.473C334.049 260.489 334.026 260.502 334 260.51C333.975 260.517 333.948 260.52 333.922 260.517Z" fill="white"/>
    <path d="M332.75 252.122C332.724 252.121 332.699 252.114 332.676 252.103C332.652 252.092 332.632 252.076 332.615 252.056C332.598 252.037 332.585 252.014 332.577 251.989C332.569 251.964 332.567 251.938 332.569 251.912C332.616 251.103 332.832 250.313 333.203 249.593C333.574 248.872 334.092 248.237 334.723 247.729C334.761 247.696 334.81 247.677 334.861 247.677C334.912 247.677 334.961 247.696 334.999 247.729C335.029 247.772 335.041 247.825 335.032 247.877C335.023 247.929 334.994 247.975 334.952 248.005C334.374 248.485 333.9 249.077 333.558 249.745C333.215 250.414 333.012 251.144 332.96 251.893C332.966 251.923 332.965 251.954 332.957 251.983C332.949 252.012 332.935 252.039 332.914 252.062C332.894 252.084 332.868 252.101 332.84 252.112C332.811 252.122 332.781 252.126 332.75 252.122Z" fill="white"/>
    <path d="M333.227 253.799C333.173 253.795 333.122 253.772 333.084 253.732C333.084 253.732 331.426 251.951 327.671 252.465C327.627 252.455 327.587 252.43 327.559 252.395C327.53 252.359 327.515 252.315 327.515 252.27C327.515 252.224 327.53 252.18 327.559 252.145C327.587 252.109 327.627 252.084 327.671 252.074C331.636 251.531 333.389 253.389 333.389 253.466C333.411 253.496 333.425 253.531 333.429 253.569C333.433 253.606 333.426 253.643 333.411 253.677C333.395 253.711 333.371 253.741 333.34 253.762C333.31 253.783 333.274 253.796 333.236 253.799H333.227Z" fill="white"/>
    <path d="M240.145 313.481L236.172 315.787C237.361 311.614 237.663 307.238 237.058 302.941C236.794 301.424 236.247 299.969 235.447 298.653C235.133 298.005 232.741 293.994 234.847 292.135C236.953 290.277 241.908 293.974 241.679 303.885C241.578 307.136 241.063 310.36 240.145 313.481Z" fill="#689AC8"/>
    <path opacity="0.5" d="M240.145 313.481L236.172 315.787C237.361 311.614 237.663 307.238 237.058 302.941C236.794 301.424 236.247 299.969 235.447 298.653C235.133 298.005 232.741 293.994 234.847 292.135C236.953 290.277 241.908 293.974 241.679 303.885C241.578 307.136 241.063 310.36 240.145 313.481Z" fill="black"/>
    <path d="M238.297 314.748H238.23C238.205 314.739 238.182 314.726 238.162 314.708C238.142 314.691 238.126 314.669 238.114 314.645C238.103 314.621 238.096 314.595 238.095 314.569C238.093 314.542 238.097 314.516 238.106 314.491C239.168 311.004 239.648 307.366 239.526 303.723C239.45 297.148 236.019 293.66 235.981 293.622C235.946 293.585 235.926 293.535 235.926 293.484C235.926 293.432 235.946 293.383 235.981 293.345C235.999 293.325 236.021 293.309 236.046 293.298C236.07 293.287 236.097 293.281 236.124 293.281C236.151 293.281 236.178 293.287 236.203 293.298C236.227 293.309 236.249 293.325 236.267 293.345C236.267 293.345 239.84 297.005 239.917 303.675C240.033 307.366 239.547 311.051 238.478 314.586C238.47 314.629 238.447 314.668 238.415 314.698C238.382 314.727 238.341 314.745 238.297 314.748Z" fill="white"/>
    <path d="M237.058 315.282L230.492 319.141C230.492 319.141 227.49 318.703 227.719 315.872C227.948 313.042 229.168 312.375 227.643 311.108C226.118 309.84 225.737 309.783 225.804 308.564C225.934 307.686 226.39 306.89 227.081 306.334C227.509 305.987 227.81 305.508 227.938 304.972C228.065 304.436 228.012 303.873 227.786 303.37C227.033 301.893 226.004 300.511 227.529 299.806C228.434 299.396 229.968 299.902 230.978 300.978C231.705 301.922 232.677 302.648 233.789 303.075C234.742 303.322 236.743 303.351 236.648 304.981C236.553 306.61 236.153 307.21 236.553 307.944C237.344 309.393 240.565 310.107 237.058 315.282Z" fill="#689AC8"/>
    <path opacity="0.2" d="M237.058 315.282L230.492 319.141C230.492 319.141 227.49 318.703 227.719 315.872C227.948 313.042 229.168 312.375 227.643 311.108C226.118 309.84 225.737 309.783 225.804 308.564C225.934 307.686 226.39 306.89 227.081 306.334C227.509 305.987 227.81 305.508 227.938 304.972C228.065 304.436 228.012 303.873 227.786 303.37C227.033 301.893 226.004 300.511 227.529 299.806C228.434 299.396 229.968 299.902 230.978 300.978C231.705 301.922 232.677 302.648 233.789 303.075C234.742 303.322 236.743 303.351 236.648 304.981C236.553 306.61 236.153 307.21 236.553 307.944C237.344 309.393 240.565 310.107 237.058 315.282Z" fill="black"/>
    <path d="M234.39 317.016C234.364 317.014 234.338 317.006 234.315 316.994C234.291 316.981 234.271 316.965 234.254 316.944C234.237 316.924 234.224 316.9 234.217 316.875C234.209 316.85 234.206 316.823 234.209 316.797C234.209 316.702 234.914 307.087 228.244 300.788C228.207 300.749 228.187 300.698 228.187 300.645C228.187 300.592 228.207 300.541 228.244 300.502C228.281 300.466 228.33 300.447 228.382 300.447C228.433 300.447 228.483 300.466 228.52 300.502C235.333 306.934 234.609 316.702 234.609 316.835C234.607 316.861 234.599 316.887 234.587 316.91C234.574 316.934 234.558 316.954 234.537 316.971C234.517 316.988 234.493 317.001 234.468 317.008C234.443 317.016 234.416 317.019 234.39 317.016Z" fill="white"/>
    <path d="M233.246 308.659C233.22 308.658 233.195 308.651 233.172 308.64C233.148 308.629 233.127 308.613 233.111 308.593C233.094 308.574 233.081 308.551 233.073 308.526C233.065 308.501 233.063 308.475 233.065 308.449C233.114 307.642 233.33 306.853 233.699 306.133C234.068 305.413 234.582 304.777 235.209 304.266C235.23 304.25 235.254 304.238 235.28 304.232C235.305 304.226 235.332 304.225 235.358 304.229C235.384 304.234 235.409 304.244 235.431 304.258C235.453 304.273 235.471 304.292 235.486 304.314C235.521 304.351 235.541 304.4 235.541 304.452C235.541 304.503 235.521 304.553 235.486 304.59C234.907 305.069 234.432 305.66 234.089 306.329C233.747 306.997 233.544 307.729 233.494 308.478C233.492 308.507 233.484 308.536 233.47 308.561C233.456 308.587 233.436 308.609 233.412 308.626C233.389 308.644 233.362 308.655 233.333 308.661C233.304 308.667 233.275 308.666 233.246 308.659Z" fill="white"/>
    <path d="M233.694 310.346C233.667 310.345 233.64 310.338 233.616 310.327C233.591 310.315 233.569 310.299 233.551 310.279C233.551 310.279 231.893 308.497 228.139 309.012C228.113 309.017 228.086 309.017 228.06 309.011C228.034 309.005 228.01 308.993 227.989 308.977C227.968 308.961 227.951 308.94 227.939 308.916C227.927 308.893 227.92 308.867 227.919 308.84C227.915 308.815 227.916 308.789 227.922 308.765C227.928 308.74 227.939 308.717 227.954 308.696C227.969 308.676 227.988 308.659 228.01 308.646C228.032 308.633 228.056 308.624 228.081 308.621C232.055 308.078 233.799 309.936 233.799 310.012C233.834 310.049 233.854 310.099 233.854 310.15C233.854 310.202 233.834 310.251 233.799 310.288C233.771 310.318 233.734 310.338 233.694 310.346Z" fill="white"/>
    <path d="M375.326 241.897C374.922 241.897 374.534 241.737 374.248 241.451C373.962 241.165 373.802 240.777 373.802 240.373V177.671C373.802 177.266 373.962 176.878 374.248 176.592C374.534 176.307 374.922 176.146 375.326 176.146C375.731 176.146 376.119 176.307 376.405 176.592C376.69 176.878 376.851 177.266 376.851 177.671V240.373C376.851 240.777 376.69 241.165 376.405 241.451C376.119 241.737 375.731 241.897 375.326 241.897Z" fill="#37474F"/>
    <path d="M375.327 200.636C375.147 200.636 374.97 200.589 374.814 200.498C374.658 200.408 374.529 200.278 374.44 200.121L365.759 184.875C365.628 184.639 365.594 184.361 365.665 184.101C365.737 183.841 365.907 183.619 366.14 183.483C366.256 183.417 366.384 183.375 366.516 183.358C366.648 183.341 366.782 183.351 366.911 183.386C367.039 183.422 367.159 183.482 367.264 183.564C367.369 183.646 367.457 183.749 367.522 183.865L376.203 199.111C376.271 199.227 376.315 199.356 376.332 199.489C376.35 199.622 376.34 199.757 376.305 199.887C376.269 200.017 376.208 200.138 376.125 200.243C376.043 200.349 375.939 200.437 375.822 200.503C375.672 200.592 375.501 200.638 375.327 200.636Z" fill="#37474F"/>
    <path d="M375.155 204.762C374.981 204.764 374.809 204.718 374.659 204.629C374.543 204.563 374.441 204.476 374.359 204.371C374.277 204.266 374.217 204.146 374.181 204.017C374.146 203.889 374.136 203.755 374.153 203.622C374.169 203.49 374.212 203.363 374.278 203.247L385.875 182.893C386.009 182.658 386.231 182.485 386.492 182.414C386.753 182.342 387.031 182.377 387.266 182.511C387.501 182.645 387.674 182.867 387.745 183.128C387.817 183.389 387.782 183.668 387.648 183.903L376.041 204.247C375.958 204.409 375.83 204.543 375.673 204.634C375.516 204.725 375.336 204.77 375.155 204.762Z" fill="#37474F"/>
    <path d="M401.353 185.751C412.76 181.026 418.177 167.949 413.452 156.542C408.727 145.135 395.65 139.719 384.243 144.443C372.836 149.168 367.419 162.246 372.144 173.652C376.869 185.059 389.946 190.476 401.353 185.751Z" fill="#689AC8"/>
    <path opacity="0.3" d="M401.353 185.751C412.76 181.026 418.177 167.949 413.452 156.542C408.727 145.135 395.65 139.719 384.243 144.443C372.836 149.168 367.419 162.246 372.144 173.652C376.869 185.059 389.946 190.476 401.353 185.751Z" fill="black"/>
    <path d="M387.962 158.774C387.954 155.805 388.54 152.864 389.686 150.124C390.832 147.385 392.513 144.902 394.632 142.822C394.023 142.822 393.403 142.746 392.774 142.746C389.106 142.745 385.493 143.647 382.256 145.372C379.018 147.097 376.255 149.593 374.21 152.638C372.164 155.684 370.9 159.186 370.528 162.835C370.156 166.485 370.688 170.17 372.077 173.565C373.466 176.961 375.669 179.962 378.492 182.305C381.315 184.648 384.672 186.26 388.265 186.999C391.858 187.738 395.578 187.581 399.097 186.543C402.615 185.504 405.824 183.616 408.44 181.044C402.857 180.573 397.654 178.024 393.862 173.899C390.069 169.775 387.964 164.377 387.962 158.774Z" fill="#689AC8"/>
    <path opacity="0.4" d="M387.962 158.774C387.954 155.805 388.54 152.864 389.686 150.124C390.832 147.385 392.513 144.902 394.632 142.822C394.023 142.822 393.403 142.746 392.774 142.746C389.106 142.745 385.493 143.647 382.256 145.372C379.018 147.097 376.255 149.593 374.21 152.638C372.164 155.684 370.9 159.186 370.528 162.835C370.156 166.485 370.688 170.17 372.077 173.565C373.466 176.961 375.669 179.962 378.492 182.305C381.315 184.648 384.672 186.26 388.265 186.999C391.858 187.738 395.578 187.581 399.097 186.543C402.615 185.504 405.824 183.616 408.44 181.044C402.857 180.573 397.654 178.024 393.862 173.899C390.069 169.775 387.964 164.377 387.962 158.774Z" fill="black"/>
    <path d="M356.287 187.457C365.134 187.457 372.306 180.285 372.306 171.438C372.306 162.592 365.134 155.42 356.287 155.42C347.44 155.42 340.269 162.592 340.269 171.438C340.269 180.285 347.44 187.457 356.287 187.457Z" fill="#689AC8"/>
    <path opacity="0.3" d="M356.287 187.457C365.134 187.457 372.306 180.285 372.306 171.438C372.306 162.592 365.134 155.42 356.287 155.42C347.44 155.42 340.269 162.592 340.269 171.438C340.269 180.285 347.44 187.457 356.287 187.457Z" fill="black"/>
    <path d="M358.021 155.506C355.89 155.272 353.733 155.471 351.68 156.089C349.626 156.708 347.719 157.735 346.072 159.108C346.014 159.794 345.986 160.48 345.986 161.185C345.98 168.126 348.5 174.833 353.076 180.053C353.391 180.412 353.597 180.853 353.67 181.325C353.744 181.797 353.681 182.28 353.49 182.717C353.3 183.155 352.988 183.53 352.592 183.797C352.197 184.064 351.733 184.213 351.256 184.227H351.198C349.196 184.222 347.211 183.844 345.347 183.112C347.202 184.843 349.442 186.108 351.881 186.804C354.321 187.5 356.891 187.607 359.38 187.115C361.869 186.624 364.205 185.548 366.197 183.977C368.189 182.406 369.779 180.384 370.836 178.078C371.894 175.772 372.389 173.248 372.28 170.713C372.171 168.179 371.462 165.706 370.211 163.499C368.959 161.292 367.202 159.414 365.082 158.019C362.963 156.625 360.543 155.753 358.021 155.477V155.506Z" fill="#689AC8"/>
    <path opacity="0.4" d="M358.021 155.506C355.89 155.272 353.733 155.471 351.68 156.089C349.626 156.708 347.719 157.735 346.072 159.108C346.014 159.794 345.986 160.48 345.986 161.185C345.98 168.126 348.5 174.833 353.076 180.053C353.391 180.412 353.597 180.853 353.67 181.325C353.744 181.797 353.681 182.28 353.49 182.717C353.3 183.155 352.988 183.53 352.592 183.797C352.197 184.064 351.733 184.213 351.256 184.227H351.198C349.196 184.222 347.211 183.844 345.347 183.112C347.202 184.843 349.442 186.108 351.881 186.804C354.321 187.5 356.891 187.607 359.38 187.115C361.869 186.624 364.205 185.548 366.197 183.977C368.189 182.406 369.779 180.384 370.836 178.078C371.894 175.772 372.389 173.248 372.28 170.713C372.171 168.179 371.462 165.706 370.211 163.499C368.959 161.292 367.202 159.414 365.082 158.019C362.963 156.625 360.543 155.753 358.021 155.477V155.506Z" fill="black"/>
    <path d="M403.224 162.399C406.863 146.981 397.315 131.533 381.897 127.894C366.48 124.255 351.032 133.804 347.393 149.221C343.754 164.639 353.302 180.087 368.72 183.726C384.137 187.365 399.586 177.816 403.224 162.399Z" fill="#689AC8"/>
    <path opacity="0.2" d="M383.503 174.669C378.602 174.668 373.784 173.411 369.507 171.019C365.231 168.627 361.638 165.179 359.073 161.004C356.507 156.829 355.054 152.066 354.851 147.17C354.649 142.274 355.704 137.408 357.917 133.036C354.509 135.66 351.735 139.017 349.801 142.859C347.867 146.7 346.822 150.928 346.743 155.228C346.664 159.528 347.554 163.791 349.346 167.701C351.138 171.611 353.787 175.068 357.096 177.815C360.405 180.562 364.29 182.53 368.463 183.572C372.636 184.614 376.99 184.704 381.202 183.836C385.415 182.967 389.378 181.162 392.798 178.554C396.218 175.946 399.008 172.603 400.96 168.77C395.951 172.609 389.813 174.683 383.503 174.669Z" fill="black"/>
    <path d="M81.6365 253.389C81.2321 253.389 80.8443 253.229 80.5584 252.943C80.2724 252.657 80.1118 252.269 80.1118 251.865V189.163C80.1118 188.758 80.2724 188.37 80.5584 188.085C80.8443 187.799 81.2321 187.638 81.6365 187.638C82.0409 187.638 82.4287 187.799 82.7146 188.085C83.0005 188.37 83.1612 188.758 83.1612 189.163V251.865C83.1612 252.269 83.0005 252.657 82.7146 252.943C82.4287 253.229 82.0409 253.389 81.6365 253.389Z" fill="#37474F"/>
    <path d="M81.6364 212.128C81.4566 212.134 81.2789 212.089 81.1237 211.998C80.9686 211.906 80.8424 211.773 80.7598 211.614L72.0691 196.367C71.9352 196.132 71.9001 195.853 71.9716 195.592C72.043 195.331 72.2152 195.11 72.4503 194.976C72.6853 194.842 72.9639 194.807 73.2249 194.878C73.4858 194.95 73.7076 195.122 73.8415 195.357L82.5227 210.603C82.5888 210.719 82.6314 210.847 82.6481 210.979C82.6647 211.111 82.655 211.245 82.6196 211.374C82.5842 211.502 82.5237 211.622 82.4416 211.727C82.3596 211.832 82.2576 211.92 82.1415 211.985C81.9898 212.079 81.8148 212.129 81.6364 212.128Z" fill="#37474F"/>
    <path d="M81.4744 216.264C81.2967 216.262 81.1225 216.214 80.969 216.124C80.8155 216.035 80.6882 215.906 80.5996 215.752C80.511 215.598 80.4642 215.424 80.4639 215.246C80.4636 215.068 80.5097 214.893 80.5978 214.739L92.2139 194.385C92.3478 194.15 92.5696 193.977 92.8305 193.906C93.0915 193.834 93.3701 193.87 93.6051 194.003C93.8402 194.137 94.0124 194.359 94.0838 194.62C94.1553 194.881 94.1202 195.16 93.9863 195.395L82.3607 215.749C82.27 215.904 82.1408 216.033 81.9854 216.123C81.8301 216.213 81.6541 216.262 81.4744 216.264Z" fill="#37474F"/>
    <path d="M107.681 197.244C119.087 192.519 124.504 179.442 119.779 168.035C115.055 156.628 101.977 151.211 90.5705 155.936C79.1638 160.661 73.747 173.738 78.4718 185.145C83.1967 196.552 96.2739 201.969 107.681 197.244Z" fill="#689AC8"/>
    <path opacity="0.3" d="M107.681 197.244C119.087 192.519 124.504 179.442 119.779 168.035C115.055 156.628 101.977 151.211 90.5705 155.936C79.1638 160.661 73.747 173.738 78.4718 185.145C83.1967 196.552 96.2739 201.969 107.681 197.244Z" fill="black"/>
    <path d="M94.2817 170.266C94.275 167.297 94.8616 164.357 96.0071 161.617C97.1525 158.878 98.8338 156.395 100.952 154.314C100.333 154.314 99.7228 154.238 99.0463 154.238C95.3773 154.236 91.7641 155.136 88.5255 156.86C85.2869 158.584 82.5224 161.079 80.476 164.124C78.4295 167.169 77.164 170.672 76.7911 174.321C76.4182 177.971 76.9493 181.657 78.3377 185.053C79.726 188.449 81.9289 191.452 84.752 193.795C87.575 196.138 90.9315 197.751 94.5251 198.49C98.1188 199.23 101.839 199.074 105.358 198.035C108.877 196.997 112.086 195.108 114.703 192.536C109.13 192.052 103.941 189.496 100.16 185.373C96.3797 181.251 94.2822 175.86 94.2817 170.266Z" fill="#689AC8"/>
    <path opacity="0.4" d="M94.2817 170.266C94.275 167.297 94.8616 164.357 96.0071 161.617C97.1525 158.878 98.8338 156.395 100.952 154.314C100.333 154.314 99.7228 154.238 99.0463 154.238C95.3773 154.236 91.7641 155.136 88.5255 156.86C85.2869 158.584 82.5224 161.079 80.476 164.124C78.4295 167.169 77.164 170.672 76.7911 174.321C76.4182 177.971 76.9493 181.657 78.3377 185.053C79.726 188.449 81.9289 191.452 84.752 193.795C87.575 196.138 90.9315 197.751 94.5251 198.49C98.1188 199.23 101.839 199.074 105.358 198.035C108.877 196.997 112.086 195.108 114.703 192.536C109.13 192.052 103.941 189.496 100.16 185.373C96.3797 181.251 94.2822 175.86 94.2817 170.266Z" fill="black"/>
    <path d="M62.6067 198.949C71.4536 198.949 78.6253 191.777 78.6253 182.931C78.6253 174.084 71.4536 166.912 62.6067 166.912C53.7599 166.912 46.5881 174.084 46.5881 182.931C46.5881 191.777 53.7599 198.949 62.6067 198.949Z" fill="#689AC8"/>
    <path opacity="0.3" d="M62.6067 198.949C71.4536 198.949 78.6253 191.777 78.6253 182.931C78.6253 174.084 71.4536 166.912 62.6067 166.912C53.7599 166.912 46.5881 174.084 46.5881 182.931C46.5881 191.777 53.7599 198.949 62.6067 198.949Z" fill="black"/>
    <path d="M64.341 166.998C62.208 166.766 60.0501 166.966 57.9957 167.585C55.9413 168.203 54.0322 169.229 52.3819 170.6C52.3819 171.286 52.3057 171.972 52.3057 172.677C52.2975 179.622 54.8177 186.332 59.3954 191.555C59.7119 191.913 59.9192 192.355 59.9928 192.827C60.0665 193.3 60.0034 193.783 59.811 194.221C59.6186 194.659 59.305 195.033 58.9072 195.298C58.5094 195.563 58.0439 195.709 57.5658 195.719C55.5627 195.719 53.5775 195.341 51.7148 194.604C53.5699 196.329 55.8077 197.589 58.2444 198.281C60.6812 198.972 63.2473 199.076 65.7318 198.583C68.2164 198.09 70.5485 197.014 72.5366 195.445C74.5246 193.875 76.1118 191.856 77.1677 189.554C78.2237 187.251 78.7182 184.731 78.6107 182.2C78.5032 179.67 77.7967 177.201 76.5492 174.996C75.3018 172.791 73.5491 170.914 71.4351 169.519C69.3211 168.124 66.9061 167.25 64.3887 166.969L64.341 166.998Z" fill="#689AC8"/>
    <path opacity="0.4" d="M64.341 166.998C62.208 166.766 60.0501 166.966 57.9957 167.585C55.9413 168.203 54.0322 169.229 52.3819 170.6C52.3819 171.286 52.3057 171.972 52.3057 172.677C52.2975 179.622 54.8177 186.332 59.3954 191.555C59.7119 191.913 59.9192 192.355 59.9928 192.827C60.0665 193.3 60.0034 193.783 59.811 194.221C59.6186 194.659 59.305 195.033 58.9072 195.298C58.5094 195.563 58.0439 195.709 57.5658 195.719C55.5627 195.719 53.5775 195.341 51.7148 194.604C53.5699 196.329 55.8077 197.589 58.2444 198.281C60.6812 198.972 63.2473 199.076 65.7318 198.583C68.2164 198.09 70.5485 197.014 72.5366 195.445C74.5246 193.875 76.1118 191.856 77.1677 189.554C78.2237 187.251 78.7182 184.731 78.6107 182.2C78.5032 179.67 77.7967 177.201 76.5492 174.996C75.3018 172.791 73.5491 170.914 71.4351 169.519C69.3211 168.124 66.9061 167.25 64.3887 166.969L64.341 166.998Z" fill="black"/>
    <path d="M109.554 173.899C113.193 158.482 103.645 143.034 88.2272 139.395C72.8097 135.756 57.3614 145.304 53.7225 160.722C50.0837 176.139 59.6322 191.588 75.0497 195.226C90.4672 198.865 105.915 189.317 109.554 173.899Z" fill="#689AC8"/>
    <path opacity="0.2" d="M89.8223 186.161C84.9214 186.164 80.1015 184.911 75.823 182.521C71.5446 180.13 67.9504 176.683 65.384 172.508C62.8175 168.332 61.3644 163.569 61.1635 158.672C60.9626 153.775 62.0206 148.909 64.2364 144.537C60.8143 147.154 58.0257 150.509 56.078 154.351C54.1302 158.194 53.0734 162.426 52.9859 166.733C52.8984 171.04 53.7826 175.311 55.5727 179.23C57.3628 183.148 60.0129 186.613 63.326 189.366C66.6391 192.12 70.53 194.092 74.7098 195.135C78.8896 196.178 83.2507 196.266 87.4691 195.392C91.6876 194.519 95.6549 192.705 99.0764 190.088C102.498 187.47 105.285 184.115 107.232 180.272C102.235 184.098 96.1156 186.168 89.8223 186.161Z" fill="black"/>
    <path d="M348.55 277.041V264.796H341.565V277.041C341.594 277.348 341.704 277.642 341.883 277.893C342.062 278.143 342.304 278.343 342.585 278.47C343.352 278.856 344.199 279.057 345.057 279.057C345.916 279.057 346.763 278.856 347.53 278.47C347.812 278.344 348.055 278.146 348.234 277.894C348.414 277.643 348.522 277.348 348.55 277.041Z" fill="#455A64"/>
    <path d="M347.502 263.367C348.864 264.158 348.864 265.434 347.502 266.225C346.736 266.615 345.888 266.819 345.029 266.819C344.169 266.819 343.322 266.615 342.556 266.225C341.193 265.444 341.193 264.167 342.556 263.367C343.322 262.977 344.169 262.773 345.029 262.773C345.888 262.773 346.736 262.977 347.502 263.367Z" fill="#37474F"/>
    <path d="M359.032 209.66C358.762 209.66 358.502 209.553 358.311 209.361C358.12 209.17 358.012 208.911 358.012 208.64V197.205C357.999 197.064 358.015 196.921 358.059 196.786C358.104 196.651 358.177 196.527 358.272 196.422C358.368 196.316 358.484 196.232 358.614 196.175C358.744 196.117 358.885 196.087 359.027 196.087C359.169 196.087 359.31 196.117 359.44 196.175C359.57 196.232 359.687 196.316 359.782 196.422C359.878 196.527 359.95 196.651 359.995 196.786C360.04 196.921 360.056 197.064 360.042 197.205V208.64C360.043 208.774 360.018 208.906 359.968 209.03C359.918 209.154 359.844 209.266 359.75 209.361C359.656 209.456 359.544 209.531 359.421 209.582C359.298 209.634 359.165 209.66 359.032 209.66Z" fill="#37474F"/>
    <path d="M375.308 219.942C375.174 219.942 375.042 219.916 374.919 219.864C374.796 219.813 374.684 219.738 374.59 219.643C374.496 219.548 374.422 219.436 374.372 219.312C374.321 219.188 374.296 219.056 374.297 218.922V207.487C374.284 207.346 374.3 207.203 374.345 207.068C374.389 206.933 374.462 206.809 374.557 206.704C374.653 206.598 374.769 206.514 374.9 206.457C375.03 206.399 375.17 206.369 375.312 206.369C375.455 206.369 375.595 206.399 375.725 206.457C375.855 206.514 375.972 206.598 376.067 206.704C376.163 206.809 376.235 206.933 376.28 207.068C376.325 207.203 376.341 207.346 376.327 207.487V218.922C376.327 219.193 376.22 219.452 376.029 219.643C375.837 219.835 375.578 219.942 375.308 219.942Z" fill="#37474F"/>
    <path d="M345.11 265.206C344.839 265.206 344.58 265.098 344.389 264.907C344.198 264.716 344.09 264.456 344.09 264.186V189.22C344.094 189.042 344.143 188.868 344.234 188.715C344.325 188.561 344.454 188.435 344.608 188.346C344.763 188.258 344.938 188.211 345.116 188.211C345.294 188.21 345.469 188.256 345.624 188.343L387.886 212.747C388.105 212.89 388.262 213.111 388.322 213.365C388.383 213.619 388.344 213.887 388.214 214.113C388.083 214.339 387.87 214.507 387.619 214.58C387.369 214.654 387.099 214.629 386.867 214.51L346.129 190.983V264.186C346.129 264.32 346.103 264.453 346.052 264.576C346 264.7 345.925 264.812 345.831 264.907C345.736 265.002 345.624 265.077 345.5 265.128C345.376 265.179 345.244 265.206 345.11 265.206Z" fill="#37474F"/>
    <path d="M350.236 201.322V230.357C350.235 231.048 350.417 231.727 350.763 232.325C351.11 232.922 351.609 233.417 352.209 233.759L384.894 252.637C385.146 252.782 385.431 252.859 385.721 252.859C386.012 252.859 386.297 252.783 386.549 252.638C386.801 252.494 387.011 252.285 387.157 252.034C387.303 251.783 387.38 251.498 387.381 251.207V222.172C387.38 221.482 387.196 220.804 386.85 220.207C386.504 219.61 386.007 219.114 385.409 218.77L352.723 199.893C352.472 199.747 352.187 199.671 351.896 199.67C351.606 199.67 351.32 199.746 351.068 199.891C350.816 200.036 350.607 200.244 350.461 200.495C350.315 200.746 350.237 201.031 350.236 201.322Z" fill="#455A64"/>
    <path d="M363.09 215.426V221.664L361.838 220.945V218.387L359.381 216.975V219.532L358.129 218.813V212.575L359.381 213.295V215.754L361.838 217.166V214.707L363.09 215.426ZM366.988 224.011C366.427 223.689 365.92 223.258 365.466 222.718C365.018 222.181 364.665 221.595 364.408 220.96C364.155 220.322 364.029 219.697 364.029 219.085C364.029 218.473 364.155 217.996 364.408 217.654C364.665 217.309 365.018 217.125 365.466 217.104C365.92 217.085 366.427 217.237 366.988 217.56C367.55 217.882 368.055 218.312 368.503 218.849C368.951 219.386 369.304 219.975 369.561 220.616C369.819 221.251 369.948 221.874 369.948 222.486C369.948 223.098 369.819 223.577 369.561 223.922C369.304 224.261 368.951 224.441 368.503 224.463C368.055 224.485 367.55 224.334 366.988 224.011ZM366.988 222.782C367.308 222.965 367.596 223.048 367.854 223.03C368.111 223.005 368.312 222.883 368.456 222.663C368.606 222.446 368.68 222.144 368.68 221.758C368.68 221.372 368.606 220.984 368.456 220.596C368.312 220.21 368.111 219.86 367.854 219.545C367.596 219.225 367.308 218.973 366.988 218.789C366.669 218.606 366.381 218.526 366.123 218.551C365.865 218.569 365.662 218.687 365.513 218.904C365.368 219.124 365.296 219.427 365.296 219.813C365.296 220.199 365.368 220.585 365.513 220.971C365.662 221.36 365.865 221.715 366.123 222.035C366.381 222.349 366.669 222.598 366.988 222.782ZM373.291 227.634C372.518 227.19 371.916 226.597 371.483 225.855C371.056 225.116 370.842 224.289 370.842 223.374V219.881L372.094 220.601V224.04C372.094 225.157 372.495 225.947 373.299 226.408C373.69 226.633 373.989 226.671 374.195 226.522C374.401 226.368 374.504 226.002 374.504 225.426V221.986L375.74 222.696V226.19C375.74 227.105 375.524 227.684 375.091 227.929C374.664 228.176 374.064 228.078 373.291 227.634ZM378.754 230.773C378.327 230.528 377.912 230.224 377.51 229.863C377.114 229.498 376.794 229.139 376.552 228.786L376.977 227.943C377.209 228.272 377.485 228.588 377.804 228.891C378.123 229.193 378.443 229.436 378.762 229.619C379.117 229.824 379.38 229.915 379.55 229.894C379.72 229.867 379.805 229.753 379.805 229.551C379.805 229.402 379.753 229.251 379.65 229.096C379.553 228.939 379.424 228.785 379.264 228.634C379.11 228.486 378.898 228.299 378.631 228.074C378.219 227.724 377.881 227.417 377.618 227.153C377.356 226.889 377.129 226.578 376.939 226.219C376.753 225.863 376.66 225.477 376.66 225.061C376.66 224.699 376.745 224.421 376.915 224.227C377.085 224.028 377.34 223.94 377.68 223.963C378.025 223.989 378.445 224.144 378.94 224.428C379.285 224.627 379.622 224.868 379.952 225.152C380.281 225.437 380.57 225.739 380.817 226.06L380.431 226.934C379.931 226.32 379.432 225.869 378.932 225.582C378.582 225.381 378.322 225.297 378.152 225.33C377.987 225.366 377.904 225.491 377.904 225.705C377.904 225.918 378 226.134 378.19 226.35C378.386 226.564 378.682 226.835 379.079 227.164C379.491 227.513 379.828 227.82 380.091 228.084C380.354 228.348 380.578 228.655 380.763 229.005C380.954 229.358 381.049 229.743 381.049 230.158C381.049 230.515 380.961 230.791 380.786 230.988C380.616 231.181 380.359 231.265 380.014 231.239C379.668 231.213 379.249 231.058 378.754 230.773ZM362.317 231.061V232.22L358.129 229.813V223.575L362.217 225.924V227.083L359.373 225.449V226.803L361.884 228.246V229.369L359.373 227.926V229.37L362.317 231.061Z" fill="#FAFAFA"/>
    <path d="M270.41 352.56C270.41 352.56 269.896 353.399 270.124 357.22C270.353 361.041 270.353 361.327 270.41 363.814C270.467 366.301 270.353 369.074 273.545 368.235C276.738 367.397 277.281 365.177 276.909 363.223C276.387 360.631 276.031 358.008 275.842 355.371C275.766 353.027 274.984 352.245 274.984 352.245L270.41 352.56Z" fill="#37474F"/>
    <path d="M273.364 312.08L273.126 316.845C273.042 318.494 273.154 320.148 273.46 321.771C274.222 325.859 275.651 334.397 275.365 339.819C274.965 347.166 275.032 352.207 275.032 352.207C275.032 352.207 275.661 359.831 275.689 361.432C275.7 361.705 275.655 361.978 275.557 362.234C275.459 362.49 275.31 362.723 275.119 362.92C274.929 363.117 274.7 363.273 274.448 363.379C274.195 363.485 273.924 363.539 273.65 363.538C272.926 363.538 270.925 364.262 270.458 353.723C269.78 347.707 268.694 341.743 267.208 335.874C265.674 330.023 264.588 324.849 264.026 321.99C263.735 320.515 263.544 319.022 263.454 317.521L263.044 310.851L273.364 312.08Z" fill="#945959"/>
    <path d="M257.841 352.122V352.188C257.833 353.074 257.648 353.948 257.298 354.761C257.046 355.408 256.92 356.097 256.926 356.791V359.65C256.926 359.767 256.88 359.879 256.798 359.963C256.716 360.047 256.605 360.095 256.488 360.098C256.429 360.098 256.371 360.086 256.317 360.064C256.262 360.041 256.213 360.008 256.171 359.966C256.13 359.925 256.097 359.876 256.074 359.821C256.052 359.767 256.04 359.709 256.04 359.65V355.266L257.841 352.122Z" fill="#263238"/>
    <path d="M256.383 349.215C256.383 349.215 254.859 350.34 254.859 353.313C254.803 354.54 254.474 355.739 253.897 356.824C253.32 357.908 252.51 358.851 251.523 359.583C250.399 360.26 247.912 358.63 247.912 358.63C247.912 358.63 245.263 360.879 245.263 361.889C245.263 362.899 246.559 363.728 249.551 363.319C252.543 362.909 255.03 362.47 255.497 359.231C256.04 355.419 256.059 354.961 257.203 353.713C258.346 352.465 257.908 349.901 256.383 349.215Z" fill="#263238"/>
    <path d="M261.615 300.969L249.922 313.204L250.809 341.401L251.085 349.091C250.856 353.57 247.759 358.087 247.759 358.087C247.697 358.689 247.697 359.296 247.759 359.898H250.57C255.964 359.898 256.364 348.653 256.364 348.653L256.545 345.89C256.721 343.259 257.065 340.643 257.574 338.057C260.252 324.763 259.194 317.836 259.194 317.836L261.615 300.969Z" fill="#945959"/>
    <path d="M256.364 348.691C256.364 348.691 255.125 349.577 254.811 352.789C254.757 354.021 254.424 355.226 253.838 356.312C253.252 357.397 252.428 358.337 251.428 359.059C250.284 359.726 247.759 358.106 247.759 358.106C247.759 358.106 245.072 360.355 245.072 361.365C245.072 362.375 246.387 363.204 249.427 362.785C252.467 362.365 254.449 361.832 255.011 358.611C255.573 355.39 255.583 354.637 256.745 353.389C257.908 352.141 258.651 350.997 256.364 348.691Z" fill="#37474F"/>
    <path d="M270.001 287.714C270.001 287.714 274.117 293.431 273.984 306.972C273.889 317.388 273.555 319.58 273.555 319.58C269.972 322.879 265.266 324.688 260.395 324.64C255.554 324.64 249.599 319.875 249.599 319.875C249.599 319.875 249.684 307.773 249.97 302.884C250.287 298.058 251.059 293.272 252.276 288.591L270.001 287.714Z" fill="#263238"/>
    <path d="M233.161 265.682C233.04 265.262 232.961 264.831 232.922 264.396C232.932 263.451 232.569 262.54 231.912 261.861C231.226 260.908 231.617 260.127 230.959 259.955C230.302 259.784 229.854 261.985 230.569 263.005C229.843 262.518 229.245 261.864 228.825 261.099C228.367 260.06 227.577 258.516 226.919 258.24C226.262 257.964 223.965 260.679 224.908 263.195C225.852 265.711 229.959 268.255 229.959 268.255L233.161 265.682Z" fill="#945959"/>
    <path d="M255.878 263.005H255.802C254.097 262.988 252.43 263.508 251.037 264.491L240.088 272.114L232.999 265.11C232.073 266.378 230.817 267.366 229.368 267.969L237.268 278.165C237.64 278.646 238.166 278.984 238.757 279.123C239.349 279.262 239.97 279.193 240.517 278.928L250.513 274.097L255.878 263.005Z" fill="#37474F"/>
    <path d="M258.918 262.995H255.878C255.878 262.995 244.901 273.391 252.486 280.052C252.819 282.878 252.749 285.737 252.276 288.543C252.276 288.543 257.813 292.259 270.105 288.543L269.029 279.909L271.411 272.286L270.915 264.463C270.898 264.216 270.792 263.983 270.617 263.808C270.442 263.633 270.209 263.527 269.962 263.51L265.408 263.309L258.918 262.995Z" fill="#455A64"/>
    <path d="M259.118 262.128L257.451 263.081L254.335 267.95C254.254 268.08 254.202 268.224 254.18 268.375C254.159 268.526 254.169 268.68 254.211 268.827L255.097 271.905L254.744 272.324C254.576 272.526 254.457 272.765 254.399 273.022C254.341 273.279 254.345 273.546 254.411 273.801L255.164 276.612L258.766 274.182C259.017 274.013 259.216 273.777 259.34 273.501C259.465 273.225 259.51 272.92 259.471 272.619V272.353L264.073 270.695C264.234 270.637 264.378 270.542 264.494 270.418C264.61 270.294 264.694 270.144 264.741 269.98L266.646 263.405L265.36 262.452L259.118 262.128Z" fill="#263238"/>
    <path d="M265.331 247.081C265.331 248.47 264.919 249.828 264.148 250.983C263.376 252.138 262.279 253.038 260.996 253.57C259.712 254.101 258.3 254.24 256.938 253.969C255.576 253.698 254.324 253.029 253.342 252.047C252.36 251.065 251.691 249.814 251.42 248.451C251.149 247.089 251.288 245.677 251.82 244.394C252.351 243.11 253.251 242.014 254.406 241.242C255.561 240.47 256.919 240.058 258.308 240.058C259.231 240.057 260.145 240.238 260.997 240.59C261.85 240.943 262.625 241.46 263.277 242.112C263.929 242.765 264.447 243.54 264.799 244.392C265.152 245.245 265.332 246.159 265.331 247.081Z" fill="#263238"/>
    <path d="M275.327 257.182C275.327 257.959 275.097 258.718 274.666 259.363C274.234 260.009 273.621 260.512 272.904 260.809C272.186 261.106 271.397 261.184 270.635 261.033C269.874 260.881 269.174 260.507 268.625 259.958C268.076 259.409 267.702 258.71 267.551 257.948C267.399 257.186 267.477 256.397 267.774 255.68C268.071 254.962 268.575 254.349 269.22 253.918C269.866 253.486 270.625 253.256 271.401 253.256C271.917 253.255 272.428 253.356 272.905 253.552C273.382 253.749 273.815 254.038 274.18 254.403C274.545 254.768 274.834 255.201 275.031 255.678C275.228 256.155 275.329 256.666 275.327 257.182Z" fill="#263238"/>
    <path d="M270.204 256.798C271.822 255.179 272.067 252.799 270.749 251.482C269.432 250.164 267.052 250.409 265.433 252.027C263.814 253.646 263.57 256.026 264.887 257.344C266.205 258.661 268.585 258.417 270.204 256.798Z" fill="#689AC8"/>
    <path d="M268.504 243.937C268.776 243.628 268.977 243.266 269.096 242.873C269.214 242.48 269.246 242.066 269.19 241.659C269.076 240.134 270.515 241.24 270.639 242.116C270.625 242.644 270.462 243.157 270.168 243.595C269.875 244.034 269.463 244.38 268.981 244.594L268.504 243.937Z" fill="#263238"/>
    <path d="M268.99 244.242C269.4 244.264 269.809 244.198 270.19 244.048C270.571 243.899 270.916 243.669 271.201 243.374C272.326 242.345 272.345 244.156 271.735 244.794C271.318 245.103 270.824 245.29 270.307 245.334C269.791 245.378 269.272 245.277 268.809 245.042L268.99 244.242Z" fill="#263238"/>
    <path d="M258.918 259.031V262.995C258.918 262.995 255.983 272.524 256.945 271.829C259.804 269.818 264.035 264.92 265.112 263.653C265.283 263.453 265.377 263.2 265.379 262.938V255.314L258.918 259.031Z" fill="#945959"/>
    <path d="M265.303 254.009V254.238C263.864 259.955 260.128 261.146 258.918 261.442V252.656H265.16L265.303 254.009Z" fill="#703838"/>
    <path d="M260.004 241.297C257.942 241.43 256.013 242.363 254.628 243.897C253.243 245.431 252.512 247.446 252.591 249.511C252.514 255.791 253.477 260.584 256.736 260.784C259.599 260.711 262.324 259.54 264.347 257.512C266.37 255.484 267.534 252.756 267.599 249.892C267.942 241.735 262.32 241.106 260.004 241.297Z" fill="#945959"/>
    <path d="M256.984 252.036L257.041 255.724L254.878 255.095L256.984 252.036Z" fill="#703838"/>
    <path d="M260.224 251.941C260.225 252.09 260.183 252.237 260.101 252.362C260.02 252.487 259.903 252.585 259.766 252.643C259.628 252.702 259.476 252.718 259.33 252.69C259.183 252.662 259.048 252.591 258.942 252.486C258.836 252.382 258.763 252.247 258.733 252.101C258.703 251.955 258.718 251.803 258.774 251.665C258.831 251.527 258.928 251.409 259.052 251.326C259.176 251.242 259.321 251.198 259.471 251.198C259.569 251.197 259.667 251.215 259.758 251.252C259.849 251.289 259.932 251.343 260.003 251.412C260.073 251.481 260.128 251.564 260.166 251.655C260.204 251.745 260.224 251.843 260.224 251.941Z" fill="#263238"/>
    <path d="M255.278 251.484C255.279 251.583 255.261 251.681 255.224 251.773C255.188 251.864 255.133 251.948 255.064 252.019C254.995 252.09 254.913 252.146 254.822 252.185C254.731 252.224 254.634 252.245 254.535 252.246C254.436 252.247 254.339 252.229 254.247 252.192C254.156 252.155 254.073 252.101 254.003 252.032C253.933 251.963 253.877 251.88 253.839 251.789C253.801 251.699 253.782 251.601 253.782 251.503C253.77 251.397 253.78 251.291 253.813 251.19C253.845 251.089 253.898 250.996 253.969 250.917C254.039 250.838 254.126 250.774 254.222 250.731C254.319 250.688 254.424 250.665 254.53 250.665C254.636 250.665 254.741 250.688 254.837 250.731C254.934 250.774 255.021 250.838 255.091 250.917C255.162 250.996 255.215 251.089 255.247 251.19C255.279 251.291 255.29 251.397 255.278 251.503V251.484Z" fill="#263238"/>
    <path d="M253.591 249.94L255.049 249.054C255.049 249.054 254.477 248.473 253.915 248.835C253.756 248.965 253.64 249.14 253.582 249.337C253.524 249.535 253.528 249.745 253.591 249.94Z" fill="#689AC8"/>
    <path d="M256.564 256.982C257.325 256.62 258.063 256.213 258.775 255.762C258.775 255.762 259.252 256.973 258.261 257.468C257.965 257.596 257.635 257.617 257.326 257.528C257.016 257.44 256.747 257.247 256.564 256.982Z" fill="#703838"/>
    <path d="M253.591 249.94L255.049 249.054C255.049 249.054 254.477 248.473 253.915 248.835C253.756 248.965 253.64 249.14 253.582 249.337C253.524 249.535 253.528 249.745 253.591 249.94Z" fill="#263238"/>
    <path d="M263.435 250.988C263.435 250.988 263.044 254.266 265.398 254.266L265.97 251.331L263.435 250.988Z" fill="#263238"/>
    <path d="M263.616 251.951C263.616 251.951 254.21 250.312 254.21 241.24C254.21 238.495 255.897 236.58 259.737 239.429C263.578 242.279 271.363 240.096 271.363 250.426C271.379 252.264 270.809 254.059 269.737 255.551C268.664 257.043 267.145 258.155 265.398 258.726V252.218L263.616 251.951Z" fill="#263238"/>
    <path d="M265.284 253.933C265.273 253.341 265.397 252.754 265.646 252.218C265.759 251.889 265.968 251.602 266.244 251.392C266.52 251.182 266.852 251.058 267.199 251.036C267.484 251.038 267.766 251.102 268.025 251.222C268.284 251.343 268.514 251.517 268.7 251.734C268.886 251.95 269.023 252.204 269.103 252.478C269.183 252.752 269.203 253.04 269.162 253.323C269.089 254.268 268.649 255.148 267.938 255.774C267.226 256.401 266.297 256.725 265.35 256.677L265.284 253.933Z" fill="#945959"/>
    <path d="M267.046 274.506L262.51 274.039V273.182L267.046 273.649V274.506Z" fill="#263238"/>
    <path d="M254.468 278.756H252.619C252.619 278.251 252.418 277.766 252.061 277.409C251.703 277.051 251.219 276.851 250.713 276.851C250.208 276.851 249.723 277.051 249.366 277.409C249.008 277.766 248.807 278.251 248.807 278.756H247.712C247.596 278.756 247.482 278.782 247.379 278.834C247.275 278.885 247.186 278.961 247.117 279.054C247.048 279.147 247.002 279.254 246.983 279.368C246.964 279.482 246.972 279.599 247.006 279.709L247.569 281.51H255.878L255.173 279.261C255.124 279.113 255.03 278.984 254.903 278.894C254.776 278.803 254.624 278.755 254.468 278.756Z" fill="#689AC8"/>
    <path opacity="0.7" d="M254.468 278.756H252.619C252.619 278.251 252.418 277.766 252.061 277.409C251.703 277.051 251.219 276.851 250.713 276.851C250.208 276.851 249.723 277.051 249.366 277.409C249.008 277.766 248.807 278.251 248.807 278.756H247.712C247.596 278.756 247.482 278.782 247.379 278.834C247.275 278.885 247.186 278.961 247.117 279.054C247.048 279.147 247.002 279.254 246.983 279.368C246.964 279.482 246.972 279.599 247.006 279.709L247.569 281.51H255.878L255.173 279.261C255.124 279.113 255.03 278.984 254.903 278.894C254.776 278.803 254.624 278.755 254.468 278.756Z" fill="black"/>
    <path d="M260.014 279.719L264.645 297.195L249.722 297.262L243.967 279.89L260.014 279.719Z" fill="#689AC8"/>
    <path opacity="0.3" d="M260.014 279.719L264.645 297.195L249.722 297.262L243.967 279.89L260.014 279.719Z" fill="black"/>
    <path d="M254.468 279.538H252.619C252.619 279.032 252.418 278.547 252.061 278.19C251.703 277.833 251.219 277.632 250.713 277.632C250.208 277.632 249.723 277.833 249.366 278.19C249.008 278.547 248.807 279.032 248.807 279.538H247.712C247.596 279.537 247.482 279.563 247.379 279.615C247.275 279.667 247.186 279.742 247.117 279.835C247.048 279.928 247.002 280.036 246.983 280.15C246.964 280.263 246.972 280.38 247.006 280.491L247.273 281.367H255.573L255.173 280.043C255.124 279.895 255.03 279.766 254.903 279.675C254.776 279.584 254.624 279.536 254.468 279.538Z" fill="#689AC8"/>
    <path opacity="0.5" d="M254.468 279.538H252.619C252.619 279.032 252.418 278.547 252.061 278.19C251.703 277.833 251.219 277.632 250.713 277.632C250.208 277.632 249.723 277.833 249.366 278.19C249.008 278.547 248.807 279.032 248.807 279.538H247.712C247.596 279.537 247.482 279.563 247.379 279.615C247.275 279.667 247.186 279.742 247.117 279.835C247.048 279.928 247.002 280.036 246.983 280.15C246.964 280.263 246.972 280.38 247.006 280.491L247.273 281.367H255.573L255.173 280.043C255.124 279.895 255.03 279.766 254.903 279.675C254.776 279.584 254.624 279.536 254.468 279.538Z" fill="black"/>
    <path d="M266.303 286.275C265.49 286.456 264.653 286.501 263.826 286.408C262.873 286.218 262.873 285.36 261.462 285.389L261.92 287.294C260.53 287.562 259.111 287.648 257.698 287.552C255.792 287.332 256.44 289.01 256.745 289.457C257.05 289.905 258.327 292.545 261.053 292.316C263.221 292.032 265.362 291.574 267.456 290.944C267.664 290.131 267.667 289.279 267.466 288.465C267.265 287.65 266.865 286.898 266.303 286.275Z" fill="#945959"/>
    <path d="M270 263.538C271.29 263.556 272.541 263.981 273.576 264.75C274.611 265.52 275.377 266.596 275.765 267.826L280.387 282.406C280.571 282.982 280.638 283.589 280.583 284.191C280.528 284.794 280.353 285.379 280.067 285.912C279.782 286.445 279.393 286.916 278.922 287.296C278.452 287.676 277.91 287.957 277.328 288.124L267.437 290.982C267.479 289.356 267.088 287.748 266.303 286.323L274.041 283.044L269.371 270.714C268.968 269.696 268.746 268.616 268.714 267.521C268.656 266.805 268.739 266.085 268.96 265.402C269.181 264.718 269.534 264.085 270 263.538Z" fill="#37474F"/>
    <path d="M269.391 289.305C269.393 289.407 269.364 289.508 269.309 289.594C269.253 289.68 269.174 289.747 269.08 289.787C268.986 289.828 268.882 289.839 268.782 289.821C268.681 289.802 268.589 289.754 268.516 289.682C268.443 289.61 268.393 289.519 268.372 289.419C268.352 289.319 268.361 289.215 268.4 289.12C268.438 289.026 268.504 288.945 268.589 288.888C268.674 288.831 268.774 288.8 268.876 288.8C269.011 288.8 269.14 288.853 269.237 288.947C269.333 289.042 269.388 289.17 269.391 289.305Z" fill="#263238"/>
    <path d="M271.125 288.857C271.127 288.96 271.098 289.061 271.042 289.147C270.986 289.233 270.906 289.3 270.812 289.34C270.717 289.38 270.613 289.391 270.512 289.372C270.412 289.352 270.319 289.303 270.247 289.23C270.174 289.158 270.125 289.065 270.105 288.965C270.086 288.864 270.097 288.76 270.137 288.665C270.177 288.571 270.244 288.491 270.331 288.435C270.417 288.379 270.517 288.35 270.62 288.352C270.753 288.355 270.88 288.409 270.974 288.503C271.069 288.597 271.123 288.724 271.125 288.857Z" fill="#263238"/>
    <path d="M231.179 268.932C231.052 268.995 230.906 269.005 230.772 268.961C230.638 268.916 230.527 268.82 230.464 268.694C230.401 268.567 230.39 268.421 230.435 268.287C230.48 268.153 230.576 268.042 230.702 267.979C230.829 267.916 230.975 267.905 231.109 267.95C231.243 267.995 231.354 268.091 231.417 268.217C231.48 268.343 231.49 268.49 231.446 268.624C231.401 268.758 231.305 268.869 231.179 268.932Z" fill="#263238"/>
    <path d="M232.398 270.256C232.308 270.305 232.206 270.325 232.105 270.316C232.004 270.306 231.907 270.266 231.829 270.202C231.75 270.138 231.692 270.051 231.662 269.954C231.632 269.856 231.632 269.752 231.661 269.655C231.691 269.557 231.748 269.471 231.827 269.406C231.906 269.341 232.002 269.301 232.103 269.291C232.204 269.281 232.306 269.301 232.396 269.349C232.486 269.397 232.56 269.471 232.608 269.561C232.672 269.681 232.686 269.821 232.647 269.952C232.607 270.082 232.518 270.192 232.398 270.256Z" fill="#263238"/>
    <path d="M196.083 351.474C196.083 351.474 195.244 351.931 195.13 353.723C195.016 355.514 193.358 358.859 197.198 358.992C201.038 359.126 200.504 359.326 202.067 359.945C203.63 360.564 207.013 361.994 209.691 360.088C212.368 358.182 209.281 357.172 208.156 356.791C206.16 356.132 204.262 355.206 202.515 354.037C201.81 353.567 201.169 353.006 200.609 352.369L196.083 351.474Z" fill="#263238"/>
    <path d="M183.695 355.933C183.695 355.933 183.037 356.124 183.009 357.439C182.98 358.754 181.941 360.755 183.352 361.946C184.762 363.137 184.981 362.985 185.839 364.805C186.364 366.134 187.367 367.218 188.651 367.844C189.935 368.47 191.406 368.593 192.776 368.188C196.883 367.283 194.291 364.815 193.948 364.452C193.605 364.09 189.584 360.117 189.184 358.811C188.943 358.091 188.64 357.392 188.278 356.724L183.695 355.933Z" fill="#263238"/>
    <path d="M183.695 354.294V356.724C183.695 356.724 183.99 357.858 186.239 357.858C187.449 357.858 188.24 357.144 188.259 356.724V354.056L183.695 354.294Z" fill="#FFA8A7"/>
    <path d="M196.083 349.958V352.379C196.083 352.379 196.378 353.522 198.627 353.522C199.837 353.522 200.638 352.798 200.657 352.379V349.72L196.083 349.958Z" fill="#FFA8A7"/>
    <path d="M202.944 293.307L204.659 321.352C204.737 322.675 204.686 324.003 204.506 325.316L200.933 351.264C200.061 351.618 199.111 351.736 198.179 351.606C197.247 351.475 196.366 351.101 195.625 350.521L194.234 329.776C194.112 328.028 194.348 326.273 194.93 324.62L195.482 323.058L190.47 295.251L202.944 293.307Z" fill="#455A64"/>
    <path d="M199.504 300.645C199.504 300.645 198.656 303.961 194.415 306.01L193.567 312.261L191.728 302.084L199.504 300.645Z" fill="#37474F"/>
    <path d="M200.847 294.441C200.847 294.441 201.448 299.749 197.341 303.189C196.207 304.195 194.819 304.87 193.329 305.143L191.966 324.849L188.669 355.647C188.669 355.647 186.677 357.315 182.999 355.647L181.255 332.568C181.063 329.977 181.532 327.38 182.618 325.021L182.694 324.849C181.785 314.603 181.466 304.314 181.741 294.032L200.847 294.441Z" fill="#455A64"/>
    <path d="M206.498 274.049L207.985 277.003C207.985 277.003 214.655 279.366 218.6 279.28L220.306 283.426C217.135 283.662 213.952 283.697 210.777 283.53C206.136 283.235 205.45 283.111 204.106 281.348C202.763 279.585 200.695 276.355 200.695 276.355L206.498 274.049Z" fill="#FFA8A7"/>
    <path d="M218.6 279.28C218.96 279.034 219.295 278.753 219.601 278.442C219.892 278.074 220.254 277.768 220.664 277.54C221.075 277.313 221.526 277.169 221.992 277.117C223.107 276.841 223.317 275.964 223.898 276.26C224.48 276.555 223.46 278.528 222.259 278.861C223.123 278.954 223.996 278.836 224.804 278.518C225.814 278.003 227.405 277.308 228.053 277.565C228.701 277.822 228.787 281.329 226.462 282.663C224.137 283.997 219.343 283.368 219.343 283.368L218.6 279.28Z" fill="#FFA8A7"/>
    <path d="M196.083 260.794C197.128 260.584 198.214 260.716 199.178 261.171C200.143 261.625 200.935 262.379 201.438 263.319L207.07 273.868C207.07 273.868 205.564 277.089 200.666 277.251L196.083 260.794Z" fill="#689AC8"/>
    <path opacity="0.5" d="M196.083 260.794C197.128 260.584 198.214 260.716 199.178 261.171C200.143 261.625 200.935 262.379 201.438 263.319L207.07 273.868C207.07 273.868 205.564 277.089 200.666 277.251L196.083 260.794Z" fill="black"/>
    <path d="M181.989 279.261L180.302 283.597L178.539 298.262L174.289 299.606C174.289 299.606 173.927 290.782 174.108 284.855C174.155 283.268 174.451 281.699 174.985 280.205L176.176 276.869L181.989 279.261Z" fill="#FFA8A7"/>
    <path d="M188.135 262.252L182.789 263.786L181.789 278.737V294.032C181.789 294.032 185.115 296.89 193.014 296.89C196.644 296.817 200.148 295.547 202.982 293.279V274.049C202.982 272.324 203.668 262.442 196.149 260.708L194.863 260.965L188.135 262.252Z" fill="#689AC8"/>
    <path opacity="0.3" d="M188.135 262.252L182.789 263.786L181.789 278.737V294.032C181.789 294.032 185.115 296.89 193.014 296.89C196.644 296.817 200.148 295.547 202.982 293.279V274.049C202.982 272.324 203.668 262.442 196.149 260.708L194.863 260.965L188.135 262.252Z" fill="black"/>
    <path d="M185.81 262.919C185.81 262.919 187.602 264.691 186.315 269.646C185.26 273.399 183.987 277.086 182.503 280.691C181.164 280.943 179.781 280.828 178.502 280.356C177.224 279.885 176.097 279.075 175.242 278.013L179.054 267.531C179.375 266.62 179.91 265.799 180.612 265.136C181.315 264.473 182.166 263.987 183.094 263.719L185.81 262.919Z" fill="#689AC8"/>
    <path opacity="0.5" d="M185.81 262.919C185.81 262.919 187.602 264.691 186.315 269.646C185.26 273.399 183.987 277.086 182.503 280.691C181.164 280.943 179.781 280.828 178.502 280.356C177.224 279.885 176.097 279.075 175.242 278.013L179.054 267.531C179.375 266.62 179.91 265.799 180.612 265.136C181.315 264.473 182.166 263.987 183.094 263.719L185.81 262.919Z" fill="black"/>
    <path d="M178.539 298.263C178.763 298.636 179.021 298.987 179.311 299.311C180.005 299.951 180.422 300.836 180.474 301.779C180.674 302.913 181.541 303.18 181.207 303.761C180.874 304.342 178.968 303.18 178.72 301.96C178.568 302.816 178.627 303.695 178.892 304.523C179.34 305.562 179.94 307.201 179.673 307.83C179.406 308.459 175.862 308.316 174.689 305.924C173.517 303.532 174.442 298.787 174.442 298.787L178.539 298.263Z" fill="#FFA8A7"/>
    <path d="M200.981 243.45C200.981 243.45 202.229 244.727 202.229 248.091C202.229 251.455 199.447 254.361 199.447 254.361V243.641L200.981 243.45Z" fill="#263238"/>
    <path d="M200.981 244.327C201.518 244.012 201.972 243.573 202.304 243.045C202.636 242.518 202.835 241.918 202.886 241.297C203.058 239.153 201.8 239.925 201.371 240.106C200.942 240.287 199.637 240.763 199.637 240.763C199.637 240.763 200.828 239.525 200.123 238.695C199.599 238.086 197.054 240.01 193.853 240.392C190.651 240.773 187.563 240.744 186.658 243.613C186.658 243.613 183.561 244.232 184.304 249.664C185.048 255.095 187.163 258.24 188.116 258.183L200.981 244.327Z" fill="#263238"/>
    <path d="M188.135 262.252L190.937 264.024C191.555 264.418 192.269 264.635 193.002 264.65C193.735 264.665 194.458 264.478 195.092 264.11C195.34 263.967 195.547 263.764 195.695 263.519C195.843 263.274 195.926 262.995 195.936 262.71C195.947 262.424 195.884 262.14 195.755 261.885C195.625 261.629 195.433 261.411 195.196 261.251L194.825 261.013V253.285H188.154L188.135 262.252Z" fill="#FFA8A7"/>
    <path d="M194.825 261.013C193.374 260.811 192.016 260.183 190.923 259.207C189.83 258.231 189.052 256.953 188.688 255.534V253.285H194.825V261.013Z" fill="#F28F8F"/>
    <path d="M196.388 242.317C196.388 242.317 202.753 242.555 201.6 252.799C201.066 257.62 200.647 260.279 196.54 260.279C192.433 260.279 186.334 257.173 186.725 248.901C187.116 240.63 196.388 242.317 196.388 242.317Z" fill="#FFA8A7"/>
    <path d="M197.026 250.769V254.361L199.132 253.713L197.026 250.769Z" fill="#F28F8F"/>
    <path d="M193.958 251.388C193.958 251.534 194.001 251.676 194.082 251.797C194.163 251.918 194.278 252.012 194.413 252.067C194.547 252.122 194.695 252.136 194.838 252.107C194.981 252.078 195.111 252.007 195.213 251.904C195.316 251.8 195.385 251.669 195.412 251.526C195.439 251.383 195.423 251.235 195.366 251.101C195.309 250.967 195.214 250.853 195.092 250.774C194.97 250.694 194.827 250.653 194.682 250.655C194.489 250.657 194.305 250.736 194.169 250.873C194.033 251.01 193.958 251.195 193.958 251.388Z" fill="#263238"/>
    <path d="M198.77 250.874C198.77 251.019 198.813 251.161 198.893 251.281C198.974 251.402 199.089 251.496 199.223 251.552C199.357 251.607 199.504 251.622 199.647 251.593C199.789 251.565 199.92 251.495 200.022 251.393C200.125 251.29 200.195 251.159 200.223 251.017C200.251 250.875 200.237 250.727 200.181 250.593C200.126 250.459 200.032 250.344 199.911 250.264C199.791 250.183 199.649 250.14 199.504 250.14C199.309 250.14 199.122 250.217 198.985 250.355C198.847 250.493 198.77 250.679 198.77 250.874Z" fill="#263238"/>
    <path d="M200.399 249.359L198.941 248.501C198.941 248.501 199.494 247.929 200.047 248.272C200.209 248.396 200.33 248.566 200.393 248.76C200.456 248.954 200.458 249.163 200.399 249.359Z" fill="#263238"/>
    <path d="M194.301 249.101L193.014 250.159C193.014 250.159 192.662 249.444 193.176 249.044C193.345 248.933 193.545 248.879 193.748 248.889C193.95 248.899 194.143 248.974 194.301 249.101Z" fill="#263238"/>
    <path d="M196.692 256.029C196.692 256.029 194.081 255.362 194.72 255.505C194.72 255.505 194.587 256.544 195.454 256.744C195.711 256.787 195.975 256.739 196.201 256.609C196.427 256.478 196.601 256.273 196.692 256.029Z" fill="#F28F8F"/>
    <path d="M200.981 244.327C200.981 244.327 198.951 246.233 193.739 245.842C188.526 245.452 188.974 246.89 189.555 249.33C189.946 251.007 189.984 255.467 188.688 253.285H186.106V248.129C186.106 247.265 186.276 246.408 186.607 245.609C186.938 244.81 187.423 244.085 188.034 243.473C188.646 242.862 189.372 242.377 190.171 242.046C190.969 241.715 191.826 241.545 192.69 241.545H197.989L200.981 244.327Z" fill="#263238"/>
    <path d="M188.745 253.018C188.745 253.018 188.488 250.55 186.773 250.502C186.47 250.502 186.172 250.567 185.896 250.692C185.621 250.817 185.375 250.999 185.176 251.226C184.977 251.453 184.828 251.721 184.74 252.01C184.653 252.299 184.627 252.604 184.667 252.904C184.735 253.902 185.189 254.835 185.932 255.505C186.675 256.175 187.65 256.531 188.65 256.496L188.745 253.018Z" fill="#FFA8A7"/>
    <path d="M186.687 243.641C186.687 243.641 185.372 241.888 186.22 241.163C187.068 240.439 187.459 243.441 187.459 243.441L186.687 243.641Z" fill="#263238"/>
    <path d="M186.801 244.194C186.801 244.194 184.609 244.194 184.562 243.05C184.514 241.907 187.116 243.46 187.116 243.46L186.801 244.194Z" fill="#263238"/>
    <path d="M324.994 60.6804L332.131 64.7399V62.2146C332.131 62.0336 332.131 61.8525 332.131 61.6715C332.131 61.4904 332.131 61.3284 332.131 61.1664V61.1092C332.388 57.755 334.923 56.478 338.011 58.2505C339.411 59.1092 340.611 60.2598 341.527 61.6238C342.222 57.0784 345.939 55.4394 350.418 58.0313C355.401 60.8901 359.432 67.894 359.432 73.6497V79.0527C359.432 79.4816 359.543 79.903 359.756 80.2757C359.968 80.6483 360.273 80.9592 360.642 81.1777L364.835 83.6363C365.746 84.17 366.502 84.9328 367.027 85.8489C367.552 86.765 367.828 87.8025 367.827 88.8583C367.828 89.2955 367.713 89.7252 367.494 90.1039C367.276 90.4826 366.961 90.797 366.583 91.0154C366.204 91.2338 365.774 91.3485 365.337 91.3479C364.9 91.3472 364.47 91.2314 364.092 91.0119L325.089 68.4848C324.055 67.8857 323.197 67.0255 322.6 65.9903C322.003 64.9551 321.688 63.7813 321.687 62.5863C321.687 62.1992 321.788 61.8189 321.982 61.4837C322.175 61.1484 322.454 60.8701 322.789 60.6769C323.124 60.4836 323.505 60.3821 323.892 60.3828C324.279 60.3834 324.659 60.4861 324.994 60.6804Z" fill="#E6E6E6"/>
    <path d="M288.297 14.8544L293.576 17.8561V15.9503C293.576 15.8169 293.576 15.6835 293.576 15.5596C293.576 15.4357 293.576 15.3023 293.576 15.1784C293.766 12.7008 295.644 11.7479 297.931 13.0725C298.97 13.7038 299.859 14.5561 300.532 15.5691C301.047 12.2053 303.791 10.9951 307.107 12.9105C309.05 14.1741 310.667 15.8789 311.826 17.8859C312.985 19.893 313.654 22.1455 313.778 24.4599V28.4621C313.779 28.778 313.862 29.0881 314.019 29.3621C314.176 29.6361 314.401 29.8645 314.673 30.0249L317.78 31.845C318.448 32.2451 319.001 32.8122 319.383 33.4906C319.766 34.1689 319.965 34.9351 319.962 35.7139C319.962 36.0373 319.877 36.3551 319.716 36.6351C319.554 36.9152 319.321 37.1476 319.041 37.309C318.761 37.4704 318.443 37.5551 318.119 37.5544C317.796 37.5537 317.478 37.4678 317.199 37.3052L288.382 20.6577C287.615 20.2167 286.977 19.581 286.534 18.8147C286.09 18.0484 285.857 17.1787 285.857 16.2933C285.853 16.0057 285.925 15.7219 286.065 15.471C286.206 15.2201 286.411 15.0109 286.659 14.8647C286.906 14.7186 287.188 14.6406 287.476 14.6388C287.764 14.637 288.047 14.7114 288.297 14.8544Z" fill="#E6E6E6"/>
    <path d="M110.958 52.6378L103.821 56.6973V54.172C103.821 53.991 103.821 53.8099 103.821 53.6384C103.821 53.4669 103.821 53.2858 103.821 53.1238V53.0571C103.563 49.7124 101.029 48.4259 97.9316 50.1983C96.5332 51.0609 95.3372 52.2148 94.4249 53.5812C93.7197 49.0358 90.0128 47.3872 85.5341 49.9792C80.5503 52.8379 76.5195 59.8419 76.5195 65.5975V71.0101C76.52 71.4377 76.4085 71.858 76.1962 72.2291C75.9839 72.6002 75.6781 72.9093 75.3093 73.1256L71.1069 75.5841C70.1983 76.1198 69.4453 76.8833 68.9222 77.7991C68.3991 78.7149 68.1241 79.7514 68.1243 80.8062C68.1251 81.2431 68.2405 81.6722 68.4591 82.0505C68.6776 82.4289 68.9917 82.7432 69.3698 82.9622C69.7479 83.1811 70.1769 83.297 70.6138 83.2983C71.0507 83.2995 71.4804 83.1861 71.8597 82.9693L110.863 60.4327C111.899 59.8358 112.759 58.976 113.356 57.9404C113.953 56.9047 114.267 55.7297 114.265 54.5341C114.263 54.1479 114.161 53.7688 113.966 53.4349C113.772 53.101 113.494 52.824 113.159 52.6319C112.823 52.4397 112.444 52.3391 112.057 52.3402C111.671 52.3412 111.292 52.4439 110.958 52.6378Z" fill="#E6E6E6"/>
</svg>
