<svg width="424" height="404" viewBox="0 0 424 404" fill="none" xmlns="http://www.w3.org/2000/svg">
<path d="M106.82 24.9742L98.821 29.5989C98.8623 29.25 98.8833 28.8991 98.8841 28.5478V26.2355C98.8841 22.1048 95.9832 20.4336 92.4096 22.4937C90.8761 23.4441 89.5614 24.7086 88.5522 26.204C87.9741 21.0117 83.896 19.0778 78.956 21.9367C73.6061 25.0268 69.2652 32.5313 69.2652 38.7536V42.2221C69.2345 43.605 69.5146 44.9771 70.085 46.2372L63.4003 50.021C62.3538 50.7022 61.4829 51.6207 60.8583 52.7019C60.2337 53.7831 59.873 54.9964 59.8057 56.2433C59.8057 58.5346 61.4138 59.4595 63.4003 58.3454L106.778 33.2986C107.823 32.6184 108.693 31.7016 109.317 30.6223C109.942 29.5431 110.303 28.3319 110.372 27.0869C110.414 24.764 108.806 23.8286 106.82 24.9742Z" fill="#E6E6E6"/>
<path d="M5.73879 35.3061L10.1532 31.8902V22.1784C10.1532 14.4636 16.3019 5.50856 22.9762 1.65117C29.6609 -2.20622 35.0739 0.925943 35.0739 8.64073V10.0491C36.4796 7.76468 38.4021 5.8422 40.6865 4.43648C45.4899 1.66169 49.3893 3.91095 49.3893 9.46055V10.1017L55.5485 6.54911C58.7017 4.72027 61.2768 6.20227 61.2768 9.85995C61.1681 11.8474 60.5928 13.7813 59.5976 15.5051C58.6024 17.2288 57.2153 18.694 55.5485 19.782L5.73879 48.539C2.58561 50.3678 0 48.8858 0 45.2281C0.104935 43.2386 0.679694 41.3022 1.6772 39.5776C2.6747 37.853 4.06657 36.3892 5.73879 35.3061Z" fill="#E6E6E6"/>
<path d="M18.436 316.192C18.556 317.823 19.058 319.404 19.9015 320.807C20.745 322.209 21.9064 323.393 23.2919 324.264L159.394 402.841C160.901 403.603 162.566 404 164.255 404C165.944 404 167.609 403.603 169.116 402.841L370.825 286.394C372.29 285.616 373.515 284.455 374.369 283.033C375.224 281.612 375.675 279.985 375.675 278.327C375.675 276.669 375.224 275.042 374.369 273.621C373.515 272.2 372.29 271.038 370.825 270.26L234.723 191.651C233.218 190.884 231.552 190.485 229.862 190.485C228.172 190.485 226.507 190.884 225.001 191.651L23.2919 308.13C21.9066 308.998 20.7452 310.18 19.9016 311.581C19.058 312.982 18.5559 314.561 18.436 316.192Z" fill="#37474F"/>
<path d="M164.302 393.455V403.966C162.611 404.004 160.939 403.605 159.446 402.809L23.2918 324.264C21.8696 323.513 20.6717 322.399 19.82 321.035C18.9682 319.671 18.4931 318.105 18.4429 316.498C18.3927 314.891 18.7693 313.299 19.5342 311.884C20.2992 310.47 21.4252 309.283 22.7978 308.445C20.6221 310.001 20.7902 312.292 23.2918 313.7L159.404 392.288C160.908 393.095 162.596 393.497 164.302 393.455Z" fill="#263238"/>
<path d="M13.8753 308.319C12.5231 307.399 11.4064 306.174 10.6158 304.742C9.8251 303.311 9.38264 301.713 9.32422 300.079V137.637C9.41652 135.953 9.90423 134.314 10.7479 132.853C11.5915 131.392 12.7673 130.151 14.1801 129.229L215.889 12.7819C217.341 12.01 218.954 11.5914 220.597 11.5604C222.241 11.5293 223.869 11.8866 225.349 12.6032C226.699 13.5248 227.814 14.7506 228.605 16.1818C229.395 17.613 229.839 19.2097 229.9 20.8435V183.243C229.808 184.927 229.321 186.567 228.477 188.028C227.633 189.489 226.457 190.73 225.044 191.651L23.2928 308.13C21.8478 308.897 20.2425 309.314 18.6066 309.347C16.9707 309.38 15.35 309.028 13.8753 308.319Z" fill="#455A64"/>
<path d="M22.7238 308.424C21.3282 309.048 19.8134 309.36 18.2849 309.338C16.7564 309.316 15.2511 308.961 13.8738 308.298C12.5216 307.378 11.405 306.153 10.6143 304.721C9.82363 303.29 9.38118 301.692 9.32275 300.058V137.637C9.37639 135.946 9.869 134.298 10.7522 132.855L19.8544 138.11C18.9848 139.555 18.4966 141.197 18.4354 142.882V305.324C18.4354 308.193 20.3063 309.486 22.7238 308.424Z" fill="#263238"/>
<path d="M18.436 142.903V305.324C18.436 308.477 20.6117 309.675 23.2919 308.13L225.001 191.651C226.414 190.73 227.591 189.489 228.434 188.028C229.278 186.567 229.765 184.928 229.857 183.243V20.8436C229.857 17.7534 227.692 16.4922 225.001 18.0477L23.2919 134.484C21.8789 135.408 20.7031 136.652 19.8596 138.114C19.016 139.577 18.5284 141.217 18.436 142.903Z" fill="#37474F"/>
<path d="M23.2914 313.732L159.393 392.32C160.9 393.082 162.566 393.479 164.254 393.479C165.943 393.479 167.608 393.082 169.116 392.32L370.825 275.873C373.505 274.317 373.505 271.805 370.825 270.26L234.723 191.651C233.217 190.884 231.551 190.485 229.862 190.485C228.172 190.485 226.506 190.884 225 191.651L23.2914 308.13C20.6112 309.675 20.6112 312.187 23.2914 313.732Z" fill="#455A64"/>
<path d="M25.9083 140.728L220.933 28.1589C222.541 27.234 223.854 27.9908 223.854 29.8511V179.701C223.798 180.712 223.504 181.696 222.997 182.573C222.489 183.449 221.782 184.194 220.933 184.746L25.9083 297.314C24.3002 298.239 22.9863 297.483 22.9863 295.622V145.773C23.0425 144.761 23.3363 143.777 23.844 142.901C24.3517 142.024 25.0589 141.28 25.9083 140.728Z" fill="#7EC2FF"/>
<path opacity="0.4" d="M25.9083 140.728L220.933 28.1589C222.541 27.234 223.854 27.9908 223.854 29.8511V179.701C223.798 180.712 223.504 181.696 222.997 182.573C222.489 183.449 221.782 184.194 220.933 184.746L25.9083 297.314C24.3002 298.239 22.9863 297.483 22.9863 295.622V145.773C23.0425 144.761 23.3363 143.777 23.844 142.901C24.3517 142.024 25.0589 141.28 25.9083 140.728Z" fill="black"/>
<path d="M39.089 309.528L227.439 200.806C228.191 200.422 229.023 200.222 229.867 200.222C230.711 200.222 231.543 200.422 232.295 200.806L241.134 205.904C242.469 206.682 242.469 207.932 241.134 208.71L52.7633 317.421C52.0115 317.805 51.1795 318.005 50.3354 318.005C49.4913 318.005 48.6592 317.805 47.9074 317.421L39.089 312.334C37.7542 311.556 37.7542 310.306 39.089 309.528Z" fill="#37474F"/>
<path d="M61.8763 322.687L250.216 213.955C250.968 213.571 251.8 213.371 252.644 213.371C253.488 213.371 254.32 213.571 255.072 213.955L309.454 245.35C310.799 246.128 310.799 247.389 309.454 248.156L121.314 356.752C120.559 357.133 119.726 357.331 118.881 357.331C118.035 357.331 117.202 357.133 116.447 356.752L61.8868 325.483C60.5415 324.716 60.531 323.454 61.8763 322.687Z" fill="#263238"/>
<path d="M227.366 260.191L233.294 256.765C233.546 256.617 233.557 256.386 233.294 256.239L227.072 252.613C226.93 252.546 226.776 252.511 226.62 252.511C226.463 252.511 226.309 252.546 226.168 252.613L220.229 256.039C219.987 256.186 219.977 256.418 220.229 256.554L226.536 260.17C226.665 260.23 226.806 260.262 226.949 260.266C227.091 260.27 227.233 260.244 227.366 260.191ZM217.202 247.473L211.274 250.9C211.221 250.919 211.175 250.953 211.142 251C211.11 251.046 211.092 251.101 211.092 251.157C211.092 251.214 211.11 251.269 211.142 251.315C211.175 251.361 211.221 251.396 211.274 251.415L217.58 255.03C217.722 255.098 217.876 255.132 218.032 255.132C218.189 255.132 218.343 255.098 218.484 255.03L224.423 251.604C224.48 251.588 224.53 251.553 224.566 251.506C224.602 251.458 224.621 251.4 224.621 251.341C224.621 251.282 224.602 251.224 224.566 251.177C224.53 251.129 224.48 251.095 224.423 251.078L218.117 247.463C217.976 247.399 217.823 247.366 217.669 247.368C217.514 247.37 217.362 247.406 217.223 247.473H217.202ZM198.041 258.53L188.014 264.322C187.762 264.469 187.751 264.711 188.014 264.847L194.321 268.463C194.462 268.53 194.616 268.565 194.772 268.565C194.929 268.565 195.083 268.53 195.224 268.463L205.262 262.672C205.514 262.524 205.514 262.293 205.262 262.146L198.956 258.541C198.818 258.468 198.666 258.429 198.51 258.428C198.355 258.426 198.201 258.461 198.062 258.53H198.041ZM208.552 252.476L202.613 255.903C202.361 256.05 202.361 256.281 202.613 256.418L208.92 260.033C209.061 260.101 209.215 260.135 209.372 260.135C209.528 260.135 209.682 260.101 209.824 260.033L215.752 256.607C216.004 256.46 216.004 256.229 215.752 256.081L209.445 252.466C209.307 252.399 209.156 252.365 209.003 252.367C208.849 252.369 208.699 252.406 208.562 252.476H208.552ZM185.323 265.909L179.395 269.325C179.143 269.472 179.143 269.714 179.395 269.85L185.702 273.466C185.843 273.533 185.997 273.568 186.154 273.568C186.31 273.568 186.465 273.533 186.606 273.466L192.534 270.05C192.786 269.903 192.786 269.672 192.534 269.524L186.227 265.909C186.086 265.842 185.932 265.807 185.775 265.807C185.619 265.807 185.465 265.842 185.323 265.909ZM176.663 270.912L170.724 274.338C170.671 274.357 170.625 274.392 170.592 274.438C170.56 274.484 170.542 274.539 170.542 274.596C170.542 274.652 170.56 274.707 170.592 274.753C170.625 274.8 170.671 274.834 170.724 274.853L176.915 278.469C177.054 278.542 177.21 278.58 177.367 278.58C177.524 278.58 177.679 278.542 177.819 278.469L183.747 275.053C183.999 274.906 183.999 274.675 183.747 274.527L177.493 270.912C177.358 270.851 177.211 270.819 177.062 270.819C176.914 270.819 176.767 270.851 176.631 270.912H176.663ZM201.236 285.627L207.164 282.2C207.417 282.053 207.417 281.822 207.164 281.685L200.911 278.07C200.769 278.002 200.615 277.967 200.459 277.967C200.302 277.967 200.148 278.002 200.007 278.07L194.068 281.496C194.011 281.512 193.961 281.547 193.925 281.594C193.889 281.642 193.87 281.699 193.87 281.759C193.87 281.818 193.889 281.876 193.925 281.923C193.961 281.971 194.011 282.005 194.068 282.022L200.322 285.637C200.461 285.7 200.612 285.731 200.765 285.729C200.917 285.727 201.067 285.692 201.205 285.627H201.236ZM192.565 290.63L198.504 287.203C198.756 287.056 198.756 286.825 198.504 286.688L192.218 283.094C192.077 283.026 191.923 282.991 191.766 282.991C191.61 282.991 191.456 283.026 191.314 283.094L185.387 286.52C185.134 286.667 185.134 286.898 185.387 287.046L191.64 290.661C191.782 290.722 191.936 290.751 192.091 290.745C192.245 290.74 192.396 290.7 192.534 290.63H192.565ZM183.905 295.633L189.832 292.206C189.886 292.187 189.932 292.153 189.964 292.106C189.997 292.06 190.014 292.005 190.014 291.949C190.014 291.892 189.997 291.837 189.964 291.791C189.932 291.745 189.886 291.71 189.832 291.691L183.526 288.076C183.387 288.003 183.232 287.965 183.074 287.965C182.917 287.965 182.762 288.003 182.622 288.076L176.715 291.502C176.463 291.649 176.463 291.88 176.715 292.028L183.022 295.643C183.156 295.701 183.302 295.73 183.448 295.728C183.595 295.726 183.74 295.694 183.873 295.633H183.905ZM175.233 300.636L181.161 297.209C181.413 297.073 181.424 296.831 181.161 296.694L174.855 293.079C174.714 293.011 174.559 292.977 174.403 292.977C174.247 292.977 174.092 293.011 173.951 293.079L168.023 296.495C167.771 296.642 167.76 296.873 168.023 297.02L174.277 300.636C174.421 300.706 174.579 300.743 174.739 300.743C174.9 300.743 175.058 300.706 175.202 300.636H175.233ZM218.716 265.226L224.654 261.799C224.711 261.783 224.761 261.748 224.797 261.701C224.833 261.654 224.852 261.596 224.852 261.536C224.852 261.477 224.833 261.419 224.797 261.372C224.761 261.324 224.711 261.29 224.654 261.274L218.348 257.668C218.208 257.596 218.053 257.558 217.896 257.558C217.738 257.558 217.583 257.596 217.444 257.668L211.6 261.021C211.348 261.169 211.348 261.4 211.6 261.536L217.854 265.152C217.984 265.225 218.128 265.269 218.277 265.282C218.425 265.294 218.575 265.275 218.716 265.226ZM209.876 280.655L223.099 273.014C223.351 272.867 223.351 272.636 223.099 272.499L207.9 263.723C207.759 263.655 207.605 263.62 207.448 263.62C207.292 263.62 207.137 263.655 206.996 263.723L200.154 267.675C199.902 267.822 199.902 268.053 200.154 268.2L208.205 272.846C208.258 272.865 208.304 272.9 208.337 272.946C208.369 272.992 208.387 273.047 208.387 273.103C208.387 273.16 208.369 273.215 208.337 273.261C208.304 273.307 208.258 273.342 208.205 273.361L202.729 276.514C202.477 276.661 202.477 276.892 202.729 277.04L209.035 280.645C209.168 280.704 209.313 280.733 209.458 280.729C209.604 280.726 209.746 280.689 209.876 280.624V280.655ZM167.96 275.946L162.032 279.373C161.979 279.392 161.933 279.427 161.9 279.473C161.868 279.519 161.85 279.574 161.85 279.63C161.85 279.687 161.868 279.742 161.9 279.788C161.933 279.834 161.979 279.869 162.032 279.888L168.286 283.504C168.427 283.571 168.581 283.606 168.738 283.606C168.894 283.606 169.048 283.571 169.19 283.504L175.128 280.077C175.185 280.061 175.236 280.026 175.271 279.979C175.307 279.931 175.326 279.874 175.326 279.814C175.326 279.755 175.307 279.697 175.271 279.65C175.236 279.602 175.185 279.568 175.128 279.552L168.874 275.936C168.733 275.864 168.578 275.824 168.42 275.821C168.261 275.817 168.104 275.849 167.96 275.915V275.946ZM159.299 280.949L153.361 284.376C153.108 284.523 153.108 284.754 153.361 284.891L159.667 288.507C159.808 288.574 159.963 288.609 160.119 288.609C160.275 288.609 160.43 288.574 160.571 288.507L166.499 285.08C166.751 284.933 166.751 284.702 166.499 284.555L160.193 280.939C160.056 280.866 159.904 280.825 159.748 280.822C159.593 280.818 159.439 280.851 159.299 280.918V280.949ZM113.631 335.647C113.772 335.714 113.926 335.749 114.083 335.749C114.239 335.749 114.393 335.714 114.535 335.647L120.463 332.22C120.715 332.073 120.725 331.842 120.463 331.695L114.156 328.09C114.017 328.017 113.862 327.979 113.704 327.979C113.547 327.979 113.392 328.017 113.252 328.09L107.324 331.516C107.072 331.663 107.061 331.894 107.324 332.031L113.631 335.647ZM89.9607 320.932L84.0328 324.348C83.7805 324.495 83.77 324.726 84.0328 324.873L90.2866 328.489C90.4277 328.556 90.5821 328.591 90.7385 328.591C90.8949 328.591 91.0493 328.556 91.1905 328.489L97.1185 325.062C97.3707 324.926 97.3812 324.684 97.1185 324.547L90.8121 320.932C90.6794 320.868 90.5339 320.834 90.3864 320.834C90.239 320.834 90.0935 320.868 89.9607 320.932ZM102.416 331.8C102.555 331.873 102.71 331.911 102.868 331.911C103.025 331.911 103.18 331.873 103.32 331.8L109.248 328.373C109.5 328.226 109.5 327.995 109.248 327.858L102.941 324.243C102.802 324.17 102.647 324.132 102.489 324.132C102.332 324.132 102.177 324.17 102.037 324.243L96.1094 327.669C95.8572 327.816 95.8572 328.047 96.1094 328.195L102.416 331.8ZM128.041 338.169L133.969 334.743C134.022 334.724 134.068 334.689 134.1 334.643C134.133 334.597 134.15 334.542 134.15 334.485C134.15 334.429 134.133 334.374 134.1 334.328C134.068 334.282 134.022 334.247 133.969 334.228L127.662 330.612C127.521 330.545 127.367 330.51 127.21 330.51C127.054 330.51 126.9 330.545 126.758 330.612L120.83 334.028C120.578 334.175 120.578 334.406 120.83 334.554L127.137 338.169C127.276 338.24 127.43 338.278 127.586 338.282C127.743 338.285 127.898 338.254 128.041 338.19V338.169ZM118.465 343.183C118.607 343.25 118.761 343.285 118.917 343.285C119.074 343.285 119.228 343.25 119.369 343.183L125.297 339.756C125.55 339.62 125.56 339.378 125.297 339.241L119.107 335.647C118.965 335.579 118.811 335.545 118.655 335.545C118.498 335.545 118.344 335.579 118.203 335.647L112.275 339.063C112.022 339.21 112.012 339.441 112.275 339.588L118.465 343.183ZM98.632 315.918L92.6935 319.345C92.6364 319.361 92.5861 319.395 92.5504 319.443C92.5146 319.49 92.4953 319.548 92.4953 319.607C92.4953 319.667 92.5146 319.725 92.5504 319.772C92.5861 319.819 92.6364 319.854 92.6935 319.87L98.9473 323.486C99.0885 323.553 99.2429 323.588 99.3993 323.588C99.5556 323.588 99.71 323.553 99.8512 323.486L105.779 320.059C106.031 319.912 106.031 319.681 105.779 319.544L99.4728 315.929C99.3405 315.869 99.1966 315.838 99.0512 315.84C98.9059 315.842 98.7627 315.876 98.632 315.939V315.918ZM141.957 290.903L136.029 294.329C135.776 294.477 135.776 294.708 136.029 294.844L142.335 298.46C142.475 298.533 142.63 298.571 142.787 298.571C142.944 298.571 143.099 298.533 143.239 298.46L149.167 295.034C149.419 294.887 149.419 294.655 149.167 294.508L142.861 290.903C142.719 290.833 142.563 290.799 142.406 290.803C142.249 290.806 142.095 290.848 141.957 290.924V290.903ZM107.272 310.873L101.344 314.3C101.091 314.447 101.091 314.678 101.344 314.825L107.598 318.43C107.737 318.503 107.892 318.541 108.049 318.541C108.207 318.541 108.362 318.503 108.501 318.43L114.44 315.004C114.692 314.857 114.692 314.625 114.44 314.489L108.186 310.873C108.042 310.817 107.887 310.794 107.732 310.805C107.578 310.816 107.428 310.861 107.293 310.936L107.272 310.873ZM150.638 285.921L144.7 289.4C144.448 289.547 144.437 289.778 144.7 289.915L150.954 293.531C151.093 293.603 151.248 293.641 151.406 293.641C151.563 293.641 151.718 293.603 151.858 293.531L157.786 290.104C158.038 289.957 158.048 289.726 157.786 289.579L151.479 285.974C151.352 285.903 151.21 285.861 151.065 285.852C150.919 285.843 150.774 285.866 150.638 285.921ZM133.306 295.927L127.378 299.354C127.126 299.501 127.116 299.732 127.378 299.879L133.685 303.484C133.824 303.557 133.979 303.595 134.137 303.595C134.294 303.595 134.449 303.557 134.589 303.484L140.517 300.058C140.769 299.911 140.78 299.679 140.517 299.532L134.263 295.927C134.116 295.843 133.949 295.799 133.779 295.799C133.61 295.799 133.443 295.843 133.296 295.927H133.306ZM124.625 300.962L118.697 304.388C118.444 304.535 118.444 304.767 118.697 304.914L125.003 308.519C125.143 308.592 125.298 308.63 125.455 308.63C125.612 308.63 125.767 308.592 125.907 308.519L131.835 305.092C132.087 304.945 132.087 304.714 131.835 304.577L125.529 300.962C125.389 300.889 125.234 300.851 125.077 300.851C124.919 300.851 124.764 300.889 124.625 300.962ZM115.953 305.933L110.036 309.37C109.784 309.517 109.773 309.749 110.036 309.896L116.29 313.501C116.429 313.574 116.584 313.612 116.742 313.612C116.899 313.612 117.054 313.574 117.194 313.501L123.122 310.074C123.374 309.927 123.384 309.696 123.122 309.559L116.868 305.944C116.726 305.873 116.57 305.836 116.412 305.834C116.254 305.832 116.097 305.866 115.953 305.933ZM157.859 310.642L163.787 307.226C164.039 307.079 164.05 306.848 163.787 306.7L157.554 303.064C157.413 302.997 157.259 302.962 157.102 302.962C156.946 302.962 156.792 302.997 156.651 303.064L150.723 306.48C150.47 306.627 150.46 306.858 150.723 307.005L157.029 310.621C157.16 310.682 157.302 310.716 157.447 310.719C157.592 310.723 157.736 310.696 157.87 310.642H157.859ZM236.373 236.416L230.445 239.832C230.193 239.979 230.183 240.21 230.445 240.358L236.699 243.973C236.84 244.04 236.995 244.075 237.151 244.075C237.308 244.075 237.462 244.04 237.603 243.973L243.531 240.547C243.783 240.41 243.794 240.168 243.531 240.032L237.277 236.416C237.139 236.345 236.986 236.308 236.831 236.308C236.675 236.308 236.522 236.345 236.384 236.416H236.373ZM225.863 242.47L220.008 245.897C219.955 245.915 219.909 245.95 219.877 245.997C219.844 246.043 219.827 246.098 219.827 246.154C219.827 246.211 219.844 246.266 219.877 246.312C219.909 246.358 219.955 246.393 220.008 246.412L226.262 250.027C226.403 250.095 226.558 250.129 226.714 250.129C226.871 250.129 227.025 250.095 227.166 250.027L233.094 246.611C233.346 246.464 233.346 246.233 233.094 246.086L226.788 242.47C226.648 242.405 226.495 242.37 226.341 242.37C226.187 242.37 226.034 242.405 225.894 242.47H225.863ZM245.013 231.402L239.085 234.829C238.833 234.976 238.833 235.207 239.085 235.354L245.392 238.97C245.533 239.037 245.687 239.072 245.843 239.072C246 239.072 246.154 239.037 246.295 238.97L252.223 235.544C252.476 235.397 252.476 235.165 252.223 235.029L245.917 231.413C245.781 231.349 245.633 231.315 245.482 231.313C245.332 231.311 245.182 231.342 245.045 231.402H245.013ZM198.651 276.787L204.579 273.361C204.632 273.342 204.678 273.307 204.711 273.261C204.743 273.215 204.761 273.16 204.761 273.103C204.761 273.047 204.743 272.992 204.711 272.946C204.678 272.9 204.632 272.865 204.579 272.846L198.273 269.23C198.131 269.163 197.977 269.128 197.821 269.128C197.664 269.128 197.51 269.163 197.369 269.23L191.43 272.657C191.373 272.673 191.323 272.707 191.287 272.755C191.251 272.802 191.232 272.86 191.232 272.919C191.232 272.979 191.251 273.037 191.287 273.084C191.323 273.131 191.373 273.166 191.43 273.182L197.684 276.798C197.834 276.874 198 276.912 198.169 276.91C198.337 276.909 198.502 276.866 198.651 276.787ZM254.62 226.41C254.479 226.343 254.324 226.308 254.168 226.308C254.012 226.308 253.857 226.343 253.716 226.41L247.788 229.836C247.536 229.984 247.525 230.215 247.788 230.362L254.042 233.978C254.183 234.045 254.337 234.08 254.494 234.08C254.65 234.08 254.804 234.045 254.946 233.978L260.874 230.551C261.126 230.404 261.136 230.173 260.874 230.036L254.62 226.41ZM166.541 305.649L172.469 302.233C172.721 302.086 172.721 301.845 172.469 301.708L166.163 298.092C166.021 298.025 165.867 297.99 165.711 297.99C165.554 297.99 165.4 298.025 165.259 298.092L159.331 301.508C159.078 301.655 159.078 301.887 159.331 302.034L165.637 305.649C165.779 305.715 165.934 305.748 166.09 305.746C166.247 305.744 166.401 305.708 166.541 305.639V305.649ZM272.814 244.288L278.752 240.862C278.805 240.843 278.851 240.808 278.884 240.762C278.917 240.716 278.934 240.661 278.934 240.605C278.934 240.548 278.917 240.493 278.884 240.447C278.851 240.401 278.805 240.366 278.752 240.347L272.446 236.731C272.305 236.664 272.15 236.629 271.994 236.629C271.837 236.629 271.683 236.664 271.542 236.731L265.614 240.147C265.362 240.294 265.362 240.526 265.614 240.673L271.92 244.288C272.06 244.357 272.213 244.392 272.368 244.39C272.523 244.388 272.676 244.35 272.814 244.278V244.288ZM255.208 244.131L261.147 240.704C261.2 240.685 261.246 240.651 261.279 240.604C261.311 240.558 261.329 240.503 261.329 240.447C261.329 240.39 261.311 240.335 261.279 240.289C261.246 240.243 261.2 240.208 261.147 240.189L254.893 236.574C254.752 236.506 254.598 236.472 254.441 236.472C254.285 236.472 254.13 236.506 253.989 236.574L248.061 240C247.809 240.147 247.798 240.379 248.061 240.526L254.315 244.141C254.456 244.204 254.61 244.234 254.764 244.231C254.919 244.227 255.07 244.189 255.208 244.12V244.131ZM263.554 231.592C263.415 231.521 263.262 231.485 263.107 231.485C262.952 231.485 262.799 231.521 262.66 231.592L256.722 235.018C256.665 235.034 256.615 235.069 256.579 235.116C256.543 235.164 256.524 235.222 256.524 235.281C256.524 235.34 256.543 235.398 256.579 235.445C256.615 235.493 256.665 235.527 256.722 235.544L262.976 239.159C263.117 239.227 263.271 239.261 263.428 239.261C263.584 239.261 263.738 239.227 263.88 239.159L269.808 235.733C269.861 235.714 269.907 235.679 269.939 235.633C269.972 235.587 269.989 235.532 269.989 235.475C269.989 235.419 269.972 235.364 269.939 235.318C269.907 235.272 269.861 235.237 269.808 235.218L263.554 231.592ZM265.383 230.541L280.581 239.317C280.722 239.384 280.877 239.419 281.033 239.419C281.189 239.419 281.344 239.384 281.485 239.317L287.413 235.891C287.665 235.754 287.676 235.512 287.413 235.375L272.215 226.599C272.073 226.532 271.919 226.497 271.763 226.497C271.606 226.497 271.452 226.532 271.311 226.599L265.383 230.026C265.141 230.131 265.141 230.362 265.383 230.541ZM245.318 241.577L239.39 244.993C239.138 245.14 239.138 245.371 239.39 245.518L245.696 249.134C245.838 249.201 245.992 249.236 246.148 249.236C246.305 249.236 246.459 249.201 246.6 249.134L252.528 245.718C252.781 245.571 252.781 245.329 252.528 245.192L246.222 241.577C246.081 241.51 245.926 241.475 245.77 241.475C245.614 241.475 245.459 241.51 245.318 241.577ZM180.068 279.236L174.14 282.652C173.888 282.799 173.888 283.031 174.14 283.178L180.447 286.793C180.588 286.861 180.742 286.895 180.898 286.895C181.055 286.895 181.209 286.861 181.35 286.793L187.278 283.377C187.531 283.23 187.531 282.989 187.278 282.852L180.972 279.236C180.831 279.169 180.676 279.134 180.52 279.134C180.364 279.134 180.209 279.169 180.068 279.236ZM263.228 249.292C263.369 249.359 263.524 249.394 263.68 249.394C263.836 249.394 263.991 249.359 264.132 249.292L270.06 245.876C270.312 245.728 270.312 245.487 270.06 245.35L263.806 241.734C263.665 241.667 263.511 241.632 263.354 241.632C263.198 241.632 263.043 241.667 262.902 241.734L256.964 245.15C256.907 245.167 256.856 245.201 256.821 245.249C256.785 245.296 256.765 245.354 256.765 245.413C256.765 245.472 256.785 245.53 256.821 245.578C256.856 245.625 256.907 245.66 256.964 245.676L263.228 249.292ZM188.739 274.233L182.811 277.649C182.559 277.796 182.559 278.028 182.811 278.175L189.065 281.79C189.206 281.858 189.361 281.892 189.517 281.892C189.674 281.892 189.828 281.858 189.969 281.79L195.908 278.364C195.961 278.345 196.007 278.31 196.039 278.264C196.072 278.218 196.089 278.163 196.089 278.106C196.089 278.05 196.072 277.995 196.039 277.949C196.007 277.903 195.961 277.868 195.908 277.849L189.601 274.233C189.47 274.171 189.326 274.138 189.181 274.138C189.035 274.138 188.892 274.171 188.76 274.233H188.739ZM122.26 330.665C122.401 330.732 122.555 330.767 122.712 330.767C122.868 330.767 123.023 330.732 123.164 330.665L129.092 327.238C129.344 327.091 129.344 326.86 129.092 326.713L122.785 323.097C122.647 323.027 122.494 322.99 122.339 322.99C122.183 322.99 122.03 323.027 121.892 323.097L115.953 326.523C115.701 326.671 115.701 326.902 115.953 327.038L122.26 330.665ZM110.698 319.261L104.77 322.687C104.518 322.834 104.507 323.065 104.77 323.202L111.077 326.818C111.216 326.891 111.371 326.928 111.528 326.928C111.686 326.928 111.841 326.891 111.98 326.818L117.908 323.391C118.161 323.244 118.171 323.013 117.908 322.866L111.602 319.261C111.471 319.198 111.327 319.166 111.182 319.166C111.036 319.166 110.893 319.198 110.761 319.261H110.698ZM131.803 325.651L137.742 322.235C137.799 322.219 137.849 322.184 137.885 322.137C137.921 322.09 137.94 322.032 137.94 321.972C137.94 321.913 137.921 321.855 137.885 321.808C137.849 321.76 137.799 321.726 137.742 321.71L131.488 318.094C131.347 318.027 131.193 317.992 131.036 317.992C130.88 317.992 130.725 318.027 130.584 318.094L124.656 321.52C124.603 321.539 124.557 321.574 124.524 321.62C124.492 321.666 124.474 321.721 124.474 321.778C124.474 321.834 124.492 321.889 124.524 321.936C124.557 321.982 124.603 322.017 124.656 322.035L130.91 325.651C131.056 325.733 131.221 325.776 131.388 325.776C131.556 325.776 131.72 325.733 131.867 325.651H131.803ZM140.475 320.648L146.403 317.232C146.655 317.085 146.665 316.854 146.403 316.707L140.149 313.091C140.008 313.024 139.853 312.989 139.697 312.989C139.541 312.989 139.386 313.024 139.245 313.091L133.306 316.517C133.253 316.536 133.207 316.571 133.175 316.617C133.142 316.663 133.125 316.718 133.125 316.775C133.125 316.831 133.142 316.886 133.175 316.932C133.207 316.979 133.253 317.013 133.306 317.032L139.56 320.648C139.709 320.734 139.877 320.779 140.049 320.779C140.221 320.779 140.389 320.734 140.538 320.648H140.475ZM149.146 315.645L155.074 312.229C155.326 312.082 155.326 311.851 155.074 311.703L148.768 308.088C148.626 308.021 148.472 307.986 148.316 307.986C148.159 307.986 148.005 308.021 147.864 308.088L142.051 311.472C141.799 311.619 141.799 311.861 142.051 311.998L148.358 315.613C148.487 315.683 148.63 315.724 148.777 315.735C148.923 315.746 149.071 315.726 149.209 315.676L149.146 315.645ZM119.359 314.258L113.431 317.684C113.179 317.831 113.179 318.062 113.431 318.199L119.737 321.815C119.877 321.887 120.032 321.925 120.189 321.925C120.347 321.925 120.502 321.887 120.641 321.815L126.569 318.388C126.821 318.241 126.821 318.01 126.569 317.863L120.263 314.258C120.131 314.195 119.988 314.163 119.842 314.163C119.697 314.163 119.553 314.195 119.422 314.258H119.359ZM128.03 309.255L122.102 312.681C121.85 312.828 121.839 313.059 122.102 313.196L128.356 316.812C128.497 316.879 128.652 316.914 128.808 316.914C128.964 316.914 129.119 316.879 129.26 316.812L135.198 313.385C135.44 313.238 135.451 313.007 135.198 312.86L128.892 309.255C128.766 309.198 128.63 309.169 128.493 309.169C128.355 309.169 128.219 309.198 128.093 309.255H128.03ZM162.715 289.284L156.787 292.7C156.535 292.847 156.535 293.089 156.787 293.226L163.094 296.841C163.235 296.909 163.389 296.944 163.545 296.944C163.702 296.944 163.856 296.909 163.997 296.841L169.925 293.426C170.178 293.278 170.178 293.047 169.925 292.9L163.619 289.284C163.487 289.217 163.341 289.178 163.193 289.171C163.044 289.164 162.896 289.188 162.757 289.242L162.715 289.284ZM154.054 294.287L148.126 297.714C147.874 297.851 147.864 298.092 148.126 298.229L154.433 301.845C154.572 301.917 154.727 301.955 154.885 301.955C155.042 301.955 155.197 301.917 155.337 301.845L161.265 298.429C161.517 298.281 161.527 298.05 161.265 297.903L155.011 294.287C154.871 294.212 154.717 294.169 154.558 294.162C154.4 294.154 154.242 294.183 154.096 294.245L154.054 294.287ZM171.386 284.281L165.458 287.697C165.206 287.844 165.196 288.076 165.458 288.223L171.765 291.838C171.906 291.906 172.06 291.941 172.217 291.941C172.373 291.941 172.528 291.906 172.669 291.838L178.597 288.423C178.849 288.275 178.859 288.044 178.597 287.897L172.29 284.281C172.158 284.214 172.012 284.175 171.864 284.168C171.715 284.161 171.567 284.185 171.428 284.239L171.386 284.281ZM136.701 304.251L130.763 307.678C130.511 307.825 130.511 308.056 130.763 308.193L137.017 311.809C137.158 311.876 137.312 311.911 137.469 311.911C137.625 311.911 137.779 311.876 137.921 311.809L143.849 308.382C144.101 308.235 144.101 308.004 143.849 307.857L137.542 304.241C137.291 304.145 137.013 304.149 136.764 304.251H136.701ZM145.362 299.248L139.434 302.675C139.381 302.694 139.335 302.729 139.302 302.775C139.27 302.821 139.252 302.876 139.252 302.932C139.252 302.989 139.27 303.044 139.302 303.09C139.335 303.136 139.381 303.171 139.434 303.19L145.741 306.806C145.879 306.876 146.032 306.912 146.187 306.912C146.342 306.912 146.495 306.876 146.634 306.806L152.572 303.379C152.825 303.232 152.825 303.001 152.572 302.854L146.266 299.238C146.127 299.176 145.976 299.144 145.823 299.146C145.671 299.148 145.521 299.183 145.383 299.248H145.362ZM136.638 333.187L142.577 329.761C142.63 329.742 142.676 329.707 142.709 329.661C142.741 329.615 142.759 329.56 142.759 329.503C142.759 329.447 142.741 329.392 142.709 329.346C142.676 329.299 142.63 329.265 142.577 329.246L136.323 325.63C136.183 325.557 136.028 325.519 135.871 325.519C135.714 325.519 135.559 325.557 135.419 325.63L129.491 329.046C129.239 329.193 129.239 329.424 129.491 329.572L135.745 333.187C135.893 333.263 136.057 333.302 136.223 333.302C136.389 333.302 136.553 333.263 136.701 333.187H136.638ZM88.3947 329.561L82.0883 325.945C81.9471 325.878 81.7927 325.843 81.6363 325.843C81.48 325.843 81.3256 325.878 81.1844 325.945L75.3615 329.34C75.1093 329.487 75.1093 329.719 75.3615 329.866L81.6679 333.481C81.809 333.549 81.9635 333.584 82.1198 333.584C82.2762 333.584 82.4306 333.549 82.5718 333.481L88.4998 330.055C88.545 330.029 88.5819 329.991 88.6061 329.945C88.6303 329.899 88.6408 329.846 88.6364 329.795C88.632 329.743 88.6128 329.693 88.5812 329.652C88.5495 329.61 88.5067 329.579 88.4577 329.561H88.3947ZM100.524 332.882L94.2701 329.267C94.1305 329.194 93.9755 329.156 93.8181 329.156C93.6608 329.156 93.5057 329.194 93.3662 329.267L84.243 334.522C83.9907 334.669 83.9802 334.9 84.243 335.048L90.5493 338.663C90.6905 338.73 90.8449 338.765 91.0013 338.765C91.1577 338.765 91.3121 338.73 91.4532 338.663L100.576 333.408C100.829 333.25 100.839 333.019 100.587 332.882H100.524ZM78.9141 322.508L72.6077 318.893C72.4666 318.826 72.3122 318.791 72.1558 318.791C71.9994 318.791 71.845 318.826 71.7038 318.893L64.4095 323.097C64.1572 323.244 64.1467 323.475 64.4095 323.623L70.7158 327.238C70.857 327.305 71.0114 327.34 71.1678 327.34C71.3242 327.34 71.4786 327.305 71.6197 327.238L78.9772 323.034C79.2189 322.876 79.2189 322.645 78.9772 322.508H78.9141ZM84.5057 319.271C84.6453 319.344 84.8003 319.382 84.9577 319.382C85.1151 319.382 85.2701 319.344 85.4096 319.271L91.3376 315.845C91.5899 315.698 91.5899 315.466 91.3376 315.319L85.0313 311.714C84.8936 311.641 84.7403 311.603 84.5846 311.603C84.4289 311.603 84.2755 311.641 84.1379 311.714L78.1994 315.14C77.9471 315.288 77.9471 315.519 78.1994 315.655L84.5057 319.271ZM111.812 336.698L105.506 333.093C105.366 333.02 105.211 332.982 105.054 332.982C104.897 332.982 104.742 333.02 104.602 333.093L93.198 339.672C92.9458 339.819 92.9458 340.061 93.198 340.198L99.5044 343.813C99.6455 343.881 99.7999 343.915 99.9563 343.915C100.113 343.915 100.267 343.881 100.408 343.813L111.812 337.234C112.054 337.097 112.054 336.866 111.812 336.698ZM116.647 344.234L110.341 340.618C110.2 340.551 110.045 340.516 109.889 340.516C109.732 340.516 109.578 340.551 109.437 340.618L102.143 344.822C102.089 344.841 102.043 344.876 102.011 344.922C101.978 344.968 101.961 345.023 101.961 345.08C101.961 345.136 101.978 345.191 102.011 345.238C102.043 345.284 102.089 345.319 102.143 345.337L108.449 348.953C108.588 349.026 108.743 349.064 108.901 349.064C109.058 349.064 109.213 349.026 109.353 348.953L116.647 344.749C116.889 344.633 116.889 344.402 116.647 344.255V344.234ZM149.009 282.043C149.15 282.11 149.305 282.145 149.461 282.145C149.618 282.145 149.772 282.11 149.913 282.043L155.841 278.616C155.894 278.597 155.94 278.562 155.973 278.516C156.006 278.47 156.023 278.415 156.023 278.359C156.023 278.302 156.006 278.247 155.973 278.201C155.94 278.155 155.894 278.12 155.841 278.101L149.535 274.485C149.394 274.418 149.239 274.383 149.083 274.383C148.927 274.383 148.772 274.418 148.631 274.485L142.703 277.901C142.451 278.049 142.451 278.28 142.703 278.427L149.009 282.043ZM131.719 292.08C131.858 292.15 132.011 292.187 132.166 292.187C132.321 292.187 132.474 292.15 132.613 292.08L138.551 288.664C138.608 288.648 138.659 288.613 138.694 288.566C138.73 288.519 138.749 288.461 138.749 288.401C138.749 288.342 138.73 288.284 138.694 288.237C138.659 288.19 138.608 288.155 138.551 288.139L132.245 284.523C132.104 284.456 131.949 284.421 131.793 284.421C131.637 284.421 131.482 284.456 131.341 284.523L125.413 287.939C125.161 288.086 125.161 288.317 125.413 288.465L131.719 292.08ZM93.2716 314.268C93.4111 314.341 93.5662 314.379 93.7235 314.379C93.8809 314.379 94.0359 314.341 94.1755 314.268L100.114 310.842C100.171 310.825 100.221 310.791 100.257 310.743C100.293 310.696 100.312 310.638 100.312 310.579C100.312 310.519 100.293 310.462 100.257 310.414C100.221 310.367 100.171 310.332 100.114 310.316L93.8602 306.711C93.7206 306.638 93.5656 306.6 93.4082 306.6C93.2508 306.6 93.0958 306.638 92.9563 306.711L87.0283 310.137C86.776 310.285 86.776 310.516 87.0283 310.652L93.2716 314.268ZM140.38 287.077C140.521 287.144 140.676 287.179 140.832 287.179C140.988 287.179 141.143 287.144 141.284 287.077L147.212 283.661C147.464 283.514 147.475 283.272 147.212 283.136L140.906 279.52C140.764 279.453 140.61 279.418 140.454 279.418C140.297 279.418 140.143 279.453 140.002 279.52L134.074 282.936C133.821 283.083 133.811 283.314 134.074 283.462L140.38 287.077ZM123.048 297.083C123.189 297.15 123.344 297.185 123.5 297.185C123.656 297.185 123.811 297.15 123.952 297.083L129.88 293.667C130.132 293.52 130.132 293.289 129.88 293.142L123.626 289.526C123.485 289.459 123.331 289.424 123.174 289.424C123.018 289.424 122.863 289.459 122.722 289.526L116.784 292.953C116.731 292.971 116.685 293.006 116.652 293.052C116.619 293.099 116.602 293.154 116.602 293.21C116.602 293.267 116.619 293.322 116.652 293.368C116.685 293.414 116.731 293.449 116.784 293.468L123.048 297.083ZM121.209 344.749C121.068 344.682 120.913 344.647 120.757 344.647C120.6 344.647 120.446 344.682 120.305 344.749L111.182 350.004C110.929 350.151 110.919 350.383 111.182 350.519L117.435 354.135C117.577 354.202 117.731 354.237 117.887 354.237C118.044 354.237 118.198 354.202 118.339 354.135L127.463 348.879C127.516 348.861 127.562 348.826 127.594 348.78C127.627 348.733 127.644 348.678 127.644 348.622C127.644 348.566 127.627 348.51 127.594 348.464C127.562 348.418 127.516 348.383 127.463 348.364L121.209 344.749ZM110.625 304.262C110.766 304.329 110.92 304.364 111.077 304.364C111.233 304.364 111.387 304.329 111.528 304.262L117.456 300.836C117.709 300.688 117.709 300.457 117.456 300.31L111.15 296.694C111.009 296.627 110.855 296.592 110.698 296.592C110.542 296.592 110.387 296.627 110.246 296.694L104.318 300.121C104.066 300.268 104.066 300.499 104.318 300.636L110.625 304.262ZM101.953 309.265C102.093 309.338 102.248 309.376 102.405 309.376C102.563 309.376 102.718 309.338 102.857 309.265L108.785 305.839C109.037 305.691 109.048 305.46 108.785 305.313L102.531 301.708C102.392 301.635 102.237 301.597 102.079 301.597C101.922 301.597 101.767 301.635 101.628 301.708L95.647 305.166C95.4052 305.313 95.3947 305.544 95.647 305.681L101.953 309.265ZM281.769 252.045C281.628 251.978 281.473 251.943 281.317 251.943C281.16 251.943 281.006 251.978 280.865 252.045L266.266 260.454C266.212 260.473 266.166 260.508 266.134 260.554C266.101 260.6 266.084 260.655 266.084 260.711C266.084 260.768 266.101 260.823 266.134 260.869C266.166 260.915 266.212 260.95 266.266 260.969L272.572 264.584C272.712 264.657 272.867 264.695 273.024 264.695C273.181 264.695 273.336 264.657 273.476 264.584L288.065 256.176C288.317 256.029 288.327 255.798 288.065 255.65L281.769 252.045ZM262.555 263.123C262.416 263.051 262.261 263.013 262.103 263.013C261.946 263.013 261.791 263.051 261.651 263.123L255.744 266.539C255.492 266.687 255.492 266.918 255.744 267.065L261.998 270.67C262.138 270.743 262.293 270.781 262.45 270.781C262.608 270.781 262.763 270.743 262.902 270.67L268.841 267.244C268.898 267.227 268.948 267.193 268.984 267.145C269.02 267.098 269.039 267.04 269.039 266.981C269.039 266.921 269.02 266.864 268.984 266.816C268.948 266.769 268.898 266.734 268.841 266.718L262.555 263.123ZM145.383 328.184L151.311 324.758C151.563 324.611 151.574 324.379 151.311 324.243L145.057 320.627C144.916 320.56 144.762 320.525 144.605 320.525C144.449 320.525 144.295 320.56 144.153 320.627L138.215 324.085C137.973 324.232 137.963 324.463 138.215 324.611L144.469 328.226C144.614 328.289 144.772 328.317 144.931 328.31C145.089 328.303 145.244 328.26 145.383 328.184ZM245.234 273.119C245.093 273.052 244.938 273.017 244.782 273.017C244.626 273.017 244.471 273.052 244.33 273.119L238.402 276.546C238.15 276.693 238.139 276.924 238.402 277.071L244.656 280.676C244.795 280.749 244.95 280.787 245.108 280.787C245.265 280.787 245.42 280.749 245.56 280.676L251.488 277.25C251.74 277.103 251.75 276.871 251.488 276.735L245.234 273.119ZM290.429 247.042C290.288 246.975 290.134 246.94 289.978 246.94C289.821 246.94 289.667 246.975 289.526 247.042L283.545 250.511C283.492 250.53 283.446 250.565 283.413 250.611C283.381 250.657 283.363 250.712 283.363 250.768C283.363 250.825 283.381 250.88 283.413 250.926C283.446 250.972 283.492 251.007 283.545 251.026L289.851 254.641C289.993 254.709 290.147 254.744 290.303 254.744C290.46 254.744 290.614 254.709 290.755 254.641L296.683 251.225C296.936 251.078 296.936 250.847 296.683 250.7L290.429 247.042ZM305.355 245.655L290.104 236.847C289.962 236.78 289.808 236.745 289.652 236.745C289.495 236.745 289.341 236.78 289.2 236.847L283.272 240.263C283.02 240.41 283.02 240.641 283.272 240.788L298.47 249.565C298.611 249.632 298.766 249.667 298.922 249.667C299.078 249.667 299.233 249.632 299.374 249.565L305.302 246.149C305.544 246.033 305.554 245.802 305.302 245.655H305.355ZM212.861 291.817C212.722 291.745 212.567 291.707 212.409 291.707C212.252 291.707 212.097 291.745 211.957 291.817L204.652 296.022C204.4 296.169 204.4 296.4 204.652 296.547L210.959 300.163C211.1 300.23 211.254 300.265 211.411 300.265C211.567 300.265 211.722 300.23 211.863 300.163L219.157 295.959C219.409 295.811 219.42 295.58 219.157 295.444L212.861 291.817ZM234.755 279.205C234.614 279.137 234.459 279.103 234.303 279.103C234.146 279.103 233.992 279.137 233.851 279.205L224.728 284.46C224.475 284.607 224.465 284.838 224.728 284.975L231.034 288.591C231.175 288.658 231.33 288.693 231.486 288.693C231.642 288.693 231.797 288.658 231.938 288.591L241.061 283.335C241.313 283.199 241.324 282.957 241.061 282.82L234.755 279.205ZM192.786 303.432C192.645 303.364 192.49 303.33 192.334 303.33C192.178 303.33 192.023 303.364 191.882 303.432L143.081 331.611C142.829 331.758 142.819 331.989 143.081 332.126L149.335 335.741C149.475 335.814 149.63 335.852 149.787 335.852C149.944 335.852 150.1 335.814 150.239 335.741L198.987 307.541C199.044 307.525 199.095 307.49 199.13 307.443C199.166 307.396 199.185 307.338 199.185 307.279C199.185 307.219 199.166 307.161 199.13 307.114C199.095 307.067 199.044 307.032 198.987 307.016L192.786 303.432ZM141.284 333.198C141.144 333.125 140.989 333.087 140.832 333.087C140.675 333.087 140.52 333.125 140.38 333.198L133.086 337.402C132.833 337.549 132.823 337.78 133.086 337.927L139.392 341.533C139.532 341.605 139.687 341.643 139.844 341.643C140.001 341.643 140.156 341.605 140.296 341.533L147.653 337.328C147.711 337.312 147.761 337.278 147.797 337.23C147.832 337.183 147.852 337.125 147.852 337.066C147.852 337.006 147.832 336.948 147.797 336.901C147.761 336.854 147.711 336.819 147.653 336.803L141.284 333.198ZM202.866 297.64C202.726 297.568 202.571 297.53 202.414 297.53C202.256 297.53 202.101 297.568 201.962 297.64L194.667 301.845C194.415 301.992 194.405 302.223 194.667 302.37L200.974 305.986C201.115 306.053 201.269 306.088 201.426 306.088C201.582 306.088 201.736 306.053 201.878 305.986L209.172 301.781C209.424 301.645 209.435 301.403 209.172 301.266L202.866 297.64ZM131.246 338.989C131.105 338.922 130.951 338.887 130.794 338.887C130.638 338.887 130.484 338.922 130.342 338.989L123.048 343.193C122.796 343.34 122.796 343.572 123.048 343.719L129.354 347.334C129.493 347.405 129.646 347.441 129.801 347.441C129.956 347.441 130.109 347.405 130.248 347.334L137.553 343.13C137.805 342.983 137.805 342.752 137.553 342.615L131.246 338.989ZM222.93 286.058C222.791 285.985 222.636 285.947 222.478 285.947C222.321 285.947 222.166 285.985 222.026 286.058L214.732 290.262C214.48 290.409 214.48 290.64 214.732 290.787L221.038 294.393C221.178 294.465 221.333 294.503 221.49 294.503C221.648 294.503 221.803 294.465 221.942 294.393L229.237 290.188C229.489 290.041 229.489 289.81 229.237 289.663L222.93 286.058ZM253.947 268.19C253.808 268.117 253.653 268.079 253.495 268.079C253.338 268.079 253.183 268.117 253.043 268.19L247.052 271.532C246.8 271.679 246.8 271.91 247.052 272.057L253.359 275.663C253.498 275.735 253.653 275.773 253.811 275.773C253.968 275.773 254.123 275.735 254.262 275.663L260.19 272.236C260.443 272.089 260.443 271.858 260.19 271.721L253.947 268.19ZM273.15 254.526L279.089 251.11C279.341 250.963 279.341 250.731 279.089 250.584L272.782 246.969C272.641 246.901 272.487 246.867 272.33 246.867C272.174 246.867 272.019 246.901 271.878 246.969L265.95 250.385C265.698 250.532 265.698 250.774 265.95 250.91L272.257 254.526C272.393 254.573 272.538 254.59 272.681 254.576C272.825 254.561 272.963 254.515 273.087 254.442L273.15 254.526ZM236.121 255.262L242.049 251.846C242.301 251.698 242.301 251.467 242.049 251.32L235.743 247.704C235.602 247.637 235.447 247.602 235.291 247.602C235.134 247.602 234.98 247.637 234.839 247.704L228.911 251.131C228.659 251.278 228.659 251.509 228.911 251.646L235.217 255.262C235.355 255.311 235.502 255.33 235.647 255.315C235.793 255.301 235.933 255.253 236.058 255.177L236.121 255.262ZM214.753 288.16L232.085 278.143C232.138 278.124 232.184 278.089 232.217 278.043C232.249 277.997 232.267 277.942 232.267 277.886C232.267 277.829 232.249 277.774 232.217 277.728C232.184 277.682 232.138 277.647 232.085 277.628L225.779 274.012C225.639 273.94 225.484 273.902 225.327 273.902C225.169 273.902 225.014 273.94 224.875 274.012L207.543 284.019C207.49 284.037 207.444 284.072 207.411 284.118C207.379 284.165 207.361 284.22 207.361 284.276C207.361 284.333 207.379 284.388 207.411 284.434C207.444 284.48 207.49 284.515 207.543 284.534L213.849 288.149C213.99 288.218 214.144 288.255 214.3 288.257C214.456 288.258 214.611 288.225 214.753 288.16ZM263.564 259.455C263.706 259.523 263.86 259.557 264.016 259.557C264.173 259.557 264.327 259.523 264.468 259.455L270.396 256.039C270.649 255.892 270.649 255.661 270.396 255.514L264.09 251.898C263.949 251.831 263.794 251.796 263.638 251.796C263.482 251.796 263.327 251.831 263.186 251.898L257.247 255.325C257.194 255.343 257.148 255.378 257.116 255.425C257.083 255.471 257.066 255.526 257.066 255.582C257.066 255.639 257.083 255.694 257.116 255.74C257.148 255.786 257.194 255.821 257.247 255.84L263.564 259.455ZM255.524 254.284L261.462 250.868C261.704 250.721 261.715 250.49 261.462 250.343L255.208 246.727C255.067 246.66 254.913 246.625 254.756 246.625C254.6 246.625 254.446 246.66 254.305 246.727L248.387 250.153C248.135 250.301 248.124 250.532 248.387 250.679L254.641 254.295C254.774 254.351 254.918 254.379 255.062 254.377C255.207 254.375 255.35 254.344 255.482 254.284H255.524ZM206.124 293.173L212.052 289.747C212.304 289.6 212.304 289.368 212.052 289.221L205.746 285.606C205.604 285.538 205.45 285.504 205.294 285.504C205.137 285.504 204.983 285.538 204.842 285.606L198.903 289.032C198.651 289.179 198.651 289.411 198.903 289.547L205.157 293.163C205.295 293.227 205.446 293.26 205.598 293.26C205.751 293.26 205.901 293.227 206.04 293.163L206.124 293.173ZM244.362 270.481C244.501 270.554 244.656 270.592 244.813 270.592C244.971 270.592 245.126 270.554 245.265 270.481L251.193 267.054C251.446 266.907 251.456 266.676 251.193 266.529L244.94 262.924C244.8 262.851 244.645 262.813 244.488 262.813C244.33 262.813 244.175 262.851 244.036 262.924L238.108 266.35C237.855 266.497 237.845 266.729 238.108 266.876L244.362 270.481ZM162.705 318.146L168.633 314.72C168.885 314.573 168.895 314.342 168.633 314.205L162.379 310.589C162.239 310.517 162.084 310.479 161.927 310.479C161.769 310.479 161.614 310.517 161.475 310.589L155.547 314.016C155.295 314.163 155.284 314.394 155.547 314.541L161.853 318.146C161.984 318.216 162.128 318.254 162.275 318.26C162.423 318.265 162.57 318.237 162.705 318.178V318.146ZM171.376 313.143L177.304 309.717C177.556 309.57 177.556 309.339 177.304 309.202L170.997 305.586C170.858 305.514 170.703 305.476 170.546 305.476C170.388 305.476 170.233 305.514 170.094 305.586L164.166 309.013C163.913 309.16 163.913 309.391 164.166 309.538L170.472 313.143C170.609 313.221 170.763 313.265 170.92 313.27C171.077 313.276 171.234 313.243 171.376 313.175V313.143ZM154.044 323.15L159.972 319.723C160.224 319.576 160.224 319.345 159.972 319.208L153.666 315.592C153.524 315.525 153.37 315.49 153.214 315.49C153.057 315.49 152.903 315.525 152.762 315.592L146.834 319.019C146.581 319.166 146.581 319.397 146.834 319.544L153.14 323.16C153.28 323.231 153.433 323.269 153.59 323.273C153.746 323.276 153.901 323.245 154.044 323.181V323.15ZM188.729 303.179L194.657 299.753C194.909 299.606 194.909 299.375 194.657 299.227L188.351 295.622C188.213 295.55 188.059 295.512 187.904 295.512C187.748 295.512 187.595 295.55 187.457 295.622L181.519 299.049C181.266 299.196 181.266 299.427 181.519 299.564L187.825 303.179C187.963 303.247 188.114 303.281 188.268 303.28C188.421 303.278 188.572 303.24 188.708 303.169L188.729 303.179ZM180.068 308.172L185.996 304.745C186.248 304.598 186.259 304.367 185.996 304.22L179.69 300.615C179.55 300.542 179.395 300.504 179.238 300.504C179.08 300.504 178.925 300.542 178.786 300.615L172.858 304.041C172.606 304.188 172.595 304.42 172.858 304.567L179.164 308.172C179.304 308.245 179.459 308.283 179.616 308.283C179.774 308.283 179.929 308.245 180.068 308.172ZM197.4 298.166L203.339 294.739C203.396 294.723 203.446 294.689 203.482 294.641C203.517 294.594 203.537 294.536 203.537 294.477C203.537 294.417 203.517 294.359 203.482 294.312C203.446 294.265 203.396 294.23 203.339 294.214L197.032 290.609C196.893 290.536 196.738 290.498 196.58 290.498C196.423 290.498 196.268 290.536 196.128 290.609L190.2 294.035C189.948 294.182 189.948 294.414 190.2 294.55L196.454 298.166C196.595 298.24 196.752 298.279 196.911 298.279C197.071 298.279 197.228 298.24 197.369 298.166H197.4ZM240.882 226.336C241.022 226.409 241.177 226.447 241.334 226.447C241.492 226.447 241.647 226.409 241.786 226.336L247.725 222.91C247.977 222.763 247.977 222.532 247.725 222.395L246.064 221.428C245.923 221.361 245.769 221.326 245.612 221.326C245.456 221.326 245.301 221.361 245.16 221.428L239.232 224.854C238.98 225.002 238.98 225.233 239.232 225.38L240.882 226.336ZM198.031 253.769C198.169 253.839 198.322 253.876 198.477 253.876C198.633 253.876 198.786 253.839 198.924 253.769L204.863 250.343C205.115 250.195 205.115 249.964 204.863 249.817L198.556 246.201C198.415 246.134 198.261 246.099 198.104 246.099C197.948 246.099 197.794 246.134 197.652 246.201L191.724 249.628C191.671 249.647 191.625 249.682 191.593 249.728C191.56 249.774 191.543 249.829 191.543 249.885C191.543 249.942 191.56 249.997 191.593 250.043C191.625 250.089 191.671 250.124 191.724 250.143L198.031 253.769ZM215.363 243.763C215.504 243.83 215.658 243.865 215.815 243.865C215.971 243.865 216.125 243.83 216.267 243.763L222.195 240.347C222.447 240.2 222.447 239.969 222.195 239.821L215.888 236.206C215.747 236.139 215.593 236.104 215.436 236.104C215.28 236.104 215.126 236.139 214.984 236.206L209.056 239.632C209.003 239.651 208.957 239.686 208.925 239.732C208.892 239.778 208.875 239.833 208.875 239.89C208.875 239.946 208.892 240.001 208.925 240.047C208.957 240.094 209.003 240.128 209.056 240.147L215.363 243.763ZM187.426 259.876C187.565 259.948 187.72 259.986 187.878 259.986C188.035 259.986 188.19 259.948 188.329 259.876L194.257 256.449C194.51 256.302 194.51 256.071 194.257 255.924L187.951 252.319C187.812 252.246 187.657 252.208 187.499 252.208C187.342 252.208 187.187 252.246 187.047 252.319L181.193 255.766C180.941 255.913 180.941 256.144 181.193 256.292L187.426 259.876ZM206.67 248.766C206.81 248.839 206.965 248.877 207.122 248.877C207.28 248.877 207.435 248.839 207.574 248.766L213.502 245.35C213.755 245.203 213.765 244.972 213.502 244.825L207.196 241.209C207.055 241.142 206.9 241.107 206.744 241.107C206.588 241.107 206.433 241.142 206.292 241.209L200.364 244.635C200.112 244.772 200.101 245.014 200.364 245.15L206.67 248.766ZM170.094 269.882C170.231 269.955 170.385 269.993 170.54 269.993C170.696 269.993 170.849 269.955 170.987 269.882L176.925 266.455C177.178 266.308 177.178 266.077 176.925 265.94L170.619 262.325C170.48 262.252 170.325 262.214 170.167 262.214C170.01 262.214 169.855 262.252 169.715 262.325L163.787 265.751C163.535 265.898 163.535 266.13 163.787 266.277L170.094 269.882ZM178.754 264.879C178.894 264.952 179.049 264.99 179.206 264.99C179.364 264.99 179.519 264.952 179.658 264.879L185.586 261.452C185.838 261.305 185.849 261.074 185.586 260.937L179.332 257.322C179.193 257.249 179.038 257.211 178.88 257.211C178.723 257.211 178.568 257.249 178.428 257.322L172.501 260.748C172.248 260.895 172.238 261.126 172.501 261.274L178.754 264.879ZM223.529 236.374C223.669 236.447 223.824 236.485 223.981 236.485C224.139 236.485 224.294 236.447 224.433 236.374L230.372 232.948C230.614 232.8 230.624 232.569 230.372 232.433L228.711 231.466C228.57 231.398 228.416 231.363 228.259 231.363C228.103 231.363 227.948 231.398 227.807 231.466L221.879 234.881C221.627 235.029 221.617 235.26 221.879 235.407L223.529 236.374ZM249.533 221.365C249.672 221.438 249.827 221.476 249.985 221.476C250.142 221.476 250.297 221.438 250.437 221.365L256.365 217.938C256.617 217.791 256.627 217.56 256.365 217.413L254.693 216.456C254.552 216.389 254.398 216.354 254.241 216.354C254.085 216.354 253.931 216.389 253.79 216.456L247.851 219.883C247.794 219.899 247.744 219.934 247.708 219.981C247.672 220.028 247.653 220.086 247.653 220.146C247.653 220.205 247.672 220.263 247.708 220.31C247.744 220.358 247.794 220.392 247.851 220.408L249.533 221.365ZM262.681 228.953C262.821 229.026 262.976 229.064 263.133 229.064C263.291 229.064 263.446 229.026 263.585 228.953L269.513 225.527C269.766 225.38 269.766 225.149 269.513 225.012L263.207 221.396C263.069 221.324 262.916 221.286 262.76 221.286C262.605 221.286 262.451 221.324 262.314 221.396L256.375 224.823C256.123 224.97 256.123 225.201 256.375 225.348L262.681 228.953ZM281.758 249.46L287.686 246.044C287.938 245.897 287.949 245.665 287.686 245.518L281.432 241.903C281.291 241.835 281.137 241.8 280.98 241.8C280.824 241.8 280.67 241.835 280.528 241.903L274.664 245.308C274.411 245.455 274.401 245.686 274.664 245.834L280.917 249.449C281.049 249.509 281.192 249.54 281.337 249.542C281.481 249.544 281.625 249.516 281.758 249.46ZM232.222 231.392C232.361 231.465 232.516 231.503 232.674 231.503C232.831 231.503 232.986 231.465 233.126 231.392L239.054 227.965C239.306 227.818 239.306 227.587 239.054 227.45L237.382 226.484C237.243 226.411 237.088 226.373 236.931 226.373C236.773 226.373 236.618 226.411 236.479 226.484L230.519 229.889C230.267 230.036 230.267 230.267 230.519 230.414L232.222 231.392ZM161.443 274.906C161.583 274.979 161.738 275.017 161.895 275.017C162.053 275.017 162.208 274.979 162.347 274.906L168.275 271.479C168.527 271.332 168.527 271.101 168.275 270.964L162.032 267.328C161.891 267.26 161.736 267.226 161.58 267.226C161.424 267.226 161.269 267.26 161.128 267.328L155.19 270.754C154.948 270.901 154.937 271.133 155.19 271.28L161.443 274.906Z" fill="#455A64"/>
<path d="M193.185 325.84L246.599 295.002C247.502 294.546 248.499 294.308 249.511 294.308C250.522 294.308 251.52 294.546 252.422 295.002L283.071 312.681C284.679 313.616 284.679 315.119 283.071 316.055L229.667 346.882C228.764 347.344 227.764 347.584 226.75 347.584C225.736 347.584 224.737 347.344 223.834 346.882L193.206 329.204C191.629 328.289 191.629 326.765 193.185 325.84Z" fill="#263238"/>
<path d="M184.146 92.0529C167.455 107.052 153.034 106.263 144.016 99.3157C135.009 116.679 120.588 134.106 103.897 138.384L94.3641 164.135C94.3641 164.135 99.4723 170.021 99.4723 184.105C99.4219 190.007 98.6273 195.88 97.1074 201.584C95.3732 208.531 93.1344 215.721 93.1344 227.734C93.1344 235.869 94.1855 243.784 98.3266 250.984C100.826 255.34 104.425 258.965 108.764 261.494L94.2695 253.086C89.6988 250.558 85.902 246.834 83.286 242.312C79.1658 235.102 78.1147 227.198 78.1147 219.052C78.1147 207.049 80.3535 199.85 82.0878 192.892C83.5992 187.19 84.3833 181.321 84.4211 175.423C84.4211 161.339 79.313 155.453 79.313 155.453L88.8356 129.702C105.526 125.424 119.947 107.997 128.955 90.6339C137.973 97.5814 152.393 98.3697 169.084 83.3711L184.146 92.0529Z" fill="#7EC2FF"/>
<path opacity="0.8" d="M134.264 93.6925L129.008 90.6339C130.618 91.8804 132.385 92.9088 134.264 93.6925Z" fill="white"/>
<path opacity="0.85" d="M169.105 83.3922C155.368 95.7316 143.176 97.3818 134.263 93.7136L144.017 99.3367C153.035 106.284 167.455 107.073 184.146 92.0739L169.105 83.3922Z" fill="white"/>
<path opacity="0.65" d="M128.976 90.6339C119.968 107.997 105.548 125.424 88.8569 129.702L103.898 138.384C120.588 134.106 135.009 116.679 144.017 99.3157L128.976 90.6339Z" fill="white"/>
<path opacity="0.55" d="M88.8566 129.702L79.334 155.453L94.3642 164.135L103.897 138.384L88.8566 129.702Z" fill="white"/>
<path opacity="0.4" d="M98.3271 250.984C94.207 243.784 93.1349 235.869 93.1349 227.734C93.1349 215.721 95.3737 208.531 97.1079 201.584C98.6278 195.88 99.4224 190.007 99.4728 184.105C99.4728 170.021 94.3647 164.135 94.3647 164.135L79.3345 155.453C79.3345 155.453 84.4426 161.339 84.4426 175.423C84.3911 181.323 83.5929 187.192 82.0672 192.892C80.333 199.85 78.0942 207.049 78.0942 219.052C78.0942 227.198 79.1453 235.102 83.2865 242.302C85.9025 246.823 89.6993 250.547 94.2701 253.075L108.764 261.484C104.427 258.957 100.828 255.336 98.3271 250.984Z" fill="white"/>
<path opacity="0.05" d="M98.3271 250.984C94.207 243.784 93.1349 235.869 93.1349 227.734C93.1349 215.721 95.3737 208.531 97.1079 201.584C98.6278 195.88 99.4224 190.007 99.4728 184.105C99.4728 170.021 94.3647 164.135 94.3647 164.135L79.3345 155.453C79.3345 155.453 84.4426 161.339 84.4426 175.423C84.3911 181.323 83.5929 187.192 82.0672 192.892C80.333 199.85 78.0942 207.049 78.0942 219.052C78.0942 227.198 79.1453 235.102 83.2865 242.302C85.9025 246.823 89.6993 250.547 94.2701 253.075L108.764 261.484C104.427 258.957 100.828 255.336 98.3271 250.984Z" fill="black"/>
<path d="M144.017 268.621C119.086 268.904 104.802 262.314 98.317 250.984C94.2073 243.784 93.1353 235.869 93.1353 227.724C93.1353 215.721 95.3635 208.542 97.1083 201.584C98.6282 195.884 99.4228 190.014 99.4732 184.115C99.4732 170.031 94.365 164.145 94.365 164.145L103.898 138.384C120.589 134.106 135.01 116.669 144.017 99.3157C153.035 106.263 167.456 107.052 184.147 92.0529L193.68 106.768C190.404 115.004 188.669 123.771 188.561 132.634C188.473 137.641 189.277 142.624 190.936 147.349C192.671 152.289 194.909 156.903 194.909 168.906C194.882 178.884 193.125 188.78 189.717 198.157C183.222 217.034 168.959 240.105 144.017 268.621Z" fill="#7EC2FF"/>
<path opacity="0.75" d="M144.017 268.621C119.086 268.904 104.802 262.314 98.317 250.984C94.2073 243.784 93.1353 235.869 93.1353 227.724C93.1353 215.721 95.3635 208.542 97.1083 201.584C98.6282 195.884 99.4228 190.014 99.4732 184.115C99.4732 170.031 94.365 164.145 94.365 164.145L103.898 138.384C120.589 134.106 135.01 116.669 144.017 99.3157C153.035 106.263 167.456 107.052 184.147 92.0529L193.68 106.768C190.404 115.004 188.669 123.771 188.561 132.634C188.473 137.641 189.277 142.624 190.936 147.349C192.671 152.289 194.909 156.903 194.909 168.906C194.882 178.884 193.125 188.78 189.717 198.157C183.222 217.034 168.959 240.105 144.017 268.621Z" fill="white"/>
<path d="M141.063 262.146C121.755 261.915 109.269 257.08 103.95 247.778C100.944 242.523 99.6094 236.342 99.6094 227.724C99.6086 220.209 100.67 212.732 102.763 205.515C102.962 204.716 103.172 203.938 103.362 203.15C105.023 196.94 105.885 190.543 105.926 184.115C105.926 173.846 103.467 167.13 101.512 163.409L108.869 143.649C126.737 137.438 139.655 119.79 146.497 108.218C150.183 109.785 154.149 110.586 158.153 110.573C166.226 110.573 174.434 107.567 182.633 101.628L186.469 107.577C183.675 115.655 182.199 124.13 182.097 132.676C182.003 138.424 182.928 144.142 184.829 149.567C185.029 150.134 185.239 150.702 185.449 151.27C186.984 155.474 188.435 159.436 188.435 168.969C188.399 178.227 186.763 187.408 183.6 196.108C177.22 214.628 162.915 236.847 141.063 262.146Z" fill="#7EC2FF"/>
<path opacity="0.4" d="M141.063 262.146C121.755 261.915 109.269 257.08 103.95 247.778C100.944 242.523 99.6094 236.342 99.6094 227.724C99.6086 220.209 100.67 212.732 102.763 205.515C102.962 204.716 103.172 203.938 103.362 203.15C105.023 196.94 105.885 190.543 105.926 184.115C105.926 173.846 103.467 167.13 101.512 163.409L108.869 143.649C126.737 137.438 139.655 119.79 146.497 108.218C150.183 109.785 154.149 110.586 158.153 110.573C166.226 110.573 174.434 107.567 182.633 101.628L186.469 107.577C183.675 115.655 182.199 124.13 182.097 132.676C182.003 138.424 182.928 144.142 184.829 149.567C185.029 150.134 185.239 150.702 185.449 151.27C186.984 155.474 188.435 159.436 188.435 168.969C188.399 178.227 186.763 187.408 183.6 196.108C177.22 214.628 162.915 236.847 141.063 262.146Z" fill="white"/>
<path opacity="0.15" d="M141.063 262.146C121.755 261.915 109.269 257.08 103.95 247.778C100.944 242.523 99.6094 236.342 99.6094 227.724C99.6086 220.209 100.67 212.732 102.763 205.515C102.962 204.716 103.172 203.938 103.362 203.15C105.023 196.94 105.885 190.543 105.926 184.115C105.926 173.846 103.467 167.13 101.512 163.409L108.869 143.649C126.737 137.438 139.655 119.79 146.497 108.218C150.183 109.785 154.149 110.586 158.153 110.573C166.226 110.573 174.434 107.567 182.633 101.628L186.469 107.577C183.675 115.655 182.199 124.13 182.097 132.676C182.003 138.424 182.928 144.142 184.829 149.567C185.029 150.134 185.239 150.702 185.449 151.27C186.984 155.474 188.435 159.436 188.435 168.969C188.399 178.227 186.763 187.408 183.6 196.108C177.22 214.628 162.915 236.847 141.063 262.146Z" fill="black"/>
<path opacity="0.8" d="M108.375 253.128C114.955 258.93 125.886 261.967 141.063 262.146L131.383 256.628C123.573 256.734 115.8 255.551 108.375 253.128Z" fill="white"/>
<path opacity="0.15" d="M181.413 104.666L186.458 107.577L182.622 101.628L180.425 103.142L181.413 104.666Z" fill="black"/>
<path d="M179.774 146.655C177.873 141.231 176.947 135.512 177.041 129.765C177.143 121.218 178.619 112.743 181.413 104.666L180.425 103.142C172.963 108.071 165.5 110.573 158.143 110.573C154.138 110.586 150.172 109.785 146.486 108.218C139.644 119.78 126.726 137.438 108.858 143.649L101.501 163.409C103.456 167.13 105.916 173.846 105.916 184.115C105.874 190.543 105.012 196.94 103.351 203.15C103.162 203.938 102.952 204.716 102.752 205.515C100.659 212.732 99.5979 220.209 99.5986 227.724C99.5986 236.342 100.933 242.523 103.94 247.778C105.522 250.485 107.674 252.816 110.246 254.61C116.699 257.553 125.297 259.094 136.039 259.235C157.88 233.925 172.185 211.716 178.565 193.196C181.73 184.497 183.365 175.315 183.4 166.058C183.4 156.525 181.939 152.562 180.404 148.358C180.183 147.791 179.973 147.223 179.774 146.655Z" fill="#455A64"/>
<path d="M108.858 143.649L101.501 163.409C103.456 167.13 105.916 173.846 105.916 184.115C105.874 190.543 105.012 196.94 103.351 203.15C103.162 203.938 102.952 204.716 102.752 205.515C100.659 212.732 99.5979 220.209 99.5986 227.724C99.5986 236.342 100.933 242.523 103.94 247.778C105.522 250.485 107.674 252.816 110.246 254.61C116.699 257.553 125.297 259.094 136.039 259.235V186.396L146.549 183.243V108.218C143.447 113.477 139.932 118.482 136.039 123.185C129.028 131.625 119.884 139.813 108.858 143.649Z" fill="#37474F"/>
<path d="M161.275 159.51C161.163 159.304 161.029 159.11 160.876 158.932L160.823 158.869C160.516 158.535 160.162 158.248 159.772 158.017L156.272 155.999C155.64 155.645 154.96 155.383 154.254 155.222C153.831 155.129 153.403 155.062 152.972 155.022V144.658C152.972 139.456 151.006 135.346 147.58 133.37C144.153 131.394 140.222 131.73 136.197 134.085C128.713 138.405 122.859 148.947 122.859 158.08V170.315L115.88 174.34C115.672 174.46 115.475 174.597 115.291 174.75L115.102 174.897C114.816 175.126 114.583 175.413 114.418 175.74C114.253 176.066 114.16 176.424 114.146 176.789V218.758C114.149 218.939 114.174 219.119 114.219 219.294C114.439 220.001 114.905 220.605 115.533 220.997L115.922 221.249L117.635 222.237L119.432 223.288C120.134 223.676 120.893 223.95 121.682 224.098C123.832 224.573 126.081 224.283 128.041 223.278L159.814 204.937C160.305 204.719 160.73 204.375 161.044 203.939C161.358 203.503 161.55 202.991 161.601 202.456V160.508C161.576 160.154 161.464 159.811 161.275 159.51ZM129.691 158.08C129.691 151.396 134.231 143.134 139.602 140.034C141.431 138.983 143.071 138.709 144.111 139.319C145.341 140.023 146.066 142.02 146.066 144.658V156.893L137.038 162.148L129.68 166.352L129.691 158.08Z" fill="#263238"/>
<path d="M165.227 162.358C165.178 161.823 164.986 161.311 164.671 160.875C164.357 160.439 163.932 160.095 163.441 159.878L159.941 157.849C158.608 157.168 157.133 156.813 155.636 156.813C154.14 156.813 152.665 157.168 151.332 157.849L119.559 176.19C119.067 176.41 118.642 176.756 118.328 177.194C118.014 177.632 117.822 178.145 117.772 178.681V220.65C117.819 221.187 118.01 221.702 118.324 222.141C118.638 222.579 119.065 222.924 119.559 223.141L123.059 225.17C124.394 225.843 125.868 226.194 127.363 226.194C128.858 226.194 130.332 225.843 131.667 225.17L163.441 206.818C163.932 206.6 164.356 206.256 164.67 205.82C164.984 205.384 165.176 204.872 165.227 204.338V162.358Z" fill="#7EC2FF"/>
<path opacity="0.4" d="M123.059 183.243L119.559 181.141C117.173 179.774 117.173 177.546 119.559 176.169L151.333 157.828C152.665 157.147 154.14 156.792 155.637 156.792C157.133 156.792 158.608 157.147 159.941 157.828L163.441 159.857C165.816 161.223 165.816 163.451 163.441 164.818L131.72 183.243C130.378 183.925 128.894 184.281 127.389 184.281C125.884 184.281 124.401 183.925 123.059 183.243Z" fill="white"/>
<path opacity="0.1" d="M127.368 184.22V226.189C125.866 226.212 124.382 225.85 123.059 225.138L119.548 223.183C119.054 222.965 118.628 222.617 118.316 222.177C118.003 221.737 117.815 221.22 117.772 220.682V178.681C117.82 179.216 118.01 179.727 118.322 180.164C118.634 180.6 119.058 180.944 119.548 181.162L123.059 183.19C124.383 183.899 125.867 184.254 127.368 184.22Z" fill="black"/>
<path d="M150.492 204.979L142.903 209.362L144.08 195.635C143.176 195.151 142.598 193.974 142.598 192.282C142.598 189.255 144.427 185.744 146.697 184.441C148.968 183.138 150.796 184.515 150.796 187.594C150.75 189.383 150.239 191.129 149.314 192.66L150.492 204.979Z" fill="#455A64"/>
<path d="M150.491 204.979L143.618 201.016L142.903 209.362L150.491 204.979Z" fill="#37474F"/>
<path d="M146.697 184.441C145.045 185.556 143.813 187.191 143.197 189.087L149.314 192.618C150.239 191.087 150.75 189.341 150.796 187.552C150.796 184.515 148.968 183.127 146.697 184.441Z" fill="#37474F"/>
<path d="M156.64 163.273V146.456C156.64 141.2 154.675 137.143 151.248 135.167C147.822 133.191 143.891 133.538 139.865 135.882C132.382 140.202 126.527 150.744 126.527 159.878V176.747C126.558 177.055 126.672 177.349 126.857 177.598C127.042 177.846 127.292 178.039 127.578 178.156C128.33 178.534 129.16 178.731 130.001 178.731C130.842 178.731 131.672 178.534 132.424 178.156C132.71 178.039 132.96 177.846 133.145 177.598C133.33 177.349 133.444 177.055 133.475 176.747V159.93C133.475 153.246 138.015 144.984 143.386 141.884C145.215 140.833 146.865 140.57 147.906 141.169C149.125 141.873 149.861 143.87 149.861 146.508V163.325C149.894 163.63 150.009 163.92 150.194 164.164C150.379 164.409 150.628 164.598 150.912 164.713C151.664 165.091 152.493 165.288 153.335 165.288C154.176 165.288 155.006 165.091 155.757 164.713C156.039 164.595 156.285 164.404 156.47 164.16C156.654 163.917 156.771 163.629 156.808 163.325L156.64 163.273Z" fill="#E0E0E0"/>
<path d="M197.485 237.068L202.11 234.398L203.938 232.17L199.314 234.839L197.485 237.068Z" fill="#7EC2FF"/>
<path opacity="0.4" d="M197.485 237.068L202.11 234.398L203.938 232.17L199.314 234.839L197.485 237.068Z" fill="black"/>
<path d="M210.065 244.331L214.69 241.661L218.558 238.234L213.933 240.904L210.065 244.331Z" fill="#7EC2FF"/>
<path opacity="0.4" d="M210.065 244.331L214.69 241.661L218.558 238.234L213.933 240.904L210.065 244.331Z" fill="black"/>
<path d="M249.439 253.559C250.533 255.026 251.196 256.77 251.352 258.593C250.266 257.122 249.604 255.38 249.439 253.559ZM260.191 253.695C258.636 243.101 252.949 232.674 246.16 228.701C242.901 226.82 239.853 226.757 237.478 228.165L233.126 230.677L232.874 230.824C232.68 230.93 232.494 231.049 232.317 231.182C231.945 231.426 231.593 231.7 231.266 232.002L231.119 232.138C230.982 232.275 230.846 232.432 230.719 232.58C230.593 232.727 230.394 232.958 230.257 233.147C229.943 233.561 229.659 233.997 229.406 234.451C229.28 234.682 229.143 234.924 229.027 235.176L190.989 213.219L186.365 215.878V218.832L186.764 219.053L187.132 219.273V219.893L186.365 220.335V222.048L191.956 233.872L197.485 237.026L199.314 234.797L204.191 237.719L206.987 242.512L210.077 244.288L213.934 240.862L218.674 243.605L220.272 250.174L228.218 254.768C228.622 256.442 229.124 258.092 229.721 259.708L229.9 260.223C232.548 267.16 236.753 273.109 241.461 275.852C242.034 276.18 242.632 276.465 243.248 276.703C243.575 276.833 243.908 276.945 244.247 277.039C244.537 277.121 244.832 277.188 245.13 277.239C246.06 277.413 247.015 277.413 247.946 277.239L248.335 277.145C248.519 277.113 248.699 277.06 248.871 276.987L249.281 276.829C249.43 276.774 249.574 276.707 249.712 276.63L250.101 276.43L250.301 276.314L250.395 276.262L254.757 273.75C258.268 271.711 260.549 266.56 260.549 259.277C260.552 257.398 260.415 255.522 260.139 253.664L260.191 253.695Z" fill="#7EC2FF"/>
<path d="M248.03 262.493C246.211 261.442 244.729 258.289 244.729 255.503C244.729 252.718 246.211 251.299 248.03 252.35C249.848 253.401 251.341 256.554 251.341 259.35C251.341 262.146 249.859 263.544 248.03 262.493ZM255.524 256.365C253.968 245.77 248.271 235.291 241.482 231.371C238.328 229.563 235.438 229.426 233.073 230.677L232.821 230.824C232.627 230.93 232.441 231.049 232.264 231.182C231.892 231.426 231.54 231.7 231.213 232.002L231.066 232.138C230.929 232.275 230.792 232.433 230.666 232.58C230.54 232.727 230.34 232.958 230.204 233.147C229.89 233.561 229.605 233.997 229.352 234.451C229.226 234.682 229.09 234.924 228.974 235.176C228.292 236.606 227.797 238.118 227.503 239.674L186.375 215.878V218.832L186.774 219.053L187.142 219.273V219.893L186.375 220.335V222.048L191.966 233.872L197.495 237.026L199.324 234.797L204.201 237.719L206.996 242.512L210.086 244.288L213.944 240.862L218.684 243.605L220.282 250.174L228.228 254.768C228.631 256.442 229.133 258.092 229.731 259.708L229.909 260.223C232.558 267.16 236.762 273.109 241.471 275.852C242.044 276.181 242.642 276.465 243.258 276.703C243.585 276.833 243.918 276.945 244.256 277.04C244.547 277.121 244.842 277.188 245.139 277.239C246.07 277.413 247.025 277.413 247.956 277.239L248.345 277.145C248.529 277.113 248.709 277.06 248.881 276.987L249.291 276.829C249.439 276.774 249.583 276.707 249.722 276.63L250.111 276.43L250.31 276.314L250.405 276.262C253.769 274.16 255.934 269.062 255.934 261.946C255.93 260.079 255.793 258.213 255.524 256.365Z" fill="#7EC2FF"/>
<path opacity="0.4" d="M251.341 259.308C251.341 262.125 249.859 263.512 248.04 262.461C246.222 261.41 244.729 258.257 244.729 255.472C244.729 252.686 246.212 251.268 248.04 252.319C248.583 252.636 249.058 253.058 249.438 253.559C249.599 255.381 250.261 257.124 251.351 258.593C251.363 258.832 251.36 259.07 251.341 259.308Z" fill="black"/>
<path opacity="0.4" d="M260.569 259.308C260.569 266.592 258.288 271.742 254.778 273.781L250.416 276.293C253.779 274.191 255.944 269.094 255.944 261.978C255.939 260.099 255.799 258.224 255.524 256.365C253.968 245.77 248.272 235.291 241.482 231.371C238.329 229.563 235.438 229.426 233.073 230.677L237.425 228.165C239.842 226.757 242.848 226.82 246.106 228.701C252.896 232.643 258.582 243.153 260.138 253.664C260.423 255.532 260.567 257.419 260.569 259.308Z" fill="white"/>
<path d="M255.944 261.978C255.944 269.094 253.779 274.17 250.416 276.293L254.777 273.781C258.288 271.742 260.569 266.592 260.569 259.308C260.569 259.035 260.569 258.762 260.569 258.499L255.955 261.169C255.934 261.431 255.944 261.705 255.944 261.978Z" fill="#7EC2FF"/>
<path opacity="0.1" d="M255.944 261.978C255.944 269.094 253.779 274.17 250.416 276.293L254.777 273.781C258.288 271.742 260.569 266.592 260.569 259.308C260.569 259.035 260.569 258.762 260.569 258.499L255.955 261.169C255.934 261.431 255.944 261.705 255.944 261.978Z" fill="black"/>
<path opacity="0.15" d="M227.723 242.701V244.204L186.364 220.335L187.132 219.893V219.263L227.723 242.701Z" fill="black"/>
<path opacity="0.15" d="M227.723 243.332V244.204L186.364 220.335L187.132 219.893V219.883L227.723 243.332Z" fill="black"/>
<path opacity="0.15" d="M245.717 273.823C244.151 273.78 242.625 273.323 241.292 272.499C234.545 268.6 229.058 257.017 229.058 246.674C229.058 240.641 230.887 236.164 234.072 234.293C236.3 233.011 238.928 233.168 241.681 234.755C248.419 238.655 253.905 250.237 253.905 260.58C253.905 266.613 252.076 271.09 248.892 272.961C247.93 273.529 246.834 273.826 245.717 273.823ZM237.309 234.209C236.328 234.207 235.363 234.464 234.513 234.955C231.612 236.626 229.888 241.009 229.888 246.674C229.888 256.775 235.144 268.053 241.734 271.826C244.235 273.277 246.59 273.434 248.566 272.299C251.467 270.628 253.19 266.245 253.19 260.58C253.19 250.479 247.935 239.191 241.345 235.428C240.115 234.665 238.703 234.244 237.256 234.209H237.309Z" fill="black"/>
<path opacity="0.5" d="M229.027 235.176C228.345 236.606 227.85 238.118 227.556 239.674L186.375 215.878L191 213.219L229.027 235.176Z" fill="white"/>
<path d="M386.076 351.413C386.234 352.852 386.434 356.889 393.749 357.898C401.064 358.907 405.668 356.479 407.623 352.958C409.578 349.437 409.126 346.567 409.431 343.309C409.736 340.051 412.437 338.316 413.215 336.635C414.35 334.165 412.689 330.328 412.689 330.328L386.076 351.413Z" fill="#263238"/>
<path d="M332.65 339.998C332.479 340.587 332.432 341.206 332.514 341.814C332.595 342.422 332.803 343.006 333.123 343.53C334.761 344.825 336.646 345.773 338.663 346.315C340.68 346.857 342.786 346.982 344.853 346.683C349.317 346.075 353.569 344.406 357.256 341.816C360.083 339.923 363.429 338.957 366.831 339.052C370.352 338.936 372.927 338.159 373.2 337.234C373.663 335.605 373.663 334.585 372.895 334.627L332.65 339.998Z" fill="#263238"/>
<path d="M410.944 324.695C410.03 331.369 397.091 330.833 398.142 325.504L395.84 309.307L410.482 309.759L410.944 324.695Z" fill="#FFA8A7"/>
<path d="M386.559 348.133C387.211 346.925 389.092 345.201 389.923 344.118C394.309 338.534 396.956 331.783 397.532 324.705C397.532 324.316 397.606 323.559 398.005 323.318C398.405 323.076 398.794 323.412 399.214 323.601C399.938 323.908 400.703 324.106 401.484 324.19C404.07 324.484 406.939 323.864 407.581 323.948C408.222 324.032 408.243 325.577 408.201 327.259C409.126 326.681 409.43 325.525 410.25 324.852C410.702 324.484 410.902 324.474 410.891 323.875C410.891 323.486 410.891 323.129 410.891 322.74C411.564 322.55 412.121 325.094 412.668 327.038C413.298 329.298 414.087 331.842 413.204 334.133C412.631 335.382 411.926 336.566 411.102 337.665C409.705 339.575 408.795 341.797 408.453 344.139C408.348 345.19 408.453 346.241 408.285 347.229C408.043 348.948 407.313 350.562 406.182 351.879C405.052 353.196 403.567 354.161 401.905 354.66C397.438 356.048 390.743 355.827 386.812 352.716C385.445 351.633 385.908 349.31 386.559 348.133Z" fill="#37474F"/>
<path d="M369.911 323.58C366.358 326.334 362.091 327.953 357.729 325.966L356.678 298.712L371.393 301.351L369.911 323.58Z" fill="#FFA8A7"/>
<path d="M335.625 335.289C336.603 334.974 337.559 334.627 338.505 334.238C341.147 333.162 343.699 331.876 346.136 330.391C347.187 329.74 348.238 329.057 349.289 328.289C350.34 327.522 351.391 326.692 352.442 325.851C352.989 325.37 353.486 324.835 353.924 324.253C354.809 323.169 355.551 321.975 356.131 320.701C356.219 320.4 356.413 320.142 356.678 319.975C356.856 319.913 357.047 319.899 357.232 319.936C357.417 319.973 357.589 320.059 357.729 320.186C357.982 320.392 358.253 320.574 358.538 320.732L359.4 321.089C360.32 321.465 361.29 321.703 362.28 321.794C366.001 322.12 366.116 321.373 366.274 322.571C366.31 323.019 366.31 323.469 366.274 323.917C368.239 323.591 369.784 322.96 369.869 322.214L370.1 319.839C372.055 319.66 372.202 323.16 372.833 327.091C373.348 330.244 374.115 332.567 373.232 334.911C370.279 337.486 365.065 336.866 362.101 337.349C357.897 338.043 355.932 341.154 350.098 343.172C340.639 346.431 334.742 342.678 332.976 341.07C331.831 339.042 331.599 336.572 335.625 335.289Z" fill="#37474F"/>
<path d="M406.813 162.411C407.56 173.973 408.916 190.905 409.389 204.264C410.271 229.363 409.925 257.984 409.925 257.984C411.329 263.247 412.233 268.632 412.626 274.065C413.225 290.104 413.12 326.113 413.12 326.113C413.12 326.113 406.467 332.809 396.524 327.553C396.524 327.553 387.705 277.103 385.246 261.253C382.891 246.17 378.298 216.057 378.298 216.057L376.196 258.856C377.792 265.581 378.32 272.515 377.762 279.404C377.226 286.762 373.032 323.034 373.032 323.034C369.207 326.618 358.065 324.663 355.627 321.815C355.627 321.815 351.727 268.211 351.286 260.454C350.351 243.71 347.859 181.267 349.11 171.576C350.361 161.885 406.813 162.411 406.813 162.411Z" fill="#263238"/>
<path d="M378.298 216.015L375.376 196.696C375.376 196.696 367.357 195.183 361.492 190.832C361.492 190.832 363.773 195.992 372.643 199.671L375.565 217.665L376.259 258.814L378.298 216.015Z" fill="black"/>
<path d="M394.684 84.8951C395.22 87.0708 398.889 86.7345 400.528 86.3246C401.501 86.1203 402.365 85.567 402.957 84.7692C403.55 83.9714 403.83 82.9843 403.744 81.9942C404.574 81.7725 405.322 81.3163 405.899 80.6804C406.287 80.1677 406.509 79.5486 406.536 78.9061C406.562 78.2636 406.391 77.6285 406.046 77.0858C406.712 76.6121 407.235 75.9645 407.557 75.2137C407.88 74.463 407.99 73.638 407.875 72.829C407.65 71.6579 407.008 70.6083 406.067 69.8755C405.157 69.1383 404.022 68.7341 402.851 68.7298C402.473 68.7298 402.094 69.4866 402.641 69.5497C403.493 69.7149 404.295 70.0746 404.985 70.6007C405.703 71.103 406.258 71.8045 406.582 72.6188C406.784 73.2653 406.784 73.9581 406.581 74.6044C406.378 75.2506 405.982 75.8194 405.447 76.2344C405.255 75.9936 405.04 75.7719 404.806 75.5722C404.075 74.9183 403.116 74.5785 402.136 74.6263C401.774 74.6174 401.417 74.7114 401.106 74.8974C400.796 75.0835 400.544 75.354 400.381 75.6774C400.129 76.4972 400.98 77.1909 401.611 77.5482C402.069 77.8071 402.576 77.9653 403.1 78.0124C403.624 78.0596 404.152 77.9945 404.648 77.8215C404.731 77.7946 404.811 77.763 404.89 77.7269C404.945 77.8362 404.995 77.9485 405.037 78.0633C405.605 79.5663 404.69 80.5017 403.461 80.9221C402.714 79.3771 400.696 78.2524 399.078 79.0618C398.872 79.1514 398.692 79.2905 398.554 79.4667C398.415 79.6429 398.323 79.8506 398.284 80.0714C398.246 80.2921 398.263 80.5189 398.333 80.7316C398.404 80.9443 398.526 81.1361 398.689 81.29C399.362 81.9263 400.254 82.2799 401.18 82.278C401.603 82.3091 402.028 82.3091 402.452 82.278C402.545 82.9516 402.388 83.6361 402.01 84.2015C401.629 84.6324 401.157 84.973 400.628 85.1985C400.099 85.424 399.526 85.5286 398.952 85.5048C397.646 85.6094 396.352 85.1981 395.346 84.3591C395.042 84.0963 394.6 84.5693 394.684 84.8951ZM404.28 76.823C403.938 76.9202 403.579 76.9405 403.228 76.8824C402.878 76.8242 402.544 76.6891 402.252 76.4867C401.81 76.1924 401.316 75.7614 402.105 75.7089C402.529 75.7138 402.946 75.8169 403.324 76.0102C403.701 76.2035 404.029 76.4817 404.28 76.823ZM402.084 81.1849C401.639 81.2034 401.193 81.161 400.759 81.0588C400.444 80.9852 399.067 80.281 399.771 80.0077C400.307 79.766 401.253 80.302 401.632 80.6384C401.806 80.7997 401.958 80.9835 402.084 81.1849Z" fill="#263238"/>
<path d="M397.239 44.2401C397.469 44.2727 397.697 44.3184 397.922 44.3768C397.761 43.6832 397.84 42.9557 398.145 42.3126C398.451 41.6694 398.965 41.1486 399.604 40.8347C400.42 40.507 401.332 40.5103 402.147 40.8439C402.961 41.1775 403.613 41.8151 403.965 42.6215L399.204 44.7972C400.751 45.3478 402.041 46.4475 402.83 47.8873C404.134 50.578 402.41 56.2958 400.676 63.3379C399.698 67.7791 398.416 72.1478 396.839 76.4131C396.04 78.5152 394.601 78.5152 394.601 78.5152V71.4836L394.905 65.6502C394.905 65.6502 391.164 60.5316 390.754 56.3378C390.218 50.9459 391.353 48.7387 391.353 48.7387L397.239 44.2401Z" fill="#263238"/>
<path d="M371.361 38.1966C373.711 38.2007 376.007 38.9019 377.958 40.2114C379.909 41.5208 381.428 43.3797 382.323 45.5527C383.217 47.7258 383.447 50.1153 382.983 52.419C382.519 54.7226 381.382 56.8369 379.716 58.4941C378.05 60.1513 375.93 61.2771 373.623 61.7289C371.317 62.1807 368.929 61.9383 366.761 61.0323C364.593 60.1263 362.742 58.5974 361.443 56.6392C360.144 54.681 359.455 52.3814 359.463 50.0315C359.467 48.4732 359.778 46.9309 360.378 45.4928C360.978 44.0547 361.856 42.7488 362.961 41.6499C364.066 40.5509 365.376 39.6803 366.817 39.0878C368.259 38.4952 369.803 38.1924 371.361 38.1966Z" fill="#263238"/>
<path d="M394.684 64.7253C396.093 65.9445 397.239 62.7913 398.426 61.5721C399.614 60.3529 403.461 58.6607 405.374 62.7178C407.287 66.7749 403.608 72.4611 400.718 73.796C396.513 75.7614 394.6 71.5046 394.6 71.5046V89.1099C390.154 97.119 380.537 95.2481 375.986 96.3727C375.307 94.3254 375.307 92.1137 375.986 90.0664V84.3381C374.072 84.7058 372.116 84.8083 370.174 84.6429C366.327 84.0333 364.267 80.8696 363.121 76.7074C361.271 70.0226 360.882 58.7868 363.457 45.8062C367.767 42.4849 382.324 43.0314 391.332 48.7071C390.701 60.2688 393.276 63.5061 394.684 64.7253Z" fill="#FFA8A7"/>
<path d="M375.997 84.3381C375.997 84.3381 384.573 82.6459 387.558 81.0588C389.344 80.1572 390.811 78.7304 391.762 76.9702C391.304 78.7253 390.496 80.3699 389.387 81.805C387.19 84.6009 376.007 86.6294 376.007 86.6294L375.997 84.3381Z" fill="#F28F8F"/>
<path d="M357.582 57.7778C357.654 58.456 357.929 59.0968 358.37 59.6171C358.516 59.8159 358.623 60.0406 358.685 60.2793C358.907 61.9577 359.258 63.6163 359.736 65.2403C360.123 66.3184 360.838 67.2481 361.781 67.8986C362.723 68.5491 363.846 68.8876 364.992 68.8665C365.597 68.8958 366.203 68.857 366.799 68.7509C366.845 68.758 366.891 68.758 366.936 68.7509C367.459 68.6475 367.962 68.4631 368.428 68.2043H368.513L368.649 68.1202L368.796 68.0046C368.852 67.9794 368.902 67.9437 368.944 67.8995C369.006 67.867 369.063 67.8244 369.112 67.7734L369.259 67.6262L369.553 67.3424C370.051 66.7898 370.459 66.1619 370.762 65.4821C371.571 63.7688 371.414 61.3409 372.675 61.0991C372.727 61.1041 372.78 61.1041 372.832 61.0991H373.001C374.724 61.1622 374.472 63.7899 375.397 65.6923C375.909 66.8967 376.778 67.9153 377.887 68.6106C378.996 69.306 380.291 69.6447 381.598 69.5812H382.071H382.46C382.76 69.5648 383.058 69.5297 383.354 69.4761L383.637 69.413L383.911 69.3395H384.079C384.442 69.2217 384.794 69.0704 385.13 68.8875C385.245 68.8034 385.361 68.7404 385.477 68.6668C385.682 68.51 385.879 68.3415 386.065 68.1623C386.558 67.6635 386.951 67.0748 387.221 66.428C387.733 64.8371 388.11 63.2056 388.346 61.5511C388.4 61.3004 388.5 61.0617 388.64 60.8469C389.099 60.3657 389.403 59.7579 389.513 59.1021C389.541 58.7593 389.453 58.4169 389.262 58.1306C389.071 57.8444 388.789 57.6311 388.462 57.5255L387.558 57.3784C384.625 56.9685 380.799 56.7372 378.498 57.3153C375.597 58.0406 374.577 58.9445 372.98 58.8919C371.382 58.8394 370.541 57.8409 367.819 56.9054C365.717 56.1487 362.08 56.1171 359.347 56.3063C359.043 56.3063 358.78 56.3063 358.496 56.3694C358.044 56.2853 357.54 56.9895 357.582 57.7778ZM376.448 59.943C376.675 59.6711 376.958 59.4522 377.278 59.3018C377.329 59.2697 377.381 59.2416 377.436 59.2177H377.51C377.649 59.1651 377.786 59.1055 377.92 59.0391C378.035 59.0391 378.172 58.955 378.298 58.9024C378.703 58.7534 379.117 58.6306 379.538 58.5346L380.032 58.4295C380.442 58.3559 380.873 58.2928 381.293 58.2508H381.598C384.363 58.0826 386.076 58.7658 386.685 59.3018C387.295 59.8379 386.98 62.455 386.685 63.7373C386.685 63.7373 386.685 63.8109 386.685 63.8319C386.695 63.8663 386.695 63.9026 386.685 63.937C386.656 64.1115 386.614 64.2836 386.559 64.452C386.538 64.5632 386.506 64.6723 386.465 64.7779C386.402 64.9565 386.339 65.1352 386.265 65.3244C386.248 65.3885 386.219 65.449 386.181 65.5031C386.172 65.5451 386.154 65.5846 386.128 65.6187C386.128 65.6187 386.128 65.6923 386.128 65.7343L386.044 65.892C386.044 65.955 385.981 66.0076 385.939 66.0602C385.911 66.1256 385.872 66.186 385.824 66.2388C385.791 66.3021 385.752 66.362 385.708 66.4175C385.265 67.0226 384.674 67.5024 383.99 67.8101C383.306 68.1177 382.555 68.2427 381.808 68.1728C381.044 68.2205 380.278 68.1024 379.563 67.8266C378.849 67.5509 378.202 67.124 377.667 66.5752C377.011 65.821 376.566 64.9075 376.374 63.9265C376.059 62.4235 375.891 60.7208 376.448 59.943ZM360.209 58.2823C360.404 58.0941 360.637 57.9507 360.892 57.8619L361.187 57.7463H361.365H361.523H361.628H361.786C361.998 57.7029 362.212 57.6714 362.427 57.6517H362.774H362.973C363.029 57.6619 363.086 57.6619 363.142 57.6517C363.289 57.6414 363.436 57.6414 363.583 57.6517H363.898C364.325 57.674 364.749 57.7196 365.17 57.7883C367.136 58.1141 369.185 59.0706 369.7 59.8904C370.215 60.7103 370.068 62.3814 369.784 63.8319C369.718 64.1562 369.63 64.4758 369.522 64.7884C369.514 64.8122 369.514 64.8381 369.522 64.8619C369.526 64.8969 369.526 64.9321 369.522 64.967C369.522 64.967 369.522 64.967 369.522 65.0301C369.506 65.0695 369.489 65.1081 369.469 65.1457C369.469 65.2298 369.395 65.3034 369.353 65.377C369.323 65.4491 369.288 65.5193 369.248 65.5872V65.6502L369.164 65.7974L369.08 65.913C368.622 66.5644 367.993 67.0769 367.262 67.394C366.532 67.7111 365.728 67.8205 364.939 67.7103C364.206 67.6925 363.486 67.5055 362.837 67.1638C360.903 66.1127 360.451 63.9265 360.23 62.9595C359.936 61.4039 359.61 58.8183 360.209 58.2823Z" fill="#263238"/>
<path d="M388.283 57.431L400.896 60.2583C399.757 60.5514 398.744 61.2038 398.005 62.1187L388.272 60.2688L388.283 57.431Z" fill="#263238"/>
<path d="M375.763 64.0548C375.959 65.1164 376.435 66.1065 377.142 66.9231C377.698 67.5045 378.371 67.9611 379.117 68.2624C379.863 68.5638 380.664 68.703 381.468 68.6709C382.264 68.7455 383.066 68.6123 383.795 68.2843C384.524 67.9563 385.155 67.4448 385.627 66.7998C385.675 66.7407 385.716 66.6768 385.751 66.6093C385.802 66.553 385.843 66.4887 385.874 66.4189C385.874 66.3629 385.941 66.3068 385.986 66.2396L386.076 66.0715C386.076 66.0715 386.076 65.9931 386.076 65.9483C386.103 65.912 386.123 65.8698 386.132 65.825C386.173 65.7674 386.203 65.7029 386.221 65.6346C386.3 65.4329 386.367 65.2424 386.434 65.0519C386.478 64.9394 386.512 64.8232 386.535 64.7046C386.593 64.5251 386.638 64.3416 386.67 64.1556C386.68 64.1189 386.68 64.0802 386.67 64.0436C386.67 64.0436 386.67 63.9763 386.67 63.9427C386.972 62.5758 387.342 59.8419 386.67 59.2145C385.997 58.587 384.192 57.8588 381.244 58.0941H380.919C380.471 58.0941 380.011 58.2061 379.574 58.2845L379.047 58.3966C378.598 58.4989 378.157 58.6299 377.724 58.7887C377.59 58.7887 377.444 58.8784 377.321 58.9344C377.179 59.0052 377.033 59.0688 376.884 59.1249H376.805C376.747 59.1503 376.691 59.1803 376.637 59.2145C376.295 59.3748 375.993 59.6081 375.752 59.898C375.247 60.6823 375.427 62.4974 375.763 64.0548Z" fill="#37474F"/>
<path d="M360.546 36.6305C360.546 36.4938 360.546 36.3467 360.598 36.1995C360.616 35.9279 360.715 35.6679 360.882 35.4533C361.46 34.8542 362.616 36.3677 362.984 36.7145C363.378 37.0573 363.788 37.3801 364.214 37.6815C364.615 37.8812 365.002 38.1095 365.37 38.3647C365.113 36.9363 365.113 35.4733 365.37 34.0449C365.549 33.0989 365.812 30.8917 366.989 30.6709C367.682 30.5238 368.292 31.1124 368.807 31.5959C373.505 35.9893 379.644 33.9608 385.298 34.1394C390.038 34.2866 395.746 36.2416 397.911 40.8242C398.888 42.9263 399.057 45.144 397.123 46.5945C395.882 47.5405 394.663 47.4984 393.969 49.0014C393.801 49.3693 392.719 53.8468 393.36 53.8048C392.199 53.9232 391.034 53.6258 390.071 52.9657C389.109 52.3055 388.412 51.3254 388.105 50.1996C387.989 49.7057 387.726 48.8123 387.621 48.3077C387.595 48.1599 387.538 48.0192 387.453 47.8953C387.368 47.7715 387.258 47.6672 387.13 47.5895C387.001 47.5118 386.857 47.4625 386.708 47.445C386.559 47.4275 386.408 47.4421 386.265 47.4879C384.825 47.8032 383.89 48.3918 382.534 48.7597C378.662 49.8732 374.591 50.1137 370.615 49.4639C367.768 48.9235 365.156 47.522 363.131 45.4489C362.104 44.2439 361.342 42.8355 360.897 41.3158C360.451 39.7962 360.332 38.1995 360.546 36.6305Z" fill="#263238"/>
<path d="M379.013 55.1081L383.217 55.7492C383.29 55.1866 383.143 54.6174 382.806 54.1609C382.469 53.7044 381.968 53.396 381.409 53.3003C381.133 53.2588 380.851 53.2729 380.58 53.3417C380.309 53.4105 380.054 53.5326 379.831 53.701C379.608 53.8693 379.421 54.0805 379.28 54.3221C379.14 54.5637 379.049 54.8309 379.013 55.1081Z" fill="#263238"/>
<path d="M378.046 74.4266L374.546 75.341C374.595 75.5742 374.691 75.7951 374.828 75.9905C374.964 76.1859 375.139 76.3518 375.341 76.4783C375.543 76.6048 375.768 76.6893 376.004 76.7269C376.239 76.7645 376.48 76.7543 376.711 76.6969C377.183 76.5637 377.586 76.2531 377.835 75.8301C378.084 75.407 378.159 74.9041 378.046 74.4266Z" fill="#F28F8F"/>
<path d="M363.268 55.3499L367.472 54.8874C367.455 54.6117 367.383 54.3422 367.259 54.0954C367.135 53.8487 366.962 53.6297 366.75 53.4518C366.539 53.2738 366.294 53.1407 366.029 53.0605C365.765 52.9803 365.487 52.9546 365.213 52.985C364.648 53.0561 364.131 53.3408 363.77 53.7806C363.408 54.2204 363.229 54.7819 363.268 55.3499Z" fill="#263238"/>
<path d="M373.463 61.1307L372.896 70.9371L367.43 69.5076L372.885 61.0151C373.084 61.0086 373.282 61.0481 373.463 61.1307Z" fill="#F28F8F"/>
<path d="M396.944 67.9416C396.942 68.4492 397.09 68.9461 397.371 69.3692C397.651 69.7923 398.051 70.1227 398.52 70.3184C398.988 70.5141 399.504 70.5664 400.002 70.4687C400.5 70.3709 400.958 70.1275 401.318 69.7692C401.678 69.411 401.923 68.954 402.023 68.4563C402.123 67.9585 402.073 67.4423 401.879 66.9731C401.685 66.5039 401.356 66.1027 400.934 65.8204C400.512 65.5382 400.016 65.3875 399.508 65.3875C399.172 65.3861 398.839 65.4511 398.528 65.5789C398.217 65.7066 397.934 65.8945 397.696 66.1318C397.457 66.3691 397.268 66.6512 397.139 66.9617C397.01 67.2723 396.944 67.6053 396.944 67.9416Z" fill="#263238"/>
<path d="M396.67 63.2643C396.89 62.489 397.278 61.7714 397.806 61.1622C398.073 60.9065 398.393 60.712 398.743 60.5922C399.094 60.4724 399.466 60.4302 399.834 60.4685C399.834 60.4685 399.908 60.5526 399.834 60.5736C399.55 60.7418 399.351 60.8364 399.067 61.0361C398.784 61.2275 398.523 61.4496 398.289 61.6983C398.083 61.9368 397.916 62.2064 397.795 62.4971C397.644 62.8304 397.545 63.1849 397.501 63.5481C397.432 64.1202 397.515 64.7004 397.742 65.2298C397.86 65.5233 398.023 65.7965 398.226 66.0391C398.444 66.2171 398.636 66.426 398.794 66.6593C398.951 66.9851 398.499 67.5421 398.152 67.353C397.495 66.9399 397.002 66.3123 396.754 65.5767C396.446 64.8417 396.416 64.0197 396.67 63.2643Z" fill="#263238"/>
<path d="M360.241 98.1806C356.689 100.514 351.78 103.541 350.582 106.831C349.384 110.121 345.926 129.197 345.547 135.346C348.697 136.83 352.071 137.782 355.532 138.163L360.241 98.1806Z" fill="#455A64"/>
<path d="M402.21 89.0889C411.207 94.0289 420.078 101.407 421.991 104.245C421.991 104.245 416.735 121.766 412.1 130.08C407.465 138.394 404.985 162.978 404.985 162.978C404.985 162.978 373.285 173.489 363.352 174.319C353.42 175.15 352.158 170.924 352.158 170.924C352.158 170.924 351.948 143.439 354.26 125.098C356.573 106.757 356.068 101.302 360.272 98.1806C362.995 96.173 374.725 91.0859 374.725 91.0859V96.3412C381.136 96.4673 402.21 89.0889 402.21 89.0889Z" fill="#37474F"/>
<path d="M372.254 99.158C371.673 97.9721 371.439 96.6454 371.582 95.3322L374.23 93.4087V96.7406L372.254 99.158Z" fill="#7EC2FF"/>
<path opacity="0.25" d="M372.254 99.158C371.673 97.9721 371.439 96.6454 371.582 95.3322L374.23 93.4087V96.7406L372.254 99.158Z" fill="black"/>
<path d="M377.405 97.1295L384.258 93.2196L389.408 97.2977L379.002 101.618L377.405 97.1295Z" fill="#7EC2FF"/>
<path opacity="0.25" d="M377.405 97.1295L384.258 93.2196L389.408 97.2977L379.002 101.618L377.405 97.1295Z" fill="black"/>
<path d="M394.6 81.6474V83.0348C394.337 84.3486 391.752 87.3967 385.225 90.3186C378.698 93.2406 375.986 96.3622 375.986 96.3622C377.749 96.4094 379.494 96.7322 381.157 97.3187C384.132 98.3698 389.072 102.154 390.48 102.112C391.888 102.069 393.833 98.1806 397.522 94.3022C400.675 91.0439 402.21 89.0469 402.21 89.0469C402.21 89.0469 397.144 81.6789 394.6 81.6474Z" fill="#455A64"/>
<path d="M375.986 96.3622C373.622 96.625 371.404 98.2646 370.826 97.4133C370.248 96.5619 372.255 88.6475 375.965 86.2405L375.986 96.3622Z" fill="#455A64"/>
<path d="M353.073 137.837C353.073 137.837 352.789 142.746 352.715 144.427C352.642 146.109 355.448 174.908 355.448 174.908L345.547 179.112C345.547 179.112 344.349 168.013 343.96 161.833C343.639 155.468 343.924 149.088 344.811 142.777C345.589 137.522 345.862 135.504 345.862 135.504C348.179 136.527 350.595 137.309 353.073 137.837Z" fill="#F28F8F"/>
<path d="M346.346 193.186C346.346 193.186 346.346 193.627 346.346 195.288C346.594 198.067 347.151 200.81 348.007 203.465C348.627 205.021 350.109 208.437 350.887 208.836C351.622 209.246 352.473 209.398 353.304 209.267C354.87 209.12 356.51 209.929 357.992 209.215C358.566 208.902 359.172 208.651 359.8 208.468C360.714 208.248 361.765 208.521 362.585 208.037C363.111 207.733 363.436 207.165 363.951 206.85C364.708 206.387 365.707 206.555 366.516 206.188C366.834 206.025 367.117 205.799 367.346 205.525C367.576 205.25 367.747 204.932 367.851 204.59C368.313 203.203 367.851 201.636 367.578 200.249C368.063 199.566 368.311 198.743 368.282 197.905C368.313 196.109 368.104 194.317 367.662 192.576C367.315 191.525 360.126 187.437 360.126 187.437L358.707 186.501C355.69 185.829 352.531 186.337 349.878 187.92C345.663 190.6 346.346 193.186 346.346 193.186Z" fill="#FFA8A7"/>
<path d="M348.29 192.986C346.388 196.139 347.502 201.826 347.513 201.889C346.917 199.737 346.526 197.534 346.346 195.309C346.346 193.627 346.346 193.207 346.346 193.207C346.346 193.207 345.663 190.579 349.825 187.952C352.479 186.368 355.638 185.861 358.654 186.533C358.654 186.533 350.193 189.801 348.29 192.986Z" fill="#F28F8F"/>
<path d="M367.525 200.217C366.855 198.167 365.819 196.255 364.467 194.573C363.668 193.838 362.995 192.902 363.794 193.217C364.593 193.533 365.707 193.711 366.148 193.154C366.59 192.597 366.684 193.564 366.148 194.321C365.612 195.078 366.064 195.656 366.642 196.896C367.086 197.958 367.383 199.075 367.525 200.217Z" fill="#F28F8F"/>
<path d="M419.247 104.592C422.243 105.643 422.642 113.841 421.991 121.199C421.339 128.556 415.6 145.951 412.983 152.005C410.051 158.806 408.274 162.726 406.319 164.86C404.364 166.993 400.276 168.749 395.041 171.46C390.312 173.909 387.074 175.15 379.002 177.651C369.9 180.479 366.39 180.647 364.456 182.003C362.522 183.358 361.975 186.301 360.073 187.405L358.654 186.47C355.454 187.238 352.399 188.516 349.604 190.253C348.352 191.03 347.249 192.023 346.346 193.186V195.288C346.346 195.288 344.044 196.255 342.089 192.135C340.134 188.015 339.241 181.834 341.49 179.133C343.739 176.432 350.865 172.732 356.646 170.924C362.427 169.117 365.296 167.225 372.044 163.147C379.233 158.806 384.226 155.915 387.81 153.96C389.166 153.172 390.08 152.216 390.69 149.756C391.174 147.78 392.613 141.936 393.496 137.543C394.905 130.196 398.068 107.976 419.247 104.592Z" fill="#FFA8A7"/>
<path d="M421.99 104.245C421.99 104.245 423.388 104.487 423.577 110.31C423.826 115.819 423.562 121.34 422.789 126.801C422.022 131.268 417.534 144.459 417.534 144.459C417.534 144.459 404.637 148.663 391.436 143.649C391.436 143.649 394.537 124.625 395.703 119.58C396.87 114.535 413.214 98.9688 421.99 104.245Z" fill="#455A64"/>
<path d="M376.354 104.624C375.618 109.353 374.609 120.589 374.609 136.45C374.609 140.339 368.933 148.232 367.598 148.064C366.264 147.896 363.815 140.475 363.468 136.166C364.004 125.739 370.31 109.564 373.064 104.035L376.354 104.624Z" fill="#7EC2FF"/>
<path opacity="0.15" d="M372.854 104.487C372.915 104.333 372.985 104.182 373.064 104.035L376.354 104.624L376.154 106.011C374.916 105.879 373.756 105.344 372.854 104.487Z" fill="black"/>
<path d="M377.405 97.1295C376.371 96.8864 375.314 96.7595 374.252 96.7511C373.414 97.4035 372.726 98.2278 372.234 99.1686C372.141 100.831 372.417 102.493 373.043 104.035C373.516 104.367 374.055 104.591 374.623 104.693C375.191 104.795 375.775 104.771 376.333 104.624C377.492 103.903 378.413 102.858 378.982 101.618C379.062 99.9731 378.496 98.3624 377.405 97.1295Z" fill="#7EC2FF"/>
<path d="M370.303 63.0873C370.123 64.1489 369.687 65.139 369.039 65.9556C368.529 66.537 367.912 66.9936 367.228 67.2949C366.544 67.5963 365.81 67.7355 365.073 67.7035C364.343 67.778 363.608 67.6448 362.94 67.3168C362.272 66.9888 361.693 66.4773 361.26 65.8323C361.217 65.7732 361.179 65.7094 361.147 65.6419C361.1 65.5856 361.062 65.5212 361.034 65.4514C361.034 65.3954 360.973 65.3393 360.932 65.2721L360.849 65.1041C360.849 65.1041 360.849 65.0256 360.849 64.9808C360.824 64.9445 360.806 64.9023 360.798 64.8576C360.76 64.7999 360.733 64.7354 360.716 64.6671C360.644 64.4654 360.582 64.2749 360.521 64.0845C360.48 63.9719 360.449 63.8557 360.428 63.7371C360.375 63.5576 360.334 63.3741 360.305 63.1881C360.296 63.1514 360.296 63.1127 360.305 63.0761C360.305 63.0761 360.305 63.0088 360.305 62.9752C360.027 61.6083 359.688 58.8744 360.305 58.247C360.921 57.6196 362.576 56.8913 365.278 57.1266H365.576C365.987 57.1266 366.408 57.2386 366.809 57.317L367.292 57.4291C367.704 57.5314 368.109 57.6624 368.505 57.8212C368.628 57.8212 368.762 57.9109 368.875 57.9669C369.005 58.0377 369.139 58.1013 369.275 58.1574H369.347C369.401 58.1828 369.452 58.2128 369.501 58.247C369.815 58.4073 370.092 58.6406 370.313 58.9305C370.775 59.7148 370.611 61.5299 370.303 63.0873Z" fill="#37474F"/>
</svg>
