<svg width="491" height="335" viewBox="0 0 491 335" fill="none" xmlns="http://www.w3.org/2000/svg">
    <path d="M476.498 330.167L326.956 23.0485L270.922 124.732L199.369 77.9079L137.286 145.454L107.788 116.991L24.759 305.017L7.02075 330.167H476.498Z" fill="#92BCE3"/>
    <path opacity="0.5" d="M476.498 330.167L326.956 23.0485L270.922 124.732L199.369 77.9079L137.286 145.454L107.788 116.991L24.759 305.017L7.02075 330.167H476.498Z" fill="white"/>
    <path d="M320.06 160.103L323.678 162.875" stroke="white" stroke-linecap="round" stroke-linejoin="round"/>
    <path d="M275.562 126.118L314.974 156.215" stroke="white" stroke-linecap="round" stroke-linejoin="round"/>
    <path d="M131.882 154.182L104.487 184.255" stroke="white" stroke-linecap="round" stroke-linejoin="round"/>
    <path d="M338.809 92.9678V61.1916L342.685 62.7423L343.003 55.9994L326.956 23.0485L306.657 59.8994L317.887 50.349L320.213 61.1916L326.416 56.5515L338.809 92.9678Z" fill="white"/>
    <path d="M218.623 103.176L220.855 91.9692L199.37 77.9078L182.782 95.9633L195.152 91.1469L202.976 103.176L203.575 94.1542L218.623 103.176Z" fill="white"/>
    <path d="M454.554 194.17H257.941V329.651H454.554V194.17Z" fill="#92BCE3" stroke="#263238" stroke-linecap="round" stroke-linejoin="round"/>
    <path d="M377.61 263.866H350.18V329.651H377.61V263.866Z" fill="white" stroke="#263238" stroke-linecap="round" stroke-linejoin="round"/>
    <path d="M374.673 268.565H353.117V329.651H374.673V268.565Z" fill="#263238" stroke="#263238" stroke-linecap="round" stroke-linejoin="round"/>
    <path d="M394.208 254.974H388.382V329.651H394.208V254.974Z" fill="white" stroke="#263238" stroke-linecap="round" stroke-linejoin="round"/>
    <path d="M395.231 303.431H387.36V329.65H395.231V303.431Z" fill="white" stroke="#263238" stroke-linecap="round" stroke-linejoin="round"/>
    <path d="M460.569 195.92H277.876C277.805 195.92 277.737 195.896 277.682 195.851C277.628 195.806 277.59 195.744 277.576 195.675C277.563 195.606 277.573 195.534 277.606 195.471C277.64 195.409 277.693 195.36 277.759 195.333L328.777 173.236C329.699 172.834 330.695 172.626 331.702 172.626H402.114C403.048 172.625 403.974 172.804 404.84 173.154L460.686 195.321C460.763 195.339 460.83 195.386 460.874 195.453C460.917 195.519 460.932 195.6 460.917 195.678C460.902 195.755 460.857 195.824 460.792 195.869C460.727 195.915 460.647 195.933 460.569 195.92Z" fill="#263238" stroke="#263238" stroke-linecap="round" stroke-linejoin="round"/>
    <path d="M400.905 260.73H295.967L303.814 238.022H387.008L400.905 260.73Z" fill="#263238" stroke="#263238" stroke-linecap="round" stroke-linejoin="round"/>
    <path d="M340.9 194.17H251.022V329.651H340.9V194.17Z" fill="white" stroke="#263238" stroke-linecap="round" stroke-linejoin="round"/>
    <path d="M340.9 306.156H251.022V329.651H340.9V306.156Z" fill="#92BCE3" stroke="#263238" stroke-linecap="round" stroke-linejoin="round"/>
    <path d="M294.651 171.615L245.583 193.935C245.517 193.962 245.462 194.012 245.429 194.076C245.396 194.14 245.386 194.213 245.401 194.283C245.417 194.353 245.456 194.415 245.513 194.459C245.57 194.503 245.64 194.525 245.712 194.522H346.221C346.293 194.525 346.363 194.503 346.42 194.459C346.477 194.415 346.516 194.353 346.532 194.283C346.547 194.213 346.537 194.14 346.504 194.076C346.471 194.012 346.417 193.962 346.35 193.935L297.282 171.615C296.87 171.424 296.421 171.325 295.967 171.325C295.512 171.325 295.063 171.424 294.651 171.615Z" fill="#263238" stroke="#263238" stroke-linecap="round" stroke-linejoin="round"/>
    <path d="M363.889 280.9C365.187 280.9 366.238 279.848 366.238 278.55C366.238 277.253 365.187 276.201 363.889 276.201C362.591 276.201 361.54 277.253 361.54 278.55C361.54 279.848 362.591 280.9 363.889 280.9Z" fill="white"/>
    <path d="M448.68 269.74H405.216V306.156H448.68V269.74Z" fill="white" stroke="#263238" stroke-linecap="round" stroke-linejoin="round"/>
    <path d="M432.235 273.052H421.662V280.9H432.235V273.052Z" fill="#263238" stroke="#263238" stroke-linecap="round" stroke-linejoin="round"/>
    <path d="M432.235 284.424H421.662V302.843H432.235V284.424Z" fill="#263238" stroke="#263238" stroke-linecap="round" stroke-linejoin="round"/>
    <path d="M418.725 273.052H409.163V280.9H418.725V273.052Z" fill="#263238" stroke="#263238" stroke-linecap="round" stroke-linejoin="round"/>
    <path d="M444.734 273.052H435.171V280.9H444.734V273.052Z" fill="#263238" stroke="#263238" stroke-linecap="round" stroke-linejoin="round"/>
    <path d="M444.734 284.424H435.171V302.843H444.734V284.424Z" fill="#263238" stroke="#263238" stroke-linecap="round" stroke-linejoin="round"/>
    <path d="M418.725 284.424H409.163V302.843H418.725V284.424Z" fill="#263238" stroke="#263238" stroke-linecap="round" stroke-linejoin="round"/>
    <path d="M323.573 269.74H268.361V306.156H323.573V269.74Z" fill="white" stroke="#263238" stroke-linecap="round" stroke-linejoin="round"/>
    <path d="M295.379 273.052H284.807V280.9H295.379V273.052Z" fill="#263238" stroke="#263238" stroke-linecap="round" stroke-linejoin="round"/>
    <path d="M295.379 284.424H284.807V302.843H295.379V284.424Z" fill="#263238" stroke="#263238" stroke-linecap="round" stroke-linejoin="round"/>
    <path d="M281.87 273.052H272.308V280.9H281.87V273.052Z" fill="#263238" stroke="#263238" stroke-linecap="round" stroke-linejoin="round"/>
    <path d="M307.878 273.052H298.316V280.9H307.878V273.052Z" fill="#263238" stroke="#263238" stroke-linecap="round" stroke-linejoin="round"/>
    <path d="M307.878 284.424H298.316V302.843H307.878V284.424Z" fill="#263238" stroke="#263238" stroke-linecap="round" stroke-linejoin="round"/>
    <path d="M320.213 273.052H310.651V280.9H320.213V273.052Z" fill="#263238" stroke="#263238" stroke-linecap="round" stroke-linejoin="round"/>
    <path d="M320.213 284.424H310.651V302.843H320.213V284.424Z" fill="#263238" stroke="#263238" stroke-linecap="round" stroke-linejoin="round"/>
    <path d="M281.87 284.424H272.308V302.843H281.87V284.424Z" fill="#263238" stroke="#263238" stroke-linecap="round" stroke-linejoin="round"/>
    <path d="M323.573 199.844H268.361V236.26H323.573V199.844Z" fill="white" stroke="#263238" stroke-linecap="round" stroke-linejoin="round"/>
    <path d="M295.379 203.157H284.807V211.004H295.379V203.157Z" fill="#263238" stroke="#263238" stroke-linecap="round" stroke-linejoin="round"/>
    <path d="M295.379 214.528H284.807V232.947H295.379V214.528Z" fill="#263238" stroke="#263238" stroke-linecap="round" stroke-linejoin="round"/>
    <path d="M281.87 203.157H272.308V211.004H281.87V203.157Z" fill="#263238" stroke="#263238" stroke-linecap="round" stroke-linejoin="round"/>
    <path d="M307.878 203.157H298.316V211.004H307.878V203.157Z" fill="#263238" stroke="#263238" stroke-linecap="round" stroke-linejoin="round"/>
    <path d="M307.878 214.528H298.316V232.947H307.878V214.528Z" fill="#263238" stroke="#263238" stroke-linecap="round" stroke-linejoin="round"/>
    <path d="M320.213 203.157H310.651V211.004H320.213V203.157Z" fill="#263238" stroke="#263238" stroke-linecap="round" stroke-linejoin="round"/>
    <path d="M320.213 214.528H310.651V232.947H320.213V214.528Z" fill="#263238" stroke="#263238" stroke-linecap="round" stroke-linejoin="round"/>
    <path d="M281.87 214.528H272.308V232.947H281.87V214.528Z" fill="#263238" stroke="#263238" stroke-linecap="round" stroke-linejoin="round"/>
    <path d="M448.68 199.844H405.216V236.26H448.68V199.844Z" fill="white" stroke="#263238" stroke-linecap="round" stroke-linejoin="round"/>
    <path d="M432.235 203.157H421.662V211.004H432.235V203.157Z" fill="#263238" stroke="#263238" stroke-linecap="round" stroke-linejoin="round"/>
    <path d="M432.235 214.528H421.662V232.947H432.235V214.528Z" fill="#263238" stroke="#263238" stroke-linecap="round" stroke-linejoin="round"/>
    <path d="M418.725 203.157H409.163V211.004H418.725V203.157Z" fill="#263238" stroke="#263238" stroke-linecap="round" stroke-linejoin="round"/>
    <path d="M444.734 203.157H435.171V211.004H444.734V203.157Z" fill="#263238" stroke="#263238" stroke-linecap="round" stroke-linejoin="round"/>
    <path d="M444.734 214.528H435.171V232.947H444.734V214.528Z" fill="#263238" stroke="#263238" stroke-linecap="round" stroke-linejoin="round"/>
    <path d="M418.725 214.528H409.163V232.947H418.725V214.528Z" fill="#263238" stroke="#263238" stroke-linecap="round" stroke-linejoin="round"/>
    <path d="M379.959 199.844H349.417V236.26H379.959V199.844Z" fill="white" stroke="#263238" stroke-linecap="round" stroke-linejoin="round"/>
    <path d="M376.435 203.157H365.863V211.004H376.435V203.157Z" fill="#263238" stroke="#263238" stroke-linecap="round" stroke-linejoin="round"/>
    <path d="M376.435 214.528H365.863V232.947H376.435V214.528Z" fill="#263238" stroke="#263238" stroke-linecap="round" stroke-linejoin="round"/>
    <path d="M362.926 203.157H353.364V211.004H362.926V203.157Z" fill="#263238" stroke="#263238" stroke-linecap="round" stroke-linejoin="round"/>
    <path d="M362.926 214.528H353.364V232.947H362.926V214.528Z" fill="#263238" stroke="#263238" stroke-linecap="round" stroke-linejoin="round"/>
    <path d="M437.227 306.156H416.669V312.03H437.227V306.156Z" fill="#92BCE3" stroke="#263238" stroke-linecap="round" stroke-linejoin="round"/>
    <path d="M307.22 306.156H286.663V312.03H307.22V306.156Z" fill="#92BCE3" stroke="#263238" stroke-linecap="round" stroke-linejoin="round"/>
    <path d="M203.446 212.178H44.1418V329.651H203.446V212.178Z" fill="white" stroke="#263238" stroke-linecap="round" stroke-linejoin="round"/>
    <path d="M216.861 215.491H30.7266L44.6353 220.554H202.941L216.861 215.491Z" fill="#92BCE3" stroke="#263238" stroke-linecap="round" stroke-linejoin="round"/>
    <path d="M216.885 215.503H30.7148L43.4371 197.224C43.8077 196.692 44.3013 196.257 44.876 195.956C45.4507 195.656 46.0895 195.498 46.738 195.497H200.838C201.488 195.497 202.129 195.654 202.706 195.955C203.283 196.256 203.778 196.691 204.151 197.224L216.885 215.503Z" fill="#263238" stroke="#263238" stroke-linecap="round" stroke-linejoin="round"/>
    <path d="M60.0477 181.095H46.8203V198.822H60.0477V181.095Z" fill="white" stroke="#263238" stroke-linecap="round" stroke-linejoin="round"/>
    <path d="M60.0475 181.095H56.5703V198.822H60.0475V181.095Z" fill="white" stroke="#263238" stroke-linecap="round" stroke-linejoin="round"/>
    <path d="M62.2326 175.515H44.6353V184.631H62.2326V175.515Z" fill="white" stroke="#263238" stroke-linecap="round" stroke-linejoin="round"/>
    <path d="M62.2325 175.515H56.1475V184.631H62.2325V175.515Z" fill="white" stroke="#263238" stroke-linecap="round" stroke-linejoin="round"/>
    <path d="M85.1044 221.236H63.3721V255.056H85.1044V221.236Z" fill="white" stroke="#263238" stroke-linecap="round" stroke-linejoin="round"/>
    <path d="M82.7551 223.338H65.7217V253.376H82.7551V223.338Z" fill="#263238" stroke="white" stroke-linecap="round" stroke-linejoin="round"/>
    <path d="M82.7551 223.338H65.7217V239.784H82.7551V223.338Z" fill="#263238" stroke="white" stroke-linecap="round" stroke-linejoin="round"/>
    <path d="M78.0561 223.338H70.4204V239.784H78.0561V223.338Z" fill="#263238" stroke="white" stroke-linecap="round" stroke-linejoin="round"/>
    <path d="M88.6286 286.433H59.8479V320.253H88.6286V286.433Z" fill="white" stroke="#263238" stroke-linecap="round" stroke-linejoin="round"/>
    <path d="M85.5156 288.535H62.9609V318.573H85.5156V288.535Z" fill="#263238" stroke="white" stroke-linecap="round" stroke-linejoin="round"/>
    <path d="M85.5156 288.535H62.9609V304.981H85.5156V288.535Z" fill="#263238" stroke="white" stroke-linecap="round" stroke-linejoin="round"/>
    <path d="M79.3014 288.535H69.187V304.981H79.3014V288.535Z" fill="#263238" stroke="white" stroke-linecap="round" stroke-linejoin="round"/>
    <path d="M187.305 286.433H158.524V320.253H187.305V286.433Z" fill="white" stroke="#263238" stroke-linecap="round" stroke-linejoin="round"/>
    <path d="M184.192 288.535H161.637V318.573H184.192V288.535Z" fill="#263238" stroke="white" stroke-linecap="round" stroke-linejoin="round"/>
    <path d="M184.192 288.535H161.637V304.981H184.192V288.535Z" fill="#263238" stroke="white" stroke-linecap="round" stroke-linejoin="round"/>
    <path d="M177.978 288.535H167.864V304.981H177.978V288.535Z" fill="#263238" stroke="white" stroke-linecap="round" stroke-linejoin="round"/>
    <path d="M184.956 221.236H163.223V255.056H184.956V221.236Z" fill="white" stroke="#263238" stroke-linecap="round" stroke-linejoin="round"/>
    <path d="M182.606 223.338H165.573V253.376H182.606V223.338Z" fill="#263238" stroke="white" stroke-linecap="round" stroke-linejoin="round"/>
    <path d="M182.606 223.338H165.573V239.784H182.606V223.338Z" fill="#263238" stroke="white" stroke-linecap="round" stroke-linejoin="round"/>
    <path d="M177.907 223.338H170.272V239.784H177.907V223.338Z" fill="#263238" stroke="white" stroke-linecap="round" stroke-linejoin="round"/>
    <path d="M130.331 226.275H115.072V250.016H130.331V226.275Z" fill="white" stroke="#263238" stroke-linecap="round" stroke-linejoin="round"/>
    <path d="M128.663 227.755H116.716V248.336H128.663V227.755Z" fill="#263238" stroke="white" stroke-linecap="round" stroke-linejoin="round"/>
    <path d="M128.663 227.755H116.716V239.291H128.663V227.755Z" fill="#263238" stroke="white" stroke-linecap="round" stroke-linejoin="round"/>
    <path d="M125.374 227.755H120.017V239.291H125.374V227.755Z" fill="#263238" stroke="white" stroke-linecap="round" stroke-linejoin="round"/>
    <path d="M144.428 276.788H103.148V318.491H144.428V276.788Z" fill="#92BCE3" stroke="#263238" stroke-linecap="round" stroke-linejoin="round"/>
    <path d="M139.729 282.662H107.847V318.491H139.729V282.662Z" fill="#263238" stroke="#263238" stroke-linecap="round" stroke-linejoin="round"/>
    <path d="M117.997 282.662H113.721V318.491H117.997V282.662Z" fill="white" stroke="#263238" stroke-linecap="round" stroke-linejoin="round"/>
    <path d="M132.093 282.662H127.817V318.491H132.093V282.662Z" fill="white" stroke="#263238" stroke-linecap="round" stroke-linejoin="round"/>
    <path d="M109.774 274.627H104.816L123.788 258.181L142.771 274.627H137.967V277.364H152.275L124.469 253.294C124.281 253.129 124.039 253.037 123.788 253.037C123.537 253.037 123.295 253.129 123.107 253.294L95.3127 277.364H109.774V274.627Z" fill="#92BCE3" stroke="#263238" stroke-linecap="round" stroke-linejoin="round"/>
    <path d="M144.627 318.491H103.148V322.144H144.627V318.491Z" fill="#92BCE3" stroke="#263238" stroke-linecap="round" stroke-linejoin="round"/>
    <path d="M144.627 322.038H103.148V325.692H144.627V322.038Z" fill="#92BCE3" stroke="#263238" stroke-linecap="round" stroke-linejoin="round"/>
    <path d="M144.627 325.586H103.148V329.239H144.627V325.586Z" fill="#92BCE3" stroke="#263238" stroke-linecap="round" stroke-linejoin="round"/>
    <path d="M107.847 282.662H103.7" stroke="#263238" stroke-linecap="round" stroke-linejoin="round"/>
    <path d="M144.263 282.662H140.117" stroke="#263238" stroke-linecap="round" stroke-linejoin="round"/>
    <path d="M247.803 307.742C247.803 307.742 258.857 308.834 264.461 315.683C266.473 313.244 269.002 311.282 271.864 309.937C274.726 308.592 277.85 307.899 281.013 307.906C283.608 304.772 285.26 300.965 285.777 296.928C286.293 292.891 285.652 288.791 283.929 285.104C282.205 281.417 279.47 278.296 276.042 276.103C272.614 273.91 268.633 272.736 264.563 272.717C260.494 272.698 256.502 273.836 253.054 275.997C249.606 278.158 246.842 281.255 245.085 284.925C243.328 288.596 242.649 292.691 243.128 296.732C243.608 300.773 245.225 304.596 247.791 307.754L247.803 307.742Z" fill="#92BCE3"/>
    <path opacity="0.5" d="M247.803 307.742C247.803 307.742 258.857 308.834 264.461 315.683C266.473 313.244 269.002 311.282 271.864 309.937C274.726 308.592 277.85 307.899 281.013 307.906C283.608 304.772 285.26 300.965 285.777 296.928C286.293 292.891 285.652 288.791 283.929 285.104C282.205 281.417 279.47 278.296 276.042 276.103C272.614 273.91 268.633 272.736 264.563 272.717C260.494 272.698 256.502 273.836 253.054 275.997C249.606 278.158 246.842 281.255 245.085 284.925C243.328 288.596 242.649 292.691 243.128 296.732C243.608 300.773 245.225 304.596 247.791 307.754L247.803 307.742Z" fill="white"/>
    <path d="M264.097 274.215L263.721 329.651H265.589L264.097 274.215Z" fill="#263238"/>
    <path d="M264.649 313.604C264.649 313.604 268.384 306.884 275.104 304.829C275.104 304.829 268.055 306.508 264.472 312.288L264.649 313.604Z" fill="#263238"/>
    <path d="M264.649 294.562C264.649 294.562 268.384 287.842 275.104 285.786C275.104 285.786 268.055 287.466 264.472 293.258L264.649 294.562Z" fill="#263238"/>
    <path d="M264.649 304.077C264.649 304.077 268.384 297.357 275.104 295.313C275.104 295.313 268.055 296.993 264.472 302.773L264.649 304.077Z" fill="#263238"/>
    <path d="M264.096 299.413C264.096 299.413 260.502 292.694 254.017 290.638C254.017 290.638 260.854 292.318 264.284 298.109L264.096 299.413Z" fill="#263238"/>
    <path d="M264.096 308.74C264.096 308.74 260.502 302.033 254.017 299.977C254.017 299.977 260.854 301.657 264.284 307.437L264.096 308.74Z" fill="#263238"/>
    <path d="M452.557 307.742C452.557 307.742 463.611 308.834 469.226 315.683C471.239 313.244 473.767 311.282 476.629 309.937C479.491 308.592 482.616 307.899 485.778 307.906C488.374 304.772 490.026 300.965 490.542 296.928C491.059 292.891 490.418 288.791 488.694 285.104C486.971 281.417 484.236 278.296 480.808 276.103C477.379 273.91 473.399 272.736 469.329 272.717C465.259 272.698 461.268 273.836 457.82 275.997C454.371 278.158 451.608 281.255 449.851 284.925C448.093 288.596 447.415 292.691 447.894 296.732C448.373 300.773 449.99 304.596 452.557 307.754V307.742Z" fill="#92BCE3"/>
    <path opacity="0.5" d="M452.557 307.742C452.557 307.742 463.611 308.834 469.226 315.683C471.239 313.244 473.767 311.282 476.629 309.937C479.491 308.592 482.616 307.899 485.778 307.906C488.374 304.772 490.026 300.965 490.542 296.928C491.059 292.891 490.418 288.791 488.694 285.104C486.971 281.417 484.236 278.296 480.808 276.103C477.379 273.91 473.399 272.736 469.329 272.717C465.259 272.698 461.268 273.836 457.82 275.997C454.371 278.158 451.608 281.255 449.851 284.925C448.093 288.596 447.415 292.691 447.894 296.732C448.373 300.773 449.99 304.596 452.557 307.754V307.742Z" fill="white"/>
    <path d="M468.85 274.215L468.486 329.651H470.342L468.85 274.215Z" fill="#263238"/>
    <path d="M469.45 313.604C469.45 313.604 473.185 306.884 479.905 304.829C479.905 304.829 472.856 306.508 469.262 312.288L469.45 313.604Z" fill="#263238"/>
    <path d="M469.45 294.562C469.45 294.562 473.185 287.842 479.905 285.786C479.905 285.786 472.856 287.466 469.262 293.258L469.45 294.562Z" fill="#263238"/>
    <path d="M469.45 304.077C469.45 304.077 473.185 297.357 479.905 295.313C479.905 295.313 472.856 296.993 469.262 302.773L469.45 304.077Z" fill="#263238"/>
    <path d="M468.862 299.413C468.862 299.413 465.256 292.694 458.771 290.638C458.771 290.638 465.62 292.318 469.039 298.109L468.862 299.413Z" fill="#263238"/>
    <path d="M468.862 308.74C468.862 308.74 465.256 302.033 458.771 299.977C458.771 299.977 465.62 301.657 469.039 307.437L468.862 308.74Z" fill="#263238"/>
    <path d="M8.51265 307.742C8.51265 307.742 19.5668 308.834 25.1819 315.683C27.1946 313.244 29.7229 311.282 32.5849 309.937C35.447 308.592 38.5716 307.899 41.7338 307.906C44.3295 304.772 45.9816 300.965 46.4979 296.928C47.0142 292.891 46.3733 288.791 44.65 285.104C42.9266 281.417 40.1916 278.296 36.7632 276.103C33.3349 273.91 29.3543 272.736 25.2846 272.717C21.215 272.698 17.2237 273.836 13.7753 275.997C10.327 278.158 7.5634 281.255 5.80621 284.925C4.04901 288.596 3.3705 292.691 3.84963 296.732C4.32877 300.773 5.94584 304.596 8.51265 307.754V307.742Z" fill="#92BCE3"/>
    <path opacity="0.5" d="M8.51265 307.742C8.51265 307.742 19.5668 308.834 25.1819 315.683C27.1946 313.244 29.7229 311.282 32.5849 309.937C35.447 308.592 38.5716 307.899 41.7338 307.906C44.3295 304.772 45.9816 300.965 46.4979 296.928C47.0142 292.891 46.3733 288.791 44.65 285.104C42.9266 281.417 40.1916 278.296 36.7632 276.103C33.3349 273.91 29.3543 272.736 25.2846 272.717C21.215 272.698 17.2237 273.836 13.7753 275.997C10.327 278.158 7.5634 281.255 5.80621 284.925C4.04901 288.596 3.3705 292.691 3.84963 296.732C4.32877 300.773 5.94584 304.596 8.51265 307.754V307.742Z" fill="white"/>
    <path d="M24.8061 274.215L24.4419 329.651H26.3097L24.8061 274.215Z" fill="#263238"/>
    <path d="M25.405 313.604C25.405 313.604 29.1406 306.884 35.86 304.829C35.86 304.829 28.8117 306.508 25.217 312.288L25.405 313.604Z" fill="#263238"/>
    <path d="M25.405 294.562C25.405 294.562 29.1406 287.842 35.86 285.786C35.86 285.786 28.8117 287.466 25.217 293.258L25.405 294.562Z" fill="#263238"/>
    <path d="M25.405 304.077C25.405 304.077 29.1406 297.357 35.86 295.313C35.86 295.313 28.8117 296.993 25.217 302.773L25.405 304.077Z" fill="#263238"/>
    <path d="M24.8177 299.413C24.8177 299.413 21.2113 292.694 14.7268 290.638C14.7268 290.638 21.5754 292.318 24.9939 298.109L24.8177 299.413Z" fill="#263238"/>
    <path d="M24.8177 308.74C24.8177 308.74 21.2113 302.033 14.7268 299.977C14.7268 299.977 21.5754 301.657 24.9939 307.437L24.8177 308.74Z" fill="#263238"/>
    <path d="M188.398 291.378C188.398 291.378 207.71 293.293 217.495 305.263C217.495 305.263 227.833 291.402 246.417 291.684C250.973 286.204 253.878 279.542 254.793 272.474C255.708 265.407 254.594 258.225 251.583 251.766C248.572 245.307 243.787 239.837 237.786 235.994C231.784 232.15 224.814 230.092 217.688 230.059C210.561 230.026 203.572 232.019 197.536 235.806C191.499 239.594 186.663 245.019 183.592 251.449C180.52 257.88 179.34 265.051 180.189 272.127C181.038 279.203 183.881 285.892 188.386 291.413L188.398 291.378Z" fill="#92BCE3"/>
    <path opacity="0.3" d="M188.398 291.378C188.398 291.378 207.71 293.293 217.495 305.263C217.495 305.263 227.833 291.402 246.417 291.684C250.973 286.204 253.878 279.542 254.793 272.474C255.708 265.407 254.594 258.225 251.583 251.766C248.572 245.307 243.787 239.837 237.786 235.994C231.784 232.15 224.814 230.092 217.688 230.059C210.561 230.026 203.572 232.019 197.536 235.806C191.499 239.594 186.663 245.019 183.592 251.449C180.52 257.88 179.34 265.051 180.189 272.127C181.038 279.203 183.881 285.892 188.386 291.413L188.398 291.378Z" fill="white"/>
    <path d="M216.861 232.842L216.203 329.651H219.469L216.861 232.842Z" fill="#263238"/>
    <path d="M217.836 301.622C217.836 301.622 224.356 289.875 236.091 286.292C236.091 286.292 223.698 289.228 217.507 299.331L217.836 301.622Z" fill="#263238"/>
    <path d="M217.836 268.365C217.836 268.365 224.356 256.618 236.091 253.094C236.091 253.094 223.698 256.031 217.507 266.133L217.836 268.365Z" fill="#263238"/>
    <path d="M217.836 285.011C217.836 285.011 224.356 273.264 236.091 269.74C236.091 269.74 223.698 272.677 217.507 282.779L217.836 285.011Z" fill="#263238"/>
    <path d="M216.885 276.847C216.885 276.847 210.588 265.1 199.264 261.575C199.264 261.575 211.223 264.501 217.19 274.603L216.885 276.847Z" fill="#263238"/>
    <path d="M216.885 293.14C216.885 293.14 210.588 281.393 199.264 277.869C199.264 277.869 211.223 280.806 217.19 290.908L216.885 293.14Z" fill="#263238"/>
    <path d="M484.697 328.863H6.19849V333.562H484.697V328.863Z" fill="#263238" stroke="#263238" stroke-linecap="round" stroke-linejoin="round"/>
    <path d="M233.225 157.19C229.348 155.064 227.586 156.837 226.177 155.064C224.767 153.29 230.065 148.708 219.469 144.127C219.469 144.127 218.764 134.236 204.292 133.883C189.819 133.531 193.719 143.775 189.819 146.241C185.919 148.708 184.873 144.832 180.997 147.299C177.12 149.766 178.871 154.711 175.699 155.416C172.527 156.121 168.286 152.244 164.398 154.711C160.51 157.178 160.498 159.316 158.736 159.316C156.974 159.316 153.45 157.906 151.323 159.316C149.197 160.726 146.742 162.488 146.742 162.488H236.021C236.021 162.488 237.113 159.316 233.225 157.19Z" fill="white"/>
    <path d="M195.857 143.41C193.038 141.86 191.745 143.152 190.723 141.86C189.701 140.568 193.543 137.231 185.837 133.895C185.837 133.895 185.32 126.694 174.771 126.436C164.222 126.177 167.065 133.637 164.198 135.434C161.332 137.231 160.592 134.412 157.761 136.209C154.93 138.007 156.222 141.613 153.908 142.083C151.594 142.553 148.504 139.733 145.685 141.578C142.865 143.422 142.865 144.914 141.573 144.914C140.281 144.914 137.72 143.892 136.169 144.914C134.619 145.936 132.833 147.263 132.833 147.263H197.901C197.901 147.263 198.688 144.949 195.857 143.41Z" fill="white"/>
    <path d="M218.177 31.7414C212.89 28.8633 210.482 31.2597 208.567 28.8633C206.653 26.4669 213.854 20.2056 199.428 13.9561C199.428 13.9561 198.465 0.493815 178.753 0.0121794C159.041 -0.469456 164.339 13.4745 159.041 16.8459C153.743 20.2174 152.322 14.9194 147.024 18.2791C141.726 21.6388 144.146 28.3817 139.823 29.345C135.5 30.3082 129.72 25.0102 124.434 28.3817C119.148 31.7531 119.148 34.6312 116.74 34.6312C114.331 34.6312 109.527 32.7047 106.649 34.6312C103.771 36.5577 100.399 38.9542 100.399 38.9542H222.018C222.018 38.9542 223.463 34.6312 218.177 31.7414Z" fill="#92BCE3"/>
    <path opacity="0.8" d="M218.177 31.7414C212.89 28.8633 210.482 31.2597 208.567 28.8633C206.653 26.4669 213.854 20.2056 199.428 13.9561C199.428 13.9561 198.465 0.493815 178.753 0.0121794C159.041 -0.469456 164.339 13.4745 159.041 16.8459C153.743 20.2174 152.322 14.9194 147.024 18.2791C141.726 21.6388 144.146 28.3817 139.823 29.345C135.5 30.3082 129.72 25.0102 124.434 28.3817C119.148 31.7531 119.148 34.6312 116.74 34.6312C114.331 34.6312 109.527 32.7047 106.649 34.6312C103.771 36.5577 100.399 38.9542 100.399 38.9542H222.018C222.018 38.9542 223.463 34.6312 218.177 31.7414Z" fill="white"/>
</svg>
