<svg width="376" height="355" viewBox="0 0 376 355" fill="none" xmlns="http://www.w3.org/2000/svg">
<path fill-rule="evenodd" clip-rule="evenodd" d="M185.126 4.62941C223.021 12.1174 244.834 48.9507 276.613 70.8491C309.527 93.5307 366.136 96.0376 374.407 135.063C382.898 175.124 328.621 200.025 311.919 237.434C297.953 268.715 310.899 311.037 285.534 334.125C259.759 357.586 219.879 356.074 185.126 352.845C152.841 349.846 126.125 331.748 97.4544 316.652C63.0244 298.523 10.6004 293.609 1.12653 255.962C-8.49513 217.727 46.3887 192.829 56.7196 154.779C68.0312 113.116 34.7631 61.4574 62.8532 28.6107C90.4771 -3.69067 143.358 -3.62393 185.126 4.62941Z" fill="url(#paint0_linear)"/>
<path d="M95.2329 88.121L95.2738 103.673L97.1601 104.771L97.1075 87.0348L95.2329 88.121Z" fill="#F0F0F0"/>
<path d="M74.9268 115.423L74.9326 117.601L97.1596 104.771L95.2733 103.673L74.9268 115.423Z" fill="#F5F5F5"/>
<path d="M99.4081 83.1103L72.5967 98.5746L72.6609 121.52L99.4432 106.056L99.4081 83.1103ZM74.9327 117.601V115.423L74.8801 99.8711L95.2325 88.121L97.1072 87.064L97.1597 104.8L74.9327 117.601Z" fill="#E0E0E0"/>
<path d="M99.38 83.1103L97.4937 82.0124L70.7114 97.4767L72.5977 98.5688L99.38 83.1103Z" fill="#F5F5F5"/>
<path d="M70.7104 97.4767L70.7747 120.44L72.661 121.537L72.5968 98.5688L70.7104 97.4767Z" fill="#F0F0F0"/>
<path d="M95.2153 123.027L95.2621 138.579L97.1484 139.671L97.0958 121.94L95.2153 123.027Z" fill="#F0F0F0"/>
<path d="M74.915 150.323L74.9209 152.507L97.1479 139.671L95.2616 138.579L74.915 150.323Z" fill="#F5F5F5"/>
<path d="M99.3672 118.016L72.585 133.474L72.6492 156.437L99.4081 140.973L99.3672 118.016ZM74.921 152.507V150.323L74.8801 134.771L95.2266 123.027L97.1071 121.94L97.1597 139.671L74.921 152.507Z" fill="#E0E0E0"/>
<path d="M99.3673 118.01L97.481 116.918L70.6987 132.377L72.5851 133.474L99.3673 118.01Z" fill="#F5F5F5"/>
<path d="M70.6987 132.377L70.763 155.339L72.6493 156.437L72.5851 133.474L70.6987 132.377Z" fill="#F0F0F0"/>
<path d="M88.7677 94.0252L94.3157 98.3994L94.3274 102.663L75.8672 113.321L75.8555 109.052L79.377 102.067L82.5364 104.52L81.4152 107.989L83.0387 104.905L88.7677 94.0252Z" fill="#E0E0E0"/>
<path d="M82.6999 96.1802C83.57 95.678 84.2767 96.0809 84.2825 97.0796C84.2529 97.6239 84.0952 98.1536 83.8222 98.6255C83.5492 99.0973 83.1687 99.4981 82.7116 99.7952C81.8414 100.297 81.1348 99.8944 81.1348 98.8958C81.1633 98.3519 81.3199 97.8224 81.5919 97.3504C81.8639 96.8785 82.2435 96.4776 82.6999 96.1802Z" fill="#E0E0E0"/>
<path d="M88.7501 128.931L94.2981 133.299L94.3157 137.568L75.8554 148.226L75.8438 143.957L79.3594 136.967L82.5189 139.42L81.4034 142.889L83.0211 139.811L88.7501 128.931Z" fill="#E0E0E0"/>
<path d="M82.6882 131.08C83.5583 130.578 84.265 130.981 84.265 131.979C84.2378 132.524 84.0818 133.054 83.8097 133.526C83.5376 133.998 83.1572 134.399 82.6998 134.695C81.8297 135.197 81.123 134.794 81.123 133.796C81.1502 133.251 81.3062 132.721 81.5783 132.249C81.8504 131.777 82.2308 131.376 82.6882 131.08Z" fill="#E0E0E0"/>
<path d="M294.417 107.434C293.916 106.4 293.114 105.541 292.116 104.969L232.163 70.8638C231.886 70.7579 231.594 70.6987 231.298 70.6886C228.215 70.6302 225.114 73.5327 224.676 75.0628C224.576 75.2561 224.524 75.4703 224.524 75.6877V205.306C224.524 206.319 224.792 207.313 225.3 208.188C225.809 209.063 226.541 209.788 227.421 210.288L287.374 244.452C287.448 244.488 287.524 244.519 287.602 244.545C291.182 246.064 294.989 242.91 294.989 239.605V109.957C294.994 109.083 294.798 108.22 294.417 107.434Z" fill="#263238"/>
<path d="M224.683 75.0696C225.121 73.5395 228.222 70.637 231.305 70.6954C231.601 70.7055 231.893 70.7647 232.169 70.8706L292.129 104.97C293.005 105.476 293.736 106.202 294.248 107.075C294.759 107.948 295.036 108.94 295.049 109.952V239.6C295.049 242.905 291.241 246.059 287.661 244.541C287.583 244.514 287.507 244.483 287.433 244.447L227.422 210.289C226.543 209.788 225.812 209.063 225.305 208.188C224.797 207.313 224.53 206.319 224.531 205.307V75.6945C224.531 75.4771 224.583 75.2629 224.683 75.0696Z" fill="#455A64"/>
<path d="M286.65 123.657C286.649 123.151 286.514 122.654 286.26 122.217C286.006 121.779 285.641 121.416 285.202 121.164L229.535 89.4992C229.317 89.3756 229.071 89.3113 228.821 89.3126C228.57 89.3139 228.325 89.3809 228.109 89.5067C227.892 89.6326 227.713 89.8131 227.588 90.03C227.463 90.247 227.397 90.4929 227.397 90.7432V195.308C227.398 195.814 227.532 196.31 227.787 196.747C228.041 197.184 228.406 197.546 228.846 197.796L284.536 229.519C284.755 229.643 285.002 229.707 285.252 229.705C285.503 229.703 285.75 229.636 285.966 229.509C286.183 229.383 286.363 229.202 286.488 228.984C286.613 228.767 286.679 228.52 286.679 228.269L286.65 123.657Z" fill="#4A6FB0"/>
<path opacity="0.2" d="M286.65 123.657C286.649 123.151 286.514 122.654 286.26 122.217C286.006 121.779 285.641 121.416 285.202 121.164L229.535 89.4992C229.317 89.3756 229.071 89.3113 228.821 89.3126C228.57 89.3139 228.325 89.3809 228.109 89.5067C227.892 89.6326 227.713 89.8131 227.588 90.03C227.463 90.247 227.397 90.4929 227.397 90.7432V195.308C227.398 195.814 227.532 196.31 227.787 196.747C228.041 197.184 228.406 197.546 228.846 197.796L284.536 229.519C284.755 229.643 285.002 229.707 285.252 229.705C285.503 229.703 285.75 229.636 285.966 229.509C286.183 229.383 286.363 229.202 286.488 228.984C286.613 228.767 286.679 228.52 286.679 228.269L286.65 123.657Z" fill="black"/>
<path opacity="0.3" d="M295.013 109.951V239.599C295.013 242.904 291.205 246.058 287.625 244.54C287.84 244.617 288.071 244.642 288.298 244.612C288.525 244.582 288.741 244.498 288.929 244.367C289.116 244.236 289.27 244.061 289.376 243.859C289.483 243.656 289.539 243.431 289.541 243.202V113.554C289.537 112.427 289.199 111.325 288.571 110.389L294.44 107.469C294.815 108.243 295.011 109.091 295.013 109.951Z" fill="black"/>
<path opacity="0.1" d="M231.298 70.712C231.594 70.722 231.886 70.7812 232.163 70.8872L292.128 104.969C293.125 105.541 293.927 106.4 294.429 107.434L288.56 110.354C288.068 109.605 287.408 108.981 286.632 108.532L226.673 74.4437C226.503 74.3477 226.314 74.2876 226.12 74.2671C225.925 74.2467 225.729 74.2664 225.542 74.3249C225.355 74.3835 225.183 74.4797 225.035 74.6076C224.887 74.7355 224.767 74.8924 224.682 75.0686C225.114 73.5327 228.215 70.6302 231.298 70.712Z" fill="white"/>
<path d="M249.636 95.859C249.216 95.6137 248.865 95.8006 248.865 96.2853C248.879 96.5518 248.956 96.8111 249.089 97.0424C249.222 97.2738 249.407 97.4705 249.63 97.6169L261.392 104.403C261.812 104.648 262.151 104.444 262.151 103.959C262.139 103.697 262.064 103.441 261.933 103.214C261.802 102.986 261.618 102.793 261.398 102.651L249.636 95.859Z" fill="#263238"/>
<path d="M264.417 104.391C263.996 104.152 263.652 104.345 263.652 104.829C263.667 105.093 263.744 105.35 263.875 105.579C264.007 105.808 264.191 106.003 264.411 106.149C264.832 106.394 265.182 106.19 265.182 105.711C265.167 105.447 265.089 105.189 264.956 104.96C264.824 104.731 264.639 104.536 264.417 104.391Z" fill="#263238"/>
<path d="M256.889 94.8721C256.048 94.3873 255.365 94.7728 255.365 95.7364C255.391 96.2653 255.541 96.7805 255.804 97.2402C256.067 97.6999 256.435 98.0911 256.877 98.3819C257.718 98.8666 258.413 98.4695 258.419 97.5001C258.388 96.9727 258.233 96.4601 257.967 96.0036C257.702 95.5471 257.332 95.1595 256.889 94.8721Z" fill="#263238"/>
<path d="M256.883 216.946C255.172 215.959 253.788 216.741 253.782 218.698C253.836 219.773 254.143 220.82 254.678 221.755C255.213 222.689 255.96 223.485 256.86 224.076C258.577 225.063 259.996 224.257 260.002 222.283C259.937 221.211 259.621 220.17 259.08 219.242C258.538 218.315 257.785 217.528 256.883 216.946Z" fill="#263238"/>
<path d="M277.528 128.377C277.456 127.792 277.286 127.223 277.025 126.695C276.911 126.464 276.78 126.241 276.634 126.029C276.194 125.382 275.613 124.843 274.935 124.452L220.518 93.5002L220.436 93.4652C220.363 93.4409 220.289 93.4214 220.214 93.4068C220.054 93.3746 219.892 93.3551 219.729 93.3484C218.845 93.3424 217.971 93.5423 217.177 93.9324C216.401 94.315 215.687 94.811 215.057 95.404L214.724 95.7369C214.281 96.1738 213.938 96.7019 213.72 97.2845C213.677 97.3703 213.644 97.4603 213.621 97.5532C213.592 97.6498 213.578 97.7502 213.58 97.851V215.545C213.582 216.462 213.827 217.363 214.288 218.157C214.749 218.95 215.411 219.608 216.208 220.065L270.625 251.075C270.693 251.107 270.763 251.135 270.835 251.157C274.082 252.535 277.539 249.674 277.539 246.672V128.978C277.547 128.778 277.543 128.577 277.528 128.377Z" fill="#4A6FB0"/>
<path d="M213.708 97.3142C214.105 95.9301 216.92 93.2904 219.717 93.3488C219.987 93.3551 220.253 93.4064 220.506 93.5006L274.923 124.453C275.827 124.976 276.555 125.757 277.014 126.695C277.365 127.405 277.549 128.186 277.551 128.979V246.678C277.551 249.68 274.094 252.518 270.847 251.163C270.775 251.141 270.704 251.114 270.636 251.081L216.208 220.053C215.41 219.598 214.747 218.941 214.285 218.147C213.824 217.353 213.58 216.451 213.58 215.533V97.8806C213.579 97.6845 213.623 97.4908 213.708 97.3142Z" fill="#4A6FB0"/>
<path opacity="0.2" d="M277.528 128.978V246.677C277.528 249.679 274.071 252.517 270.824 251.162C271.02 251.237 271.231 251.263 271.44 251.238C271.649 251.213 271.848 251.137 272.021 251.017C272.193 250.898 272.334 250.738 272.431 250.551C272.527 250.365 272.577 250.158 272.576 249.947V132.231C272.573 131.207 272.268 130.208 271.7 129.357L277.026 126.694C277.365 127.407 277.537 128.188 277.528 128.978Z" fill="white"/>
<path opacity="0.4" d="M219.712 93.342C219.981 93.3483 220.247 93.3996 220.5 93.4938L274.917 124.446C275.821 124.969 276.549 125.75 277.008 126.688L271.688 129.357C271.242 128.676 270.642 128.11 269.936 127.705L215.518 96.7525C215.363 96.6652 215.191 96.6109 215.014 96.5932C214.837 96.5755 214.658 96.5946 214.488 96.6495C214.319 96.7044 214.162 96.7937 214.029 96.912C213.896 97.0302 213.789 97.1748 213.714 97.3365C214.099 95.9233 216.914 93.2836 219.712 93.342Z" fill="white"/>
<path opacity="0.3" d="M213.708 97.3142C214.105 95.9301 216.92 93.2904 219.717 93.3488C219.987 93.3551 220.253 93.4064 220.506 93.5006L274.923 124.453C275.827 124.976 276.555 125.757 277.014 126.695C277.365 127.405 277.549 128.186 277.551 128.979V246.678C277.551 249.68 274.094 252.518 270.847 251.163C270.775 251.141 270.704 251.114 270.636 251.081L216.208 220.053C215.41 219.598 214.747 218.941 214.285 218.147C213.824 217.353 213.58 216.451 213.58 215.533V97.8806C213.579 97.6845 213.623 97.4908 213.708 97.3142Z" fill="white"/>
<path d="M219.058 104.274L219.665 104.631L219.677 102.009L219.063 101.658L219.058 104.274Z" fill="white"/>
<path d="M218.012 103.673L218.62 104.023L218.625 101.903L218.018 101.553L218.012 103.673Z" fill="white"/>
<path d="M216.961 103.066L217.568 103.416L217.574 101.845L216.967 101.495L216.961 103.066Z" fill="white"/>
<path d="M215.916 102.464L216.523 102.814V101.752L215.916 101.401V102.464Z" fill="white"/>
<path d="M221.324 105.588L225.055 107.743L225.061 105.542L221.33 103.387L221.324 105.588Z" fill="white"/>
<path d="M226.913 108.812L228.776 109.887L228.781 107.691L226.918 106.616L226.913 108.812Z" fill="white"/>
<path d="M265.416 130.765L265.421 128.995L267.424 130.151L265.421 128.995L265.416 130.765Z" fill="white"/>
<path d="M265.416 130.765L267.419 131.921L267.424 130.151L265.421 128.995L265.416 130.765Z" fill="#4A6FB0"/>
<path d="M268.838 131.232V130.543L265.054 128.359V130.975L268.838 133.159V132.47L269.323 132.75V131.512L268.838 131.232ZM267.419 131.921L265.416 130.753V129.001L267.419 130.169V131.921Z" fill="white"/>
<path d="M259.634 127.664L263.366 129.813L263.371 127.617L259.64 125.462L259.634 127.664Z" fill="white"/>
<path d="M241.828 117.251L245.559 119.406L245.565 117.21L241.833 115.055L241.828 117.251Z" fill="white"/>
<path d="M262.624 138.17L207.793 106.511C207.635 106.402 207.453 106.333 207.263 106.31C207.072 106.288 206.879 106.313 206.701 106.383H206.671L205.503 107.048L206.222 107.761L206.181 123.418V123.786V128.008C206.211 128.558 206.369 129.093 206.644 129.57C206.919 130.047 207.303 130.452 207.763 130.753L260.458 161.232L262.484 163.229L263.617 162.581C263.659 162.562 263.698 162.539 263.734 162.511H263.787C263.914 162.392 264.014 162.245 264.077 162.083C264.141 161.92 264.167 161.745 264.155 161.571V157.705V156.98L264.201 140.961C264.18 140.404 264.025 139.86 263.751 139.375C263.477 138.889 263.09 138.476 262.624 138.17Z" fill="#4A6FB0"/>
<path opacity="0.2" d="M262.624 138.17L207.793 106.511C207.635 106.402 207.453 106.333 207.263 106.31C207.072 106.288 206.879 106.313 206.701 106.383H206.671L205.503 107.048L206.222 107.761L206.181 123.418V123.786V128.008C206.211 128.558 206.369 129.093 206.644 129.57C206.919 130.047 207.303 130.452 207.763 130.753L260.458 161.232L262.484 163.229L263.617 162.581C263.659 162.562 263.698 162.539 263.734 162.511H263.787C263.914 162.392 264.014 162.245 264.077 162.083C264.141 161.92 264.167 161.745 264.155 161.571V157.705V156.98L264.201 140.961C264.18 140.404 264.025 139.86 263.751 139.375C263.477 138.889 263.09 138.476 262.624 138.17Z" fill="black"/>
<path d="M261.451 138.83C261.912 139.131 262.295 139.536 262.57 140.013C262.845 140.49 263.004 141.025 263.033 141.575L262.987 157.588L204.978 124.101V124.831L262.987 158.312V162.172C262.987 163.183 262.268 163.591 261.392 163.083L206.549 131.448C206.089 131.148 205.706 130.743 205.431 130.267C205.156 129.791 204.997 129.258 204.966 128.709L205.025 108.1C205.025 107.095 205.737 106.686 206.619 107.189L261.451 138.83Z" fill="#4A6FB0"/>
<path d="M262.986 157.588V158.318L204.978 124.831V124.101L262.986 157.588Z" fill="#4A6FB0"/>
<g opacity="0.2">
<path opacity="0.2" d="M262.986 157.588V158.318L204.978 124.831V124.101L262.986 157.588Z" fill="white"/>
</g>
<g opacity="0.6">
<path opacity="0.6" d="M234.651 143.794L234.645 145.581L206.806 129.503L206.812 127.722L234.651 143.794Z" fill="white"/>
</g>
<path d="M217.137 115.487C217.413 115.668 217.643 115.911 217.807 116.197C217.971 116.484 218.066 116.805 218.083 117.134V127.845C218.083 128.429 217.657 128.691 217.125 128.388L207.81 123.003C207.533 122.825 207.302 122.583 207.137 122.297C206.971 122.012 206.876 121.692 206.858 121.362L206.888 110.652C206.888 110.068 207.32 109.799 207.845 110.103L217.137 115.487Z" fill="white"/>
<g opacity="0.6">
<path opacity="0.6" d="M251.178 136.278L251.172 138.619L221.674 121.59L221.68 119.248L251.178 136.278Z" fill="white"/>
</g>
<g opacity="0.6">
<path opacity="0.6" d="M238.126 136.973L238.12 139.314L221.651 129.807L221.657 127.465L238.126 136.973Z" fill="white"/>
</g>
<g opacity="0.6">
<path opacity="0.6" d="M251.166 140.389L251.16 142.725L221.663 125.696L221.668 123.36L251.166 140.389Z" fill="white"/>
</g>
<g opacity="0.5">
<path opacity="0.5" d="M260.791 140.786L259.903 141.58L260.949 143.747L260.073 143.239L259.442 141.872L258.864 142.544L257.982 142.03L259.051 141.09L258.198 139.291L259.062 139.787L259.518 140.792L259.915 140.284L260.791 140.786Z" fill="white"/>
</g>
<path d="M262.624 167.341L207.793 135.682C207.635 135.574 207.452 135.506 207.262 135.484C207.072 135.463 206.879 135.489 206.701 135.559H206.671L205.503 136.225L206.222 136.938L206.181 152.595V152.963V157.185C206.211 157.734 206.371 158.267 206.646 158.743C206.92 159.219 207.303 159.623 207.763 159.924L260.499 190.374L262.525 192.371L263.658 191.717C263.699 191.7 263.739 191.678 263.775 191.653L263.828 191.623C263.955 191.504 264.055 191.358 264.118 191.195C264.182 191.032 264.208 190.857 264.195 190.683V186.817V186.087L264.242 170.074C264.207 169.523 264.042 168.988 263.761 168.513C263.48 168.038 263.09 167.637 262.624 167.341Z" fill="#4A6FB0"/>
<path opacity="0.2" d="M262.624 167.341L207.793 135.682C207.635 135.574 207.452 135.506 207.262 135.484C207.072 135.463 206.879 135.489 206.701 135.559H206.671L205.503 136.225L206.222 136.938L206.181 152.595V152.963V157.185C206.211 157.734 206.371 158.267 206.646 158.743C206.92 159.219 207.303 159.623 207.763 159.924L260.499 190.374L262.525 192.371L263.658 191.717C263.699 191.7 263.739 191.678 263.775 191.653L263.828 191.623C263.955 191.504 264.055 191.358 264.118 191.195C264.182 191.032 264.208 190.857 264.195 190.683V186.817V186.087L264.242 170.074C264.207 169.523 264.042 168.988 263.761 168.513C263.48 168.038 263.09 167.637 262.624 167.341Z" fill="black"/>
<path d="M261.45 168.006C261.911 168.307 262.295 168.713 262.57 169.19C262.845 169.667 263.003 170.201 263.033 170.751L262.986 186.764L204.978 153.278V154.002L262.986 187.512V191.372C262.986 192.383 262.268 192.791 261.392 192.283L206.56 160.625C206.1 160.324 205.717 159.92 205.442 159.444C205.167 158.968 205.008 158.434 204.978 157.886L205.036 137.276C205.036 136.266 205.748 135.857 206.63 136.365L261.45 168.006Z" fill="#4A6FB0"/>
<path d="M262.986 186.764V187.494L204.978 154.002V153.278L262.986 186.764Z" fill="#4A6FB0"/>
<g opacity="0.2">
<path opacity="0.2" d="M262.986 186.764V187.494L204.978 154.002V153.278L262.986 186.764Z" fill="white"/>
</g>
<path d="M217.137 144.664C217.413 144.845 217.643 145.088 217.807 145.374C217.971 145.66 218.066 145.981 218.083 146.311V157.015C218.083 157.599 217.657 157.862 217.125 157.564L207.81 152.18C207.532 152.001 207.301 151.758 207.136 151.471C206.97 151.185 206.875 150.863 206.858 150.533L206.888 139.828C206.888 139.244 207.32 138.976 207.845 139.279L217.137 144.664Z" fill="white"/>
<g opacity="0.6">
<path opacity="0.6" d="M251.178 165.454L251.172 167.796L221.674 150.761L221.68 148.419L251.178 165.454Z" fill="white"/>
</g>
<g opacity="0.5">
<path opacity="0.5" d="M260.791 169.963L259.903 170.757L260.949 172.918L260.073 172.416L259.442 171.049L258.864 171.715L257.982 171.207L259.051 170.266L258.198 168.468L259.062 168.964L259.518 169.969L259.915 169.461L260.791 169.963Z" fill="white"/>
</g>
<path opacity="0.6" d="M206.812 156.899L206.806 158.68L222.988 168.024V166.237L206.812 156.899Z" fill="white"/>
<path opacity="0.6" d="M221.668 152.53L221.663 154.872L235.731 162.99V160.648L221.668 152.53Z" fill="white"/>
<path d="M262.624 226.097L207.793 194.438C207.635 194.329 207.453 194.26 207.263 194.237C207.072 194.215 206.879 194.24 206.701 194.31H206.671L205.503 194.975L206.222 195.688L206.181 211.345V211.713V215.935C206.211 216.485 206.369 217.02 206.644 217.497C206.919 217.974 207.303 218.379 207.763 218.68L260.499 249.124L262.525 251.121L263.658 250.473L263.775 250.409L263.828 250.374C263.955 250.255 264.055 250.108 264.118 249.945C264.182 249.783 264.208 249.608 264.195 249.433V245.573V244.843L264.242 228.824C264.206 228.274 264.041 227.741 263.759 227.267C263.478 226.793 263.09 226.392 262.624 226.097Z" fill="#4A6FB0"/>
<path opacity="0.2" d="M262.624 226.097L207.793 194.438C207.635 194.329 207.453 194.26 207.263 194.237C207.072 194.215 206.879 194.24 206.701 194.31H206.671L205.503 194.975L206.222 195.688L206.181 211.345V211.713V215.935C206.211 216.485 206.369 217.02 206.644 217.497C206.919 217.974 207.303 218.379 207.763 218.68L260.499 249.124L262.525 251.121L263.658 250.473L263.775 250.409L263.828 250.374C263.955 250.255 264.055 250.108 264.118 249.945C264.182 249.783 264.208 249.608 264.195 249.433V245.573V244.843L264.242 228.824C264.206 228.274 264.041 227.741 263.759 227.267C263.478 226.793 263.09 226.392 262.624 226.097Z" fill="black"/>
<path d="M261.45 226.763C261.91 227.063 262.293 227.468 262.568 227.943C262.843 228.419 263.002 228.953 263.033 229.502L262.986 245.521L204.978 212.04V212.77L262.986 246.257V250.123C262.986 251.127 262.268 251.536 261.392 251.034L206.56 219.375C206.099 219.074 205.716 218.669 205.441 218.192C205.166 217.715 205.007 217.18 204.978 216.63L205.036 196.027C205.036 195.016 205.748 194.608 206.63 195.116L261.45 226.763Z" fill="#4A6FB0"/>
<path d="M262.986 245.521V246.245L204.978 212.758V212.028L262.986 245.521Z" fill="#4A6FB0"/>
<g opacity="0.2">
<path opacity="0.2" d="M262.986 245.521V246.245L204.978 212.758V212.028L262.986 245.521Z" fill="white"/>
</g>
<path d="M217.137 203.414C217.413 203.595 217.642 203.839 217.806 204.125C217.971 204.411 218.065 204.732 218.083 205.061V215.772C218.083 216.356 217.657 216.619 217.125 216.315L207.81 210.936C207.533 210.756 207.302 210.513 207.137 210.227C206.971 209.941 206.876 209.619 206.858 209.289L206.864 198.608C206.864 198.024 207.296 197.761 207.822 198.065L217.137 203.414Z" fill="white"/>
<g opacity="0.6">
<path opacity="0.6" d="M251.178 224.205L251.172 226.547L221.674 209.517L221.68 207.175L251.178 224.205Z" fill="white"/>
</g>
<g opacity="0.5">
<path opacity="0.5" d="M260.791 228.719L259.903 229.513L260.949 231.674L260.073 231.172L259.442 229.805L258.864 230.471L257.982 229.963L259.051 229.017L258.198 227.218L259.062 227.72L259.518 228.725L259.915 228.211L260.791 228.719Z" fill="white"/>
</g>
<path opacity="0.6" d="M206.812 215.649L206.806 217.436L222.988 226.774V224.987L206.812 215.649Z" fill="white"/>
<path opacity="0.6" d="M221.668 211.287L221.663 213.623L228.022 217.29V214.948L221.668 211.287Z" fill="white"/>
<path d="M262.624 196.517L207.793 164.859C207.636 164.747 207.454 164.677 207.263 164.656C207.071 164.635 206.878 164.662 206.701 164.736H206.671L205.503 165.408L206.222 166.114L206.181 181.777V182.145V186.367C206.211 186.916 206.371 187.45 206.646 187.926C206.92 188.401 207.303 188.806 207.763 189.106L260.499 219.556L262.525 221.553L263.658 220.899L263.775 220.835L263.828 220.806C263.956 220.686 264.056 220.539 264.12 220.375C264.183 220.211 264.209 220.035 264.195 219.86V216V215.27L264.242 199.256C264.208 198.704 264.043 198.169 263.762 197.693C263.481 197.217 263.091 196.814 262.624 196.517Z" fill="#4A6FB0"/>
<path opacity="0.2" d="M262.624 196.517L207.793 164.859C207.636 164.747 207.454 164.677 207.263 164.656C207.071 164.635 206.878 164.662 206.701 164.736H206.671L205.503 165.408L206.222 166.114L206.181 181.777V182.145V186.367C206.211 186.916 206.371 187.45 206.646 187.926C206.92 188.401 207.303 188.806 207.763 189.106L260.499 219.556L262.525 221.553L263.658 220.899L263.775 220.835L263.828 220.806C263.956 220.686 264.056 220.539 264.12 220.375C264.183 220.211 264.209 220.035 264.195 219.86V216V215.27L264.242 199.256C264.208 198.704 264.043 198.169 263.762 197.693C263.481 197.217 263.091 196.814 262.624 196.517Z" fill="black"/>
<path d="M261.45 197.183C261.91 197.483 262.293 197.888 262.568 198.364C262.843 198.84 263.002 199.373 263.033 199.922L262.986 215.941L204.978 182.449V183.179L262.986 216.671V220.531C262.986 221.542 262.268 221.945 261.392 221.442L206.56 189.784C206.1 189.483 205.717 189.079 205.442 188.603C205.167 188.127 205.008 187.593 204.978 187.045L205.036 166.435C205.036 165.425 205.748 165.016 206.63 165.524L261.45 197.183Z" fill="#4A6FB0"/>
<path d="M262.986 215.941V216.671L204.978 183.179V182.449L262.986 215.941Z" fill="#4A6FB0"/>
<g opacity="0.2">
<path opacity="0.2" d="M262.986 215.941V216.671L204.978 183.179V182.449L262.986 215.941Z" fill="white"/>
</g>
<g opacity="0.6">
<path opacity="0.6" d="M227.514 198.088L227.508 199.869L206.806 187.857L206.812 186.075L227.514 198.088Z" fill="white"/>
</g>
<path d="M217.137 173.835C217.413 174.016 217.642 174.259 217.806 174.545C217.971 174.831 218.065 175.152 218.083 175.482V186.192C218.083 186.776 217.657 187.039 217.125 186.735L207.81 181.357C207.532 181.177 207.301 180.934 207.136 180.648C206.97 180.362 206.875 180.04 206.858 179.71L206.888 169.005C206.888 168.421 207.32 168.152 207.845 168.456L217.137 173.835Z" fill="white"/>
<g opacity="0.6">
<path opacity="0.6" d="M251.178 194.625L251.172 196.967L221.674 179.937L221.68 177.596L251.178 194.625Z" fill="white"/>
</g>
<g opacity="0.6">
<path opacity="0.6" d="M245.974 199.904L245.969 202.246L221.651 188.16L221.657 185.818L245.974 199.904Z" fill="white"/>
</g>
<g opacity="0.6">
<path opacity="0.6" d="M251.166 198.736L251.16 201.078L221.663 184.049L221.668 181.707L251.166 198.736Z" fill="white"/>
</g>
<g opacity="0.5">
<path opacity="0.5" d="M260.791 199.139L259.903 199.934L260.949 202.094L260.073 201.592L259.442 200.226L258.864 200.891L257.982 200.383L259.051 199.443L258.198 197.644L259.062 198.141L259.518 199.145L259.915 198.637L260.791 199.139Z" fill="white"/>
</g>
<path d="M200.114 106.879L190.338 101.273C189.485 100.782 187.458 101.448 187.458 102.826C187.458 102.715 187.487 102.605 187.543 102.508C187.598 102.411 187.678 102.331 187.775 102.274C187.871 102.218 187.98 102.188 188.092 102.188C188.204 102.187 188.313 102.216 188.41 102.271L198.181 107.878C198.502 108.062 198.76 108.339 198.922 108.672L200.82 107.592C200.653 107.295 200.409 107.049 200.114 106.879Z" fill="#4A6FB0"/>
<path d="M198.921 108.672C199.06 108.935 199.135 109.227 199.137 109.525V120.743C199.137 120.854 199.107 120.963 199.051 121.059C198.995 121.155 198.915 121.235 198.819 121.291C198.723 121.346 198.614 121.376 198.502 121.376C198.391 121.376 198.282 121.347 198.186 121.292C198.467 121.468 198.791 121.567 199.123 121.578C199.455 121.589 199.784 121.512 200.077 121.355C200.369 121.198 200.615 120.966 200.79 120.683C200.965 120.401 201.061 120.077 201.07 119.745V108.532C201.068 108.204 200.981 107.882 200.819 107.597L198.921 108.672Z" fill="#4A6FB0"/>
<path opacity="0.4" d="M200.114 106.879L190.338 101.273C189.485 100.782 187.458 101.448 187.458 102.826C187.458 102.715 187.487 102.605 187.543 102.508C187.598 102.411 187.678 102.331 187.775 102.274C187.871 102.218 187.98 102.188 188.092 102.188C188.204 102.187 188.313 102.216 188.41 102.271L198.181 107.878C198.502 108.062 198.76 108.339 198.922 108.672L200.82 107.592C200.653 107.295 200.409 107.049 200.114 106.879Z" fill="white"/>
<path opacity="0.2" d="M198.921 108.672C199.06 108.935 199.135 109.227 199.137 109.525V120.743C199.137 120.854 199.107 120.963 199.051 121.059C198.995 121.155 198.915 121.235 198.819 121.291C198.723 121.346 198.614 121.376 198.502 121.376C198.391 121.376 198.282 121.347 198.186 121.292C198.467 121.468 198.791 121.567 199.123 121.578C199.455 121.589 199.784 121.512 200.077 121.355C200.369 121.198 200.615 120.966 200.79 120.683C200.965 120.401 201.061 120.077 201.07 119.745V108.532C201.068 108.204 200.981 107.882 200.819 107.597L198.921 108.672Z" fill="white"/>
<path d="M188.41 102.248L198.18 107.854C198.472 108.021 198.714 108.261 198.882 108.551C199.05 108.842 199.139 109.172 199.138 109.507V120.726C199.137 120.837 199.107 120.946 199.051 121.042C198.996 121.138 198.916 121.218 198.819 121.273C198.723 121.329 198.614 121.358 198.503 121.358C198.392 121.359 198.282 121.33 198.186 121.275L188.416 115.692C188.124 115.525 187.882 115.285 187.714 114.995C187.545 114.704 187.457 114.374 187.458 114.039V102.832C187.452 102.718 187.477 102.604 187.531 102.503C187.584 102.402 187.663 102.318 187.761 102.258C187.858 102.198 187.97 102.166 188.084 102.164C188.198 102.162 188.311 102.191 188.41 102.248Z" fill="#4A6FB0"/>
<path d="M201.491 115.604L199.155 116.042V113.029L201.585 115.33C201.605 115.351 201.62 115.378 201.626 115.407C201.632 115.436 201.631 115.467 201.621 115.495C201.612 115.523 201.594 115.549 201.571 115.568C201.549 115.587 201.521 115.599 201.491 115.604Z" fill="#4A6FB0"/>
<path d="M199.144 113.029L201.071 111.925L203.5 114.261C203.518 114.279 203.531 114.3 203.539 114.324C203.547 114.348 203.549 114.373 203.546 114.398C203.543 114.423 203.534 114.447 203.52 114.467C203.506 114.488 203.487 114.505 203.465 114.518L201.544 115.592L199.144 113.029Z" fill="#4A6FB0"/>
<path opacity="0.2" d="M199.144 113.029L201.071 111.925L203.5 114.261C203.518 114.279 203.531 114.3 203.539 114.324C203.547 114.348 203.549 114.373 203.546 114.398C203.543 114.423 203.534 114.447 203.52 114.467C203.506 114.488 203.487 114.505 203.465 114.518L201.544 115.592L199.144 113.029Z" fill="white"/>
<path d="M192.095 114.804C192.223 115.445 192.594 116.011 193.128 116.387H193.175C193.707 116.696 194.226 116.544 194.291 116.048L192.095 114.804Z" fill="white"/>
<path d="M190.559 112.258C190.731 111.969 190.828 111.642 190.839 111.306C190.874 110.815 190.886 110.307 190.904 109.805C190.939 108.771 191.353 108.228 192.159 108.181C192.352 108.181 192.393 108.105 192.364 107.837C192.311 107.387 192.439 107.119 192.743 107.066C192.906 107.043 193.071 107.078 193.21 107.165C193.398 107.277 193.56 107.429 193.683 107.609C193.822 107.775 193.926 107.967 193.99 108.173C194.054 108.38 194.077 108.597 194.057 108.812C194.032 108.918 194.038 109.029 194.073 109.132C194.108 109.236 194.171 109.327 194.256 109.396C194.863 110.109 195.267 110.972 195.424 111.896C195.461 112.202 195.478 112.51 195.476 112.818C195.469 113.36 195.504 113.9 195.581 114.436C195.661 115.007 195.86 115.554 196.165 116.042C196.271 116.188 196.326 116.364 196.323 116.544C196.323 116.807 196.218 116.871 195.979 116.737L193.187 115.096L190.915 113.782L190.623 113.613L190.325 113.443C190.21 113.376 190.121 113.271 190.074 113.145C189.981 112.918 190.022 112.631 190.162 112.561C190.323 112.504 190.462 112.398 190.559 112.258ZM192.72 112.199L193.672 112.748L193.917 110.266L192.492 109.443L192.72 112.199ZM193.193 114.156C193.602 114.395 193.888 114.232 193.888 113.829C193.872 113.6 193.801 113.379 193.68 113.184C193.559 112.99 193.391 112.828 193.193 112.713C192.784 112.48 192.498 112.62 192.498 113.029C192.513 113.259 192.585 113.482 192.706 113.678C192.827 113.875 192.994 114.039 193.193 114.156ZM193.193 107.831C193.035 107.738 192.901 107.831 192.901 108C192.909 108.1 192.94 108.196 192.99 108.282C193.041 108.368 193.11 108.441 193.193 108.497C193.22 108.518 193.254 108.531 193.288 108.533C193.323 108.535 193.358 108.527 193.388 108.509C193.418 108.492 193.442 108.466 193.457 108.434C193.473 108.403 193.478 108.368 193.473 108.333C193.473 108.232 193.447 108.132 193.397 108.044C193.346 107.956 193.274 107.883 193.187 107.831" fill="white"/>
<path d="M200.113 137.142L190.337 131.536C189.484 131.045 187.458 131.711 187.458 133.083C187.458 132.972 187.488 132.863 187.544 132.767C187.6 132.671 187.68 132.591 187.776 132.536C187.872 132.48 187.981 132.451 188.093 132.451C188.204 132.45 188.313 132.479 188.409 132.534L198.18 138.141C198.502 138.327 198.76 138.606 198.921 138.941L200.819 137.86C200.653 137.562 200.409 137.313 200.113 137.142Z" fill="#4A6FB0"/>
<path d="M198.921 138.941C199.06 139.204 199.135 139.496 199.137 139.793V151.012C199.137 151.123 199.107 151.232 199.051 151.328C198.995 151.424 198.915 151.504 198.819 151.559C198.723 151.615 198.614 151.644 198.502 151.645C198.391 151.645 198.282 151.616 198.186 151.561C198.468 151.737 198.792 151.836 199.124 151.846C199.457 151.857 199.786 151.78 200.079 151.622C200.372 151.464 200.618 151.232 200.792 150.948C200.966 150.665 201.062 150.34 201.07 150.007V138.795C201.068 138.467 200.982 138.145 200.819 137.86L198.921 138.941Z" fill="#4A6FB0"/>
<path opacity="0.4" d="M200.113 137.142L190.337 131.536C189.484 131.045 187.458 131.711 187.458 133.083C187.458 132.972 187.488 132.863 187.544 132.767C187.6 132.671 187.68 132.591 187.776 132.536C187.872 132.48 187.981 132.451 188.093 132.451C188.204 132.45 188.313 132.479 188.409 132.534L198.18 138.141C198.502 138.327 198.76 138.606 198.921 138.941L200.819 137.86C200.653 137.562 200.409 137.313 200.113 137.142Z" fill="white"/>
<path opacity="0.2" d="M198.921 138.941C199.06 139.204 199.135 139.496 199.137 139.793V151.012C199.137 151.123 199.107 151.232 199.051 151.328C198.995 151.424 198.915 151.504 198.819 151.559C198.723 151.615 198.614 151.644 198.502 151.645C198.391 151.645 198.282 151.616 198.186 151.561C198.468 151.737 198.792 151.836 199.124 151.846C199.457 151.857 199.786 151.78 200.079 151.622C200.372 151.464 200.618 151.232 200.792 150.948C200.966 150.665 201.062 150.34 201.07 150.007V138.795C201.068 138.467 200.982 138.145 200.819 137.86L198.921 138.941Z" fill="white"/>
<path d="M188.409 132.534L198.18 138.141C198.471 138.307 198.713 138.547 198.882 138.838C199.05 139.128 199.138 139.458 199.138 139.793V151.012C199.137 151.123 199.107 151.232 199.051 151.328C198.995 151.424 198.915 151.504 198.819 151.559C198.723 151.615 198.614 151.644 198.503 151.645C198.391 151.645 198.282 151.616 198.186 151.561L188.415 145.978C188.123 145.811 187.88 145.57 187.712 145.278C187.544 144.987 187.456 144.656 187.458 144.319V133.083C187.458 132.972 187.488 132.863 187.544 132.767C187.6 132.671 187.68 132.591 187.776 132.536C187.872 132.48 187.981 132.451 188.093 132.451C188.204 132.45 188.313 132.479 188.409 132.534Z" fill="#4A6FB0"/>
<path d="M201.491 145.867L199.155 146.305V143.291L201.585 145.592C201.605 145.614 201.62 145.641 201.626 145.67C201.632 145.699 201.631 145.73 201.621 145.758C201.612 145.786 201.594 145.811 201.571 145.831C201.549 145.85 201.521 145.862 201.491 145.867Z" fill="#4A6FB0"/>
<path d="M199.144 143.291L201.071 142.188L203.5 144.524C203.518 144.542 203.531 144.563 203.539 144.587C203.547 144.611 203.549 144.636 203.546 144.661C203.543 144.686 203.534 144.709 203.52 144.73C203.506 144.751 203.487 144.768 203.465 144.781L201.544 145.855L199.144 143.291Z" fill="#4A6FB0"/>
<path opacity="0.2" d="M199.144 143.291L201.071 142.188L203.5 144.524C203.518 144.542 203.531 144.563 203.539 144.587C203.547 144.611 203.549 144.636 203.546 144.661C203.543 144.686 203.534 144.709 203.52 144.73C203.506 144.751 203.487 144.768 203.465 144.781L201.544 145.855L199.144 143.291Z" fill="white"/>
<path d="M192.095 145.061C192.222 145.704 192.592 146.273 193.128 146.65H193.175C193.707 146.959 194.226 146.801 194.291 146.311L192.095 145.061Z" fill="white"/>
<path d="M190.559 142.544C190.732 142.258 190.829 141.932 190.839 141.598C190.874 141.107 190.886 140.599 190.903 140.097C190.938 139.057 191.353 138.52 192.159 138.473C192.352 138.473 192.393 138.398 192.363 138.129C192.311 137.679 192.439 137.411 192.743 137.358C192.906 137.332 193.072 137.367 193.21 137.457C193.398 137.569 193.56 137.721 193.683 137.901C193.822 138.067 193.926 138.259 193.99 138.465C194.054 138.672 194.077 138.889 194.057 139.104C194.032 139.21 194.038 139.321 194.073 139.425C194.108 139.528 194.171 139.619 194.256 139.688C194.863 140.401 195.267 141.265 195.424 142.188C195.461 142.494 195.478 142.802 195.476 143.11C195.469 143.652 195.504 144.192 195.581 144.728C195.661 145.299 195.86 145.846 196.165 146.334C196.271 146.48 196.326 146.656 196.323 146.836C196.323 147.099 196.218 147.163 195.978 147.029L193.158 145.4L190.886 144.086L190.594 143.916L190.296 143.747C190.181 143.679 190.092 143.574 190.045 143.449C189.952 143.221 189.992 142.935 190.133 142.865C190.307 142.81 190.458 142.697 190.559 142.544ZM192.72 142.491L193.672 143.035L193.917 140.558L192.492 139.735L192.72 142.491ZM193.193 144.448C193.602 144.681 193.888 144.524 193.888 144.121C193.872 143.892 193.801 143.671 193.68 143.476C193.558 143.282 193.391 143.12 193.193 143.005C192.784 142.766 192.498 142.912 192.498 143.321C192.513 143.551 192.585 143.774 192.706 143.97C192.827 144.167 192.994 144.331 193.193 144.448ZM193.193 138.123C193.035 138.03 192.901 138.123 192.901 138.287C192.908 138.387 192.938 138.484 192.989 138.571C193.04 138.658 193.109 138.733 193.193 138.789C193.22 138.81 193.254 138.823 193.288 138.825C193.323 138.827 193.358 138.819 193.388 138.801C193.418 138.784 193.442 138.758 193.457 138.726C193.472 138.695 193.478 138.66 193.473 138.625C193.473 138.524 193.447 138.424 193.396 138.336C193.346 138.248 193.274 138.175 193.187 138.123" fill="white"/>
<path d="M200.113 167.405L190.337 161.816C189.484 161.325 187.458 161.991 187.458 163.364C187.458 163.252 187.488 163.143 187.544 163.047C187.6 162.951 187.68 162.872 187.776 162.816C187.872 162.761 187.981 162.731 188.093 162.731C188.204 162.731 188.313 162.76 188.409 162.815L198.18 168.421C198.502 168.607 198.76 168.886 198.921 169.221L200.819 168.141C200.655 167.836 200.411 167.581 200.113 167.405Z" fill="#4A6FB0"/>
<path d="M198.921 169.204C199.06 169.466 199.135 169.759 199.137 170.056V181.269C199.138 181.381 199.109 181.49 199.053 181.587C198.998 181.684 198.918 181.765 198.821 181.821C198.725 181.877 198.615 181.907 198.504 181.907C198.392 181.908 198.282 181.879 198.186 181.824C198.468 182 198.792 182.099 199.124 182.109C199.457 182.12 199.786 182.043 200.079 181.885C200.372 181.727 200.618 181.495 200.792 181.211C200.966 180.928 201.062 180.603 201.07 180.27V169.058C201.068 168.73 200.982 168.408 200.819 168.123L198.921 169.204Z" fill="#4A6FB0"/>
<path opacity="0.4" d="M200.113 167.405L190.337 161.816C189.484 161.325 187.458 161.991 187.458 163.364C187.458 163.252 187.488 163.143 187.544 163.047C187.6 162.951 187.68 162.872 187.776 162.816C187.872 162.761 187.981 162.731 188.093 162.731C188.204 162.731 188.313 162.76 188.409 162.815L198.18 168.421C198.502 168.607 198.76 168.886 198.921 169.221L200.819 168.141C200.655 167.836 200.411 167.581 200.113 167.405Z" fill="white"/>
<path opacity="0.2" d="M198.921 169.204C199.06 169.466 199.135 169.759 199.137 170.056V181.269C199.138 181.381 199.109 181.49 199.053 181.587C198.998 181.684 198.918 181.765 198.821 181.821C198.725 181.877 198.615 181.907 198.504 181.907C198.392 181.908 198.282 181.879 198.186 181.824C198.468 182 198.792 182.099 199.124 182.109C199.457 182.12 199.786 182.043 200.079 181.885C200.372 181.727 200.618 181.495 200.792 181.211C200.966 180.928 201.062 180.603 201.07 180.27V169.058C201.068 168.73 200.982 168.408 200.819 168.123L198.921 169.204Z" fill="white"/>
<path d="M188.409 162.797L198.18 168.403C198.471 168.57 198.713 168.81 198.882 169.101C199.05 169.391 199.138 169.721 199.138 170.056V181.269C199.138 181.381 199.109 181.49 199.053 181.587C198.998 181.684 198.918 181.765 198.821 181.821C198.725 181.877 198.616 181.907 198.504 181.907C198.392 181.908 198.283 181.879 198.186 181.824L188.415 176.241C188.123 176.074 187.881 175.832 187.713 175.541C187.544 175.249 187.456 174.919 187.458 174.582V163.346C187.458 163.235 187.488 163.126 187.544 163.03C187.6 162.934 187.68 162.854 187.776 162.799C187.872 162.743 187.981 162.714 188.093 162.713C188.204 162.713 188.313 162.742 188.409 162.797Z" fill="#4A6FB0"/>
<path d="M201.491 176.13L199.155 176.568V173.554L201.585 175.849C201.607 175.871 201.623 175.898 201.63 175.928C201.638 175.958 201.636 175.99 201.627 176.019C201.617 176.049 201.599 176.075 201.575 176.094C201.551 176.114 201.522 176.126 201.491 176.13Z" fill="#4A6FB0"/>
<path d="M199.144 173.554L201.071 172.451L203.5 174.787C203.518 174.804 203.531 174.826 203.539 174.85C203.547 174.874 203.549 174.899 203.546 174.924C203.543 174.949 203.534 174.972 203.52 174.993C203.506 175.014 203.487 175.031 203.465 175.044L201.544 176.118L199.144 173.554Z" fill="#4A6FB0"/>
<path opacity="0.2" d="M199.144 173.554L201.071 172.451L203.5 174.787C203.518 174.804 203.531 174.826 203.539 174.85C203.547 174.874 203.549 174.899 203.546 174.924C203.543 174.949 203.534 174.972 203.52 174.993C203.506 175.014 203.487 175.031 203.465 175.044L201.544 176.118L199.144 173.554Z" fill="white"/>
<path d="M192.095 175.324C192.221 175.966 192.591 176.533 193.128 176.907H193.175C193.707 177.21 194.226 177.058 194.291 176.568L192.095 175.324Z" fill="white"/>
<path d="M190.559 172.778C190.732 172.492 190.829 172.166 190.839 171.832C190.874 171.341 190.886 170.833 190.903 170.331C190.938 169.291 191.353 168.754 192.159 168.707C192.352 168.707 192.393 168.631 192.363 168.363C192.311 167.913 192.439 167.644 192.743 167.592C192.906 167.565 193.072 167.601 193.21 167.691C193.398 167.803 193.56 167.954 193.683 168.135C193.822 168.301 193.926 168.492 193.991 168.699C194.055 168.905 194.077 169.123 194.057 169.338C194.032 169.444 194.038 169.555 194.073 169.658C194.108 169.761 194.171 169.853 194.256 169.922C194.863 170.635 195.267 171.498 195.424 172.421C195.461 172.728 195.478 173.036 195.476 173.344C195.469 173.883 195.504 174.422 195.581 174.956C195.661 175.528 195.86 176.077 196.165 176.568C196.272 176.713 196.327 176.89 196.323 177.07C196.323 177.333 196.218 177.397 195.978 177.263L193.158 175.633L190.886 174.319L190.594 174.15L190.296 173.981C190.18 173.912 190.091 173.804 190.045 173.677C189.952 173.455 189.992 173.169 190.133 173.093C190.307 173.04 190.457 172.929 190.559 172.778ZM192.72 172.725L193.672 173.268L193.917 170.792L192.492 169.992L192.72 172.748V172.725ZM193.193 174.705C193.602 174.938 193.888 174.775 193.888 174.378C193.872 174.149 193.801 173.928 193.68 173.733C193.558 173.539 193.391 173.377 193.193 173.262C192.784 173.023 192.498 173.169 192.498 173.572C192.512 173.803 192.583 174.027 192.704 174.225C192.826 174.422 192.993 174.587 193.193 174.705ZM193.193 168.38C193.035 168.287 192.901 168.38 192.901 168.544C192.907 168.643 192.937 168.74 192.988 168.826C193.039 168.913 193.109 168.986 193.193 169.04C193.345 169.128 193.473 169.04 193.473 168.871C193.472 168.77 193.445 168.672 193.395 168.585C193.345 168.498 193.273 168.425 193.187 168.374" fill="white"/>
<path d="M200.113 197.668L190.337 192.061C189.484 191.565 187.458 192.231 187.458 193.609C187.456 193.497 187.485 193.387 187.541 193.29C187.596 193.193 187.676 193.112 187.773 193.056C187.87 193.001 187.98 192.971 188.092 192.972C188.204 192.973 188.313 193.003 188.409 193.06L198.18 198.666C198.502 198.853 198.76 199.131 198.921 199.466L200.819 198.386C200.655 198.086 200.41 197.837 200.113 197.668Z" fill="#4A6FB0"/>
<path d="M198.921 199.466C199.06 199.729 199.135 200.022 199.137 200.319V211.532C199.138 211.643 199.109 211.753 199.053 211.85C198.998 211.947 198.918 212.027 198.821 212.084C198.725 212.14 198.615 212.17 198.504 212.17C198.392 212.171 198.282 212.142 198.186 212.087C198.468 212.263 198.792 212.361 199.124 212.372C199.457 212.383 199.786 212.305 200.079 212.148C200.372 211.99 200.618 211.757 200.792 211.474C200.966 211.19 201.062 210.866 201.07 210.533V199.32C201.068 198.993 200.982 198.671 200.819 198.386L198.921 199.466Z" fill="#4A6FB0"/>
<path opacity="0.4" d="M200.113 197.668L190.337 192.061C189.484 191.565 187.458 192.231 187.458 193.609C187.456 193.497 187.485 193.387 187.541 193.29C187.596 193.193 187.676 193.112 187.773 193.056C187.87 193.001 187.98 192.971 188.092 192.972C188.204 192.973 188.313 193.003 188.409 193.06L198.18 198.666C198.502 198.853 198.76 199.131 198.921 199.466L200.819 198.386C200.655 198.086 200.41 197.837 200.113 197.668Z" fill="white"/>
<path opacity="0.2" d="M198.921 199.466C199.06 199.729 199.135 200.022 199.137 200.319V211.532C199.138 211.643 199.109 211.753 199.053 211.85C198.998 211.947 198.918 212.027 198.821 212.084C198.725 212.14 198.615 212.17 198.504 212.17C198.392 212.171 198.282 212.142 198.186 212.087C198.468 212.263 198.792 212.361 199.124 212.372C199.457 212.383 199.786 212.305 200.079 212.148C200.372 211.99 200.618 211.757 200.792 211.474C200.966 211.19 201.062 210.866 201.07 210.533V199.32C201.068 198.993 200.982 198.671 200.819 198.386L198.921 199.466Z" fill="white"/>
<path d="M188.409 193.06L198.18 198.666C198.471 198.833 198.713 199.073 198.882 199.363C199.05 199.654 199.138 199.984 199.138 200.319V211.532C199.138 211.643 199.109 211.753 199.053 211.85C198.998 211.947 198.918 212.027 198.822 212.084C198.725 212.14 198.616 212.17 198.504 212.17C198.392 212.171 198.283 212.142 198.186 212.087L188.415 206.504C188.123 206.336 187.881 206.095 187.713 205.804C187.544 205.512 187.456 205.181 187.458 204.845V193.609C187.456 193.497 187.485 193.387 187.541 193.29C187.596 193.193 187.676 193.112 187.773 193.056C187.87 193.001 187.98 192.971 188.092 192.972C188.204 192.973 188.313 193.003 188.409 193.06Z" fill="#4A6FB0"/>
<path d="M201.491 206.393L199.155 206.831V203.817L201.585 206.112C201.607 206.134 201.623 206.161 201.63 206.191C201.638 206.221 201.636 206.253 201.627 206.282C201.617 206.311 201.599 206.337 201.575 206.357C201.551 206.377 201.522 206.389 201.491 206.393Z" fill="#4A6FB0"/>
<path d="M199.144 203.817L201.071 202.714L203.5 205.049C203.518 205.067 203.531 205.089 203.539 205.113C203.547 205.136 203.549 205.162 203.546 205.187C203.543 205.211 203.534 205.235 203.52 205.256C203.506 205.277 203.487 205.294 203.465 205.306L201.544 206.381L199.144 203.817Z" fill="#4A6FB0"/>
<path opacity="0.2" d="M199.144 203.817L201.071 202.714L203.5 205.049C203.518 205.067 203.531 205.089 203.539 205.113C203.547 205.136 203.549 205.162 203.546 205.187C203.543 205.211 203.534 205.235 203.52 205.256C203.506 205.277 203.487 205.294 203.465 205.306L201.544 206.381L199.144 203.817Z" fill="white"/>
<path d="M192.095 205.616C192.221 206.258 192.591 206.825 193.128 207.199H193.175C193.707 207.502 194.226 207.35 194.291 206.854L192.095 205.616Z" fill="white"/>
<path d="M190.559 203.041C190.732 202.755 190.829 202.429 190.839 202.094C190.874 201.598 190.886 201.096 190.903 200.588C190.938 199.554 191.353 199.017 192.159 198.97C192.352 198.97 192.393 198.894 192.363 198.62C192.311 198.17 192.439 197.907 192.743 197.855C192.905 197.829 193.071 197.862 193.21 197.948C193.397 198.064 193.558 198.217 193.683 198.398C193.822 198.564 193.926 198.755 193.991 198.962C194.055 199.168 194.077 199.386 194.057 199.601C194.032 199.707 194.038 199.818 194.073 199.921C194.108 200.024 194.171 200.116 194.256 200.185C194.864 200.897 195.268 201.761 195.424 202.684C195.461 202.99 195.479 203.299 195.476 203.607C195.469 204.146 195.504 204.685 195.581 205.219C195.661 205.789 195.86 206.337 196.165 206.825C196.272 206.972 196.327 207.151 196.323 207.333C196.323 207.596 196.218 207.66 195.978 207.526L193.158 205.896L190.886 204.582L190.594 204.413L190.296 204.238C190.181 204.17 190.092 204.065 190.045 203.94C189.952 203.718 189.992 203.432 190.133 203.356C190.305 203.3 190.455 203.189 190.559 203.041ZM192.72 202.982L193.672 203.531L193.917 201.055L192.492 200.231L192.72 202.982ZM193.193 204.944C193.602 205.178 193.888 205.014 193.888 204.617C193.874 204.388 193.803 204.166 193.682 203.971C193.56 203.777 193.392 203.615 193.193 203.502C192.784 203.262 192.498 203.408 192.498 203.811C192.512 204.043 192.583 204.267 192.704 204.464C192.826 204.662 192.993 204.827 193.193 204.944ZM193.193 198.614C193.164 198.591 193.129 198.577 193.093 198.575C193.057 198.572 193.02 198.58 192.989 198.599C192.957 198.617 192.932 198.644 192.916 198.677C192.9 198.71 192.895 198.747 192.901 198.783C192.907 198.883 192.937 198.98 192.988 199.066C193.039 199.152 193.109 199.225 193.193 199.28C193.345 199.367 193.473 199.28 193.473 199.11C193.47 199.01 193.442 198.911 193.392 198.824C193.342 198.736 193.272 198.662 193.187 198.608" fill="white"/>
<path d="M133.543 234.647L100.792 215.491C99.7545 214.883 98.9722 213.92 98.59 212.78C98.2078 211.64 98.2515 210.4 98.7129 209.289L100.366 205.318L99.478 207.45C99.0551 208.47 99.0201 209.61 99.3793 210.654C99.7386 211.699 100.467 212.576 101.429 213.12L137.053 233.274C136.949 233.623 136.767 233.943 136.521 234.21C136.275 234.478 135.971 234.686 135.633 234.818C135.294 234.95 134.93 235.004 134.568 234.974C134.206 234.944 133.855 234.832 133.543 234.647Z" fill="#37474F"/>
<path d="M101.072 194.829L103.992 196.581L100.36 205.341L98.707 209.313C98.2455 210.423 98.2019 211.663 98.5841 212.803C98.9663 213.944 99.7485 214.907 100.786 215.515L133.537 234.67C133.849 234.855 134.199 234.966 134.561 234.995C134.922 235.024 135.286 234.97 135.623 234.838C135.961 234.706 136.264 234.498 136.51 234.231C136.755 233.964 136.937 233.645 137.041 233.298L139.377 234.612L183.329 209.178L184.748 224.07L182.441 224.415L182.272 223.405C182.202 223.005 182.036 222.628 181.79 222.306C181.544 221.984 181.223 221.726 180.856 221.554C180.488 221.382 180.085 221.302 179.68 221.319C179.275 221.336 178.88 221.45 178.528 221.653L146.128 240.294C144.805 241.055 143.73 242.18 143.03 243.536C142.33 244.891 142.035 246.42 142.18 247.938L142.291 249.106H139.955L139.476 246.28C139.283 245.123 138.835 244.023 138.165 243.06C137.496 242.096 136.621 241.293 135.604 240.709L98.1697 219.147C97.8134 218.941 97.4184 218.811 97.0094 218.766C96.6005 218.72 96.1865 218.76 95.7936 218.882C95.4008 219.005 95.0375 219.207 94.7268 219.477C94.4161 219.747 94.1646 220.078 93.9883 220.45L90.4434 227.89C90.4434 227.89 89.2754 228.515 88.8315 227.393L101.072 194.829Z" fill="#455A64"/>
<path d="M142.717 158.113L177.909 185.375C178.982 186.207 179.873 187.249 180.527 188.438C181.182 189.627 181.587 190.938 181.717 192.289L185.659 233.648C185.441 233.851 185.162 233.975 184.866 234.001C184.57 234.028 184.274 233.955 184.024 233.794L177.016 192.272C176.897 191.565 176.627 190.892 176.223 190.299C175.82 189.706 175.294 189.208 174.68 188.838L143.576 170.196C139.499 167.773 138.787 159.205 142.717 158.113Z" fill="#455A64"/>
<path opacity="0.3" d="M142.717 158.113L177.909 185.375C178.982 186.207 179.873 187.249 180.527 188.438C181.182 189.627 181.587 190.938 181.717 192.289L185.659 233.648C185.441 233.851 185.162 233.975 184.866 234.001C184.57 234.028 184.274 233.955 184.024 233.794L177.016 192.272C176.897 191.565 176.627 190.892 176.223 190.299C175.82 189.706 175.294 189.208 174.68 188.838L143.576 170.196C139.499 167.773 138.787 159.205 142.717 158.113Z" fill="white"/>
<path d="M102.404 205.172C102.561 204.752 102.86 204.4 103.251 204.179L138.536 183.809C139.282 183.376 140.129 183.148 140.992 183.148C141.854 183.148 142.702 183.376 143.448 183.809L178.488 204.168C178.88 204.392 179.18 204.748 179.334 205.172C180.339 207.029 180.678 211.246 179.276 213.932C179.091 214.283 178.815 214.578 178.476 214.785L143.208 235.155C142.462 235.586 141.615 235.814 140.752 235.814C139.89 235.814 139.043 235.586 138.297 235.155L103.257 214.796C102.912 214.595 102.637 214.294 102.468 213.932C101.061 211.246 101.4 207.029 102.404 205.172Z" fill="#4A6FB0"/>
<path opacity="0.3" d="M102.404 205.172C102.561 204.752 102.86 204.4 103.251 204.179L138.536 183.809C139.282 183.376 140.129 183.148 140.992 183.148C141.854 183.148 142.702 183.376 143.448 183.809L178.488 204.168C178.88 204.392 179.18 204.748 179.334 205.172C180.339 207.029 180.678 211.246 179.276 213.932C179.091 214.283 178.815 214.578 178.476 214.785L143.208 235.155C142.462 235.586 141.615 235.814 140.752 235.814C139.89 235.814 139.043 235.586 138.297 235.155L103.257 214.796C102.912 214.595 102.637 214.294 102.468 213.932C101.061 211.246 101.4 207.029 102.404 205.172Z" fill="white"/>
<path opacity="0.3" d="M102.404 205.172C102.236 205.607 102.229 206.087 102.383 206.527C102.537 206.967 102.843 207.337 103.245 207.572L138.285 227.931C139.031 228.362 139.878 228.59 140.741 228.59C141.603 228.59 142.45 228.362 143.196 227.931L178.482 207.555C178.884 207.324 179.191 206.957 179.347 206.521C179.503 206.084 179.499 205.606 179.334 205.172C180.339 207.029 180.678 211.246 179.276 213.932C179.091 214.283 178.815 214.578 178.476 214.785L143.208 235.155C142.462 235.586 141.615 235.814 140.752 235.814C139.89 235.814 139.043 235.586 138.297 235.155L103.257 214.796C102.912 214.595 102.637 214.294 102.468 213.932C101.061 211.246 101.4 207.029 102.404 205.172Z" fill="black"/>
<path d="M99.4899 166.488L132.854 147.216C133.15 147.043 133.486 146.951 133.829 146.947H133.993C137.041 146.977 139.43 148.793 141.199 150.93C141.227 150.955 141.253 150.982 141.275 151.012C141.453 151.232 141.582 151.486 141.655 151.759L151.226 187.383C151.511 188.396 151.451 189.473 151.057 190.448C150.663 191.422 149.956 192.238 149.048 192.768L115.69 212.04C115.337 212.245 114.929 212.336 114.522 212.303C110.703 211.906 108.454 209.546 107.327 208.302C107.113 208.064 106.959 207.777 106.877 207.467L97.3057 171.843C97.0292 170.835 97.0934 169.763 97.4883 168.795C97.8833 167.826 98.5869 167.015 99.4899 166.488Z" fill="#4A6FB0"/>
<path opacity="0.2" d="M99.4899 166.488L132.854 147.216C133.15 147.043 133.486 146.951 133.829 146.947H133.993C137.041 146.977 139.43 148.793 141.199 150.93C141.227 150.955 141.253 150.982 141.275 151.012C141.453 151.232 141.582 151.486 141.655 151.759L151.226 187.383C151.511 188.396 151.451 189.473 151.057 190.448C150.663 191.422 149.956 192.238 149.048 192.768L115.69 212.04C115.337 212.245 114.929 212.336 114.522 212.303C110.703 211.906 108.454 209.546 107.327 208.302C107.113 208.064 106.959 207.777 106.877 207.467L97.3057 171.843C97.0292 170.835 97.0934 169.763 97.4883 168.795C97.8833 167.826 98.5869 167.015 99.4899 166.488Z" fill="white"/>
<path opacity="0.1" d="M99.4897 166.488L132.854 147.216C133.15 147.043 133.486 146.951 133.829 146.947H133.992C137.041 146.977 139.43 148.793 141.199 150.93C140.888 150.59 140.47 150.366 140.014 150.296C139.559 150.226 139.093 150.314 138.694 150.545L105.33 169.817C104.381 170.368 103.653 171.23 103.268 172.258L97.4282 168.894C97.82 167.88 98.5476 167.031 99.4897 166.488Z" fill="black"/>
<path opacity="0.2" d="M103.268 172.229C102.911 173.162 102.86 174.185 103.122 175.149L112.694 210.773C112.802 211.178 113.033 211.539 113.355 211.807C113.677 212.075 114.075 212.236 114.493 212.268C110.673 211.871 108.425 209.511 107.298 208.267C107.084 208.028 106.93 207.742 106.848 207.432L97.2765 171.808C97.0194 170.843 97.0746 169.82 97.4342 168.888L103.268 172.229Z" fill="black"/>
<path d="M173.336 230.95C172.948 232.996 172.727 235.07 172.676 237.152L171.24 236.568C170.543 236.301 169.784 236.246 169.056 236.411C168.329 236.575 167.666 236.951 167.152 237.491L167.082 237.567C166.82 237.843 166.461 238.006 166.081 238.024C165.701 238.041 165.33 237.911 165.044 237.66C164.891 237.527 164.767 237.364 164.681 237.181C164.594 236.998 164.547 236.799 164.541 236.597L164.343 230.36L173.336 230.95Z" fill="#FFA8A7"/>
<path d="M167.684 254.117C170.72 257.37 176.321 260.214 180.386 257.44L179.93 258.474C175.842 261.248 170.265 258.404 167.228 255.157C164.191 251.91 166.159 249.65 163.426 246.765C162.394 245.781 161.587 244.586 161.061 243.261C161.184 242.951 161.295 242.542 161.441 242.093C162.031 243.447 162.857 244.685 163.882 245.748C166.615 248.616 164.641 250.87 167.684 254.117Z" fill="white"/>
<path d="M162.935 238.676C163.406 238.011 163.732 237.255 163.893 236.457C163.921 236.274 163.987 236.099 164.088 235.944C164.189 235.789 164.321 235.657 164.477 235.558L164.512 236.603C164.521 236.894 164.615 237.176 164.783 237.413C164.952 237.65 165.187 237.833 165.459 237.936C165.731 238.04 166.027 238.061 166.311 237.996C166.595 237.931 166.853 237.784 167.053 237.572L167.123 237.497C167.637 236.956 168.3 236.581 169.027 236.416C169.755 236.252 170.514 236.307 171.211 236.574L172.7 237.158C172.919 237.244 173.108 237.394 173.24 237.589C173.372 237.784 173.443 238.014 173.442 238.25C173.342 242.513 175.334 248.178 177.425 251.285C179.574 252.178 181.425 255.104 180.479 257.247L180.385 257.463C176.297 260.237 170.72 257.393 167.683 254.141C164.647 250.888 166.615 248.639 163.882 245.754C162.857 244.69 162.03 243.452 161.44 242.098C161.777 240.894 162.28 239.742 162.935 238.676Z" fill="#4A6FB0"/>
<path opacity="0.2" d="M162.935 238.676C163.406 238.011 163.732 237.255 163.893 236.457C163.921 236.274 163.987 236.099 164.088 235.944C164.189 235.789 164.321 235.657 164.477 235.558L164.512 236.603C164.521 236.894 164.615 237.176 164.783 237.413C164.952 237.65 165.187 237.833 165.459 237.936C165.731 238.04 166.027 238.061 166.311 237.996C166.595 237.931 166.853 237.784 167.053 237.572L167.123 237.497C167.637 236.956 168.3 236.581 169.027 236.416C169.755 236.252 170.514 236.307 171.211 236.574L172.7 237.158C172.919 237.244 173.108 237.394 173.24 237.589C173.372 237.784 173.443 238.014 173.442 238.25C173.342 242.513 175.334 248.178 177.425 251.285C179.574 252.178 181.425 255.104 180.479 257.247L180.385 257.463C176.297 260.237 170.72 257.393 167.683 254.141C164.647 250.888 166.615 248.639 163.882 245.754C162.857 244.69 162.03 243.452 161.44 242.098C161.777 240.894 162.28 239.742 162.935 238.676Z" fill="white"/>
<path d="M168.904 244.832C168.844 244.862 168.778 244.879 168.71 244.884C168.643 244.888 168.575 244.879 168.511 244.858C168.447 244.836 168.388 244.802 168.337 244.757C168.286 244.713 168.245 244.659 168.215 244.598C168.183 244.539 168.164 244.474 168.157 244.408C168.151 244.341 168.157 244.274 168.177 244.21C168.196 244.146 168.228 244.086 168.271 244.034C168.314 243.983 168.366 243.94 168.425 243.909C169.316 243.405 170.322 243.14 171.345 243.14C172.369 243.14 173.375 243.405 174.265 243.909C174.353 244.242 174.452 244.575 174.551 244.907C173.697 244.406 172.728 244.136 171.738 244.123C170.748 244.109 169.771 244.354 168.904 244.832Z" fill="white"/>
<path d="M168.139 242.525C168.016 242.588 167.874 242.601 167.742 242.559C167.611 242.517 167.501 242.425 167.438 242.303C167.374 242.181 167.362 242.038 167.404 241.906C167.445 241.775 167.537 241.666 167.66 241.602C168.593 241.093 169.64 240.83 170.703 240.839C171.766 240.848 172.809 241.129 173.733 241.655C173.792 241.999 173.868 242.35 173.944 242.7C172.168 241.766 170.381 241.392 168.139 242.525Z" fill="white"/>
<path d="M169.704 247.127C169.581 247.186 169.441 247.194 169.312 247.151C169.183 247.107 169.076 247.014 169.015 246.893C168.953 246.773 168.941 246.633 168.982 246.504C169.022 246.375 169.112 246.267 169.231 246.204C170.101 245.713 171.081 245.451 172.079 245.441C173.078 245.43 174.063 245.673 174.943 246.146C175.071 246.508 175.205 246.858 175.346 247.208C174.493 246.708 173.525 246.437 172.536 246.422C171.547 246.408 170.571 246.651 169.704 247.127Z" fill="white"/>
<path d="M177.425 251.261C179.574 252.155 181.425 255.081 180.479 257.224L180.386 257.44C176.379 260.173 170.896 257.44 167.824 254.263C170.382 249.247 175.731 250.496 177.425 251.261Z" fill="white"/>
<path d="M170.603 249.363C170.543 249.393 170.477 249.411 170.409 249.416C170.342 249.42 170.274 249.411 170.21 249.39C170.146 249.368 170.087 249.334 170.036 249.289C169.986 249.245 169.944 249.19 169.914 249.13C169.853 249.01 169.841 248.871 169.881 248.743C169.92 248.614 170.007 248.506 170.124 248.441C170.998 247.95 171.981 247.689 172.983 247.681C173.985 247.673 174.972 247.918 175.853 248.394C176.035 248.791 176.221 249.171 176.437 249.562C174.639 248.604 172.852 248.248 170.603 249.363Z" fill="white"/>
<path d="M179.726 243.342C180.192 245.363 180.823 247.341 181.612 249.258L180.053 249.346C179.311 249.385 178.596 249.643 178 250.086C177.404 250.53 176.952 251.14 176.701 251.84L176.666 251.933C176.537 252.291 176.275 252.585 175.934 252.754C175.593 252.922 175.2 252.953 174.838 252.838C174.644 252.78 174.466 252.682 174.313 252.55C174.16 252.418 174.036 252.256 173.95 252.073L171.24 246.443L179.726 243.342Z" fill="#FFA8A7"/>
<path d="M183.907 266.825C187.995 268.577 194.267 268.916 196.866 264.734V265.867C194.267 270.043 188.001 269.704 183.907 267.958C179.813 266.212 180.706 263.35 177.039 261.814C175.697 261.327 174.476 260.556 173.459 259.554C173.459 259.221 173.389 258.807 173.331 258.322C174.417 259.324 175.673 260.124 177.039 260.687C180.706 262.223 179.813 265.079 183.907 266.825Z" fill="white"/>
<path d="M173.331 254.614C173.499 253.816 173.499 252.993 173.331 252.196C173.283 252.015 173.276 251.826 173.308 251.641C173.34 251.457 173.412 251.281 173.517 251.127L173.973 252.073C174.059 252.256 174.183 252.418 174.336 252.55C174.489 252.682 174.667 252.78 174.861 252.838C175.223 252.953 175.616 252.922 175.957 252.754C176.298 252.585 176.56 252.291 176.689 251.933L176.724 251.84C176.975 251.14 177.427 250.53 178.023 250.086C178.619 249.643 179.334 249.385 180.076 249.346L181.664 249.258C181.9 249.25 182.132 249.313 182.331 249.439C182.53 249.565 182.687 249.748 182.78 249.965C184.415 253.901 188.52 258.275 191.686 260.284C194.022 260.226 196.889 262.159 196.889 264.501V264.734C194.29 268.916 188.024 268.571 183.93 266.825C179.836 265.079 180.73 262.223 177.062 260.687C175.696 260.124 174.44 259.323 173.354 258.322C173.175 257.093 173.167 255.845 173.331 254.614Z" fill="#4A6FB0"/>
<path opacity="0.2" d="M173.331 254.614C173.499 253.816 173.499 252.993 173.331 252.196C173.283 252.015 173.276 251.826 173.308 251.641C173.34 251.457 173.412 251.281 173.517 251.127L173.973 252.073C174.059 252.256 174.183 252.418 174.336 252.55C174.489 252.682 174.667 252.78 174.861 252.838C175.223 252.953 175.616 252.922 175.957 252.754C176.298 252.585 176.56 252.291 176.689 251.933L176.724 251.84C176.975 251.14 177.427 250.53 178.023 250.086C178.619 249.643 179.334 249.385 180.076 249.346L181.664 249.258C181.9 249.25 182.132 249.313 182.331 249.439C182.53 249.565 182.687 249.748 182.78 249.965C184.415 253.901 188.52 258.275 191.686 260.284C194.022 260.226 196.889 262.159 196.889 264.501V264.734C194.29 268.916 188.024 268.571 183.93 266.825C179.836 265.079 180.73 262.223 177.062 260.687C175.696 260.124 174.44 259.323 173.354 258.322C173.175 257.093 173.167 255.845 173.331 254.614Z" fill="white"/>
<path d="M181.256 257.843C181.169 257.951 181.043 258.02 180.906 258.034C180.768 258.049 180.63 258.009 180.523 257.922C180.415 257.835 180.346 257.709 180.332 257.572C180.317 257.434 180.357 257.297 180.444 257.189C181.06 256.373 181.876 255.73 182.813 255.321C183.75 254.912 184.776 254.751 185.793 254.853C186.01 255.127 186.231 255.39 186.459 255.653C185.476 255.537 184.48 255.677 183.568 256.061C182.656 256.445 181.859 257.059 181.256 257.843Z" fill="white"/>
<path d="M179.638 256.033C179.548 256.124 179.426 256.179 179.298 256.187C179.169 256.194 179.042 256.154 178.942 256.073C178.842 255.992 178.775 255.877 178.755 255.75C178.734 255.623 178.762 255.492 178.832 255.384C179.479 254.541 180.331 253.876 181.307 253.455C182.284 253.034 183.352 252.87 184.409 252.978C184.608 253.27 184.812 253.562 185.023 253.849C183.025 253.708 181.238 254.088 179.638 256.033Z" fill="white"/>
<path d="M182.92 259.607C182.829 259.699 182.708 259.753 182.58 259.761C182.451 259.768 182.324 259.728 182.224 259.647C182.123 259.566 182.057 259.451 182.036 259.324C182.016 259.197 182.044 259.066 182.114 258.959C182.715 258.163 183.507 257.533 184.417 257.124C185.326 256.716 186.324 256.543 187.317 256.623C187.58 256.903 187.849 257.171 188.117 257.434C187.137 257.316 186.143 257.454 185.232 257.835C184.321 258.216 183.525 258.826 182.92 259.607Z" fill="white"/>
<path d="M191.68 260.284C194.016 260.226 196.883 262.159 196.883 264.501V264.734C194.32 268.822 188.205 268.577 184.111 266.901C184.409 261.277 189.805 260.261 191.68 260.284Z" fill="white"/>
<path d="M184.672 261.295C184.584 261.397 184.46 261.461 184.327 261.473C184.193 261.486 184.059 261.446 183.954 261.362C183.849 261.278 183.78 261.156 183.763 261.023C183.745 260.889 183.78 260.754 183.86 260.646C184.463 259.849 185.258 259.216 186.171 258.808C187.084 258.399 188.085 258.228 189.081 258.31C189.408 258.602 189.73 258.894 190.057 259.134C188.042 258.97 186.255 259.344 184.672 261.295Z" fill="white"/>
<path d="M155.676 190.099L176.169 201.528C178.026 202.562 179.511 204.154 180.416 206.077C181.32 208.001 181.597 210.16 181.209 212.25L177.232 233.648L180.496 244.008C177.664 247.787 171.24 247.979 171.24 247.979C167.637 240.755 164.991 237.683 162.947 231.627C160.903 225.571 159.519 221.384 159.519 221.384L142.501 216.712C138.609 215.654 135.124 213.454 132.496 210.396C129.867 207.337 128.216 203.561 127.755 199.554C127.469 196.984 127.452 195.227 127.452 195.227L155.676 190.099Z" fill="#455A64"/>
<path d="M155.676 190.099L176.169 201.528C178.026 202.562 179.511 204.154 180.416 206.077C181.32 208.001 181.597 210.16 181.209 212.25L177.232 233.648L180.496 244.008C177.664 247.787 171.24 247.979 171.24 247.979C167.637 240.755 164.991 237.683 162.947 231.627C160.903 225.571 159.519 221.384 159.519 221.384L142.501 216.712C138.609 215.654 135.124 213.454 132.496 210.396C129.867 207.337 128.216 203.561 127.755 199.554C127.469 196.984 127.452 195.227 127.452 195.227L155.676 190.099Z" fill="#37474F"/>
<path opacity="0.2" d="M155.525 195.857C155.525 198.147 154.714 200.363 153.235 202.112L167.689 211.164C169.812 212.491 171.384 214.54 172.116 216.934L177.232 233.648L172.618 215.013C172.087 212.868 170.737 211.017 168.857 209.856L155.507 201.61C156.874 198.205 155.525 195.857 155.525 195.857Z" fill="black"/>
<path d="M153.463 154.901H153.988C157.528 154.936 162.007 157.348 164.197 163.521L172.7 179.99L162.994 184.294L157.679 168.754L153.463 154.901Z" fill="#4A6FB0"/>
<g opacity="0.2">
<path opacity="0.2" d="M153.463 154.901H153.988C157.528 154.936 162.007 157.348 164.197 163.521L172.7 179.99L162.994 184.294L157.679 168.754L153.463 154.901Z" fill="black"/>
</g>
<path opacity="0.2" d="M160.278 165.828C160.956 167.773 160.996 169.869 161.107 171.931C161.218 173.992 161.452 176.469 162.392 178.302C163.43 177.58 164.674 177.214 165.938 177.259C167.202 177.304 168.417 177.758 169.4 178.553C170.104 179.146 170.644 179.907 170.971 180.767L163.005 184.3L157.691 168.76L155.081 160.187C156.278 160.735 157.354 161.517 158.246 162.485C159.139 163.454 159.829 164.59 160.278 165.828Z" fill="black"/>
<path d="M162.9 181.327C163.272 180.412 163.87 179.607 164.639 178.986C165.407 178.365 166.32 177.949 167.292 177.777C168.306 177.675 169.33 177.824 170.273 178.211C171.216 178.598 172.05 179.211 172.7 179.996C173.757 181.275 173.593 183.009 172.922 184.528C172.363 185.708 171.412 186.659 170.231 187.218C169.051 187.777 167.713 187.91 166.445 187.594C163.94 186.893 161.954 183.757 162.9 181.327Z" fill="#4A6FB0"/>
<g opacity="0.2">
<path opacity="0.2" d="M162.9 181.327C163.272 180.412 163.87 179.607 164.639 178.986C165.407 178.365 166.32 177.949 167.292 177.777C168.306 177.675 169.33 177.824 170.273 178.211C171.216 178.598 172.05 179.211 172.7 179.996C173.757 181.275 173.593 183.009 172.922 184.528C172.363 185.708 171.412 186.659 170.231 187.218C169.051 187.777 167.713 187.91 166.445 187.594C163.94 186.893 161.954 183.757 162.9 181.327Z" fill="black"/>
</g>
<path d="M127.124 196.856C130.763 200.36 148.218 200.985 157.124 192.505C156.272 186.519 156.54 180.107 157.124 173.765C157.708 167.422 161.399 156.332 154.321 155.042C144.866 153.196 140.095 154.896 132.375 156.905C125.629 168.141 126.558 184.96 127.124 196.856Z" fill="#4A6FB0"/>
<path opacity="0.2" d="M127.124 196.856C130.763 200.36 148.218 200.985 157.124 192.505C156.272 186.519 156.54 180.107 157.124 173.765C157.708 167.422 161.399 156.332 154.321 155.042C144.866 153.196 140.095 154.896 132.375 156.905C125.629 168.141 126.558 184.96 127.124 196.856Z" fill="black"/>
<path opacity="0.2" d="M137.456 184.376C137.082 178.139 137.456 167.527 135.406 164.426L129.776 162.4C126.319 171.972 126.517 183.804 126.949 193.399C130.742 195.583 134.896 197.071 139.213 197.79C141.012 198.123 142.828 198.374 144.65 198.52C149.223 197.574 153.773 195.676 157.113 192.493C156.996 191.693 156.909 190.876 156.833 190.058C152.424 189.812 148.069 188.971 143.885 187.559C143.106 186.597 142.128 185.815 141.018 185.266C139.908 184.716 138.693 184.413 137.456 184.376Z" fill="black"/>
<path opacity="0.15" d="M152.885 196.435C152.885 196.435 152.885 196.435 152.885 196.406C152.885 196.377 152.885 196.406 152.885 196.371V196.342V196.307C152.885 196.307 152.885 196.307 152.885 196.272V196.243L159.239 184.417L160.115 185.415L153.761 197.241C153.721 197.308 153.693 197.381 153.679 197.457C153.673 197.48 153.672 197.503 153.677 197.526C153.682 197.548 153.693 197.569 153.709 197.586L152.833 196.593V196.546C152.833 196.546 152.833 196.517 152.833 196.506L152.885 196.435Z" fill="white"/>
<path opacity="0.2" d="M159.344 184.341V184.306V184.271V184.236V184.195V184.16V184.119L159.373 184.084V184.049V184.014V183.985L159.467 183.903H159.496H159.531H159.572H159.613H159.653L166.959 179.815H167H167.041H167.082H167.123H167.158H167.199H167.234H167.275H167.316H167.45C167.471 179.815 167.491 179.819 167.51 179.827C167.529 179.835 167.546 179.847 167.561 179.862L168.431 180.86C168.396 180.813 168.32 180.802 168.215 180.825C168.074 180.862 167.938 180.917 167.812 180.989L160.506 185.077C160.362 185.159 160.224 185.251 160.091 185.351C159.951 185.462 159.817 185.573 159.689 185.696C159.566 185.811 159.451 185.934 159.344 186.064C159.253 186.172 159.173 186.29 159.105 186.414L158.229 185.415L159.344 184.341Z" fill="white"/>
<path d="M163.017 188.838C163.017 188.838 158.403 191.174 156.359 189.889L157.44 187.88C154.537 187.835 151.708 188.797 149.433 190.601C145.07 189.803 140.811 188.516 136.737 186.764L135.289 186.18L127.948 192.283C132.953 195.524 156.564 197.744 159.017 196.231C161.469 194.719 163.35 191.717 163.017 188.838Z" fill="#FFA8A7"/>
<path d="M168.005 182.887C168.16 183.656 168.249 184.438 168.273 185.223C168.085 187.108 167.285 188.88 165.996 190.268C165.728 190.572 165.392 190.809 165.015 190.958C164.826 191.027 164.623 191.047 164.424 191.016C164.226 190.984 164.039 190.902 163.882 190.777C163.607 190.451 163.465 190.034 163.485 189.609C163.423 188.97 163.458 188.326 163.59 187.699C163.72 187.065 164.077 186.5 164.594 186.11C164.996 185.866 165.425 185.67 165.873 185.526C166.311 185.343 166.701 185.061 167.012 184.703L168.005 182.887Z" fill="#FFA8A7"/>
<path d="M135.289 186.163L135.511 166.424C135.541 163.756 134.885 161.126 133.607 158.785L132.375 156.91C131.392 157.008 130.45 157.351 129.633 157.907C128.817 158.463 128.153 159.215 127.703 160.093C125.995 163.026 125.204 166.402 125.431 169.788C125.431 169.788 124.654 190.134 127.948 192.266L135.289 186.163Z" fill="#4A6FB0"/>
<path d="M140.218 186.969L135.289 186.163L127.948 192.266C130.103 193.93 135.265 195.717 138.67 196.552C139.713 196.808 140.806 196.782 141.835 196.476L142.419 196.307L143.546 188.68C142.642 187.777 141.478 187.179 140.218 186.969Z" fill="#4A6FB0"/>
<g opacity="0.2">
<path opacity="0.2" d="M135.289 186.163L135.511 166.424C135.541 163.756 134.885 161.126 133.607 158.785L132.375 156.91C131.392 157.008 130.45 157.351 129.633 157.907C128.817 158.463 128.153 159.215 127.703 160.093C125.995 163.026 125.204 166.402 125.431 169.788C125.431 169.788 124.654 190.134 127.948 192.266L135.289 186.163Z" fill="black"/>
<path opacity="0.2" d="M140.218 186.969L135.289 186.163L127.948 192.266C130.103 193.93 135.265 195.717 138.67 196.552C139.713 196.808 140.806 196.782 141.835 196.476L142.419 196.307L143.546 188.68C142.642 187.777 141.478 187.179 140.218 186.969Z" fill="black"/>
</g>
<path d="M147.88 190.315C145.643 191.454 146.788 195.962 147.226 196.307L147.88 196.365C147.773 196.547 147.616 196.695 147.427 196.791C147.239 196.887 147.028 196.928 146.817 196.909C145.62 196.786 143.243 196.523 142.39 196.325C140.095 192.873 142.659 189.176 143.523 188.68C144.925 189.095 146.297 189.398 147.027 189.544C147.184 189.576 147.331 189.642 147.459 189.737C147.587 189.831 147.693 189.953 147.769 190.093L147.88 190.315Z" fill="#4A6FB0"/>
<path opacity="0.3" d="M147.88 190.315C145.643 191.454 146.788 195.962 147.226 196.307L147.88 196.365C147.773 196.547 147.616 196.695 147.427 196.791C147.239 196.887 147.028 196.928 146.817 196.909C145.62 196.786 143.243 196.523 142.39 196.325C140.095 192.873 142.659 189.176 143.523 188.68C144.925 189.095 146.297 189.398 147.027 189.544C147.184 189.576 147.331 189.642 147.459 189.737C147.587 189.831 147.693 189.953 147.769 190.093L147.88 190.315Z" fill="black"/>
<path d="M139.435 155.766C139.274 156.077 139.185 156.421 139.175 156.772C139.165 157.123 139.234 157.472 139.377 157.792C139.673 158.431 140.108 158.995 140.65 159.445C142.262 160.87 144.293 161.733 146.437 161.904C147.593 162.036 148.763 161.833 149.807 161.32C150.324 161.053 150.765 160.661 151.091 160.179C151.416 159.698 151.615 159.142 151.67 158.563C151.652 157.885 151.445 157.224 151.071 156.658C150.698 156.091 150.173 155.64 149.556 155.357C148.309 154.821 146.945 154.62 145.596 154.773C144.335 154.942 143.062 155.012 141.789 154.983C140.913 154.855 139.943 154.896 139.435 155.766Z" fill="#4A6FB0"/>
<path opacity="0.3" d="M139.435 155.766C139.274 156.077 139.185 156.421 139.175 156.772C139.165 157.123 139.234 157.472 139.377 157.792C139.673 158.431 140.108 158.995 140.65 159.445C142.262 160.87 144.293 161.733 146.437 161.904C147.593 162.036 148.763 161.833 149.807 161.32C150.324 161.053 150.765 160.661 151.091 160.179C151.416 159.698 151.615 159.142 151.67 158.563C151.652 157.885 151.445 157.224 151.071 156.658C150.698 156.091 150.173 155.64 149.556 155.357C148.309 154.821 146.945 154.62 145.596 154.773C144.335 154.942 143.062 155.012 141.789 154.983C140.913 154.855 139.943 154.896 139.435 155.766Z" fill="black"/>
<path d="M138.629 141.09L143.774 148.682H143.903L138.413 140.599C138.413 140.599 129.6 144.378 130.237 147.082C130.251 147.116 130.263 147.151 130.272 147.187L130.342 147.362C130.34 147.379 130.34 147.397 130.342 147.415L130.517 147.858C130.483 147.781 130.456 147.701 130.436 147.619C129.817 144.88 138.629 141.09 138.629 141.09Z" fill="#4A6FB0"/>
<path opacity="0.1" d="M138.629 141.09L143.774 148.682H143.903L138.413 140.599C138.413 140.599 129.6 144.378 130.237 147.082C130.251 147.116 130.263 147.151 130.272 147.187L130.342 147.362C130.34 147.379 130.34 147.397 130.342 147.415L130.517 147.858C130.483 147.781 130.456 147.701 130.436 147.619C129.817 144.88 138.629 141.09 138.629 141.09Z" fill="black"/>
<path d="M143.792 148.67L138.647 141.078C138.647 141.078 129.834 144.862 130.471 147.561C130.491 147.643 130.518 147.723 130.553 147.8C131.919 151.07 144.131 149.161 144.131 149.161L143.792 148.67Z" fill="#4A6FB0"/>
<path opacity="0.3" d="M143.792 148.67L138.647 141.078C138.647 141.078 129.834 144.862 130.471 147.561C130.491 147.643 130.518 147.723 130.553 147.8C131.919 151.07 144.131 149.161 144.131 149.161L143.792 148.67Z" fill="black"/>
<path d="M141.392 153.237C140.176 151.021 139.229 148.669 138.571 146.229C137.987 143.765 136.311 138.292 137.502 136.062C138.402 134.385 140.878 132.692 142.542 131.775C144.207 130.858 146.385 131.138 148.242 130.735C149.874 130.332 151.561 130.201 153.235 130.35C154.9 130.554 156.996 133.562 158.106 134.823C159.858 136.809 159.916 139.945 158.655 142.281C157.393 144.617 155.051 146.217 152.552 147.123C150.052 148.028 147.384 148.291 144.744 148.577C143.652 150.037 142.484 151.765 141.392 153.237Z" fill="#263238"/>
<path d="M155.378 129.036C152.785 126.7 148.867 126.233 145.45 127.132C142.56 127.897 139.207 128.791 137.537 131.22C135.867 133.65 136.714 137.107 136.907 140.564C139.923 138.156 143.495 136.542 147.296 135.869C147.746 135.787 148.207 135.729 148.674 135.682L148.446 134.549C148.38 134.226 148.383 133.893 148.456 133.572C148.529 133.251 148.671 132.949 148.871 132.687C149.07 132.425 149.324 132.209 149.615 132.054C149.905 131.899 150.226 131.807 150.555 131.787C151.078 131.758 151.604 131.769 152.126 131.822C152.852 131.896 153.536 132.196 154.084 132.679C154.631 133.161 155.015 133.803 155.18 134.514C155.297 135.04 155.413 135.571 155.524 136.05C156.817 136.277 158.091 136.597 159.338 137.008C158.485 134.164 157.592 131.033 155.378 129.036Z" fill="#455A64"/>
<path d="M155.098 134.275C152.897 133.777 150.62 133.71 148.394 134.076C148.392 134.235 148.408 134.393 148.44 134.549L148.668 135.682C150.958 135.495 153.262 135.618 155.518 136.05C155.408 135.571 155.291 135.04 155.174 134.514C155.151 134.432 155.121 134.368 155.098 134.275Z" fill="#37474F"/>
<path d="M149.772 152.472L149.434 156.245C149.42 156.538 149.496 156.829 149.65 157.08C149.858 157.473 149.938 157.922 149.878 158.362C149.818 158.803 149.622 159.215 149.317 159.538C148.833 159.911 148.24 160.116 147.629 160.122C146.48 160.184 145.332 160.003 144.258 159.59C143.184 159.177 142.21 158.543 141.398 157.728C141.235 157.556 141.107 157.354 141.023 157.132C140.939 156.91 140.899 156.674 140.907 156.437L141.153 146.871L149.772 152.472Z" fill="#FFA8A7"/>
<path d="M149.772 152.472L149.434 156.245C149.42 156.538 149.496 156.829 149.65 157.08C149.858 157.473 149.938 157.922 149.878 158.362C149.818 158.803 149.622 159.215 149.317 159.538C148.833 159.911 148.24 160.116 147.629 160.122C146.48 160.184 145.332 160.003 144.258 159.59C143.184 159.177 142.21 158.543 141.398 157.728C141.235 157.556 141.107 157.354 141.023 157.132C140.939 156.91 140.899 156.674 140.907 156.437L141.153 146.871L149.772 152.472Z" fill="#FFA8A7"/>
<path opacity="0.2" d="M143.961 154.347C144.913 155.166 146.069 155.711 147.307 155.923C148.04 156.025 148.787 155.951 149.486 155.707L149.772 152.478L141.152 146.86L141.064 150.364C141.677 151.915 142.674 153.285 143.961 154.347Z" fill="black"/>
<path d="M152.978 140.792C153.791 140.41 154.476 139.802 154.952 139.04C153.254 139.815 151.438 140.301 149.58 140.477C150.292 139.858 150.97 139.157 151.682 138.538C150.408 138.969 149.099 139.287 147.769 139.49C148.511 139.109 149.171 138.587 149.714 137.954C147.629 138.927 145.393 139.538 143.103 139.758C143.001 139.896 142.935 140.056 142.91 140.225L142.56 142.941C142.564 143.134 142.525 143.326 142.445 143.502C142.365 143.677 142.247 143.833 142.099 143.957C141.938 144.033 141.759 144.058 141.584 144.03C141.409 144.002 141.246 143.921 141.117 143.8C140.865 143.548 140.667 143.248 140.533 142.918C140.25 142.233 139.871 141.592 139.406 141.014C139.171 140.727 138.876 140.493 138.543 140.329C138.209 140.164 137.845 140.074 137.473 140.062C136.264 140.091 135.342 141.3 135.213 142.503C135.154 143.125 135.251 143.752 135.494 144.327C135.738 144.902 136.121 145.407 136.609 145.797C137.112 146.154 137.696 146.379 138.308 146.452C138.92 146.526 139.54 146.445 140.113 146.217C139.564 148.314 140.662 150.562 142.291 151.987C143.921 153.412 146.011 154.183 148.05 154.907C149.165 155.31 150.345 155.719 151.507 155.491C152.454 155.278 153.304 154.754 153.919 154.002C154.531 153.254 155.032 152.422 155.408 151.532C157.247 147.561 158.294 143.271 158.491 138.9C156.937 140.165 154.983 140.836 152.978 140.792Z" fill="#FFA8A7"/>
<path d="M151.46 145.067L153.165 149.575L150.181 149.61L151.46 145.067Z" fill="#F28F8F"/>
<path d="M146.876 150.481L150.006 151.771C149.766 152.132 149.415 152.406 149.007 152.55C148.598 152.694 148.153 152.702 147.74 152.571C146.975 152.279 146.712 151.304 146.876 150.481Z" fill="#F28F8F"/>
<path opacity="0.3" d="M146.876 150.481L150.006 151.771C149.766 152.132 149.415 152.406 149.007 152.55C148.598 152.694 148.153 152.702 147.74 152.571C146.975 152.279 146.712 151.304 146.876 150.481Z" fill="black"/>
<path d="M148.803 152.606C148.453 152.701 148.083 152.688 147.74 152.571C147.452 152.431 147.212 152.208 147.05 151.932C146.888 151.656 146.811 151.338 146.829 151.018C147.298 150.981 147.764 151.124 148.131 151.42C148.498 151.715 148.738 152.14 148.803 152.606Z" fill="#F28F8F"/>
<path d="M147.243 144.243C147.183 144.459 147.21 144.689 147.32 144.884C147.429 145.079 147.612 145.223 147.827 145.283C148.043 145.343 148.273 145.316 148.468 145.206C148.663 145.097 148.806 144.914 148.867 144.699C148.897 144.592 148.905 144.481 148.892 144.371C148.879 144.261 148.844 144.155 148.79 144.058C148.736 143.962 148.663 143.877 148.576 143.808C148.489 143.74 148.389 143.689 148.283 143.659C148.176 143.629 148.065 143.621 147.955 143.634C147.845 143.647 147.739 143.682 147.642 143.736C147.546 143.79 147.461 143.863 147.392 143.95C147.324 144.037 147.273 144.137 147.243 144.243Z" fill="#263238"/>
<path d="M153.971 145.651C153.91 145.866 153.938 146.097 154.048 146.292C154.157 146.487 154.34 146.63 154.555 146.69C154.77 146.751 155.001 146.723 155.196 146.614C155.39 146.504 155.534 146.322 155.594 146.106C155.624 146 155.633 145.888 155.62 145.778C155.607 145.668 155.572 145.562 155.518 145.466C155.463 145.369 155.391 145.284 155.304 145.216C155.217 145.147 155.117 145.097 155.01 145.067C154.904 145.037 154.792 145.028 154.682 145.041C154.572 145.055 154.466 145.089 154.37 145.144C154.273 145.198 154.188 145.27 154.12 145.358C154.051 145.445 154.001 145.544 153.971 145.651Z" fill="#263238"/>
<path d="M155.805 141.499L157.254 143.251C157.398 143.051 157.476 142.811 157.476 142.564C157.476 142.318 157.398 142.078 157.254 141.878C157.072 141.686 156.84 141.548 156.584 141.481C156.328 141.414 156.058 141.42 155.805 141.499Z" fill="#263238"/>
<path d="M148.347 140.109L146.198 140.85C146.178 140.606 146.236 140.362 146.363 140.152C146.49 139.943 146.679 139.778 146.905 139.682C147.161 139.611 147.432 139.613 147.687 139.689C147.942 139.764 148.171 139.91 148.347 140.109Z" fill="#263238"/>
<path d="M100.225 182.747L135.411 210.008C136.485 210.839 137.377 211.881 138.032 213.07C138.687 214.26 139.091 215.571 139.219 216.922L143.167 258.281C142.949 258.484 142.671 258.608 142.374 258.635C142.078 258.661 141.782 258.588 141.532 258.427L134.524 216.905C134.406 216.197 134.137 215.522 133.733 214.928C133.33 214.335 132.803 213.835 132.188 213.465L101.084 194.829C97.0076 192.406 96.2893 183.839 100.225 182.747Z" fill="#455A64"/>
<path opacity="0.3" d="M100.225 182.747L135.411 210.008C136.485 210.839 137.377 211.881 138.032 213.07C138.687 214.26 139.091 215.571 139.219 216.922L143.167 258.281C142.949 258.484 142.671 258.608 142.374 258.635C142.078 258.661 141.782 258.588 141.532 258.427L134.524 216.905C134.406 216.197 134.137 215.522 133.733 214.928C133.33 214.335 132.803 213.835 132.188 213.465L101.084 194.829C97.0076 192.406 96.2893 183.839 100.225 182.747Z" fill="white"/>
<path d="M152.885 196.471C152.885 196.471 152.885 196.5 152.885 196.511V196.558L153.761 197.551C153.761 197.551 153.761 197.51 153.761 197.487C153.796 197.639 154.018 197.633 154.397 197.422L161.703 193.334C162.268 193.007 162.748 192.55 163.105 192.003L169.488 180.159C169.587 179.961 169.587 179.844 169.488 179.792H169.517L168.647 178.793C168.633 178.778 168.615 178.766 168.596 178.758C168.577 178.75 168.557 178.746 168.536 178.746H168.402H168.361H168.32H168.285H168.244H168.209H168.168H168.127H168.086H168.045L160.74 182.834H160.699H160.658H160.617H160.582H160.553L160.459 182.916V182.945V182.98V183.015L160.43 183.05V183.091V183.126V183.167V183.202V183.237V183.272V183.307L154.076 195.133V195.162C154.076 195.162 154.076 195.162 154.076 195.197V195.232V195.262C154.076 195.262 154.076 195.262 154.076 195.297C154.076 195.332 154.076 195.297 154.076 195.326V195.373L152.885 196.471ZM169.278 179.774H169.307C169.307 179.774 169.336 179.774 169.359 179.774C169.332 179.768 169.305 179.768 169.278 179.774ZM160.78 184.656L160.985 184.487L160.78 184.656ZM160.436 185.024L160.523 184.931L160.436 185.024ZM153.761 197.44C153.774 197.364 153.802 197.29 153.843 197.224C153.8 197.297 153.772 197.379 153.761 197.463V197.44Z" fill="#455A64"/>
<path d="M109.99 254.105L112.483 255.554L112.472 252.675L109.99 254.105Z" fill="#E6E6E6"/>
<path d="M112.372 224.73L88.1479 238.711L112.372 224.73Z" fill="#CFCFCF"/>
<path d="M112.472 252.675V255.554L115.065 254.059L114.977 220.216L85.5264 237.222L85.6198 271.059L88.2128 269.564V266.685L109.99 254.088L112.472 252.675ZM88.1485 238.711L112.373 224.73L112.402 235.704L88.1836 249.72L88.1485 238.711ZM88.1894 252.692L112.414 238.705V238.74V249.685L88.2186 263.666L88.1894 252.692Z" fill="#E0E0E0"/>
<path d="M112.442 249.685L112.413 238.74V238.711L88.189 252.692L88.2182 263.666L112.442 249.685Z" fill="#E0E0E0"/>
<path d="M112.401 235.704L112.372 224.73L88.1479 238.711L88.183 249.69L112.401 235.704Z" fill="#E0E0E0"/>
<path d="M85.526 237.222L59.8125 222.277L59.9059 256.12L85.6195 271.059L85.526 237.222Z" fill="#E0E0E0"/>
<path d="M85.526 237.222L114.977 220.216L89.2636 205.271L59.8125 222.277L85.526 237.222Z" fill="#E0E0E0"/>
<path opacity="0.2" d="M109.99 254.105L112.483 255.554L112.472 252.675L109.99 254.105Z" fill="white"/>
<path d="M112.372 224.73L88.1479 238.711L112.372 224.73Z" fill="#CFCFCF"/>
<path opacity="0.8" d="M112.442 249.685L112.413 238.74V238.711L88.189 252.692L88.2182 263.666L112.442 249.685Z" fill="white"/>
<path opacity="0.8" d="M112.401 235.704L112.372 224.73L88.1479 238.711L88.183 249.69L112.401 235.704Z" fill="white"/>
<path d="M104.477 233.368L104.465 231.855L96.0786 236.696L96.0845 238.215L104.477 233.368Z" fill="#E0E0E0"/>
<path d="M104.477 247.156L104.465 245.637L96.0786 250.479L96.0845 251.997L104.477 247.156Z" fill="#E0E0E0"/>
<path opacity="0.2" d="M85.526 237.222L59.8125 222.277L59.9059 256.12L85.6195 271.059L85.526 237.222Z" fill="white"/>
<path opacity="0.4" d="M85.526 237.222L114.977 220.216L89.2636 205.271L59.8125 222.277L85.526 237.222Z" fill="white"/>
<path opacity="0.05" d="M79.8146 214.002C83.085 212.11 88.3702 212.11 91.6173 214.002C94.8643 215.894 94.8468 218.949 91.5764 220.841C88.306 222.733 83.0208 222.727 79.7737 220.841C76.5267 218.955 76.5442 215.889 79.8146 214.002Z" fill="black"/>
<path d="M76.9764 202.112L85.9467 202.375L94.9228 202.112C95.3082 208.174 94.1227 214.347 92.4933 217.366C92.1145 218.139 91.5013 218.772 90.7413 219.176C88.0958 220.707 83.8151 220.707 81.1871 219.176C80.413 218.769 79.7965 218.116 79.4351 217.319C77.7648 214.288 76.591 208.151 76.9764 202.112Z" fill="white"/>
<path d="M79.6275 198.444C76.1235 200.477 76.0885 203.765 79.5808 205.797C83.0731 207.829 88.7555 207.824 92.2711 205.797C95.7868 203.771 95.7751 200.477 92.312 198.444C88.8489 196.412 83.1432 196.418 79.6275 198.444Z" fill="#EBEBEB"/>
<path d="M81.0176 199.25C78.2728 200.839 78.2611 203.403 80.9826 204.985C83.704 206.568 88.1424 206.568 90.9105 204.985C93.6787 203.403 93.667 200.839 90.9456 199.25C88.2242 197.662 83.7566 197.668 81.0176 199.25Z" fill="#E0E0E0"/>
<g opacity="0.15">
<path opacity="0.15" d="M81.0176 199.25C78.2728 200.839 78.2611 203.403 80.9826 204.985C83.704 206.568 88.1424 206.568 90.9105 204.985C93.6787 203.403 93.667 200.839 90.9456 199.25C88.2242 197.662 83.7566 197.668 81.0176 199.25Z" fill="black"/>
</g>
<path d="M86.7 202.375C85.9804 202.975 85.1291 203.396 84.2156 203.604C83.3022 203.812 82.3524 203.801 81.444 203.572C80.5684 203.304 79.7732 202.823 79.1299 202.172C78.4866 201.52 78.0155 200.719 77.759 199.84C78.821 199.336 79.7935 198.661 80.6381 197.843C79.289 197.504 77.8715 197.555 76.5501 197.989C76.1847 197.415 75.9655 196.761 75.9116 196.083C75.8576 195.405 75.9706 194.724 76.2406 194.099C77.7718 193.418 79.4943 193.298 81.1053 193.761C80.437 193.177 79.655 192.738 78.8087 192.472C77.9624 192.206 77.0701 192.118 76.188 192.213C76.0568 189.641 76.4543 187.069 77.356 184.656C80.7023 184.831 83.9435 186.268 85.0414 187.308C85.0895 188.505 84.9636 189.703 84.6677 190.864C85.0996 190.643 85.4685 190.316 85.7401 189.913C86.0116 189.511 86.1771 189.047 86.2211 188.563C88.3177 189.089 89.2112 190.134 89.5382 190.928C89.2377 192.417 88.5554 193.801 87.5585 194.946C89.5207 194.362 90.3208 192.161 90.3208 192.161C92.2655 196.739 91.8976 201.925 86.7 202.375Z" fill="#4A6FB0"/>
<path opacity="0.2" d="M86.7 202.375C85.9804 202.975 85.1291 203.396 84.2156 203.604C83.3022 203.812 82.3524 203.801 81.444 203.572C80.5684 203.304 79.7732 202.823 79.1299 202.172C78.4866 201.52 78.0155 200.719 77.759 199.84C78.821 199.336 79.7935 198.661 80.6381 197.843C79.289 197.504 77.8715 197.555 76.5501 197.989C76.1847 197.415 75.9655 196.761 75.9116 196.083C75.8576 195.405 75.9706 194.724 76.2406 194.099C77.7718 193.418 79.4943 193.298 81.1053 193.761C80.437 193.177 79.655 192.738 78.8087 192.472C77.9624 192.206 77.0701 192.118 76.188 192.213C76.0568 189.641 76.4543 187.069 77.356 184.656C80.7023 184.831 83.9435 186.268 85.0414 187.308C85.0895 188.505 84.9636 189.703 84.6677 190.864C85.0996 190.643 85.4685 190.316 85.7401 189.913C86.0116 189.511 86.1771 189.047 86.2211 188.563C88.3177 189.089 89.2112 190.134 89.5382 190.928C89.2377 192.417 88.5554 193.801 87.5585 194.946C89.5207 194.362 90.3208 192.161 90.3208 192.161C92.2655 196.739 91.8976 201.925 86.7 202.375Z" fill="black"/>
<path opacity="0.3" d="M86.7 202.375C85.9804 202.975 85.1291 203.396 84.2156 203.604C83.3022 203.812 82.3524 203.801 81.444 203.572C80.5684 203.304 79.7732 202.823 79.1299 202.172C78.4866 201.52 78.0155 200.719 77.759 199.84C78.821 199.336 79.7935 198.661 80.6381 197.843C79.289 197.504 77.8715 197.555 76.5501 197.989C76.1847 197.415 75.9655 196.761 75.9116 196.083C75.8576 195.405 75.9706 194.724 76.2406 194.099C77.7718 193.418 79.4943 193.298 81.1053 193.761C80.437 193.177 79.655 192.738 78.8087 192.472C77.9624 192.206 77.0701 192.118 76.188 192.213C76.0568 189.641 76.4543 187.069 77.356 184.656C80.7023 184.831 83.9435 186.268 85.0414 187.308C85.0895 188.505 84.9636 189.703 84.6677 190.864C85.0996 190.643 85.4685 190.316 85.7401 189.913C86.0116 189.511 86.1771 189.047 86.2211 188.563C88.3177 189.089 89.2112 190.134 89.5382 190.928C89.2377 192.417 88.5554 193.801 87.5585 194.946C89.5207 194.362 90.3208 192.161 90.3208 192.161C92.2655 196.739 91.8976 201.925 86.7 202.375Z" fill="white"/>
<path d="M86.8165 202.871C86.8676 202.865 86.9146 202.84 86.9482 202.801C86.9817 202.763 86.9994 202.712 86.9976 202.661C86.6764 198.439 84.2586 191.466 78.4945 185.725C78.4771 185.707 78.4562 185.693 78.4331 185.683C78.4101 185.673 78.3853 185.668 78.3602 185.668C78.3351 185.668 78.3103 185.673 78.2873 185.683C78.2642 185.693 78.2433 185.707 78.2259 185.725C78.2077 185.743 78.1932 185.764 78.1834 185.788C78.1735 185.811 78.1685 185.837 78.1685 185.862C78.1685 185.888 78.1735 185.913 78.1834 185.937C78.1932 185.96 78.2077 185.981 78.2259 185.999C83.914 191.676 86.2968 198.544 86.6121 202.702C86.6143 202.726 86.6214 202.75 86.6328 202.772C86.6443 202.794 86.66 202.813 86.679 202.829C86.698 202.845 86.72 202.857 86.7436 202.864C86.7672 202.871 86.792 202.874 86.8165 202.871Z" fill="#F5F5F5"/>
<path d="M85.2342 204.635C85.9049 205.183 86.696 205.565 87.5426 205.749C88.3893 205.933 89.2674 205.914 90.1053 205.694C90.9432 205.473 91.717 205.058 92.3635 204.481C93.01 203.904 93.5107 203.182 93.8248 202.375C92.865 201.943 91.9861 201.351 91.226 200.623C92.4985 200.32 93.8286 200.36 95.0804 200.74C95.4588 200.255 95.7068 199.682 95.8009 199.075C95.8949 198.468 95.8319 197.847 95.6177 197.271C94.1608 196.671 92.5454 196.574 91.0274 196.996C92.3785 195.941 94.0789 195.436 95.787 195.583C96.0793 193.315 95.8598 191.01 95.1446 188.838C91.956 189.03 88.8024 190.35 87.7045 191.285C87.5817 192.338 87.6251 193.404 87.833 194.444C87.4481 194.258 87.1216 193.971 86.8889 193.612C86.6562 193.254 86.5262 192.839 86.5131 192.412C84.5158 192.896 83.5931 193.831 83.2602 194.537C83.449 195.848 84.0082 197.078 84.8721 198.082C84.3122 197.879 83.8055 197.552 83.3899 197.125C82.9742 196.698 82.6604 196.183 82.4718 195.618C80.3753 199.677 80.4103 204.244 85.2342 204.635Z" fill="#4A6FB0"/>
<path opacity="0.3" d="M85.2342 204.635C85.9049 205.183 86.696 205.565 87.5426 205.749C88.3893 205.933 89.2674 205.914 90.1053 205.694C90.9432 205.473 91.717 205.058 92.3635 204.481C93.01 203.904 93.5107 203.182 93.8248 202.375C92.865 201.943 91.9861 201.351 91.226 200.623C92.4985 200.32 93.8286 200.36 95.0804 200.74C95.4588 200.255 95.7068 199.682 95.8009 199.075C95.8949 198.468 95.8319 197.847 95.6177 197.271C94.1608 196.671 92.5454 196.574 91.0274 196.996C92.3785 195.941 94.0789 195.436 95.787 195.583C96.0793 193.315 95.8598 191.01 95.1446 188.838C91.956 189.03 88.8024 190.35 87.7045 191.285C87.5817 192.338 87.6251 193.404 87.833 194.444C87.4481 194.258 87.1216 193.971 86.8889 193.612C86.6562 193.254 86.5262 192.839 86.5131 192.412C84.5158 192.896 83.5931 193.831 83.2602 194.537C83.449 195.848 84.0082 197.078 84.8721 198.082C84.3122 197.879 83.8055 197.552 83.3899 197.125C82.9742 196.698 82.6604 196.183 82.4718 195.618C80.3753 199.677 80.4103 204.244 85.2342 204.635Z" fill="white"/>
<path d="M85.1055 205.096C85.1516 205.096 85.1961 205.079 85.2312 205.049C85.2664 205.019 85.2901 204.978 85.2982 204.933C85.8472 201.253 88.516 195.145 94.2451 190.047C94.2633 190.029 94.2777 190.007 94.2876 189.984C94.2974 189.96 94.3025 189.935 94.3025 189.909C94.3025 189.884 94.2974 189.858 94.2876 189.835C94.2777 189.811 94.2633 189.79 94.2451 189.772C94.2277 189.754 94.2068 189.74 94.1837 189.73C94.1606 189.72 94.1358 189.715 94.1108 189.715C94.0857 189.715 94.0609 189.72 94.0378 189.73C94.0147 189.74 93.9939 189.754 93.9764 189.772C88.1715 194.946 85.4617 201.148 84.9011 204.892C84.8944 204.942 84.9078 204.993 84.9385 205.033C84.9691 205.074 85.0144 205.101 85.0646 205.108L85.1055 205.096Z" fill="white"/>
<path d="M150.385 76.6337L126.833 90.0657C126.302 90.3775 125.861 90.8219 125.554 91.3553C125.247 91.8888 125.084 92.4929 125.081 93.1084V115.207C125.096 115.817 125.272 116.413 125.592 116.933C125.912 117.454 126.364 117.88 126.902 118.169C127.44 118.459 128.044 118.601 128.655 118.581C129.265 118.561 129.859 118.38 130.377 118.057L137.093 114.273L137.374 114.728C137.386 114.745 137.402 114.759 137.42 114.769H137.456C137.969 115.108 138.875 115.598 139.079 115.697C139.126 115.713 139.178 115.709 139.222 115.687C139.267 115.665 139.301 115.627 139.318 115.581L140.486 112.316L153.918 104.625C154.453 104.316 154.897 103.872 155.205 103.336C155.512 102.801 155.673 102.194 155.67 101.576V79.472C155.688 76.9549 151.968 75.7285 150.385 76.6337Z" fill="#4A6FB0"/>
<path opacity="0.2" d="M137.368 114.751C137.38 114.768 137.396 114.782 137.414 114.792H137.449C137.963 115.131 138.869 115.622 139.073 115.721C139.049 115.716 139.026 115.706 139.006 115.692C138.986 115.678 138.969 115.66 138.956 115.639L137.847 113.835L138.063 113.712L137.087 114.296L137.368 114.751Z" fill="white"/>
<path opacity="0.4" d="M129.016 93.3945C129.244 92.9433 129.564 92.5452 129.956 92.2265C130.091 92.1179 130.233 92.0203 130.383 91.9345L153.93 78.5025C154.108 78.3998 154.309 78.3458 154.515 78.346C154.72 78.3462 154.922 78.4006 155.1 78.5037C155.277 78.6067 155.425 78.7548 155.527 78.933C155.629 79.1113 155.682 79.3133 155.682 79.5187C155.682 76.99 151.956 75.7636 150.379 76.6688L126.826 90.1008C126.279 90.4158 125.829 90.8742 125.524 91.4264L129.016 93.3945Z" fill="white"/>
<path opacity="0.2" d="M128.608 117.07V94.9713C128.599 94.8333 128.599 94.6948 128.608 94.5567C128.667 94.1501 128.791 93.7556 128.976 93.3887L125.472 91.4089C125.175 91.9326 125.018 92.5239 125.016 93.1259V115.224C125.031 115.835 125.208 116.431 125.528 116.951C125.848 117.471 126.299 117.898 126.837 118.187C127.375 118.476 127.98 118.618 128.59 118.599C129.201 118.579 129.795 118.398 130.313 118.074C130.137 118.165 129.942 118.21 129.744 118.205C129.546 118.2 129.353 118.144 129.182 118.044C129.012 117.944 128.87 117.801 128.769 117.631C128.669 117.461 128.613 117.268 128.608 117.07Z" fill="white"/>
<path d="M145.415 105.004C145.369 106.056 144.247 107.79 143.149 108.462L143.056 108.52C141.888 109.192 140.761 108.859 140.615 107.778L145.415 105.004Z" fill="white"/>
<path d="M149.632 100.151C149.929 100.262 150.023 100.887 149.818 101.384C149.716 101.655 149.524 101.883 149.275 102.032L148.627 102.411L147.979 102.785L143.015 105.647L136.854 109.209C136.34 109.501 136.124 109.361 136.1 108.789C136.095 108.393 136.218 108.005 136.451 107.685C137.122 106.621 137.562 105.427 137.741 104.181C137.908 103.021 137.986 101.849 137.975 100.677C137.961 100.002 137.998 99.3261 138.086 98.6564C138.436 96.6315 139.337 94.7422 140.691 93.196C140.864 93.0426 140.995 92.8469 141.071 92.6279C141.147 92.409 141.165 92.1741 141.123 91.9462C141.095 91.2384 141.25 90.5355 141.572 89.9046C141.895 89.2737 142.373 88.736 142.962 88.3429C143.268 88.1504 143.633 88.0738 143.99 88.1268C144.656 88.2495 144.936 88.8276 144.819 89.8088C144.749 90.3928 144.819 90.5388 145.269 90.5621C147.021 90.6672 147.938 91.8469 148.008 94.107C148.043 95.2108 148.066 96.3145 148.142 97.3891C148.169 98.1216 148.382 98.8353 148.761 99.4623C148.969 99.7802 149.274 100.022 149.632 100.151ZM144.043 99.328L144.545 93.3128L141.456 95.0998L141.987 100.513L144.06 99.3455L144.043 99.328ZM143.032 103.62C143.466 103.364 143.832 103.005 144.096 102.576C144.361 102.146 144.517 101.659 144.551 101.156C144.551 100.268 143.926 99.9528 143.027 100.473C142.592 100.723 142.226 101.077 141.961 101.503C141.697 101.929 141.541 102.413 141.508 102.914C141.508 103.784 142.139 104.14 143.032 103.62ZM142.991 89.8029C142.808 89.9223 142.655 90.0835 142.545 90.2733C142.436 90.4631 142.372 90.6761 142.361 90.895C142.361 91.2921 142.641 91.4498 142.986 91.2571C143.169 91.1382 143.321 90.978 143.431 90.7893C143.54 90.6006 143.604 90.3887 143.616 90.1708C143.616 89.7679 143.336 89.5868 142.986 89.8029" fill="white"/>
<defs>
<linearGradient id="paint0_linear" x1="187.651" y1="0" x2="187.651" y2="354.661" gradientUnits="userSpaceOnUse">
<stop stop-color="#25B1FF"/>
<stop offset="1" stop-color="#0F4462" stop-opacity="0"/>
</linearGradient>
</defs>
</svg>
