<svg width="28" height="28" viewBox="0 0 28 28" fill="none" xmlns="http://www.w3.org/2000/svg">
<circle cx="14" cy="14" r="14" fill="url(#paint0_linear_381:42)"/>
<path d="M22.7326 8.70275C22.1064 8.98025 21.4336 9.16775 20.7264 9.2525C21.4561 8.81584 22.0021 8.1286 22.2624 7.319C21.5768 7.72624 20.8264 8.0129 20.0439 8.1665C19.5177 7.60465 18.8207 7.23224 18.0611 7.10711C17.3016 6.98197 16.5219 7.11109 15.8433 7.47444C15.1647 7.83779 14.625 8.41502 14.308 9.11653C13.991 9.81803 13.9145 10.6046 14.0904 11.354C12.7011 11.2842 11.3421 10.9232 10.1014 10.2942C8.86079 9.66519 7.76626 8.78237 6.88887 7.703C6.58887 8.2205 6.41638 8.8205 6.41638 9.4595C6.41604 10.0347 6.5577 10.6012 6.82878 11.1085C7.09987 11.6159 7.492 12.0485 7.97038 12.368C7.41558 12.3503 6.87303 12.2004 6.38788 11.9307V11.9757C6.38782 12.7826 6.6669 13.5645 7.17776 14.189C7.68862 14.8135 8.3998 15.2419 9.19063 15.4017C8.67596 15.541 8.13638 15.5616 7.61263 15.4618C7.83575 16.156 8.27037 16.763 8.85565 17.1979C9.44093 17.6329 10.1476 17.8739 10.8766 17.8872C9.639 18.8588 8.11054 19.3858 6.53712 19.3835C6.25841 19.3836 5.97993 19.3673 5.70312 19.3348C7.30023 20.3616 9.15938 20.9066 11.0581 20.9045C17.4856 20.9045 20.9994 15.581 20.9994 10.964C20.9994 10.814 20.9956 10.6625 20.9889 10.5125C21.6723 10.0182 22.2623 9.40617 22.7311 8.705L22.7326 8.70275Z" fill="#082B44"/>
<defs>
<linearGradient id="paint0_linear_381:42" x1="14" y1="0" x2="14" y2="28" gradientUnits="userSpaceOnUse">
<stop stop-color="#65BDF9"/>
<stop offset="1" stop-color="#2084CC"/>
</linearGradient>
</defs>
</svg>
