<svg width="100vw" height="12vh" viewBox="0 0 1440 196" fill="none" xmlns="http://www.w3.org/2000/svg" preserveAspectRatio="none">
    <path fill-rule="evenodd" clip-rule="evenodd" d="M0 85L60 86.9974C120 89.2802 240 93.2751 360 111.823C480 130.37 600 163.185 720 165.183C840 167.18 960 138.36 1080 134.365C1200 130.37 1320 150.915 1380 161.188L1440 171.46V196H1380C1320 196 1200 196 1080 196C960 196 840 196 720 196C600 196 480 196 360 196C240 196 120 196 60 196H0V85Z" fill="white"/>
    <path fill-rule="evenodd" clip-rule="evenodd" d="M0 124.936L27 101.431C53 77.9249 107 30.9135 160 11.2343C213 -8.4449 267 -0.791882 320 22.7138C373 46.2195 427 85.5779 480 105.257C533 124.936 587 124.936 640 113.457C693 101.431 747 77.9249 800 70.2719C853 62.0722 907 70.2719 960 85.5779C1013 101.431 1067 124.936 1120 105.257C1173 85.5779 1227 22.7138 1280 22.7138C1333 22.7138 1387 85.5779 1413 117.283L1440 148.989V196H1413C1387 196 1333 196 1280 196C1227 196 1173 196 1120 196C1067 196 1013 196 960 196C907 196 853 196 800 196C747 196 693 196 640 196C587 196 533 196 480 196C427 196 373 196 320 196C267 196 213 196 160 196C107 196 53 196 27 196H0V124.936Z" fill="white" fill-opacity="0.34"/>
    <path fill-rule="evenodd" clip-rule="evenodd" d="M0 114.623H24C48 114.623 96 114.623 144 119.63C192 124.012 240 132.776 288 124.012C336 114.623 384 87.7053 432 87.7053C480 87.7053 528 114.623 576 101.477C624 87.7053 672 33.871 720 38.2529C768 42.6347 816 105.859 864 128.394C912 150.929 960 132.776 1008 119.63C1056 105.859 1104 97.0951 1152 110.241C1200 124.012 1248 159.693 1296 169.083C1344 177.847 1392 159.693 1416 150.929L1440 142.166V196H1416C1392 196 1344 196 1296 196C1248 196 1200 196 1152 196C1104 196 1056 196 1008 196C960 196 912 196 864 196C816 196 768 196 720 196C672 196 624 196 576 196C528 196 480 196 432 196C384 196 336 196 288 196C240 196 192 196 144 196C96 196 48 196 24 196H0V114.623Z" fill="white" fill-opacity="0.69"/>
</svg>
