<svg width="19" height="19" viewBox="0 0 19 19" fill="none" xmlns="http://www.w3.org/2000/svg">
<rect width="19" height="19" rx="5" fill="#75CDFF"/>
<g clip-path="url(#clip0_710_188)">
<path d="M14.3855 10.7222V11.9436C14.3855 12.6604 14.1141 13.2669 13.5712 13.7631V14.9972C13.5712 15.0566 13.5521 15.1054 13.514 15.1435C13.4758 15.1817 13.427 15.2008 13.3677 15.2008H12.9605C12.9011 15.2008 12.8524 15.1817 12.8142 15.1435C12.776 15.1054 12.7569 15.0566 12.7569 14.9972V14.2465C12.4898 14.3398 12.2183 14.3865 11.9427 14.3865H7.05695C6.78128 14.3865 6.50985 14.3398 6.24266 14.2465V14.9463C6.24266 15.0184 6.22252 15.0788 6.18223 15.1276C6.14194 15.1764 6.09422 15.2008 6.03909 15.2008H5.63195C5.57681 15.2008 5.5291 15.1764 5.48881 15.1276C5.44852 15.0788 5.42838 15.0184 5.42838 14.9463V13.7631C4.88552 13.2669 4.61409 12.6604 4.61409 11.9436V10.7222H14.3855ZM8.27838 8.07578C8.27838 8.13516 8.25929 8.18393 8.22112 8.2221C8.18295 8.26027 8.13418 8.27935 8.0748 8.27935C8.01543 8.27935 7.96666 8.26027 7.92849 8.2221C7.89032 8.18393 7.87123 8.13516 7.87123 8.07578C7.87123 8.01641 7.89032 7.96763 7.92849 7.92946C7.96666 7.89129 8.01543 7.87221 8.0748 7.87221C8.13418 7.87221 8.18295 7.89129 8.22112 7.92946C8.25929 7.96763 8.27838 8.01641 8.27838 8.07578ZM8.68552 7.66864C8.68552 7.72801 8.66643 7.77679 8.62826 7.81496C8.59009 7.85313 8.54132 7.87221 8.48195 7.87221C8.42257 7.87221 8.3738 7.85313 8.33563 7.81496C8.29746 7.77679 8.27838 7.72801 8.27838 7.66864C8.27838 7.60926 8.29746 7.56049 8.33563 7.52232C8.3738 7.48415 8.42257 7.46507 8.48195 7.46507C8.54132 7.46507 8.59009 7.48415 8.62826 7.52232C8.66643 7.56049 8.68552 7.60926 8.68552 7.66864ZM8.27838 7.2615C8.27838 7.32087 8.25929 7.36964 8.22112 7.40781C8.18295 7.44598 8.13418 7.46507 8.0748 7.46507C8.01543 7.46507 7.96666 7.44598 7.92849 7.40781C7.89032 7.36964 7.87123 7.32087 7.87123 7.2615C7.87123 7.20212 7.89032 7.15335 7.92849 7.11518C7.96666 7.07701 8.01543 7.05792 8.0748 7.05792C8.13418 7.05792 8.18295 7.07701 8.22112 7.11518C8.25929 7.15335 8.27838 7.20212 8.27838 7.2615ZM9.09266 7.2615C9.09266 7.32087 9.07358 7.36964 9.03541 7.40781C8.99724 7.44598 8.94847 7.46507 8.88909 7.46507C8.82972 7.46507 8.78094 7.44598 8.74277 7.40781C8.7046 7.36964 8.68552 7.32087 8.68552 7.2615C8.68552 7.20212 8.7046 7.15335 8.74277 7.11518C8.78094 7.07701 8.82972 7.05792 8.88909 7.05792C8.94847 7.05792 8.99724 7.07701 9.03541 7.11518C9.07358 7.15335 9.09266 7.20212 9.09266 7.2615ZM8.68552 6.85435C8.68552 6.91373 8.66643 6.9625 8.62826 7.00067C8.59009 7.03884 8.54132 7.05792 8.48195 7.05792C8.42257 7.05792 8.3738 7.03884 8.33563 7.00067C8.29746 6.9625 8.27838 6.91373 8.27838 6.85435C8.27838 6.79498 8.29746 6.74621 8.33563 6.70804C8.3738 6.66987 8.42257 6.65078 8.48195 6.65078C8.54132 6.65078 8.59009 6.66987 8.62826 6.70804C8.66643 6.74621 8.68552 6.79498 8.68552 6.85435ZM8.27838 6.44721C8.27838 6.50658 8.25929 6.55536 8.22112 6.59353C8.18295 6.6317 8.13418 6.65078 8.0748 6.65078C8.01543 6.65078 7.96666 6.6317 7.92849 6.59353C7.89032 6.55536 7.87123 6.50658 7.87123 6.44721C7.87123 6.38783 7.89032 6.33906 7.92849 6.30089C7.96666 6.26272 8.01543 6.24364 8.0748 6.24364C8.13418 6.24364 8.18295 6.26272 8.22112 6.30089C8.25929 6.33906 8.27838 6.38783 8.27838 6.44721ZM15.1998 9.70435V10.1115C15.1998 10.1709 15.1807 10.2196 15.1425 10.2578C15.1044 10.296 15.0556 10.3151 14.9962 10.3151H4.00338C3.944 10.3151 3.89523 10.296 3.85706 10.2578C3.81889 10.2196 3.7998 10.1709 3.7998 10.1115V9.70435C3.7998 9.64498 3.81889 9.59621 3.85706 9.55804C3.89523 9.51987 3.944 9.50078 4.00338 9.50078H4.61409V5.42935C4.61409 4.9798 4.77313 4.59598 5.09121 4.2779C5.40929 3.95982 5.79311 3.80078 6.24266 3.80078C6.7007 3.80078 7.09088 3.96618 7.4132 4.29699C7.60829 4.21641 7.8161 4.19096 8.03663 4.22065C8.25717 4.25033 8.45438 4.33304 8.62826 4.46875L8.76822 4.32879C8.81487 4.28214 8.86152 4.28214 8.90817 4.32879L9.17536 4.59598C9.22201 4.64263 9.22201 4.68929 9.17536 4.73594L7.17782 6.73348C7.13117 6.78013 7.08451 6.78013 7.03786 6.73348L6.77068 6.46629C6.72402 6.41964 6.72402 6.37299 6.77068 6.32634L6.91063 6.18638C6.75795 5.99129 6.67207 5.77076 6.65299 5.52478C6.6339 5.27879 6.68373 5.04978 6.80248 4.83772C6.64556 4.68929 6.45896 4.61507 6.24266 4.61507C6.01788 4.61507 5.82598 4.69459 5.66694 4.85363C5.5079 5.01267 5.42838 5.20458 5.42838 5.42935V9.50078H14.9962C15.0556 9.50078 15.1044 9.51987 15.1425 9.55804C15.1807 9.59621 15.1998 9.64498 15.1998 9.70435ZM9.4998 6.85435C9.4998 6.91373 9.48072 6.9625 9.44255 7.00067C9.40438 7.03884 9.35561 7.05792 9.29623 7.05792C9.23686 7.05792 9.18809 7.03884 9.14992 7.00067C9.11175 6.9625 9.09266 6.91373 9.09266 6.85435C9.09266 6.79498 9.11175 6.74621 9.14992 6.70804C9.18809 6.66987 9.23686 6.65078 9.29623 6.65078C9.35561 6.65078 9.40438 6.66987 9.44255 6.70804C9.48072 6.74621 9.4998 6.79498 9.4998 6.85435ZM9.09266 6.44721C9.09266 6.50658 9.07358 6.55536 9.03541 6.59353C8.99724 6.6317 8.94847 6.65078 8.88909 6.65078C8.82972 6.65078 8.78094 6.6317 8.74277 6.59353C8.7046 6.55536 8.68552 6.50658 8.68552 6.44721C8.68552 6.38783 8.7046 6.33906 8.74277 6.30089C8.78094 6.26272 8.82972 6.24364 8.88909 6.24364C8.94847 6.24364 8.99724 6.26272 9.03541 6.30089C9.07358 6.33906 9.09266 6.38783 9.09266 6.44721ZM8.68552 6.04007C8.68552 6.09944 8.66643 6.14821 8.62826 6.18638C8.59009 6.22455 8.54132 6.24364 8.48195 6.24364C8.42257 6.24364 8.3738 6.22455 8.33563 6.18638C8.29746 6.14821 8.27838 6.09944 8.27838 6.04007C8.27838 5.98069 8.29746 5.93192 8.33563 5.89375C8.3738 5.85558 8.42257 5.8365 8.48195 5.8365C8.54132 5.8365 8.59009 5.85558 8.62826 5.89375C8.66643 5.93192 8.68552 5.98069 8.68552 6.04007ZM9.90695 6.44721C9.90695 6.50658 9.88786 6.55536 9.84969 6.59353C9.81152 6.6317 9.76275 6.65078 9.70338 6.65078C9.644 6.65078 9.59523 6.6317 9.55706 6.59353C9.51889 6.55536 9.4998 6.50658 9.4998 6.44721C9.4998 6.38783 9.51889 6.33906 9.55706 6.30089C9.59523 6.26272 9.644 6.24364 9.70338 6.24364C9.76275 6.24364 9.81152 6.26272 9.84969 6.30089C9.88786 6.33906 9.90695 6.38783 9.90695 6.44721ZM9.4998 6.04007C9.4998 6.09944 9.48072 6.14821 9.44255 6.18638C9.40438 6.22455 9.35561 6.24364 9.29623 6.24364C9.23686 6.24364 9.18809 6.22455 9.14992 6.18638C9.11175 6.14821 9.09266 6.09944 9.09266 6.04007C9.09266 5.98069 9.11175 5.93192 9.14992 5.89375C9.18809 5.85558 9.23686 5.8365 9.29623 5.8365C9.35561 5.8365 9.40438 5.85558 9.44255 5.89375C9.48072 5.93192 9.4998 5.98069 9.4998 6.04007ZM9.09266 5.63292C9.09266 5.6923 9.07358 5.74107 9.03541 5.77924C8.99724 5.81741 8.94847 5.8365 8.88909 5.8365C8.82972 5.8365 8.78094 5.81741 8.74277 5.77924C8.7046 5.74107 8.68552 5.6923 8.68552 5.63292C8.68552 5.57355 8.7046 5.52478 8.74277 5.48661C8.78094 5.44844 8.82972 5.42935 8.88909 5.42935C8.94847 5.42935 8.99724 5.44844 9.03541 5.48661C9.07358 5.52478 9.09266 5.57355 9.09266 5.63292ZM10.3141 6.04007C10.3141 6.09944 10.295 6.14821 10.2568 6.18638C10.2187 6.22455 10.1699 6.24364 10.1105 6.24364C10.0511 6.24364 10.0024 6.22455 9.9642 6.18638C9.92603 6.14821 9.90695 6.09944 9.90695 6.04007C9.90695 5.98069 9.92603 5.93192 9.9642 5.89375C10.0024 5.85558 10.0511 5.8365 10.1105 5.8365C10.1699 5.8365 10.2187 5.85558 10.2568 5.89375C10.295 5.93192 10.3141 5.98069 10.3141 6.04007ZM9.90695 5.63292C9.90695 5.6923 9.88786 5.74107 9.84969 5.77924C9.81152 5.81741 9.76275 5.8365 9.70338 5.8365C9.644 5.8365 9.59523 5.81741 9.55706 5.77924C9.51889 5.74107 9.4998 5.6923 9.4998 5.63292C9.4998 5.57355 9.51889 5.52478 9.55706 5.48661C9.59523 5.44844 9.644 5.42935 9.70338 5.42935C9.76275 5.42935 9.81152 5.44844 9.84969 5.48661C9.88786 5.52478 9.90695 5.57355 9.90695 5.63292ZM10.7212 5.63292C10.7212 5.6923 10.7021 5.74107 10.664 5.77924C10.6258 5.81741 10.577 5.8365 10.5177 5.8365C10.4583 5.8365 10.4095 5.81741 10.3713 5.77924C10.3332 5.74107 10.3141 5.6923 10.3141 5.63292C10.3141 5.57355 10.3332 5.52478 10.3713 5.48661C10.4095 5.44844 10.4583 5.42935 10.5177 5.42935C10.577 5.42935 10.6258 5.44844 10.664 5.48661C10.7021 5.52478 10.7212 5.57355 10.7212 5.63292Z" fill="#275373"/>
</g>
<defs>
<clipPath id="clip0_710_188">
<rect width="11.4" height="11.4" fill="white" transform="translate(3.7998 3.80078)"/>
</clipPath>
</defs>
</svg>
