<svg width="19" height="19" viewBox="0 0 19 19" fill="none" xmlns="http://www.w3.org/2000/svg">
<rect width="19" height="19" rx="5" fill="#75CDFF"/>
<path d="M13.9786 8.66107V5.30522C13.9786 5.19397 13.9357 5.08727 13.8594 5.00861C13.783 4.92994 13.6795 4.88574 13.5715 4.88574H5.42862C5.32064 4.88574 5.21708 4.92994 5.14073 5.00861C5.06437 5.08727 5.02148 5.19397 5.02148 5.30522V8.66107C4.69753 8.66107 4.38686 8.79365 4.1578 9.02966C3.92873 9.26566 3.80005 9.58575 3.80005 9.91951V14.1143H4.71612V13.2754H14.284V14.1143H15.2V9.91951C15.2 9.58575 15.0714 9.26566 14.8423 9.02966C14.6132 8.79365 14.3026 8.66107 13.9786 8.66107ZM9.09291 8.66107H6.03933V7.82211C6.03933 7.71085 6.08223 7.60416 6.15858 7.52549C6.23494 7.44682 6.3385 7.40263 6.44648 7.40263H8.68576C8.79374 7.40263 8.8973 7.44682 8.97366 7.52549C9.05001 7.60416 9.09291 7.71085 9.09291 7.82211V8.66107ZM9.90719 7.82211C9.90719 7.71085 9.95009 7.60416 10.0264 7.52549C10.1028 7.44682 10.2064 7.40263 10.3143 7.40263H12.5536C12.6616 7.40263 12.7652 7.44682 12.8415 7.52549C12.9179 7.60416 12.9608 7.71085 12.9608 7.82211V8.66107H9.90719V7.82211Z" fill="#275373"/>
</svg>
