<svg width="145" height="56" viewBox="0 0 145 56" fill="none" xmlns="http://www.w3.org/2000/svg">
    <g clip-path="url(#clip0)">
        <path d="M43.9842 28.0418C43.9842 33.0783 43.9715 38.1122 43.9994 43.1461C44.0196 43.5325 43.9213 43.9159 43.7176 44.2452C43.5138 44.5745 43.2144 44.834 42.8591 44.9892C41.8734 45.5075 40.9003 46.0435 39.9222 46.572C34.4455 49.5385 28.9687 52.5034 23.4919 55.4666C23.3095 55.5652 23.1194 55.6512 22.937 55.7498C22.6544 55.912 22.3342 55.9973 22.0083 55.9973C21.6823 55.9973 21.3621 55.912 21.0796 55.7498C20.1623 55.261 19.2458 54.7697 18.3302 54.2758L1.26638 45.055C1.07643 44.9508 0.892044 44.8369 0.713976 44.7136C0.510086 44.5905 0.339512 44.4195 0.217157 44.2154C0.0948013 44.0114 0.0243864 43.7805 0.0120636 43.543C0.0120636 43.318 -0.0107422 43.093 -0.0107422 42.8705C-0.00398491 33.0353 -0.000606273 23.1992 -0.000606273 13.3623C-0.000606273 12.9856 0.0374034 12.6038 0.0703451 12.2297C0.0908558 12.0159 0.165595 11.8109 0.287515 11.634C0.409434 11.457 0.574515 11.314 0.767189 11.2183C1.88383 10.593 3.00638 9.97186 4.13485 9.35495C9.68257 6.35803 15.2303 3.3569 20.778 0.351559C21.5813 -0.0833136 22.3237 -0.136408 23.1524 0.316163C27.2456 2.54952 31.3464 4.7694 35.4548 6.97579C37.9212 8.30737 40.3851 9.64233 42.8464 10.9807C43.0658 11.1044 43.2758 11.2438 43.4749 11.3978C43.6362 11.5268 43.7657 11.691 43.8536 11.8777C43.9414 12.0644 43.9853 12.2687 43.9817 12.4749C43.9817 12.6645 43.9817 12.8542 43.9817 13.0438C43.9867 18.0431 43.9876 23.0425 43.9842 28.0418ZM4.70753 12.5052C4.81395 12.571 4.8773 12.6165 4.96092 12.6544C10.5475 15.68 16.1383 18.7098 21.7333 21.7438C21.815 21.796 21.91 21.8238 22.007 21.8238C22.104 21.8238 22.199 21.796 22.2807 21.7438C27.7693 18.7654 33.2595 15.7912 38.7515 12.8213C38.9238 12.7277 39.0936 12.6291 39.3039 12.5103L38.9948 12.3308L26.8798 5.75207C25.3392 4.92278 23.8188 4.1036 22.2731 3.28695C22.1896 3.23438 22.093 3.20648 21.9943 3.20648C21.8957 3.20648 21.799 3.23438 21.7156 3.28695C21.224 3.55495 20.7223 3.79262 20.2307 4.07326C15.1897 6.80554 10.1471 9.54204 5.10283 12.2828L4.70753 12.5052ZM23.6186 51.9472C24.0975 51.707 24.5232 51.5123 24.9337 51.2898C27.8208 49.7273 30.7036 48.1614 33.5822 46.5922C35.9473 45.3044 38.3022 44.0167 40.6469 42.7289C40.7271 42.6953 40.7946 42.6374 40.8401 42.5635C40.8855 42.4896 40.9066 42.4033 40.9003 42.3168C40.9003 33.3614 40.9003 24.4053 40.9003 15.4482C40.9003 15.3597 40.9003 15.2687 40.8775 15.1145C40.3327 15.385 39.8335 15.6201 39.3571 15.873C36.2826 17.5333 33.2148 19.1952 30.1537 20.8588C28.2457 21.8929 26.3528 22.9397 24.4269 23.9485C23.8365 24.2569 23.5831 24.6185 23.5857 25.2885C23.6144 34.0298 23.6211 42.7702 23.6059 51.5098L23.6186 51.9472ZM3.24289 15.1701L3.11872 15.2181V41.7176C3.11872 41.9072 3.11872 42.0968 3.13646 42.2865C3.13953 42.397 3.17309 42.5046 3.23344 42.5974C3.29379 42.6901 3.37859 42.7645 3.47855 42.8123C4.47187 43.3332 5.46265 43.8565 6.45597 44.3749C6.55764 44.4201 6.66168 44.4597 6.76765 44.4937V44.1068C6.76765 41.5229 6.76765 38.9364 6.79046 36.3499C6.78747 35.7387 6.81623 35.1277 6.87661 34.5194C6.89298 34.3965 6.93755 34.2789 7.00685 34.176C7.07615 34.073 7.16831 33.9874 7.27618 33.9258C7.38404 33.8641 7.5047 33.8281 7.62878 33.8206C7.75285 33.813 7.877 33.8342 7.99156 33.8823C8.27617 33.9743 8.55182 34.0919 8.81511 34.2337C11.1869 35.5308 13.546 36.8455 15.9102 38.1349C16.2014 38.2633 16.4463 38.4774 16.6121 38.7485C16.7778 39.0197 16.8566 39.3349 16.8377 39.6519C16.8149 43.0121 16.8377 46.3748 16.8377 49.7349C16.8293 49.8244 16.8493 49.9142 16.8947 49.9917C16.9402 50.0693 17.0089 50.1307 17.0911 50.1673C17.8513 50.5844 18.6115 51.0168 19.3717 51.4314C19.6783 51.5983 20.0001 51.7374 20.3853 51.9194C20.4131 51.3101 20.4587 50.7614 20.4587 50.2128C20.4587 41.9974 20.4587 33.7828 20.4587 25.5691C20.4587 24.3682 20.4942 24.4541 19.3945 23.8574C14.4769 21.1926 9.55418 18.5252 4.62644 15.8553C4.17792 15.6126 3.70407 15.4027 3.24289 15.1701ZM8.6732 36.173C8.6732 36.2968 8.6504 36.3626 8.6504 36.4258C8.6504 39.4328 8.658 42.4398 8.6732 45.4469C8.66777 45.5157 8.68386 45.5845 8.71926 45.6438C8.75466 45.7031 8.80762 45.75 8.87085 45.7781C10.8119 46.8063 12.7546 47.8387 14.699 48.8753C14.7749 48.9116 14.8527 48.9436 14.9321 48.9714C14.9321 48.85 14.9499 48.764 14.9499 48.6806C14.9499 45.7427 14.96 42.8048 14.9803 39.8668C14.9809 39.7933 14.9585 39.7214 14.9163 39.6612C14.874 39.6009 14.814 39.5553 14.7446 39.5306L10.8727 37.3941L8.6732 36.173Z" fill="black"/>
        <path d="M4.70312 12.5053L5.10349 12.2828C10.1478 9.5421 15.1904 6.80224 20.2313 4.06321C20.7229 3.79268 21.2247 3.53985 21.7163 3.28701C21.7997 3.23444 21.8963 3.20654 21.995 3.20654C22.0937 3.20654 22.1903 3.23444 22.2737 3.28701C23.7941 4.11631 25.3474 4.93549 26.8805 5.76478L38.9955 12.3233L39.3046 12.5028C39.0943 12.6216 38.9245 12.7202 38.7522 12.8138C33.2602 15.7837 27.7699 18.7579 22.2813 21.7362C22.1997 21.7885 22.1047 21.8163 22.0077 21.8163C21.9106 21.8163 21.8157 21.7885 21.734 21.7362C16.139 18.7073 10.5423 15.68 4.94385 12.6545C4.8729 12.6166 4.81462 12.571 4.70312 12.5053Z" fill="#4BC4F9"/>
        <path d="M23.6143 51.9497V51.5098C23.6143 42.7702 23.6075 34.0298 23.594 25.2885C23.594 24.6185 23.8474 24.2569 24.4353 23.9485C26.356 22.9371 28.254 21.8929 30.1621 20.8589C33.2197 19.2003 36.2782 17.5408 39.3376 15.8806C39.8191 15.6277 40.3182 15.3749 40.858 15.1221C40.858 15.2763 40.8808 15.3749 40.8808 15.4558C40.8808 24.4145 40.8808 33.3707 40.8808 42.3244C40.8871 42.4109 40.866 42.4972 40.8205 42.5711C40.7751 42.645 40.7075 42.7029 40.6274 42.7365C38.2708 44.0209 35.9159 45.3087 33.5627 46.5998C30.6824 48.1674 27.7996 49.7332 24.9142 51.2974C24.5189 51.5149 24.0932 51.7095 23.6143 51.9497ZM39.1526 24.5249H39.1121C39.1121 23.5869 39.1323 22.6464 39.1121 21.7084C39.1178 21.5498 39.0812 21.3926 39.0059 21.2528C38.9307 21.113 38.8196 20.9957 38.684 20.9129C38.5483 20.83 38.3931 20.7846 38.2341 20.7814C38.0751 20.7781 37.9181 20.8171 37.7792 20.8942C36.3804 21.6123 35.0096 22.3733 33.6311 23.1268C33.5053 23.1934 33.3984 23.2907 33.3204 23.4096C33.2424 23.5285 33.1959 23.6652 33.1851 23.8069C33.1572 24.1153 33.137 24.4238 33.137 24.7348C33.137 26.1389 33.137 27.5429 33.137 28.947C33.137 29.2731 33.1547 29.5993 33.1851 29.9254C33.2459 30.5702 33.7426 30.8837 34.4039 30.6839C34.6719 30.6012 34.9314 30.4937 35.1793 30.3628C35.9243 29.9735 36.6617 29.5715 37.3966 29.1669C37.7919 28.952 38.1897 28.7371 38.5698 28.4969C38.7129 28.4255 38.8362 28.3202 38.929 28.1901C39.0217 28.0601 39.0811 27.9093 39.1019 27.7511C39.1197 27.4982 39.1526 27.2707 39.1552 27.0305C39.1577 26.2037 39.1526 25.3694 39.1526 24.5249ZM39.1526 36.3904H39.1146C39.1146 35.4701 39.1323 34.5472 39.1146 33.6269C39.0969 32.8128 38.4203 32.426 37.655 32.8027C36.6921 33.2805 35.7495 33.7989 34.8043 34.3197C34.3913 34.5422 33.9909 34.7874 33.5956 35.0327C33.4689 35.1057 33.3638 35.2107 33.2908 35.3372C33.2178 35.4638 33.1796 35.6073 33.18 35.7533C33.1623 36.7646 33.137 37.8037 33.137 38.8277C33.137 39.8011 33.1522 40.7745 33.1902 41.7454C33.209 41.9699 33.2976 42.1829 33.4436 42.3547C33.7172 42.6859 34.1404 42.7517 34.6447 42.4887C35.9826 41.7934 37.3028 41.0653 38.623 40.3396C38.7586 40.2728 38.8748 40.1724 38.9604 40.048C39.046 39.9237 39.0982 39.7794 39.1121 39.6292C39.1323 39.389 39.1628 39.1488 39.1653 38.9086C39.1577 38.0692 39.1526 37.2349 39.1526 36.4081V36.3904ZM31.2491 40.9212C31.2491 40.2309 31.2491 39.5407 31.2491 38.853C31.2581 38.4656 31.2429 38.078 31.2035 37.6925C31.125 37.0629 30.6207 36.7823 29.9999 37.0301C29.5465 37.2118 29.1048 37.4212 28.6772 37.6571C27.7092 38.183 26.7513 38.724 25.791 39.2651C25.6608 39.3315 25.5517 39.4325 25.4756 39.557C25.3996 39.6816 25.3596 39.8247 25.3602 39.9705C25.3602 40.3396 25.3196 40.7088 25.3171 41.0779C25.3171 42.5005 25.3171 43.9231 25.3171 45.3457C25.3184 45.5869 25.3362 45.8276 25.3703 46.0663C25.4666 46.8096 26.0976 47.1459 26.8045 46.7793C28.1349 46.084 29.4424 45.3533 30.7575 44.6302C30.9177 44.5516 31.0512 44.4277 31.1413 44.2739C31.2314 44.1202 31.2742 43.9434 31.2643 43.7655C31.2441 42.825 31.2491 41.8769 31.2491 40.9287V40.9212ZM31.2491 28.9192C31.2491 28.014 31.2491 27.1114 31.2491 26.2063C31.2493 26.0426 31.234 25.8792 31.2035 25.7183C31.1756 25.5402 31.0823 25.3787 30.9419 25.2652C30.8014 25.1517 30.6238 25.0942 30.4433 25.1039C30.2165 25.0966 29.9911 25.1416 29.7845 25.2354C28.4229 25.9636 27.0715 26.7077 25.7301 27.4679C25.557 27.5968 25.4343 27.7819 25.383 27.9913C25.3296 28.2352 25.3091 28.4852 25.3222 28.7346C25.3222 30.0721 25.3222 31.407 25.3222 32.7445C25.3222 33.235 25.345 33.7255 25.3728 34.216C25.4083 34.8709 25.9759 35.2122 26.6398 34.9745C26.8363 34.9033 27.0276 34.8188 27.2125 34.7217C28.3173 34.1225 29.4145 33.5106 30.5244 32.9215C30.7677 32.8166 30.972 32.6382 31.1083 32.4114C31.2447 32.1847 31.3064 31.9209 31.2846 31.6574C31.2365 30.7547 31.2567 29.8344 31.2567 28.9268L31.2491 28.9192Z" fill="#4BC4F9"/>
        <path d="M3.24355 15.1702C3.70473 15.3977 4.17859 15.6076 4.6271 15.8503C9.55654 18.5236 14.4817 21.1977 19.4027 23.8727C20.5025 24.4694 20.467 24.3783 20.467 25.5844C20.467 33.7997 20.467 42.0143 20.467 50.228C20.467 50.7766 20.4214 51.3253 20.3935 51.9346C20.0109 51.7526 19.6891 51.6135 19.3799 51.4466C18.6197 51.0295 17.8595 50.5971 17.0993 50.1825C17.0171 50.1459 16.9485 50.0845 16.903 50.0069C16.8576 49.9294 16.8376 49.8396 16.8459 49.7501C16.8459 46.39 16.8181 43.0273 16.8459 39.6672C16.8648 39.3501 16.7861 39.0349 16.6203 38.7637C16.4546 38.4926 16.2097 38.2785 15.9185 38.1502C13.5442 36.8607 11.185 35.546 8.82337 34.2489C8.55829 34.1007 8.28006 33.9771 7.99223 33.8798C7.87766 33.8317 7.75351 33.8106 7.62944 33.8181C7.50537 33.8256 7.38471 33.8616 7.27684 33.9233C7.16897 33.9849 7.07681 34.0705 7.00751 34.1735C6.93821 34.2765 6.89364 34.394 6.87727 34.5169C6.81689 35.1252 6.78814 35.7362 6.79112 36.3475C6.77592 38.9339 6.77592 41.5204 6.76831 44.1044V44.4988C6.66234 44.4648 6.5583 44.4252 6.45663 44.38C5.46332 43.8617 4.47253 43.3383 3.47921 42.8175C3.37926 42.7696 3.29445 42.6952 3.2341 42.6025C3.17375 42.5097 3.1402 42.4021 3.13712 42.2916C3.12445 42.1019 3.11938 41.9123 3.11938 41.7227V15.2233L3.24355 15.1702ZM10.8049 26.9067C10.8049 25.9156 10.8049 24.927 10.8049 23.9359C10.8078 23.7423 10.7548 23.5519 10.6524 23.3874C10.55 23.2229 10.4024 23.0912 10.2272 23.008C9.10211 22.3911 7.97956 21.7716 6.8494 21.1623C6.60696 21.0344 6.35229 20.9311 6.08921 20.8539C5.96361 20.8045 5.82807 20.7855 5.6937 20.7985C5.55933 20.8115 5.42996 20.8561 5.31621 20.9286C5.20246 21.0012 5.10757 21.0996 5.03932 21.2158C4.97107 21.332 4.9314 21.4627 4.92358 21.5972C4.91091 21.759 4.90837 21.9233 4.91091 22.0877C4.91091 23.9485 4.91091 25.8094 4.92358 27.6702C4.91721 27.8296 4.9565 27.9875 5.03683 28.1254C5.11716 28.2633 5.23521 28.3756 5.37716 28.449C5.90423 28.7448 6.42369 29.0558 6.95583 29.3389C7.80978 29.794 8.65866 30.2567 9.53542 30.6688C9.66638 30.7411 9.81407 30.7777 9.96368 30.775C10.1133 30.7724 10.2596 30.7306 10.3879 30.6538C10.5162 30.5769 10.6221 30.4678 10.6948 30.3374C10.7675 30.2069 10.8047 30.0596 10.8024 29.9103C10.8125 28.9116 10.8049 27.913 10.8049 26.9117V26.9067ZM12.7181 28.9622C12.7181 29.8749 12.7384 30.7877 12.7181 31.7004C12.7076 31.9465 12.7694 32.1904 12.8959 32.4019C13.0224 32.6135 13.2081 32.7836 13.4301 32.8912C13.5011 32.9317 13.5695 32.9747 13.6405 33.0126C14.464 33.4652 15.2876 33.9177 16.1136 34.3627C16.4937 34.57 16.8738 34.7748 17.2767 34.9493C17.9862 35.2653 18.602 34.8911 18.6121 34.1579C18.6121 33.8646 18.6324 33.5714 18.6324 33.2806C18.6324 31.6094 18.6121 29.9381 18.6197 28.2669C18.6234 28.0429 18.5597 27.823 18.4369 27.6355C18.314 27.448 18.1376 27.3016 17.9305 27.2151C17.0385 26.7373 16.1567 26.2443 15.2673 25.7664C14.9068 25.5579 14.5336 25.3721 14.1498 25.2102C13.3136 24.8916 12.746 25.2506 12.7282 26.0976C12.7054 27.0533 12.7181 28.009 12.7181 28.9673V28.9622Z" fill="#4BC4F9"/>
        <path d="M8.67393 36.178L10.8734 37.3941L14.7327 39.5381C14.8021 39.5628 14.8621 39.6085 14.9043 39.6687C14.9465 39.729 14.9689 39.8009 14.9683 39.8744C14.9565 42.8123 14.9506 45.7502 14.9506 48.6882C14.9506 48.7716 14.9506 48.8576 14.9329 48.9789C14.8534 48.9512 14.7756 48.9191 14.6997 48.8828C12.7604 47.8513 10.8177 46.8189 8.87158 45.7856C8.80835 45.7576 8.75538 45.7107 8.71998 45.6514C8.68458 45.5921 8.66849 45.5233 8.67393 45.4544C8.67393 42.4474 8.66633 39.4404 8.65112 36.4333C8.65112 36.3676 8.66126 36.3019 8.67393 36.178Z" fill="#FAFBFC"/>
        <path d="M39.1527 24.525C39.1527 25.3619 39.1527 26.1962 39.1527 27.0306C39.1527 27.2834 39.1172 27.511 39.0995 27.7512C39.0787 27.9094 39.0193 28.0602 38.9265 28.1902C38.8338 28.3202 38.7104 28.4256 38.5674 28.497C38.1873 28.7498 37.7894 28.9521 37.3941 29.167C36.6593 29.5716 35.9219 29.9736 35.1769 30.3629C34.929 30.4938 34.6694 30.6013 34.4015 30.684C33.7401 30.8838 33.2435 30.5702 33.1827 29.9255C33.1523 29.5994 33.1345 29.2732 33.1345 28.9471C33.1345 27.5413 33.1345 26.1372 33.1345 24.7349C33.1345 24.4239 33.1548 24.1154 33.1827 23.807C33.1934 23.6653 33.24 23.5286 33.318 23.4096C33.3959 23.2907 33.5028 23.1934 33.6287 23.1268C35.0071 22.3683 36.378 21.6098 37.7768 20.8943C37.9157 20.8171 38.0727 20.7782 38.2317 20.7814C38.3907 20.7847 38.5459 20.8301 38.6815 20.9129C38.8172 20.9958 38.9283 21.1131 39.0035 21.2529C39.0787 21.3927 39.1154 21.5499 39.1096 21.7084C39.135 22.6465 39.1096 23.587 39.1096 24.525H39.1527ZM35.0375 28.3934C35.78 27.9863 36.454 27.6349 37.1179 27.243C37.152 27.2104 37.1789 27.1711 37.1968 27.1276C37.2147 27.084 37.2232 27.0372 37.2218 26.9901C37.2218 25.8271 37.2218 24.6641 37.2218 23.501C37.2218 23.4277 37.2041 23.3569 37.1914 23.2482C37.0774 23.2962 36.9938 23.3266 36.9152 23.367C36.378 23.6477 35.8433 23.9334 35.3011 24.2039C35.221 24.2347 35.1531 24.2905 35.1075 24.3629C35.0618 24.4354 35.0408 24.5206 35.0477 24.6059C35.0477 25.7614 35.0477 26.9168 35.0477 28.0697L35.0375 28.3934Z" fill="black"/>
        <path d="M39.1526 36.4081C39.1526 37.245 39.1526 38.0793 39.1526 38.9162C39.1526 39.169 39.1197 39.3966 39.0994 39.6368C39.0856 39.787 39.0333 39.9312 38.9477 40.0556C38.8621 40.18 38.7459 40.2804 38.6103 40.3472C37.2901 41.0729 35.9699 41.801 34.632 42.4963C34.1252 42.7491 33.7045 42.6935 33.4309 42.3623C33.2849 42.1905 33.1963 41.9775 33.1775 41.753C33.1395 40.7821 33.1243 39.8087 33.1243 38.8353C33.1243 37.8113 33.1496 36.7848 33.1673 35.7608C33.1669 35.6149 33.2051 35.4714 33.2781 35.3448C33.3511 35.2183 33.4562 35.1132 33.5829 35.0403C33.9782 34.7874 34.3786 34.5498 34.7916 34.3273C35.7368 33.8216 36.6794 33.2982 37.6424 32.8103C38.4025 32.4336 39.0842 32.8103 39.1019 33.6345C39.1247 34.5548 39.1019 35.4777 39.1019 36.398L39.1526 36.4081ZM37.2014 35.0832C36.5198 35.4423 35.9015 35.776 35.2756 36.0946C35.2032 36.1242 35.1424 36.1764 35.1022 36.2434C35.062 36.3104 35.0446 36.3886 35.0526 36.4662C35.0526 37.6293 35.0526 38.7923 35.0374 39.9553C35.0374 40.0388 35.0374 40.1197 35.0552 40.241C35.1692 40.1879 35.2503 40.1551 35.3263 40.1146C35.8838 39.8138 36.4362 39.5053 36.9987 39.2145C37.0714 39.1869 37.1332 39.1365 37.1748 39.0708C37.2164 39.0052 37.2355 38.9279 37.2293 38.8505C37.2293 37.695 37.2293 36.5421 37.2293 35.3866C37.2268 35.3007 37.2141 35.2274 37.2014 35.0731V35.0832Z" fill="black"/>
        <path d="M31.249 40.9286C31.249 41.8767 31.249 42.8249 31.249 43.773C31.2589 43.9508 31.2161 44.1277 31.126 44.2814C31.0359 44.4352 30.9024 44.5591 30.7422 44.6377C29.4271 45.3608 28.1195 46.0915 26.7892 46.7868C26.0822 47.1534 25.4513 46.8171 25.355 46.0738C25.3209 45.8351 25.3031 45.5943 25.3018 45.3532C25.3018 43.9306 25.3018 42.508 25.3018 41.0854C25.3018 40.7162 25.3347 40.3471 25.3448 39.978C25.3443 39.8321 25.3842 39.689 25.4603 39.5645C25.5363 39.44 25.6455 39.3389 25.7756 39.2726C26.736 38.7315 27.6938 38.1904 28.6618 37.6645C29.0894 37.4287 29.5312 37.2193 29.9846 37.0375C30.6054 36.7847 31.1096 37.0704 31.1882 37.6999C31.2275 38.0855 31.2427 38.473 31.2338 38.8604C31.2338 39.5482 31.2338 40.2384 31.2338 40.9286H31.249ZM27.2326 44.4304C27.2747 44.4314 27.3167 44.4254 27.3568 44.4127C27.9928 44.089 28.6238 43.7654 29.2573 43.4291C29.2964 43.3993 29.3283 43.3611 29.3507 43.3174C29.373 43.2736 29.3853 43.2254 29.3865 43.1763C29.3865 41.9804 29.3865 40.7845 29.3865 39.5861C29.3809 39.5306 29.3707 39.4756 29.3561 39.4217C29.3218 39.4242 29.2879 39.4301 29.2548 39.4394C28.6111 39.7833 27.9624 40.1246 27.3289 40.4836C27.2892 40.5186 27.2577 40.5619 27.2367 40.6104C27.2157 40.6589 27.2056 40.7115 27.2073 40.7643C27.2073 41.3862 27.225 42.0057 27.2301 42.6251C27.2352 43.2446 27.2326 43.8109 27.2326 44.4304Z" fill="black"/>
        <path d="M31.2565 28.9267C31.2565 29.842 31.2363 30.7547 31.2565 31.67C31.2783 31.9335 31.2166 32.1973 31.0803 32.4241C30.9439 32.6508 30.7397 32.8292 30.4964 32.9341C29.3865 33.5232 28.2893 34.1351 27.1844 34.7343C26.9995 34.8314 26.8082 34.9159 26.6118 34.9871C25.958 35.2248 25.3904 34.8835 25.3448 34.2286C25.3169 33.7381 25.2966 33.2476 25.2941 32.7571C25.2941 31.4197 25.2941 30.0847 25.2941 28.7472C25.281 28.4978 25.3015 28.2478 25.3549 28.0039C25.4062 27.7945 25.5289 27.6094 25.7021 27.4805C27.0417 26.717 28.3932 25.9728 29.7564 25.248C29.963 25.1542 30.1884 25.1092 30.4153 25.1165C30.5957 25.1068 30.7734 25.1643 30.9138 25.2778C31.0542 25.3913 31.1475 25.5528 31.1755 25.7309C31.2059 25.8918 31.2212 26.0552 31.2211 26.2189C31.2591 27.119 31.2565 28.0216 31.2565 28.9267ZM29.4143 27.5184C29.3361 27.5432 29.2591 27.5719 29.1838 27.6044C28.6567 27.88 28.1347 28.1682 27.5975 28.4286C27.4645 28.486 27.3537 28.5846 27.2815 28.7099C27.2094 28.8352 27.1798 28.9805 27.1971 29.1239C27.2149 30.2187 27.2199 31.3109 27.2326 32.4108C27.2326 32.4689 27.2326 32.5271 27.2503 32.6054C27.3219 32.5804 27.3921 32.5517 27.4607 32.5195C28.0435 32.2161 28.6263 31.9051 29.2142 31.6068C29.2737 31.5824 29.3238 31.5394 29.3567 31.4842C29.3896 31.4291 29.4036 31.3647 29.3966 31.3008C29.3966 30.7143 29.3966 30.1277 29.4143 29.531C29.4169 28.8787 29.4143 28.2188 29.4143 27.5184Z" fill="black"/>
        <path d="M10.8048 26.9117C10.8048 27.923 10.8048 28.9116 10.8048 29.9103C10.8071 30.0595 10.77 30.2068 10.6972 30.3373C10.6245 30.4678 10.5186 30.5769 10.3903 30.6537C10.262 30.7305 10.1157 30.7723 9.96611 30.775C9.81649 30.7776 9.6688 30.741 9.53784 30.6688C8.66108 30.2566 7.8122 29.794 6.95825 29.3389C6.42612 29.0557 5.90665 28.7447 5.37958 28.4489C5.23763 28.3755 5.11958 28.2633 5.03925 28.1254C4.95892 27.9874 4.91963 27.8295 4.926 27.6702C4.926 25.8093 4.926 23.9485 4.91333 22.0876C4.91333 21.9233 4.91333 21.7589 4.926 21.5971C4.93382 21.4626 4.97349 21.3319 5.04174 21.2157C5.10999 21.0995 5.20488 21.0011 5.31863 20.9285C5.43239 20.856 5.56175 20.8114 5.69612 20.7984C5.83049 20.7854 5.96603 20.8044 6.09163 20.8538C6.35471 20.931 6.60938 21.0344 6.85182 21.1622C7.98198 21.7716 9.10453 22.391 10.2296 23.0079C10.4063 23.0895 10.5558 23.2202 10.66 23.3843C10.7643 23.5484 10.819 23.739 10.8175 23.9333C10.8175 24.9244 10.8175 25.913 10.8175 26.9041L10.8048 26.9117ZM6.82648 23.2405C6.81097 23.2943 6.79995 23.3493 6.79354 23.4049C6.79354 24.621 6.79354 25.8346 6.79354 27.0507C6.80223 27.1034 6.82269 27.1535 6.85339 27.1973C6.88409 27.241 6.92426 27.2774 6.97092 27.3035C7.536 27.6246 8.10868 27.9306 8.68136 28.239C8.76498 28.2845 8.85367 28.3174 8.95503 28.3629C8.96604 28.318 8.97367 28.2724 8.97783 28.2264C8.96516 26.985 8.95756 25.7436 8.93475 24.5022C8.92478 24.4496 8.90354 24.3998 8.87249 24.3561C8.84143 24.3125 8.8013 24.2761 8.75484 24.2493C8.31646 23.9965 7.86541 23.7639 7.4169 23.5287C7.23699 23.4327 7.03934 23.3442 6.82648 23.2405Z" fill="black"/>
        <path d="M12.718 28.9672C12.718 28.009 12.718 27.0533 12.718 26.0976C12.7358 25.2506 13.3034 24.8916 14.1396 25.2101C14.5233 25.3721 14.8966 25.5579 15.2571 25.7664C16.1465 26.2442 17.0308 26.7373 17.9203 27.2151C18.1274 27.3015 18.3038 27.448 18.4267 27.6355C18.5495 27.823 18.6132 28.0429 18.6095 28.2669C18.6095 29.9381 18.6095 31.6093 18.6222 33.2806C18.6222 33.5713 18.6044 33.8646 18.6019 34.1579C18.6019 34.8911 17.976 35.2653 17.2665 34.9493C16.8687 34.7748 16.4835 34.57 16.1034 34.3627C15.2773 33.9177 14.4538 33.4651 13.6302 33.0126C13.5593 32.9746 13.4909 32.9317 13.4199 32.8912C13.1973 32.785 13.0105 32.6162 12.8827 32.4055C12.7548 32.1949 12.6914 31.9515 12.7003 31.7054C12.7281 30.7927 12.7003 29.88 12.7003 28.9672H12.718ZM16.7952 32.6586C16.7952 31.3262 16.7952 30.0797 16.7952 28.8307C16.7863 28.7758 16.7656 28.7234 16.7346 28.6771C16.7035 28.6309 16.6628 28.5918 16.6153 28.5627C16.1085 28.2745 15.6194 27.9837 15.0949 27.7309C14.7351 27.5539 14.5881 27.6474 14.5881 28.0368C14.5881 29.1316 14.5881 30.2263 14.6084 31.3236C14.608 31.365 14.6163 31.406 14.6329 31.4439C14.6495 31.4818 14.674 31.5158 14.7047 31.5436C15.3787 31.9052 16.0553 32.2642 16.7952 32.6586Z" fill="black"/>
        <path d="M35.0374 28.401V28.0647C35.0374 26.9118 35.0577 25.7563 35.0374 24.6009C35.0306 24.5156 35.0515 24.4303 35.0972 24.3579C35.1429 24.2855 35.2108 24.2297 35.2908 24.1989C35.8331 23.9283 36.3677 23.6426 36.9049 23.362C36.9835 23.3215 37.0671 23.2912 37.1811 23.2432C37.1938 23.3443 37.209 23.4151 37.2116 23.496C37.2116 24.659 37.2116 25.8221 37.2116 26.9851C37.2129 27.0321 37.2044 27.079 37.1865 27.1225C37.1686 27.1661 37.1417 27.2054 37.1077 27.2379C36.4539 27.6298 35.7799 27.9939 35.0374 28.401Z" fill="#FAFBFC"/>
        <path d="M37.2012 35.073C37.2139 35.2272 37.2266 35.3005 37.2266 35.3764C37.2266 36.5318 37.2266 37.6848 37.2266 38.8402C37.2328 38.9176 37.2136 38.9949 37.1721 39.0606C37.1305 39.1262 37.0687 39.1767 36.996 39.2043C36.4334 39.4951 35.881 39.8035 35.3235 40.1044C35.2475 40.1448 35.1664 40.1777 35.0524 40.2308C35.0524 40.1094 35.0347 40.0285 35.0347 39.9451C35.0347 38.7821 35.0499 37.619 35.0499 36.456C35.0418 36.3783 35.0592 36.3001 35.0994 36.2332C35.1396 36.1662 35.2005 36.1139 35.2729 36.0843C35.9013 35.7658 36.5196 35.432 37.2012 35.073Z" fill="#FAFBFC"/>
        <path d="M27.2327 44.4305C27.2327 43.8111 27.2327 43.2194 27.2327 42.6253C27.2327 42.0311 27.2074 41.3864 27.2099 40.7644C27.2082 40.7116 27.2182 40.659 27.2393 40.6105C27.2603 40.562 27.2918 40.5187 27.3315 40.4838C27.965 40.1248 28.6137 39.7834 29.2574 39.4396C29.2904 39.4303 29.3244 39.4243 29.3587 39.4219C29.3733 39.4757 29.3835 39.5307 29.3891 39.5862C29.3891 40.7846 29.3891 41.9805 29.3891 43.1765C29.3879 43.2255 29.3756 43.2737 29.3533 43.3175C29.3309 43.3613 29.299 43.3995 29.2599 43.4293C28.634 43.7656 27.9929 44.0892 27.3594 44.4128C27.3185 44.4258 27.2756 44.4318 27.2327 44.4305Z" fill="#FAFBFC"/>
        <path d="M29.4144 27.5183C29.4144 28.2187 29.4144 28.8786 29.4144 29.541C29.4144 30.125 29.3967 30.7116 29.3967 31.3108C29.4037 31.3746 29.3897 31.439 29.3568 31.4942C29.3238 31.5494 29.2738 31.5924 29.2143 31.6167C28.6264 31.9151 28.0436 32.2261 27.4607 32.5295C27.3921 32.5617 27.322 32.5903 27.2504 32.6154C27.2504 32.537 27.2327 32.4789 27.2327 32.4207C27.2327 31.326 27.215 30.2337 27.1972 29.1339C27.1799 28.9904 27.2095 28.8452 27.2816 28.7199C27.3538 28.5946 27.4646 28.4959 27.5976 28.4386C28.1348 28.1858 28.6568 27.89 29.1838 27.6144C29.259 27.5785 29.336 27.5464 29.4144 27.5183Z" fill="#FAFBFC"/>
        <path d="M6.82663 23.2405C7.03948 23.3441 7.23713 23.4326 7.42464 23.5312C7.87316 23.7664 8.32421 24.0015 8.76258 24.2518C8.80905 24.2785 8.84918 24.315 8.88023 24.3586C8.91128 24.4023 8.93252 24.4521 8.9425 24.5046C8.9653 25.7461 8.9729 26.9875 8.98557 28.2289C8.98141 28.2749 8.97378 28.3205 8.96277 28.3654C8.86141 28.3199 8.77272 28.287 8.6891 28.2415C8.11642 27.9331 7.54374 27.6271 6.97866 27.306C6.932 27.2798 6.89183 27.2435 6.86113 27.1998C6.83043 27.156 6.80998 27.1059 6.80129 27.0532C6.78862 25.8371 6.80129 24.6235 6.80129 23.4073C6.80506 23.3511 6.81353 23.2953 6.82663 23.2405Z" fill="#FAFBFC"/>
        <path d="M16.7953 32.6586C16.0554 32.2642 15.3788 31.9001 14.7098 31.5386C14.6791 31.5108 14.6547 31.4768 14.6381 31.4389C14.6215 31.401 14.6131 31.36 14.6135 31.3186C14.6135 30.2264 14.5933 29.1316 14.5933 28.0318C14.5933 27.6424 14.7352 27.5489 15.1001 27.7259C15.6069 27.9787 16.1136 28.2695 16.6204 28.5577C16.668 28.5868 16.7087 28.6258 16.7397 28.6721C16.7708 28.7183 16.7915 28.7707 16.8004 28.8257C16.7978 30.0873 16.7953 31.3262 16.7953 32.6586Z" fill="#FAFBFC"/>
    </g>
    <path d="M67.02 32.52C67.22 33 67.32 33.3467 67.32 33.56C67.32 34.0667 66.9067 34.4933 66.08 34.84C65.6533 35.0267 65.3067 35.12 65.04 35.12C64.7867 35.12 64.5733 35.06 64.4 34.94C64.24 34.8067 64.12 34.6733 64.04 34.54C63.9067 34.2867 63.3867 33.08 62.48 30.92L61.86 30.96H59.34V33.22C59.34 33.5267 59.3267 33.76 59.3 33.92C59.2867 34.0667 59.2267 34.24 59.12 34.44C58.9333 34.8 58.4133 34.98 57.56 34.98C56.6267 34.98 56.08 34.7333 55.92 34.24C55.84 34.0133 55.8 33.6667 55.8 33.2V22.1C55.8 21.7933 55.8067 21.5667 55.82 21.42C55.8467 21.26 55.9133 21.08 56.02 20.88C56.2067 20.52 56.7267 20.34 57.58 20.34H61.9C63.0733 20.34 64.2133 20.7667 65.32 21.62C65.8533 22.0333 66.2933 22.5933 66.64 23.3C66.9867 24.0067 67.16 24.7933 67.16 25.66C67.16 27.1667 66.66 28.4067 65.66 29.38C65.9533 30.0867 66.4067 31.1333 67.02 32.52ZM59.34 27.42H61.9C62.2867 27.42 62.6733 27.2733 63.06 26.98C63.4467 26.6867 63.64 26.2467 63.64 25.66C63.64 25.0733 63.4467 24.6333 63.06 24.34C62.6733 24.0333 62.2733 23.88 61.86 23.88H59.34V27.42ZM77.0158 31.46H83.1758C83.4824 31.46 83.7091 31.4733 83.8558 31.5C84.0158 31.5133 84.1958 31.5733 84.3958 31.68C84.7558 31.8667 84.9358 32.3867 84.9358 33.24C84.9358 34.1733 84.6891 34.72 84.1958 34.88C83.9691 34.96 83.6224 35 83.1558 35H75.2358C74.3024 35 73.7558 34.7467 73.5958 34.24C73.5158 34.0267 73.4758 33.6867 73.4758 33.22V22.1C73.4758 21.42 73.6024 20.96 73.8558 20.72C74.1091 20.4667 74.5891 20.34 75.2958 20.34H83.1758C83.4824 20.34 83.7091 20.3533 83.8558 20.38C84.0158 20.3933 84.1958 20.4533 84.3958 20.56C84.7558 20.7467 84.9358 21.2667 84.9358 22.12C84.9358 23.0533 84.6891 23.6 84.1958 23.76C83.9691 23.84 83.6224 23.88 83.1558 23.88H77.0158V25.9H80.9758C81.2824 25.9 81.5091 25.9133 81.6558 25.94C81.8158 25.9533 81.9958 26.0133 82.1958 26.12C82.5558 26.3067 82.7358 26.8267 82.7358 27.68C82.7358 28.6133 82.4824 29.16 81.9758 29.32C81.7491 29.4 81.4024 29.44 80.9358 29.44H77.0158V31.46ZM100.748 20.96C100.882 20.72 101.075 20.56 101.328 20.48C101.582 20.4 101.895 20.36 102.268 20.36C102.655 20.36 102.962 20.3933 103.188 20.46C103.428 20.5267 103.602 20.6067 103.708 20.7C103.828 20.7933 103.915 20.9333 103.968 21.12C104.048 21.3333 104.088 21.6733 104.088 22.14V33.24C104.088 33.56 104.075 33.7933 104.048 33.94C104.035 34.0867 103.975 34.26 103.868 34.46C103.682 34.82 103.162 35 102.308 35C101.788 35 101.428 34.96 101.228 34.88C101.028 34.8 100.862 34.6733 100.728 34.5C97.7283 30.5 95.7549 27.8867 94.8083 26.66V33.24C94.8083 33.56 94.7949 33.7933 94.7683 33.94C94.7549 34.0867 94.6949 34.26 94.5883 34.46C94.4016 34.82 93.8816 35 93.0283 35C92.2016 35 91.6949 34.82 91.5083 34.46C91.4016 34.26 91.3349 34.08 91.3083 33.92C91.2949 33.76 91.2883 33.5267 91.2883 33.22V22.06C91.2883 21.5533 91.3483 21.1867 91.4683 20.96C91.6016 20.72 91.7949 20.56 92.0483 20.48C92.3016 20.4 92.6283 20.36 93.0283 20.36C93.4283 20.36 93.7416 20.4 93.9683 20.48C94.2083 20.5467 94.3749 20.6267 94.4683 20.72C94.5216 20.76 94.6749 20.9333 94.9283 21.24C97.7416 25.0667 99.6216 27.5933 100.568 28.82V22.06C100.568 21.5533 100.628 21.1867 100.748 20.96ZM111.701 20.32H122.821C123.248 20.32 123.561 20.3733 123.761 20.48C123.961 20.5733 124.095 20.7267 124.161 20.94C124.228 21.1533 124.261 21.4333 124.261 21.78C124.261 22.1267 124.228 22.4067 124.161 22.62C124.095 22.82 123.981 22.96 123.821 23.04C123.581 23.16 123.241 23.22 122.801 23.22H118.981V33.28C118.981 33.5867 118.968 33.8133 118.941 33.96C118.928 34.1067 118.868 34.28 118.761 34.48C118.668 34.6667 118.495 34.8 118.241 34.88C117.988 34.96 117.655 35 117.241 35C116.828 35 116.495 34.96 116.241 34.88C116.001 34.8 115.828 34.6667 115.721 34.48C115.628 34.28 115.568 34.1067 115.541 33.96C115.528 33.8 115.521 33.5667 115.521 33.26V23.22H111.681C111.255 23.22 110.941 23.1733 110.741 23.08C110.541 22.9733 110.408 22.8133 110.341 22.6C110.275 22.3867 110.241 22.1067 110.241 21.76C110.241 21.4133 110.275 21.14 110.341 20.94C110.408 20.7267 110.521 20.58 110.681 20.5C110.921 20.38 111.261 20.32 111.701 20.32Z" fill="white"/>
    <path d="M139.449 27.58L143.469 32C143.922 32.5067 144.149 32.9333 144.149 33.28C144.149 33.6267 143.889 34.0333 143.369 34.5C142.862 34.9667 142.429 35.2 142.069 35.2C141.722 35.2 141.316 34.9333 140.849 34.4L137.049 30.04L133.249 34.4C132.769 34.9333 132.356 35.2 132.009 35.2C131.676 35.2 131.242 34.9667 130.709 34.5C130.189 34.02 129.929 33.6133 129.929 33.28C129.929 32.9467 130.162 32.52 130.629 32L134.649 27.58L130.629 23.16C130.162 22.6667 129.929 22.2467 129.929 21.9C129.929 21.5533 130.189 21.1467 130.709 20.68C131.229 20.2 131.662 19.96 132.009 19.96C132.369 19.96 132.782 20.2267 133.249 20.76L137.049 25.12L140.849 20.76C141.329 20.2267 141.736 19.96 142.069 19.96C142.416 19.96 142.849 20.1933 143.369 20.66C143.889 21.1267 144.149 21.54 144.149 21.9C144.149 22.26 143.922 22.68 143.469 23.16L139.449 27.58Z" fill="#136695"/>
    <defs>
        <clipPath id="clip0">
            <rect width="44" height="56" fill="white"/>
        </clipPath>
    </defs>
</svg>
