<svg width="120" height="156" viewBox="0 0 120 176" fill="none" xmlns="http://www.w3.org/2000/svg">
    <g clip-path="url(#clip0)">
        <path d="M119.958 76.1134C119.958 89.7837 119.924 103.447 120 117.111C120.055 118.16 119.787 119.2 119.231 120.094C118.675 120.988 117.859 121.692 116.89 122.113C114.201 123.52 111.548 124.975 108.88 126.409C93.9434 134.462 79.0067 142.509 64.0701 150.552C63.5725 150.82 63.0542 151.053 62.5566 151.321C61.7861 151.761 60.9127 151.993 60.0238 151.993C59.1348 151.993 58.2615 151.761 57.4909 151.321C54.9892 149.994 52.4898 148.66 49.9927 147.32L3.45499 122.292C2.93694 122.009 2.43407 121.7 1.94843 121.365C1.39236 121.031 0.927163 120.567 0.593466 120.013C0.25977 119.459 0.0677292 118.833 0.0341215 118.188C0.0341215 117.577 -0.0280762 116.967 -0.0280762 116.363C-0.00964724 89.667 -0.000432768 62.9692 -0.000432768 36.2691C-0.000432768 35.2465 0.10323 34.2103 0.193071 33.1946C0.249009 32.6144 0.452844 32.058 0.785351 31.5777C1.11786 31.0974 1.56808 30.7092 2.09356 30.4496C5.13894 28.7522 8.20044 27.0663 11.2781 25.3918C26.4082 17.2573 41.5384 9.11142 56.6685 0.954058C58.8593 -0.226311 60.8842 -0.370426 63.144 0.857981C74.3073 6.91995 85.4914 12.9453 96.6962 18.9341C103.423 22.5484 110.142 26.1719 116.855 29.8045C117.453 30.1402 118.026 30.5187 118.569 30.9368C119.009 31.2869 119.362 31.7324 119.602 32.2392C119.842 32.746 119.961 33.3005 119.951 33.8603C119.951 34.375 119.951 34.8897 119.951 35.4044C119.965 48.974 119.967 62.5437 119.958 76.1134ZM12.8399 33.9426C13.1302 34.1211 13.303 34.2446 13.531 34.3475C28.7671 42.5598 44.0148 50.7835 59.2739 59.0186C59.4966 59.1605 59.7557 59.2359 60.0203 59.2359C60.2849 59.2359 60.544 59.1605 60.7667 59.0186C75.7356 50.9345 90.7091 42.8617 105.687 34.8005C106.157 34.5465 106.62 34.2789 107.194 33.9564L106.351 33.4691L73.3099 15.6126C69.1081 13.3617 64.9616 11.1382 60.7459 8.92155C60.5184 8.77886 60.2548 8.70313 59.9858 8.70313C59.7167 8.70313 59.4531 8.77886 59.2256 8.92155C57.8849 9.64899 56.5165 10.2941 55.1758 11.0558C41.4278 18.472 27.6752 25.8997 13.918 33.3387L12.8399 33.9426ZM64.4156 140.999C65.7218 140.347 66.8828 139.819 68.0023 139.215C75.8761 134.974 83.7383 130.724 91.5891 126.464C98.0392 122.969 104.462 119.474 110.857 115.978C111.075 115.887 111.259 115.73 111.383 115.529C111.507 115.329 111.565 115.094 111.548 114.86C111.548 90.5523 111.548 66.2427 111.548 41.9307C111.548 41.6905 111.548 41.4435 111.485 41.0248C110 41.7591 108.638 42.3974 107.339 43.0836C98.9537 47.5901 90.587 52.1011 82.2387 56.6167C77.0348 59.4235 71.8724 62.2646 66.6202 65.0028C65.0099 65.8401 64.3189 66.8214 64.3258 68.64C64.4041 92.3663 64.4225 116.09 64.3811 139.812L64.4156 140.999ZM8.84546 41.1758L8.50683 41.3062V113.233C8.50683 113.748 8.50682 114.263 8.5552 114.777C8.56359 115.077 8.6551 115.369 8.81969 115.621C8.98427 115.873 9.21557 116.075 9.48817 116.205C12.1972 117.618 14.8994 119.039 17.6084 120.446C17.8857 120.569 18.1694 120.676 18.4585 120.768V119.718C18.4585 112.705 18.4585 105.684 18.5206 98.6639C18.5125 97.0048 18.5909 95.3464 18.7556 93.6954C18.8003 93.3617 18.9218 93.0427 19.1108 92.7632C19.2998 92.4837 19.5512 92.2513 19.8453 92.084C20.1395 91.9167 20.4686 91.819 20.807 91.7985C21.1454 91.7781 21.4839 91.8354 21.7964 91.966C22.5726 92.2158 23.3244 92.5351 24.0424 92.9199C30.511 96.4404 36.945 100.009 43.3928 103.509C44.1869 103.857 44.8548 104.438 45.3069 105.174C45.759 105.91 45.9737 106.766 45.9222 107.626C45.86 116.747 45.9222 125.874 45.9222 134.995C45.8994 135.237 45.9538 135.481 46.0778 135.692C46.2018 135.902 46.389 136.069 46.6133 136.168C48.6865 137.3 50.7598 138.474 52.833 139.599C53.6692 140.052 54.5469 140.43 55.5974 140.924C55.6734 139.27 55.7978 137.781 55.7978 136.292C55.7978 113.993 55.7978 91.6961 55.7978 69.4017C55.7978 66.142 55.8945 66.3753 52.8952 64.7558C39.4836 57.5226 26.0581 50.2825 12.6188 43.0356C11.3956 42.3768 10.1032 41.8072 8.84546 41.1758ZM23.6554 98.1835C23.6554 98.5198 23.5932 98.6982 23.5932 98.8698C23.5932 107.032 23.6139 115.194 23.6554 123.356C23.6406 123.542 23.6845 123.729 23.781 123.89C23.8776 124.051 24.022 124.179 24.1945 124.255C29.4882 127.045 34.7865 129.848 40.0894 132.661C40.2963 132.76 40.5086 132.847 40.7252 132.922C40.7252 132.593 40.7736 132.359 40.7736 132.133C40.7736 124.159 40.8012 116.184 40.8565 108.21C40.8581 108.01 40.7971 107.815 40.6819 107.652C40.5668 107.488 40.4031 107.364 40.2138 107.297L29.654 101.498L23.6554 98.1835Z" fill="black"/>
        <path d="M12.8264 33.9426L13.9183 33.3387C27.6755 25.8997 41.4281 18.4629 55.1761 11.0284C56.5168 10.2941 57.8852 9.60781 59.2259 8.92155C59.4534 8.77886 59.717 8.70312 59.9861 8.70312C60.2552 8.70312 60.5187 8.77886 60.7463 8.92155C64.8928 11.1725 69.1291 13.396 73.3102 15.6469L106.351 33.4485L107.194 33.9358C106.62 34.2583 106.157 34.526 105.688 34.7799C90.7094 42.8412 75.7359 50.9139 60.767 58.998C60.5443 59.1399 60.2852 59.2153 60.0206 59.2153C59.756 59.2153 59.497 59.1399 59.2742 58.998C44.0151 50.7766 28.7513 42.5598 13.4829 34.3475C13.2894 34.2446 13.1305 34.1211 12.8264 33.9426Z" fill="#4BC4F9"/>
        <path d="M64.4022 141.006V139.812C64.4022 116.09 64.3838 92.3663 64.3469 68.64C64.3469 66.8214 65.038 65.84 66.6413 65.0028C71.8798 62.2577 77.056 59.4235 82.2599 56.6167C90.5989 52.1148 98.9403 47.6106 107.284 43.1042C108.597 42.4179 109.959 41.7317 111.431 41.0454C111.431 41.464 111.493 41.7317 111.493 41.9513C111.493 66.2678 111.493 90.5775 111.493 114.88C111.51 115.115 111.452 115.349 111.328 115.55C111.204 115.751 111.02 115.908 110.802 115.999C104.375 119.485 97.9521 122.98 91.5342 126.485C83.6789 130.74 75.8166 134.99 67.9475 139.236C66.8694 139.826 65.7084 140.354 64.4022 141.006ZM106.78 66.5675H106.669C106.669 64.0214 106.724 61.4685 106.669 58.9225C106.685 58.4921 106.585 58.0654 106.38 57.686C106.174 57.3065 105.871 56.9881 105.501 56.7633C105.132 56.5384 104.708 56.4152 104.275 56.4064C103.841 56.3975 103.413 56.5032 103.034 56.7128C99.2191 58.6617 95.4803 60.7274 91.7208 62.7724C91.3777 62.9532 91.0862 63.2173 90.8735 63.5401C90.6608 63.8629 90.5339 64.2339 90.5045 64.6185C90.4285 65.4557 90.3732 66.293 90.3732 67.1371C90.3732 70.9481 90.3732 74.7591 90.3732 78.5702C90.3732 79.4554 90.4216 80.3407 90.5045 81.226C90.6704 82.976 92.0249 83.8269 93.8286 83.2848C94.5593 83.0602 95.2673 82.7684 95.9433 82.4132C97.9751 81.3564 99.9862 80.2652 101.99 79.1672C103.068 78.5839 104.153 78.0006 105.19 77.3486C105.58 77.1548 105.917 76.8688 106.17 76.5159C106.423 76.1629 106.585 75.7537 106.641 75.3242C106.69 74.6379 106.78 74.0203 106.786 73.3683C106.793 71.1242 106.78 68.8596 106.78 66.5675ZM106.78 98.7737H106.676C106.676 96.2757 106.724 93.7709 106.676 91.2729C106.628 89.0631 104.782 88.0131 102.695 89.0357C100.069 90.3327 97.4983 91.7395 94.9205 93.1532C93.7941 93.7571 92.7022 94.4228 91.6241 95.0885C91.2785 95.2866 90.9917 95.5718 90.7927 95.9152C90.5937 96.2586 90.4895 96.6481 90.4907 97.0443C90.4423 99.7894 90.3732 102.61 90.3732 105.389C90.3732 108.031 90.4147 110.673 90.5183 113.309C90.5697 113.918 90.8113 114.496 91.2094 114.963C91.9558 115.862 93.1099 116.04 94.4852 115.326C98.1341 113.439 101.735 111.463 105.335 109.493C105.705 109.312 106.022 109.039 106.255 108.702C106.489 108.364 106.631 107.973 106.669 107.565C106.724 106.913 106.807 106.261 106.814 105.609C106.793 103.33 106.78 101.066 106.78 98.8217V98.7737ZM85.2246 111.072C85.2246 109.198 85.2246 107.325 85.2246 105.458C85.249 104.406 85.2075 103.354 85.1002 102.308C84.886 100.599 83.5107 99.8374 81.8176 100.51C80.5811 101.003 79.3763 101.572 78.2101 102.212C75.5701 103.639 72.9578 105.108 70.3386 106.576C69.9837 106.757 69.686 107.031 69.4787 107.369C69.2713 107.707 69.1623 108.095 69.1638 108.491C69.1638 109.493 69.0532 110.495 69.0463 111.497C69.0463 115.358 69.0463 119.22 69.0463 123.081C69.0499 123.736 69.0984 124.389 69.1914 125.037C69.454 127.055 71.1748 127.967 73.103 126.972C76.7312 125.085 80.2972 123.102 83.8839 121.139C84.3208 120.926 84.6848 120.589 84.9305 120.172C85.1763 119.755 85.293 119.275 85.2661 118.792C85.2108 116.239 85.2246 113.666 85.2246 111.092V111.072ZM85.2246 78.4947C85.2246 76.0379 85.2246 73.5879 85.2246 71.1311C85.225 70.6867 85.1834 70.2433 85.1002 69.8066C85.0239 69.3231 84.7696 68.8848 84.3866 68.5768C84.0036 68.2687 83.5191 68.1127 83.027 68.139C82.4083 68.1191 81.7934 68.2412 81.2301 68.4959C77.5167 70.4723 73.8309 72.4922 70.1728 74.5555C69.7006 74.9055 69.3658 75.4078 69.226 75.9761C69.0803 76.6383 69.0245 77.3168 69.0601 77.9937C69.0601 81.624 69.0601 85.2475 69.0601 88.8778C69.0601 90.2092 69.1223 91.5405 69.1983 92.8719C69.2951 94.6493 70.8431 95.5757 72.6538 94.9306C73.1894 94.7373 73.7113 94.508 74.2156 94.2444C77.2288 92.6179 80.2212 90.9572 83.2481 89.3582C83.9117 89.0735 84.4687 88.5893 84.8406 87.9737C85.2125 87.3582 85.3807 86.6423 85.3214 85.9269C85.1901 83.4769 85.2453 80.979 85.2453 78.5153L85.2246 78.4947Z" fill="#4BC4F9"/>
        <path d="M8.84571 41.1758C10.1035 41.7934 11.3958 42.363 12.619 43.0218C26.0629 50.2779 39.4953 57.5362 52.9162 64.7969C55.9155 66.4165 55.8188 66.1694 55.8188 69.4429C55.8188 91.7418 55.8188 114.038 55.8188 136.333C55.8188 137.822 55.6944 139.311 55.6184 140.965C54.5748 140.471 53.6971 140.093 52.854 139.641C50.7808 138.508 48.7075 137.335 46.6342 136.209C46.41 136.11 46.2228 135.943 46.0988 135.733C45.9748 135.522 45.9204 135.279 45.9432 135.036C45.9432 125.915 45.8671 116.788 45.9432 107.668C45.9946 106.807 45.7799 105.951 45.3279 105.215C44.8758 104.48 44.2079 103.898 43.4138 103.55C36.9383 100.05 30.5043 96.4816 24.0634 92.9611C23.3405 92.5586 22.5817 92.2232 21.7966 91.9591C21.4842 91.8285 21.1456 91.7712 20.8072 91.7916C20.4688 91.8121 20.1398 91.9098 19.8456 92.0771C19.5514 92.2444 19.3001 92.4768 19.1111 92.7563C18.9221 93.0358 18.8005 93.3548 18.7559 93.6885C18.5912 95.3395 18.5128 96.9979 18.5209 98.657C18.4794 105.677 18.4794 112.698 18.4587 119.712V120.782C18.1697 120.69 17.8859 120.582 17.6087 120.46C14.8996 119.053 12.1975 117.632 9.48842 116.218C9.21582 116.089 8.98453 115.887 8.81994 115.635C8.65535 115.383 8.56384 115.091 8.55546 114.791C8.5209 114.276 8.50708 113.762 8.50708 113.247V41.3199L8.84571 41.1758ZM29.4677 73.032C29.4677 70.3419 29.4677 67.6586 29.4677 64.9685C29.4754 64.4429 29.3311 63.9262 29.0517 63.4797C28.7724 63.0333 28.3699 62.6758 27.892 62.4499C24.8236 60.7754 21.7621 59.0941 18.6799 57.4402C18.0186 57.0931 17.3241 56.8126 16.6066 56.6029C16.2641 56.4689 15.8944 56.4174 15.5279 56.4526C15.1615 56.4879 14.8087 56.609 14.4984 56.8059C14.1882 57.0028 13.9294 57.2699 13.7433 57.5853C13.5571 57.9008 13.4489 58.2555 13.4276 58.6205C13.3931 59.0597 13.3861 59.5058 13.3931 59.9519C13.3931 65.0028 13.3931 70.0537 13.4276 75.1045C13.4102 75.5372 13.5174 75.9657 13.7365 76.3401C13.9556 76.7144 14.2775 77.019 14.6646 77.2182C16.1021 78.0211 17.5188 78.8652 18.9701 79.6339C21.2991 80.8691 23.6142 82.125 26.0054 83.2436C26.3625 83.4397 26.7653 83.5391 27.1733 83.5319C27.5814 83.5247 27.9804 83.4112 28.3303 83.2027C28.6803 82.9942 28.9689 82.698 29.1673 82.3439C29.3657 81.9897 29.4669 81.59 29.4608 81.1848C29.4884 78.4741 29.4677 75.7633 29.4677 73.0458V73.032ZM34.6854 78.6113C34.6854 81.0887 34.7407 83.5661 34.6854 86.0435C34.6567 86.7116 34.8252 87.3734 35.1702 87.9477C35.5152 88.5219 36.0217 88.9836 36.6273 89.2758C36.8208 89.3856 37.0074 89.5023 37.2009 89.6052C39.447 90.8336 41.693 92.0621 43.9459 93.2699C44.9826 93.8326 46.0192 94.3885 47.118 94.862C49.053 95.7198 50.7324 94.7042 50.76 92.714C50.76 91.9179 50.8153 91.1219 50.8153 90.3327C50.8153 85.7965 50.76 81.2603 50.7808 76.7241C50.7909 76.1162 50.6171 75.5192 50.2821 75.0102C49.947 74.5013 49.4659 74.1039 48.901 73.8693C46.4684 72.5722 44.0634 71.234 41.6377 69.937C40.6545 69.3711 39.6367 68.8668 38.59 68.4272C36.3094 67.5625 34.7614 68.537 34.713 70.836C34.6508 73.4301 34.6854 76.0241 34.6854 78.6251V78.6113Z" fill="#4BC4F9"/>
        <path d="M23.6559 98.197L29.6546 101.498L40.1798 107.317C40.3691 107.384 40.5327 107.508 40.6479 107.672C40.7631 107.835 40.8241 108.031 40.8225 108.23C40.7902 116.205 40.7741 124.179 40.7741 132.153C40.7741 132.38 40.7741 132.613 40.7257 132.942C40.5091 132.867 40.2969 132.78 40.0899 132.682C34.8008 129.882 29.5025 127.079 24.195 124.275C24.0225 124.199 23.8781 124.072 23.7816 123.911C23.685 123.75 23.6411 123.563 23.6559 123.376C23.6559 115.214 23.6352 107.052 23.5938 98.8902C23.5938 98.7117 23.6214 98.5333 23.6559 98.197Z" fill="#FAFBFC"/>
        <path d="M106.779 66.5674C106.779 68.8389 106.779 71.1036 106.779 73.3682C106.779 74.0545 106.683 74.6721 106.634 75.3241C106.578 75.7536 106.416 76.1628 106.163 76.5158C105.91 76.8687 105.573 77.1547 105.183 77.3485C104.146 78.0348 103.061 78.5838 101.983 79.1671C99.9792 80.2652 97.9682 81.3563 95.9364 82.4131C95.2603 82.7684 94.5523 83.0601 93.8216 83.2847C92.0179 83.8268 90.6634 82.9759 90.4975 81.2259C90.4146 80.3406 90.3662 79.4554 90.3662 78.5701C90.3662 74.7545 90.3662 70.9434 90.3662 67.137C90.3662 66.2929 90.4215 65.4556 90.4975 64.6184C90.5269 64.2338 90.6538 63.8628 90.8665 63.54C91.0792 63.2172 91.3707 62.9531 91.7138 62.7724C95.4733 60.7136 99.2121 58.6548 103.027 56.7127C103.406 56.5031 103.834 56.3974 104.268 56.4063C104.701 56.4152 105.125 56.5383 105.494 56.7632C105.864 56.988 106.167 57.3065 106.373 57.6859C106.578 58.0653 106.678 58.4921 106.662 58.9224C106.731 61.4685 106.662 64.0213 106.662 66.5674H106.779ZM95.5563 77.0672C97.5811 75.9623 99.4194 75.0084 101.23 73.9447C101.323 73.8564 101.396 73.7496 101.445 73.6314C101.494 73.5132 101.517 73.3861 101.513 73.2584C101.513 70.1016 101.513 66.9448 101.513 63.788C101.513 63.589 101.465 63.3969 101.43 63.1018C101.12 63.2321 100.891 63.3145 100.677 63.4243C99.2121 64.1861 97.7539 64.9615 96.275 65.6958C96.0567 65.7794 95.8715 65.9308 95.747 66.1275C95.6225 66.3241 95.5653 66.5554 95.5839 66.787C95.5839 69.9232 95.5839 73.0594 95.5839 76.1888L95.5563 77.0672Z" fill="black"/>
        <path d="M106.78 98.8217C106.78 101.093 106.78 103.358 106.78 105.629C106.78 106.316 106.69 106.933 106.634 107.585C106.597 107.993 106.454 108.385 106.221 108.722C105.987 109.06 105.67 109.332 105.301 109.514C101.7 111.483 98.0995 113.46 94.4506 115.347C93.0684 116.033 91.9212 115.882 91.1748 114.983C90.7767 114.517 90.5351 113.939 90.4837 113.329C90.3801 110.694 90.3386 108.052 90.3386 105.41C90.3386 102.63 90.4077 99.8442 90.4561 97.0649C90.455 96.6687 90.5592 96.2792 90.7582 95.9357C90.9572 95.5923 91.2439 95.3071 91.5895 95.109C92.6676 94.4228 93.7595 93.7777 94.886 93.1738C97.4637 91.8013 100.035 90.3807 102.661 89.0562C104.734 88.0337 106.593 89.0562 106.641 91.2934C106.704 93.7914 106.641 96.2963 106.641 98.7943L106.78 98.8217ZM101.458 95.2257C99.5992 96.2002 97.9129 97.1061 96.2059 97.9707C96.0085 98.0511 95.8425 98.1928 95.7329 98.3747C95.6233 98.5565 95.5759 98.7687 95.5978 98.9795C95.5978 102.136 95.5978 105.293 95.5563 108.45C95.5563 108.676 95.5563 108.896 95.6047 109.225C95.9157 109.081 96.1368 108.992 96.3442 108.882C97.8645 108.066 99.3711 107.228 100.905 106.439C101.104 106.364 101.272 106.227 101.386 106.049C101.499 105.871 101.551 105.661 101.534 105.451C101.534 102.315 101.534 99.1854 101.534 96.0492C101.527 95.8159 101.493 95.6169 101.458 95.1983V95.2257Z" fill="black"/>
        <path d="M85.2247 111.092C85.2247 113.665 85.2247 116.239 85.2247 118.812C85.2516 119.295 85.1349 119.775 84.8891 120.192C84.6434 120.61 84.2794 120.946 83.8425 121.159C80.2558 123.122 76.6898 125.105 73.0616 126.993C71.1334 127.988 69.4126 127.075 69.15 125.057C69.057 124.41 69.0085 123.756 69.0049 123.102C69.0049 119.24 69.0049 115.379 69.0049 111.517C69.0049 110.516 69.0947 109.514 69.1224 108.512C69.1209 108.116 69.2298 107.727 69.4372 107.389C69.6446 107.051 69.9423 106.777 70.2972 106.597C72.9164 105.128 75.5287 103.66 78.1687 102.232C79.3349 101.592 80.5396 101.024 81.7761 100.53C83.4693 99.8442 84.8446 100.62 85.0588 102.328C85.166 103.375 85.2076 104.427 85.1832 105.478C85.1832 107.345 85.1832 109.219 85.1832 111.092H85.2247ZM74.271 120.597C74.3857 120.599 74.5002 120.583 74.6096 120.549C76.3442 119.67 78.065 118.792 79.7927 117.879C79.8994 117.798 79.9864 117.694 80.0474 117.576C80.1084 117.457 80.1418 117.326 80.1452 117.193C80.1452 113.947 80.1452 110.701 80.1452 107.448C80.1297 107.297 80.102 107.148 80.0622 107.002C79.9687 107.009 79.8761 107.025 79.7858 107.05C78.0305 107.983 76.2613 108.91 74.5336 109.884C74.4252 109.979 74.3393 110.097 74.282 110.228C74.2246 110.36 74.1973 110.503 74.2018 110.646C74.2018 112.334 74.2502 114.015 74.264 115.697C74.2779 117.378 74.271 118.915 74.271 120.597Z" fill="black"/>
        <path d="M85.245 78.5152C85.245 80.9995 85.1897 83.4769 85.245 85.9612C85.3043 86.6766 85.1362 87.3924 84.7643 88.008C84.3923 88.6235 83.8354 89.1077 83.1718 89.3925C80.1448 90.9914 77.1524 92.6522 74.1393 94.2786C73.6349 94.5423 73.1131 94.7716 72.5774 94.9649C70.7944 95.61 69.2464 94.6835 69.122 92.9061C69.046 91.5748 68.9907 90.2434 68.9838 88.9121C68.9838 85.2818 68.9838 81.6583 68.9838 78.028C68.9482 77.3511 69.004 76.6725 69.1497 76.0104C69.2895 75.442 69.6243 74.9398 70.0964 74.5898C73.75 72.5173 77.4358 70.4974 81.1538 68.5301C81.7171 68.2755 82.332 68.1533 82.9506 68.1733C83.4428 68.147 83.9273 68.303 84.3103 68.611C84.6933 68.9191 84.9476 69.3573 85.0239 69.8409C85.107 70.2775 85.1487 70.721 85.1483 71.1654C85.2519 73.6085 85.245 76.0584 85.245 78.5152ZM80.2208 74.6927C80.0074 74.76 79.7975 74.8379 79.592 74.9261C78.1545 75.6741 76.7309 76.4564 75.2658 77.1633C74.9031 77.3188 74.6009 77.5867 74.4041 77.9268C74.2073 78.2669 74.1266 78.6611 74.1739 79.0505C74.2222 82.022 74.236 84.9867 74.2706 87.9719C74.2706 88.1297 74.2706 88.2876 74.319 88.5003C74.514 88.4323 74.7055 88.3544 74.8926 88.267C76.4821 87.4435 78.0716 86.5994 79.6749 85.7896C79.8374 85.7236 79.9738 85.6068 80.0635 85.457C80.1533 85.3072 80.1915 85.1325 80.1725 84.9592C80.1725 83.3671 80.1725 81.775 80.2208 80.1554C80.2278 78.3848 80.2208 76.5937 80.2208 74.6927Z" fill="black"/>
        <path d="M29.4679 73.0458C29.4679 75.7908 29.4679 78.4741 29.4679 81.1848C29.474 81.5901 29.3728 81.9898 29.1744 82.3439C28.976 82.6981 28.6874 82.9942 28.3374 83.2027C27.9875 83.4112 27.5885 83.5248 27.1804 83.5319C26.7724 83.5391 26.3696 83.4397 26.0124 83.2436C23.6213 82.125 21.3062 80.8692 18.9772 79.6339C17.5259 78.8653 16.1092 78.0212 14.6717 77.2183C14.2846 77.0191 13.9626 76.7145 13.7436 76.3401C13.5245 75.9658 13.4173 75.5372 13.4347 75.1046C13.4347 70.0537 13.4347 65.0028 13.4001 59.9519C13.4001 59.5059 13.4001 59.0598 13.4347 58.6206C13.456 58.2556 13.5642 57.9008 13.7504 57.5854C13.9365 57.2699 14.1953 57.0028 14.5055 56.8059C14.8158 56.609 15.1686 56.488 15.535 56.4527C15.9015 56.4174 16.2712 56.4689 16.6137 56.603C17.3312 56.8126 18.0257 57.0931 18.6869 57.4402C21.7692 59.0941 24.8307 60.7754 27.8991 62.4499C28.3811 62.6714 28.7886 63.0261 29.073 63.4715C29.3573 63.9169 29.5064 64.4343 29.5024 64.9616C29.5024 67.6518 29.5024 70.3351 29.5024 73.0252L29.4679 73.0458ZM18.6178 63.0813C18.5755 63.2272 18.5455 63.3764 18.528 63.5273C18.528 66.8283 18.528 70.1223 18.528 73.4232C18.5517 73.5663 18.6075 73.7023 18.6912 73.821C18.7749 73.9398 18.8845 74.0384 19.0118 74.1095C20.5529 74.981 22.1147 75.8114 23.6766 76.6487C23.9046 76.7722 24.1465 76.8614 24.4229 76.9849C24.453 76.8631 24.4738 76.7392 24.4851 76.6143C24.4506 73.2448 24.4299 69.8753 24.3677 66.5057C24.3405 66.363 24.2825 66.2278 24.1978 66.1093C24.1132 65.9909 24.0037 65.892 23.877 65.8195C22.6814 65.1332 21.4513 64.5018 20.2281 63.8636C19.7374 63.6028 19.1983 63.3626 18.6178 63.0813Z" fill="black"/>
        <path d="M34.6856 78.6253C34.6856 76.0243 34.6856 73.4303 34.6856 70.8362C34.734 68.5372 36.282 67.5627 38.5626 68.4274C39.6092 68.867 40.6271 69.3713 41.6103 69.9372C44.036 71.2342 46.4479 72.5724 48.8736 73.8695C49.4385 74.1041 49.9195 74.5015 50.2546 75.0104C50.5897 75.5194 50.7634 76.1164 50.7533 76.7243C50.7533 81.2605 50.7533 85.7967 50.7879 90.3329C50.7879 91.1221 50.7395 91.9181 50.7326 92.7142C50.7326 94.7043 49.0256 95.72 47.0906 94.8622C46.0056 94.3887 44.9551 93.8328 43.9185 93.2701C41.6656 92.0622 39.4195 90.8338 37.1735 89.6054C36.98 89.5025 36.7934 89.3858 36.5999 89.276C35.9926 88.9877 35.4834 88.5295 35.1347 87.9577C34.786 87.3859 34.6131 86.7255 34.6372 86.0575C34.7132 83.5801 34.6372 81.1027 34.6372 78.6253H34.6856ZM45.8052 88.6447C45.8052 85.0281 45.8052 81.6448 45.8052 78.2547C45.7809 78.1055 45.7245 77.9633 45.6398 77.8377C45.5551 77.7122 45.4442 77.6063 45.3145 77.5272C43.9323 76.7449 42.5985 75.9557 41.168 75.2694C40.1866 74.7891 39.7858 75.043 39.7858 76.0998C39.7858 79.0713 39.7858 82.0428 39.8411 85.0212C39.84 85.1335 39.8628 85.2447 39.9081 85.3476C39.9533 85.4505 40.02 85.5428 40.1037 85.6182C41.942 86.5996 43.7872 87.5741 45.8052 88.6447Z" fill="black"/>
        <path d="M95.5562 77.0879V76.1751C95.5562 73.0458 95.6115 69.9096 95.5562 66.7734C95.5375 66.5418 95.5947 66.3105 95.7193 66.1138C95.8438 65.9172 96.029 65.7658 96.2473 65.6822C97.7262 64.9479 99.1844 64.1724 100.649 63.4107C100.864 63.3009 101.092 63.2185 101.403 63.0881C101.437 63.3626 101.479 63.5548 101.486 63.7744C101.486 66.9312 101.486 70.088 101.486 73.2448C101.489 73.3725 101.466 73.4996 101.417 73.6178C101.369 73.736 101.295 73.8427 101.202 73.9311C99.4194 74.9948 97.5811 75.983 95.5562 77.0879Z" fill="#FAFBFC"/>
        <path d="M101.458 95.1982C101.492 95.6169 101.527 95.8159 101.527 96.0218C101.527 99.158 101.527 102.287 101.527 105.424C101.544 105.634 101.492 105.844 101.378 106.022C101.265 106.2 101.096 106.337 100.898 106.412C99.3639 107.201 97.8573 108.038 96.3369 108.855C96.1296 108.965 95.9084 109.054 95.5975 109.198C95.5975 108.869 95.5491 108.649 95.5491 108.422C95.5491 105.266 95.5905 102.109 95.5905 98.9521C95.5686 98.7413 95.616 98.5291 95.7256 98.3472C95.8353 98.1654 96.0012 98.0237 96.1987 97.9433C97.9126 97.0786 99.5988 96.1727 101.458 95.1982Z" fill="#FAFBFC"/>
        <path d="M74.2709 120.597C74.2709 118.916 74.2709 117.31 74.2709 115.697C74.2709 114.084 74.2018 112.334 74.2087 110.646C74.2042 110.503 74.2315 110.36 74.2889 110.229C74.3462 110.097 74.4321 109.979 74.5405 109.884C76.2682 108.91 78.0374 107.984 79.7927 107.05C79.883 107.025 79.9756 107.009 80.0691 107.002C80.1089 107.148 80.1366 107.298 80.1521 107.448C80.1521 110.701 80.1521 113.947 80.1521 117.193C80.1487 117.326 80.1153 117.457 80.0543 117.576C79.9933 117.695 79.9063 117.798 79.7996 117.879C78.0926 118.792 76.3442 119.671 74.6165 120.549C74.5049 120.584 74.388 120.601 74.2709 120.597V120.597Z" fill="#FAFBFC"/>
        <path d="M80.221 74.6926C80.221 76.5936 80.221 78.3847 80.221 80.1827C80.221 81.768 80.1727 83.3601 80.1727 84.9865C80.1917 85.1598 80.1535 85.3346 80.0637 85.4844C79.974 85.6342 79.8376 85.7509 79.6751 85.8169C78.0718 86.6267 76.4823 87.4708 74.8928 88.2943C74.7057 88.3817 74.5143 88.4596 74.3192 88.5276C74.3192 88.3149 74.2708 88.1571 74.2708 87.9992C74.2708 85.0277 74.2224 82.0631 74.1741 79.0778C74.1268 78.6884 74.2075 78.2942 74.4043 77.9541C74.6011 77.614 74.9034 77.3462 75.266 77.1906C76.7311 76.5044 78.1547 75.7014 79.5922 74.9534C79.7972 74.8559 80.0071 74.7689 80.221 74.6926V74.6926Z" fill="#FAFBFC"/>
        <path d="M18.6179 63.0813C19.1984 63.3627 19.7375 63.6029 20.2489 63.8705C21.4721 64.5087 22.7022 65.1469 23.8978 65.8263C24.0245 65.8989 24.134 65.9978 24.2187 66.1162C24.3033 66.2347 24.3613 66.3699 24.3885 66.5126C24.4507 69.8822 24.4714 73.2517 24.506 76.6213C24.4946 76.7462 24.4738 76.87 24.4438 76.9918C24.1673 76.8683 23.9254 76.7791 23.6974 76.6556C22.1355 75.8183 20.5737 74.9879 19.0326 74.1164C18.9053 74.0453 18.7958 73.9467 18.712 73.8279C18.6283 73.7092 18.5725 73.5732 18.5488 73.4301C18.5143 70.1292 18.5488 66.8352 18.5488 63.5342C18.5591 63.3816 18.5822 63.2301 18.6179 63.0813V63.0813Z" fill="#FAFBFC"/>
        <path d="M45.8051 88.6443C43.7871 87.5737 41.9419 86.5855 40.1175 85.6041C40.0338 85.5286 39.9671 85.4364 39.9218 85.3335C39.8766 85.2306 39.8537 85.1194 39.8548 85.0071C39.8548 82.0424 39.7996 79.0709 39.7996 76.0857C39.7996 75.0289 40.1866 74.7749 41.1817 75.2553C42.5639 75.9416 43.9461 76.7308 45.3282 77.5131C45.4579 77.5922 45.5689 77.6981 45.6536 77.8236C45.7383 77.9492 45.7947 78.0914 45.8189 78.2406C45.812 81.665 45.8051 85.0277 45.8051 88.6443Z" fill="#FAFBFC"/>
    </g>
    <path d="M28.818 172.768C28.998 173.2 29.088 173.512 29.088 173.704C29.088 174.16 28.716 174.544 27.972 174.856C27.588 175.024 27.276 175.108 27.036 175.108C26.808 175.108 26.616 175.054 26.46 174.946C26.316 174.826 26.208 174.706 26.136 174.586C26.016 174.358 25.548 173.272 24.732 171.328L24.174 171.364H21.906V173.398C21.906 173.674 21.894 173.884 21.87 174.028C21.858 174.16 21.804 174.316 21.708 174.496C21.54 174.82 21.072 174.982 20.304 174.982C19.464 174.982 18.972 174.76 18.828 174.316C18.756 174.112 18.72 173.8 18.72 173.38V163.39C18.72 163.114 18.726 162.91 18.738 162.778C18.762 162.634 18.822 162.472 18.918 162.292C19.086 161.968 19.554 161.806 20.322 161.806H24.21C25.266 161.806 26.292 162.19 27.288 162.958C27.768 163.33 28.164 163.834 28.476 164.47C28.788 165.106 28.944 165.814 28.944 166.594C28.944 167.95 28.494 169.066 27.594 169.942C27.858 170.578 28.266 171.52 28.818 172.768ZM21.906 168.178H24.21C24.558 168.178 24.906 168.046 25.254 167.782C25.602 167.518 25.776 167.122 25.776 166.594C25.776 166.066 25.602 165.67 25.254 165.406C24.906 165.13 24.546 164.992 24.174 164.992H21.906V168.178ZM37.8142 171.814H43.3582C43.6342 171.814 43.8382 171.826 43.9702 171.85C44.1142 171.862 44.2762 171.916 44.4562 172.012C44.7802 172.18 44.9422 172.648 44.9422 173.416C44.9422 174.256 44.7202 174.748 44.2762 174.892C44.0722 174.964 43.7602 175 43.3402 175H36.2122C35.3722 175 34.8802 174.772 34.7362 174.316C34.6642 174.124 34.6282 173.818 34.6282 173.398V163.39C34.6282 162.778 34.7422 162.364 34.9702 162.148C35.1982 161.92 35.6302 161.806 36.2662 161.806H43.3582C43.6342 161.806 43.8382 161.818 43.9702 161.842C44.1142 161.854 44.2762 161.908 44.4562 162.004C44.7802 162.172 44.9422 162.64 44.9422 163.408C44.9422 164.248 44.7202 164.74 44.2762 164.884C44.0722 164.956 43.7602 164.992 43.3402 164.992H37.8142V166.81H41.3782C41.6542 166.81 41.8582 166.822 41.9902 166.846C42.1342 166.858 42.2962 166.912 42.4762 167.008C42.8002 167.176 42.9622 167.644 42.9622 168.412C42.9622 169.252 42.7342 169.744 42.2782 169.888C42.0742 169.96 41.7622 169.996 41.3422 169.996H37.8142V171.814ZM59.1735 162.364C59.2935 162.148 59.4675 162.004 59.6955 161.932C59.9235 161.86 60.2055 161.824 60.5415 161.824C60.8895 161.824 61.1655 161.854 61.3695 161.914C61.5855 161.974 61.7415 162.046 61.8375 162.13C61.9455 162.214 62.0235 162.34 62.0715 162.508C62.1435 162.7 62.1795 163.006 62.1795 163.426V173.416C62.1795 173.704 62.1675 173.914 62.1435 174.046C62.1315 174.178 62.0775 174.334 61.9815 174.514C61.8135 174.838 61.3455 175 60.5775 175C60.1095 175 59.7855 174.964 59.6055 174.892C59.4255 174.82 59.2755 174.706 59.1555 174.55C56.4555 170.95 54.6795 168.598 53.8275 167.494V173.416C53.8275 173.704 53.8155 173.914 53.7915 174.046C53.7795 174.178 53.7255 174.334 53.6295 174.514C53.4615 174.838 52.9935 175 52.2255 175C51.4815 175 51.0255 174.838 50.8575 174.514C50.7615 174.334 50.7015 174.172 50.6775 174.028C50.6655 173.884 50.6595 173.674 50.6595 173.398V163.354C50.6595 162.898 50.7135 162.568 50.8215 162.364C50.9415 162.148 51.1155 162.004 51.3435 161.932C51.5715 161.86 51.8655 161.824 52.2255 161.824C52.5855 161.824 52.8675 161.86 53.0715 161.932C53.2875 161.992 53.4375 162.064 53.5215 162.148C53.5695 162.184 53.7075 162.34 53.9355 162.616C56.4675 166.06 58.1595 168.334 59.0115 169.438V163.354C59.0115 162.898 59.0655 162.568 59.1735 162.364ZM69.0313 161.788H79.0393C79.4233 161.788 79.7053 161.836 79.8853 161.932C80.0653 162.016 80.1853 162.154 80.2453 162.346C80.3053 162.538 80.3353 162.79 80.3353 163.102C80.3353 163.414 80.3053 163.666 80.2453 163.858C80.1853 164.038 80.0833 164.164 79.9393 164.236C79.7233 164.344 79.4173 164.398 79.0213 164.398H75.5833V173.452C75.5833 173.728 75.5713 173.932 75.5473 174.064C75.5353 174.196 75.4813 174.352 75.3853 174.532C75.3013 174.7 75.1453 174.82 74.9173 174.892C74.6893 174.964 74.3893 175 74.0173 175C73.6453 175 73.3453 174.964 73.1173 174.892C72.9013 174.82 72.7453 174.7 72.6493 174.532C72.5653 174.352 72.5113 174.196 72.4873 174.064C72.4753 173.92 72.4693 173.71 72.4693 173.434V164.398H69.0133C68.6293 164.398 68.3473 164.356 68.1673 164.272C67.9873 164.176 67.8673 164.032 67.8073 163.84C67.7473 163.648 67.7173 163.396 67.7173 163.084C67.7173 162.772 67.7473 162.526 67.8073 162.346C67.8673 162.154 67.9693 162.022 68.1133 161.95C68.3293 161.842 68.6353 161.788 69.0313 161.788Z" fill="white"/>
    <path d="M96.95 166.096L101.774 171.4C102.318 172.008 102.59 172.52 102.59 172.936C102.59 173.352 102.278 173.84 101.654 174.4C101.046 174.96 100.526 175.24 100.094 175.24C99.678 175.24 99.19 174.92 98.63 174.28L94.07 169.048L89.51 174.28C88.934 174.92 88.438 175.24 88.022 175.24C87.622 175.24 87.102 174.96 86.462 174.4C85.838 173.824 85.526 173.336 85.526 172.936C85.526 172.536 85.806 172.024 86.366 171.4L91.19 166.096L86.366 160.792C85.806 160.2 85.526 159.696 85.526 159.28C85.526 158.864 85.838 158.376 86.462 157.816C87.086 157.24 87.606 156.952 88.022 156.952C88.454 156.952 88.95 157.272 89.51 157.912L94.07 163.144L98.63 157.912C99.206 157.272 99.694 156.952 100.094 156.952C100.51 156.952 101.03 157.232 101.654 157.792C102.278 158.352 102.59 158.848 102.59 159.28C102.59 159.712 102.318 160.216 101.774 160.792L96.95 166.096Z" fill="#136695"/>
    <defs>
        <clipPath id="clip0">
            <rect width="120" height="152" fill="white"/>
        </clipPath>
    </defs>
</svg>
