<svg width="30" height="30" viewBox="0 0 30 30" fill="none" xmlns="http://www.w3.org/2000/svg">
    <path d="M0 1.57895C0 1.16018 0.166353 0.758573 0.462463 0.462463C0.758573 0.166353 1.16018 0 1.57895 0C1.99771 0 2.39932 0.166353 2.69543 0.462463C2.99154 0.758573 3.15789 1.16018 3.15789 1.57895H28.4211C28.8398 1.57895 29.2414 1.7453 29.5375 2.04141C29.8336 2.33752 30 2.73913 30 3.15789C30 3.57666 29.8336 3.97827 29.5375 4.27438C29.2414 4.57049 28.8398 4.73684 28.4211 4.73684H3.15789V29.2105C3.15789 29.4199 3.07472 29.6207 2.92666 29.7688C2.77861 29.9168 2.5778 30 2.36842 30H0.789474C0.580092 30 0.379287 29.9168 0.231232 29.7688C0.0831766 29.6207 0 29.4199 0 29.2105V1.57895Z" fill="#454545"/>
    <path d="M4.73682 7.49988C4.73682 7.18581 4.86158 6.8846 5.08366 6.66252C5.30575 6.44044 5.60695 6.31567 5.92103 6.31567H27.2368C27.5509 6.31567 27.8521 6.44044 28.0742 6.66252C28.2963 6.8846 28.421 7.18581 28.421 7.49988V20.9209C28.421 22.0725 27.9636 23.177 27.1493 23.9913C26.335 24.8056 25.2305 25.263 24.0789 25.263H9.07892C8.50871 25.263 7.94408 25.1507 7.41727 24.9325C6.89046 24.7143 6.41179 24.3945 6.00859 23.9913C5.19429 23.177 4.73682 22.0725 4.73682 20.9209V7.49988ZM11.0526 14.9367V19.7367C11.0526 19.9461 11.1358 20.1469 11.2838 20.295C11.4319 20.443 11.6327 20.5262 11.8421 20.5262H14.6052C14.7099 20.5262 14.8103 20.4846 14.8844 20.4106C14.9584 20.3366 15 20.2362 15 20.1315V18.1578C15 17.9484 15.0831 17.7476 15.2312 17.5995C15.3793 17.4515 15.5801 17.3683 15.7894 17.3683H17.3684C17.5778 17.3683 17.7786 17.4515 17.9266 17.5995C18.0747 17.7476 18.1579 17.9484 18.1579 18.1578V20.1315C18.1579 20.3494 18.3347 20.5262 18.5526 20.5262H21.3158C21.5251 20.5262 21.726 20.443 21.874 20.295C22.0221 20.1469 22.1052 19.9461 22.1052 19.7367V14.9367C22.1053 14.7087 22.0559 14.4833 21.9605 14.2761C21.8651 14.069 21.7259 13.885 21.5526 13.7367L17.0937 9.91567C16.9507 9.79336 16.7687 9.72615 16.5805 9.72615C16.3923 9.72615 16.2103 9.79336 16.0673 9.91567L11.6037 13.7367C11.4308 13.8849 11.2921 14.0688 11.197 14.2756C11.1019 14.4825 11.0526 14.7075 11.0526 14.9351V14.9367Z" fill="#454545"/>
</svg>
